<svg xmlns="http://www.w3.org/2000/svg"  viewBox="0 0 40 40" width="40px" height="40px"><path fill="#98ccfd" d="M0.5 15.5H3.5V33.5H0.5z"/><path fill="#4788c7" d="M3,16v17H1V16H3 M4,15H0v19h4V15L4,15z"/><path fill="#4788c7" d="M0.5,34h4C4.776,34,5,33.776,5,33.5l0,0C5,33.224,4.776,33,4.5,33h-4C0.224,33,0,33.224,0,33.5l0,0 C0,33.776,0.224,34,0.5,34z"/><path fill="#b6dcfe" d="M0.5,14.312l5.552-2.655C6.263,11.552,6.479,11.5,6.7,11.5c0.942,0,1.8,0.911,1.8,1.91v0.204 l-8,3.585V14.312z"/><path fill="#4788c7" d="M6.7,12c0.571,0,1.23,0.556,1.295,1.292L1,16.427v-1.8L6.283,12.1C6.417,12.034,6.557,12,6.7,12 M6.7,11c-0.288,0-0.581,0.064-0.864,0.206L0,13.997v3.974l9-4.034V13.41C9,12.102,7.891,11,6.7,11L6.7,11z"/><path fill="#dff0fe" d="M11 6.5A3.5 3.5 0 1 0 11 13.5A3.5 3.5 0 1 0 11 6.5Z"/><path fill="#4788c7" d="M11,7c1.654,0,3,1.346,3,3s-1.346,3-3,3s-3-1.346-3-3S9.346,7,11,7 M11,6c-2.209,0-4,1.791-4,4 s1.791,4,4,4s4-1.791,4-4S13.209,6,11,6L11,6z"/><path fill="#dff0fe" d="M30.977,33.5c-0.74,0-1.377-0.554-1.482-1.288l-0.978-9.315c-0.043-0.307,0-0.599,0.123-0.863 l4.949-10.647c0.245-0.527,0.781-0.868,1.363-0.868c0.218,0,0.43,0.047,0.629,0.14c0.75,0.349,1.077,1.243,0.728,1.993 l-4.757,10.233l0.909,8.883c0.059,0.417-0.042,0.812-0.282,1.132c-0.241,0.321-0.591,0.528-0.988,0.585 C31.12,33.495,31.048,33.5,30.977,33.5z"/><path fill="#4788c7" d="M34.952,11.019L34.952,11.019c0.145,0,0.285,0.031,0.419,0.093c0.5,0.232,0.718,0.829,0.485,1.329 L31.157,22.55l-0.116,0.25l0.028,0.274l0.901,8.786c0.038,0.264-0.03,0.527-0.19,0.741c-0.16,0.214-0.394,0.352-0.659,0.39 C31.073,32.997,31.025,33,30.977,33c-0.493,0-0.917-0.369-0.983-0.822l-0.984-9.37c-0.027-0.193,0.001-0.387,0.083-0.563 l4.949-10.647C34.206,11.247,34.563,11.019,34.952,11.019 M34.952,10.019c-0.754,0-1.477,0.428-1.817,1.157l-4.949,10.647 c-0.163,0.352-0.221,0.742-0.166,1.126L29,32.283C29.143,33.281,29.998,34,30.977,34c0.094,0,0.189-0.007,0.285-0.02 c1.094-0.156,1.854-1.169,1.697-2.262l-0.896-8.746l4.699-10.109c0.465-1.002,0.031-2.191-0.971-2.657 C35.52,10.079,35.234,10.019,34.952,10.019L34.952,10.019z"/><path fill="#98ccfd" d="M30.401 13.5L33.5 13.5 33.5 21.501 28.624 21.518z"/><path fill="#4788c7" d="M33,14v7.003l-3.753,0.012L30.803,14H33 M34,13h-4l-2,9.019L34,22V13L34,13z"/><path fill="#dff0fe" d="M35.998,33.5c-0.688,0-1.286-0.467-1.454-1.137l-1.996-9.317c-0.051-0.204-0.061-0.397-0.034-0.593 l1.333-9.332c0.105-0.734,0.744-1.288,1.487-1.288c0.069,0,0.14,0.005,0.21,0.015c0.396,0.057,0.748,0.264,0.988,0.584 c0.24,0.321,0.341,0.715,0.285,1.112l-1.29,9.034l1.922,9.04c0.102,0.406,0.042,0.81-0.165,1.153 c-0.206,0.344-0.534,0.586-0.922,0.683C36.243,33.485,36.12,33.5,35.998,33.5z"/><path fill="#4788c7" d="M35.336,12.333c0.046,0,0.093,0.003,0.139,0.01c0.265,0.038,0.499,0.176,0.659,0.39 c0.16,0.214,0.228,0.477,0.19,0.741l-1.278,8.946l-0.025,0.176l0.037,0.174l1.913,8.988c0.065,0.259,0.025,0.528-0.112,0.757 c-0.137,0.229-0.356,0.391-0.617,0.456c-0.08,0.02-0.161,0.03-0.242,0.03c-0.459,0-0.857-0.312-0.961-0.725l-2.008-9.368 c-0.031-0.124-0.038-0.253-0.019-0.382l1.333-9.333C34.413,12.702,34.84,12.333,35.336,12.333 M35.336,11.333 c-0.975,0-1.839,0.718-1.982,1.717l-1.333,9.333c-0.036,0.256-0.023,0.517,0.04,0.768l2,9.333C34.287,33.393,35.102,34,35.998,34 c0.16,0,0.324-0.02,0.486-0.061c1.072-0.268,1.723-1.354,1.455-2.425l-1.905-8.953l1.278-8.946 c0.156-1.093-0.604-2.106-1.697-2.262C35.522,11.34,35.428,11.333,35.336,11.333L35.336,11.333z"/><g><path fill="#b6dcfe" d="M20.207,13.5l-3.701-3.701C16.61,7.962,18.138,6.5,20,6.5h16c1.93,0,3.5,1.57,3.5,3.5 s-1.57,3.5-3.5,3.5H20.207z"/><path fill="#4788c7" d="M36,7c1.654,0,3,1.346,3,3s-1.346,3-3,3H20.414l-3.389-3.389C17.216,8.14,18.478,7,20,7H36 M36,6H20 c-2.2,0-4,1.8-4,4v0l4,4h16c2.2,0,4-1.8,4-4v0C40,7.8,38.2,6,36,6L36,6z"/></g><g><path fill="#b6dcfe" d="M32.5,21.5v-15H36c1.93,0,3.5,1.57,3.5,3.5c0,2.489-2.322,9.824-2.863,11.5H32.5z"/><path fill="#4788c7" d="M36,7c1.654,0,3,1.346,3,3c0,2.077-1.798,8.108-2.726,11H33V7H36 M36,6h-4v16h5c0,0,3-9.083,3-12 C40,7.8,38.2,6,36,6L36,6z"/></g><path fill="none" stroke="#4788c7" stroke-width="2" d="M22 28L14 20"/><g><path fill="#98ccfd" d="M11.172 17.879H15.829V21.122H11.172z" transform="rotate(-45.001 13.5 19.5)"/><path fill="#4788c7" d="M14,17.414L15.586,19L13,21.586L11.414,20L14,17.414 M14,16l-4,4l3,3l4-4L14,16L14,16z"/></g><g><path fill="#98ccfd" d="M20.172 26.879H24.829V30.122H20.172z" transform="rotate(-45.001 22.5 28.5)"/><path fill="#4788c7" d="M23,26.414L24.586,28L22,30.586L20.414,29L23,26.414 M23,25l-4,4l3,3l4-4L23,25L23,25z"/></g><g><path fill="#dff0fe" d="M17.999,25.5c-0.344,0-0.667-0.113-0.936-0.328c-0.646-0.517-0.751-1.463-0.234-2.109l4.489-4.552 l-4.258-7.065C16.678,10.981,16.5,10.503,16.5,10c0-1.729,0.771-2.5,2.5-2.5c0.91,0,1.727,0.583,2.034,1.449l3.334,9.185 c0.229,0.536,0.149,1.121-0.197,1.554L19.2,24.905C18.885,25.295,18.458,25.5,17.999,25.5z"/><path fill="#4788c7" d="M19,8c0.698,0,1.326,0.448,1.565,1.123l3.334,9.181l0.01,0.027l0.011,0.026 c0.141,0.329,0.096,0.705-0.116,0.99l-4.965,5.213l-0.03,0.031l-0.027,0.034C18.59,24.863,18.305,25,17.999,25 c-0.16,0-0.397-0.038-0.623-0.219c-0.209-0.167-0.34-0.405-0.369-0.671c-0.028-0.251,0.038-0.498,0.187-0.701l4.208-4.271 l0.545-0.553l-0.401-0.665l-4.058-6.732l-0.04-0.067l-0.05-0.06C17.216,10.846,17,10.486,17,10C17,8.542,17.542,8,19,8 M19,7 c-1.473,0-3,0.511-3,3c0,0.652,0.243,1.241,0.632,1.705l4.058,6.732l-4.251,4.314c-0.69,0.863-0.55,2.121,0.313,2.811 C17.119,25.857,17.561,26,17.999,26c0.587,0,1.168-0.257,1.563-0.751l5-5.249c0.461-0.576,0.567-1.359,0.277-2.037l-3.334-9.181 C21.139,7.746,20.161,7,19,7L19,7z"/></g></svg>