<svg xmlns="http://www.w3.org/2000/svg"  viewBox="0 0 40 40" width="40px" height="40px"><path fill="#dff0fe" d="M14.034,38.5c-0.277,0-0.549-0.076-0.788-0.219c-0.726-0.436-0.962-1.381-0.526-2.107l3.781-6.423 V22.5h3v7.643c0,0.278-0.076,0.552-0.219,0.79l-3.933,6.829C15.072,38.221,14.58,38.5,14.034,38.5z"/><path fill="#4788c7" d="M19,23v7.143c0,0.188-0.051,0.372-0.157,0.549l-3.919,6.806C14.735,37.812,14.402,38,14.034,38 c-0.186,0-0.37-0.051-0.531-0.148c-0.49-0.294-0.649-0.932-0.351-1.429l3.71-6.302L17,29.887v-0.272V23H19 M20,22h-4v7.615 l-3.71,6.302c-0.579,0.964-0.266,2.215,0.698,2.793c0.328,0.197,0.689,0.29,1.046,0.29c0.692,0,1.366-0.353,1.747-0.988 l3.928-6.821C19.9,30.874,20,30.512,20,30.143V22L20,22z"/><path fill="#dff0fe" d="M19.5 1.5A3 3 0 1 0 19.5 7.5A3 3 0 1 0 19.5 1.5Z"/><path fill="#4788c7" d="M19.5,2C20.878,2,22,3.122,22,4.5S20.878,7,19.5,7S17,5.878,17,4.5S18.122,2,19.5,2 M19.5,1 C17.567,1,16,2.567,16,4.5S17.567,8,19.5,8S23,6.433,23,4.5S21.433,1,19.5,1L19.5,1z"/><path fill="#b6dcfe" d="M16.5,22.5v-10c0-0.616,1.023-2.064,1.827-3H19.5c1.654,0,3,1.346,3,3v10H16.5z"/><path fill="#4788c7" d="M19.5,10c1.378,0,2.5,1.122,2.5,2.5V22h-5l0-9.499c0.012-0.369,0.723-1.497,1.559-2.501H19.5 M19.5,9c-0.786,0-1.4,0-1.4,0S16,11.361,16,12.5V23h7V12.5C23,10.575,21.425,9,19.5,9L19.5,9z"/><path fill="#98ccfd" d="M16.5 21.5H19.5V28.5H16.5z"/><path fill="#4788c7" d="M19,22v6h-2v-6H19 M20,21h-4v8h4V21L20,21z"/><path fill="#dff0fe" d="M24.961,38.5c-0.752,0-1.388-0.54-1.512-1.283l-1.477-7.108L16.877,21.5h5.749l2.173,7.385 c0.101,0.219,0.148,0.366,0.173,0.517l1.51,7.329c0.136,0.816-0.431,1.609-1.266,1.748C25.13,38.494,25.045,38.5,24.961,38.5z"/><path fill="#4788c7" d="M22.252,22l2.067,7.027l0.025,0.085l0.04,0.08c0.046,0.092,0.078,0.19,0.102,0.331l1.5,7.272 c0.046,0.273-0.018,0.547-0.179,0.772c-0.161,0.225-0.4,0.374-0.675,0.42C25.074,37.996,25.018,38,24.961,38 c-0.507,0-0.935-0.364-1.026-0.905l-1.456-7.007l-0.034-0.163l-0.085-0.143L17.754,22H22.252 M23,21h-7l5.5,9.292l1.456,7.007 C23.122,38.295,23.985,39,24.961,39c0.111,0,0.224-0.009,0.337-0.028c1.109-0.185,1.858-1.233,1.673-2.343l-1.507-7.309 c-0.033-0.2-0.096-0.394-0.187-0.576L23,21L23,21z"/><g><path fill="#dff0fe" d="M18,19.5c-0.33,0-0.655-0.111-0.917-0.313C16.718,18.905,16.5,18.462,16.5,18v-7 c0-0.827,0.673-1.5,1.5-1.5s1.5,0.673,1.5,1.5v5.057l7.558-1.977c0.125-0.033,0.253-0.049,0.38-0.049 c0.682,0,1.278,0.461,1.451,1.121c0.209,0.8-0.271,1.622-1.071,1.831l-9.438,2.469C18.256,19.483,18.128,19.5,18,19.5z"/><path fill="#4788c7" d="M18,10c0.551,0,1,0.449,1,1v4.41v1.295l1.253-0.328l6.93-1.813c0.084-0.022,0.17-0.033,0.255-0.033 c0.454,0,0.852,0.307,0.967,0.747c0.139,0.534-0.181,1.081-0.714,1.221l-9.436,2.468C18.171,18.989,18.085,19,18,19 c-0.22,0-0.437-0.074-0.611-0.209C17.145,18.604,17,18.308,17,18v-7C17,10.449,17.449,10,18,10 M18,9c-1.104,0-2,0.896-2,2v7 c0,0.62,0.287,1.205,0.778,1.583C17.132,19.856,17.562,20,18,20c0.169,0,0.339-0.021,0.506-0.065l9.438-2.469 c1.068-0.28,1.708-1.373,1.429-2.441c-0.235-0.899-1.046-1.494-1.934-1.494c-0.167,0-0.338,0.021-0.507,0.065L20,15.41V11 C20,9.896,19.104,9,18,9L18,9z"/></g><g><path fill="#98ccfd" d="M27.5 12.5A3 3 0 1 0 27.5 18.5A3 3 0 1 0 27.5 12.5Z"/><path fill="#4788c7" d="M27.5,13c1.378,0,2.5,1.122,2.5,2.5S28.878,18,27.5,18S25,16.878,25,15.5S26.122,13,27.5,13 M27.5,12c-1.925,0-3.5,1.576-3.5,3.5s1.575,3.5,3.5,3.5s3.5-1.576,3.5-3.5S29.425,12,27.5,12L27.5,12z"/></g><path fill="#4788c7" d="M27.5,15c0.276,0,0.5,0.224,0.5,0.5S27.776,16,27.5,16c-0.276,0-0.5-0.224-0.5-0.5S27.224,15,27.5,15"/><g><path fill="#b6dcfe" d="M21.009 28.5L16.876 21.5 22.626 21.5 24.686 28.5z"/><path fill="#4788c7" d="M22.252,22l1.765,6h-2.723l-3.543-6H22.252 M23,21h-7l4.724,8h4.638 c-0.029-0.085-0.043-0.175-0.083-0.256L23,21L23,21z"/></g></svg>