<svg xmlns="http://www.w3.org/2000/svg"  viewBox="0 0 40 40" width="40px" height="40px"><path fill="#4788c7" d="M39.5,34h-39C0.225,34,0,33.775,0,33.5l0,0C0,33.225,0.225,33,0.5,33h39c0.275,0,0.5,0.225,0.5,0.5 l0,0C40,33.775,39.775,34,39.5,34z"/><path fill="#dff0fe" d="M6.5 6.5A3 3 0 1 0 6.5 12.5A3 3 0 1 0 6.5 6.5Z"/><path fill="#4788c7" d="M6.5,7C7.879,7,9,8.121,9,9.5S7.879,12,6.5,12S4,10.879,4,9.5S5.121,7,6.5,7 M6.5,6 C4.567,6,3,7.566,3,9.5C3,11.432,4.567,13,6.5,13S10,11.432,10,9.5C10,7.566,8.433,6,6.5,6L6.5,6z"/><path fill="#98ccfd" d="M18.033,32.167c-1.053,0-2.03-0.522-2.613-1.397L8.03,19.383c-0.962-1.443-0.572-3.395,0.867-4.354 c0.518-0.346,1.117-0.528,1.735-0.528c1.053,0,2.029,0.522,2.613,1.398l7.391,11.388c0.468,0.701,0.633,1.537,0.469,2.358 c-0.164,0.822-0.639,1.53-1.336,1.995C19.254,31.984,18.653,32.167,18.033,32.167z"/><path fill="#4788c7" d="M10.633,15L10.633,15c0.885,0,1.706,0.439,2.19,1.165l7.4,11.403 c0.806,1.209,0.478,2.849-0.732,3.656c-0.434,0.289-0.938,0.442-1.458,0.442c-0.886,0-1.707-0.439-2.19-1.164L8.443,19.1 c-0.806-1.209-0.478-2.849,0.732-3.656C9.61,15.153,10.114,15,10.633,15 M10.633,14C9.94,14,9.24,14.198,8.62,14.612 c-1.671,1.114-2.123,3.372-1.009,5.043l7.393,11.392c0.7,1.051,1.854,1.619,3.029,1.619c0.692,0,1.394-0.197,2.013-0.611 c1.671-1.114,2.123-3.372,1.009-5.043l-7.393-11.392C12.961,14.57,11.808,14,10.633,14L10.633,14z"/><g><path fill="#b6dcfe" d="M18.258,32.5c-1.054,0-2.03-0.522-2.613-1.396l-1.203-1.854l5.646-4.157l4.928-3.776 c0.164-0.157,0.295-0.252,0.44-0.325l8.87-4.331c0.214-0.106,0.439-0.159,0.673-0.159c0.573,0,1.088,0.317,1.344,0.828 c0.369,0.739,0.068,1.643-0.671,2.013l-8.68,4.235l-0.069,0.086c-0.057,0.07-5.705,7.051-6.397,7.855 c-0.168,0.179-0.346,0.333-0.529,0.454C19.478,32.317,18.877,32.5,18.258,32.5z"/><path fill="#4788c7" d="M34.997,17c0.383,0,0.727,0.211,0.896,0.551c0.246,0.493,0.046,1.096-0.438,1.338l-8.584,4.188 l-0.199,0.097l-0.14,0.172c-0.057,0.07-5.7,7.044-6.359,7.812c-0.156,0.167-0.306,0.297-0.457,0.398 C19.282,31.847,18.778,32,18.258,32c-0.886,0-1.707-0.439-2.19-1.164l-0.95-1.464l5.281-3.889l4.921-3.771l0.052-0.04l0.047-0.047 c0.077-0.077,0.164-0.14,0.251-0.184l8.88-4.337C34.691,17.036,34.842,17,34.997,17 M34.997,16c-0.3,0-0.605,0.068-0.892,0.21 l-8.874,4.334c-0.193,0.096-0.367,0.223-0.52,0.375L19.79,24.69l-6.024,4.436l1.463,2.254c0.7,1.051,1.854,1.619,3.029,1.619 c0.692,0,1.394-0.197,2.014-0.611c0.238-0.159,0.444-0.346,0.632-0.546c0.705-0.82,6.407-7.867,6.407-7.867l8.584-4.188 c0.988-0.495,1.388-1.695,0.895-2.684C36.438,16.404,35.732,16,34.997,16L34.997,16z"/></g><g><path fill="#dff0fe" d="M9.997,17.5c-0.754,0-1.392-0.564-1.485-1.313c-0.05-0.397,0.059-0.791,0.305-1.107 c0.246-0.316,0.601-0.518,0.997-0.567l7.49-0.937l4.636-4.636C22.223,8.656,22.6,8.5,23,8.5s0.777,0.156,1.061,0.439 c0.585,0.585,0.585,1.536,0,2.121l-5,5c-0.235,0.235-0.546,0.387-0.874,0.428l-8.001,1C10.122,17.496,10.06,17.5,9.997,17.5z"/><path fill="#4788c7" d="M23,9c0.267,0,0.518,0.104,0.707,0.293c0.39,0.39,0.39,1.024,0,1.414l-5,5 c-0.157,0.157-0.363,0.258-0.583,0.285l-8.003,1C10.08,16.998,10.038,17,9.997,17c-0.502,0-0.927-0.376-0.989-0.876 c-0.033-0.265,0.039-0.527,0.203-0.738c0.164-0.211,0.4-0.345,0.665-0.378l7.319-0.915l0.34-0.043l0.243-0.243l4.515-4.515 C22.482,9.104,22.733,9,23,9 M23,8c-0.512,0-1.023,0.195-1.414,0.586l-4.515,4.515l-7.319,0.915 c-1.096,0.137-1.873,1.137-1.736,2.232C8.142,17.26,9.004,18,9.997,18c0.083,0,0.167-0.005,0.251-0.016l8-1 c0.441-0.055,0.852-0.256,1.166-0.57l5-5c0.781-0.781,0.781-2.047,0-2.828C24.023,8.195,23.512,8,23,8L23,8z"/></g></svg>