<svg xmlns="http://www.w3.org/2000/svg"  viewBox="0 0 40 40" width="40px" height="40px"><path fill="#dff0fe" d="M19.035,38.5c-0.352,0-0.683-0.116-0.958-0.336c-0.662-0.53-0.77-1.498-0.241-2.159l5.522-6.719 L20.5,25.891V20.5h3v0.587l2.943,8.225c0.137,0.458,0.036,0.981-0.28,1.376l-5.925,7.232C19.942,38.29,19.505,38.5,19.035,38.5z"/><path fill="#4788c7" d="M23,21v0.173l0.058,0.163l2.904,8.115c0.089,0.32,0.019,0.664-0.182,0.915l-5.936,7.245 C19.647,37.858,19.352,38,19.035,38c-0.165,0-0.411-0.039-0.646-0.228c-0.446-0.357-0.518-1.01-0.17-1.445l5.262-6.402l0.528-0.643 l-0.536-0.636L21,25.709V21H23 M24,20h-4v6.073l2.708,3.217l-5.262,6.402c-0.702,0.879-0.56,2.159,0.318,2.861 C18.139,38.854,18.589,39,19.035,39c0.597,0,1.189-0.261,1.591-0.763L26.554,31c0.417-0.522,0.552-1.217,0.36-1.857L24,21V20L24,20 z"/><path fill="#4788c7" d="M19.167,33.598l-1.721,2.094c-0.702,0.879-0.56,2.159,0.318,2.861 C18.139,38.854,18.589,39,19.035,39c0.597,0,1.189-0.261,1.591-0.763l1.328-1.621L19.167,33.598z"/><path fill="#dff0fe" d="M20.965,38.5c-0.47,0-0.908-0.21-1.2-0.576l-5.933-7.24c-0.312-0.391-0.413-0.914-0.268-1.396 l2.935-8.2V20.5h3v5.32l-2.855,3.47l5.523,6.72c0.525,0.656,0.417,1.624-0.244,2.153C21.648,38.384,21.317,38.5,20.965,38.5z"/><path fill="#4788c7" d="M19,21v4.641l-2.48,3.013l-0.523,0.635l0.522,0.635l5.253,6.391 c0.357,0.446,0.284,1.099-0.163,1.457C21.376,37.961,21.131,38,20.965,38c-0.317,0-0.613-0.142-0.818-0.397l-5.921-7.227 c-0.208-0.26-0.278-0.604-0.189-0.924l2.904-8.115L17,21.174V21H19 M20,20h-4v1l-2.914,8.143c-0.192,0.64-0.058,1.335,0.36,1.857 l5.929,7.237C19.777,38.739,20.368,39,20.965,39c0.446,0,0.895-0.146,1.27-0.447c0.878-0.702,1.021-1.983,0.318-2.861l-5.262-6.402 L20,26V20L20,20z"/><path fill="#b6dcfe" d="M22.76 28.5L19.999 25.222 17.259 28.5 13.847 28.5 16.5 21.087 16.5 20.5 23.5 20.5 23.5 21.087 26.156 28.5z"/><path fill="#4788c7" d="M23,21v0.174l0.059,0.164L25.446,28h-2.453l-2.228-2.644l-0.768-0.912l-0.764,0.915L17.025,28 h-2.469l2.385-6.663L17,21.174V21l3,0H23 M24,20h-4l-4,0v1l-2.863,8h4.356L20,26l2.527,3h4.339L24,21V20L24,20z"/><path fill="#dff0fe" d="M16.5,20.5v-5.877l-4.472,1.601l-0.051,0.034c-0.253,0.169-0.547,0.258-0.85,0.258 c-0.022-0.007-0.057-0.012-0.093-0.015l-0.127,0.001c-0.587,0-1.112-0.32-1.37-0.836l-1.854-4.897 C7.284,9.966,7.593,9.041,8.35,8.662C8.564,8.555,8.795,8.5,9.034,8.5c0.586,0,1.114,0.325,1.376,0.85l1.244,3.41l4.531-1.801 l0.667-0.381c0.116-0.041,0.308-0.078,0.505-0.078h5.429c0.197,0,0.389,0.037,0.57,0.109l0.537,0.317l4.449,1.838l1.271-3.411 c0.241-0.475,0.768-0.8,1.354-0.8c0.239,0,0.469,0.055,0.686,0.162c0.756,0.379,1.064,1.304,0.687,2.061l-1.894,4.935 c-0.238,0.471-0.763,0.791-1.351,0.791l-0.127-0.001c-0.036,0.003-0.108,0.014-0.11,0.014c-0.289,0-0.581-0.089-0.833-0.257 l-0.051-0.034L23.5,14.623V20.5H16.5z"/><path fill="#4788c7" d="M9.034,9L9.034,9c0.38,0,0.723,0.203,0.907,0.532l1.067,2.917l0.353,0.966l0.956-0.38l4.053-1.612 l0.068-0.027l0.063-0.037l0.529-0.306C17.135,11.018,17.245,11,17.357,11h2.714h2.714c0.113,0,0.222,0.018,0.327,0.053l0.529,0.306 l0.058,0.034l0.062,0.026l3.91,1.612l0.957,0.394l0.361-0.97l1.068-2.867c0.184-0.33,0.527-0.534,0.908-0.534 c0.161,0,0.316,0.037,0.461,0.109c0.511,0.256,0.719,0.88,0.464,1.391l-0.022,0.043l-0.017,0.045l-1.854,4.837 c-0.178,0.323-0.521,0.522-0.949,0.522c-0.001,0-0.002,0-0.003,0l-0.053-0.002l-0.053,0.003c-0.037,0.002-0.075,0.007-0.114,0.012 c-0.187-0.009-0.366-0.068-0.523-0.172l-0.102-0.068l-0.116-0.042l-3.746-1.34L23,13.914v1.42V20h-6v-4.667v-1.42l-1.337,0.478 l-3.746,1.34l-0.116,0.042l-0.102,0.068c-0.156,0.104-0.336,0.163-0.522,0.172c-0.038-0.005-0.076-0.01-0.114-0.012L10.96,16 l-0.053,0.002c-0.383,0-0.725-0.199-0.904-0.522L8.15,10.592l-0.018-0.047L8.11,10.5C7.855,9.989,8.063,9.365,8.573,9.11 C8.718,9.037,8.874,9,9.034,9 M9.034,8C8.728,8,8.418,8.069,8.126,8.215C7.12,8.719,6.713,9.941,7.215,10.947L9.09,15.89 c0.354,0.708,1.069,1.112,1.818,1.112c0.031,0,0.062-0.001,0.093-0.002c0.043,0.003,0.084,0.015,0.127,0.015 c0.388,0,0.78-0.11,1.127-0.342L16,15.333V21h8v-5.667l3.746,1.34c0.347,0.232,0.74,0.342,1.127,0.342 c0.043,0,0.084-0.013,0.127-0.015c0.031,0.001,0.062,0.002,0.093,0.002c0.749,0,1.464-0.404,1.818-1.112L32.785,11 c0.502-1.006,0.095-2.228-0.911-2.732c-0.292-0.146-0.603-0.215-0.909-0.215c-0.746,0-1.465,0.412-1.823,1.126l-1.09,2.927 l-3.91-1.612l-0.601-0.348C23.301,10.049,23.045,10,22.786,10h-2.714h-2.714c-0.259,0-0.516,0.049-0.756,0.146L16,10.494 l-4.053,1.612l-1.09-2.98C10.499,8.412,9.781,8,9.034,8L9.034,8z"/><g><path fill="#dff0fe" d="M20 1.5A3.5 3.5 0 1 0 20 8.5A3.5 3.5 0 1 0 20 1.5Z"/><path fill="#4788c7" d="M20,2c1.654,0,3,1.346,3,3s-1.346,3-3,3s-3-1.346-3-3S18.346,2,20,2 M20,1c-2.209,0-4,1.791-4,4 c0,2.208,1.791,4,4,4s4-1.792,4-4C24,2.791,22.209,1,20,1L20,1z"/></g><g><path fill="#98ccfd" d="M16.5,20.5v-9.325c0-0.372,0.351-0.675,0.781-0.675h5.438c0.431,0,0.781,0.303,0.781,0.675V20.5 H16.5z"/><path fill="#4788c7" d="M22.719,11C22.89,11,23,11.103,23,11.174V20h-6v-8.826C17,11.103,17.11,11,17.281,11H22.719 M22.719,10h-5.438C16.574,10,16,10.526,16,11.174V21h8v-9.826C24,10.526,23.426,10,22.719,10L22.719,10z"/></g><path fill="#4788c7" d="M38.5,11h-37C1.225,11,1,10.775,1,10.5v0C1,10.225,1.225,10,1.5,10h37c0.275,0,0.5,0.225,0.5,0.5v0 C39,10.775,38.775,11,38.5,11z"/></svg>