<svg xmlns="http://www.w3.org/2000/svg"  viewBox="0 0 40 40" width="40px" height="40px"><path fill="#4788c7" d="M39.5,30h-39C0.225,30,0,29.775,0,29.5l0,0C0,29.225,0.225,29,0.5,29h39c0.275,0,0.5,0.225,0.5,0.5 l0,0C40,29.775,39.775,30,39.5,30z"/><path fill="#dff0fe" d="M38.005,28.46c-0.203,0-0.398-0.039-0.58-0.116l-25.54-9.83l-2.16-4.367 c0.459-0.993,1.467-1.646,2.57-1.646c0.339,0,0.675,0.062,0.997,0.182l10.644,4.292c1.335,0.501,2.086,1.92,1.759,3.305 l-0.101,0.429l13.011,4.877c0.743,0.314,1.103,1.196,0.782,1.958C39.154,28.1,38.611,28.46,38.005,28.46z"/><path fill="#4788c7" d="M12.297,13c0.279,0,0.556,0.05,0.798,0.141l10.679,4.305c1.089,0.408,1.706,1.576,1.436,2.717 l-0.203,0.857l0.825,0.309l12.561,4.708c0.509,0.215,0.748,0.802,0.534,1.311c-0.156,0.372-0.518,0.612-0.922,0.612 c-0.134,0-0.265-0.026-0.416-0.09l-25.342-9.754l-1.96-3.965C10.701,13.45,11.466,13,12.297,13 M12.297,12 c-1.35,0-2.618,0.826-3.119,2.164l2.347,4.746l25.706,9.894c0.253,0.107,0.516,0.156,0.775,0.156c0.781,0,1.522-0.46,1.844-1.224 c0.429-1.018-0.049-2.19-1.067-2.62l-12.599-4.723c0.381-1.609-0.47-3.288-2.058-3.883l-10.656-4.297 C13.082,12.069,12.686,12,12.297,12L12.297,12z"/><path fill="#dff0fe" d="M4.5 9.5A3 3 0 1 0 4.5 15.5A3 3 0 1 0 4.5 9.5Z"/><path fill="#4788c7" d="M4.5,10C5.878,10,7,11.121,7,12.5S5.878,15,4.5,15S2,13.879,2,12.5S3.122,10,4.5,10 M4.5,9 C2.567,9,1,10.567,1,12.5C1,14.432,2.567,16,4.5,16S8,14.432,8,12.5C8,10.567,6.433,9,4.5,9L4.5,9z"/><path fill="#98ccfd" d="M11.856,18.502l-2.339-3.641c0.011-0.132,0.043-0.294,0.128-0.521 c0.412-1.101,1.478-1.84,2.651-1.84c0.34,0,0.675,0.062,0.997,0.182l10.271,4.142l-1.956,5.433L11.856,18.502z"/><path fill="#4788c7" d="M12.297,13c0.279,0,0.556,0.05,0.798,0.141l9.836,3.966l-1.62,4.499l-9.123-3.512L10.04,14.75 c0.015-0.064,0.038-0.141,0.074-0.236C10.453,13.609,11.33,13,12.297,13 M12.297,12c-1.35,0-2.618,0.826-3.119,2.164 C9.032,14.55,9.012,14.8,9.012,15l2.512,3.91l10.383,3.997l2.29-6.361c-0.025-0.01-0.046-0.025-0.072-0.035l-10.656-4.297 C13.082,12.069,12.686,12,12.297,12L12.297,12z"/><g><path fill="#dff0fe" d="M9.999,28.5c-0.327,0-0.637-0.104-0.898-0.3c-0.662-0.496-0.797-1.438-0.3-2.101l3.505-4.671 l-2.703-5.895c-0.139-0.35-0.134-0.757,0.023-1.125s0.45-0.652,0.821-0.802c0.179-0.071,0.366-0.107,0.557-0.107 c0.617,0,1.164,0.37,1.393,0.943l3.004,6.687c0.185,0.463,0.111,1.021-0.201,1.438l-4,5.334C10.915,28.281,10.476,28.5,9.999,28.5z"/><path fill="#4788c7" d="M11.004,14c0.411,0,0.776,0.247,0.945,0.668l2.98,6.629c0.129,0.322,0.08,0.694-0.128,0.971 l-4,5.333C10.61,27.855,10.317,28,9.999,28c-0.217,0-0.424-0.069-0.598-0.2C8.959,27.47,8.869,26.841,9.2,26.4l3.326-4.434 l0.357-0.476l-0.248-0.541l-2.559-5.579c-0.099-0.248-0.096-0.519,0.009-0.764c0.105-0.245,0.3-0.435,0.547-0.534 C10.752,14.024,10.877,14,11.004,14 M11.004,13c-0.247,0-0.499,0.046-0.742,0.144c-1.025,0.41-1.524,1.574-1.114,2.599l2.579,5.624 L8.4,25.8c-0.663,0.884-0.483,2.138,0.4,2.801C9.16,28.87,9.581,29,9.999,29c0.608,0,1.208-0.276,1.602-0.799l4-5.333 c0.419-0.559,0.516-1.296,0.257-1.943l-2.996-6.667C12.549,13.476,11.798,13,11.004,13L11.004,13z"/></g><g><path fill="#b6dcfe" d="M21.104,22.052l1.941-5.45l0.888,0.37c1.34,0.503,2.092,1.922,1.764,3.307l-0.101,0.429l4.334,1.621 l-0.951,2.739L21.104,22.052z"/><path fill="#4788c7" d="M23.339,17.265l0.435,0.181c1.089,0.408,1.706,1.576,1.436,2.717l-0.203,0.858l0.826,0.309 l3.465,1.296l-0.622,1.79l-6.937-2.657L23.339,17.265 M22.75,15.938l-2.281,6.406l8.813,3.375l1.281-3.688l-4.379-1.638 c0.381-1.609-0.47-3.288-2.058-3.883L22.75,15.938L22.75,15.938z"/></g></svg>