<svg xmlns="http://www.w3.org/2000/svg"  viewBox="0 0 40 40" width="40px" height="40px"><path fill="#dff0fe" d="M28.5 1.5A3 3 0 1 0 28.5 7.5A3 3 0 1 0 28.5 1.5Z"/><path fill="#4788c7" d="M28.5,2C29.879,2,31,3.122,31,4.5S29.879,7,28.5,7S26,5.878,26,4.5S27.121,2,28.5,2 M28.5,1 C26.567,1,25,2.567,25,4.5S26.567,8,28.5,8S32,6.433,32,4.5S30.433,1,28.5,1L28.5,1z"/><path fill="#dff0fe" d="M21.998,38.5c-0.234,0-0.459-0.053-0.669-0.158c-0.74-0.37-1.041-1.272-0.671-2.013l3.604-7.208 l-5.763-5.34V19.5h2.25l6.429,8.572c0.357,0.46,0.42,1.085,0.163,1.6l-4,7.999C23.086,38.183,22.571,38.5,21.998,38.5z"/><path fill="#4788c7" d="M20.5,20l6.29,8.387c0.235,0.301,0.276,0.718,0.105,1.061l-4,8C22.724,37.788,22.381,38,21.998,38 c-0.156,0-0.306-0.035-0.445-0.105c-0.493-0.247-0.694-0.849-0.447-1.342l3.437-6.872l0.335-0.671l-0.55-0.51L19,23.563V20H20.5 M21,19h-3v5l5.647,5.233l-3.437,6.872c-0.494,0.988-0.094,2.189,0.895,2.684C21.393,38.933,21.698,39,21.998,39 c0.734,0,1.44-0.404,1.791-1.105l4-8c0.344-0.689,0.263-1.515-0.21-2.122L21,19L21,19z"/><path fill="#dff0fe" d="M4,28.5c-0.827,0-1.5-0.673-1.5-1.5s0.673-1.5,1.5-1.5h7.35l5.973-9.081 c0.382,0.104,1.393,0.797,2.565,2.011c1.186,1.228,1.62,2.025,1.677,2.293l-8.372,7.2C12.854,28.31,12.438,28.5,12,28.5H4z"/><path fill="#4788c7" d="M17.508,17.047c0.998,0.575,2.965,2.569,3.461,3.521l-8.103,6.976l-0.058,0.05l-0.049,0.058 C12.569,27.873,12.292,28,12,28H4c-0.551,0-1-0.449-1-1s0.449-1,1-1h7.08h0.539l0.296-0.45L17.508,17.047 M17.237,15.906 c-0.101,0-0.182,0.03-0.237,0.094l-5.92,9H4c-1.104,0-2,0.896-2,2s0.896,2,2,2h8c0.584,0,1.139-0.255,1.519-0.698L22,21 C22.664,20.226,18.454,15.905,17.237,15.906L17.237,15.906z"/><path fill="#dff0fe" d="M15.762,18.792l1.656-2.518L21.751,9.5h-5.226l-4.589,3.671c-0.269,0.215-0.592,0.329-0.936,0.329 c-0.459,0-0.886-0.205-1.172-0.563c-0.251-0.313-0.364-0.704-0.32-1.103c0.045-0.398,0.241-0.755,0.555-1.005l5-4 C15.328,6.616,15.66,6.5,16,6.5h6c0.34,0,0.672,0.116,0.937,0.328l5,4.001c0.192,0.153,0.345,0.353,0.441,0.579l2.61,6.092H36 c0.827,0,1.5,0.673,1.5,1.5s-0.673,1.5-1.5,1.5h-6c-0.602,0-1.143-0.356-1.378-0.908l-2.561-5.975l-4.056,7.04L21.3,22.023 L15.762,18.792z"/><path fill="#4788c7" d="M22,7c0.226,0,0.448,0.078,0.624,0.219l5.002,4.002c0.127,0.101,0.228,0.233,0.292,0.385l2.48,5.788 L30.659,18h0.659H36c0.551,0,1,0.449,1,1s-0.449,1-1,1h-6c-0.401,0-0.761-0.237-0.919-0.606l-2.167-5.055l-0.788-1.838 l-0.998,1.732l-3.578,6.214l-0.454,0.878l-4.627-2.699l1.372-2.088l3.838-6L22.665,9h-1.827h-4.137H16.35l-0.274,0.219 l-4.452,3.562C11.398,12.962,11.16,13,11.001,13c-0.306,0-0.591-0.137-0.782-0.376c-0.167-0.209-0.243-0.47-0.213-0.735 c0.03-0.265,0.161-0.503,0.37-0.67l5.001-4.001C15.552,7.078,15.774,7,16,7H22 M22,6h-6c-0.454,0-0.895,0.154-1.249,0.438l-5,4 c-0.863,0.689-1.003,1.948-0.313,2.811C9.833,13.743,10.414,14,11.001,14c0.438,0,0.88-0.143,1.248-0.438L16.701,10h4.137L17,16 l-1.917,2.917c-0.009,0.016,0.181,0.165,0.197,0.174l6.193,3.612c0.005,0.003,0.011,0.004,0.016,0.004 c0.012,0,0.023-0.006,0.029-0.018l0.921-1.782l3.556-6.174l2.167,5.055C28.477,20.523,29.2,21,30,21h6c1.104,0,2-0.896,2-2 s-0.896-2-2-2h-4.682l-2.48-5.788c-0.129-0.302-0.331-0.568-0.589-0.773l-5-4C22.895,6.154,22.454,6,22,6L22,6z"/><g><path fill="#b6dcfe" d="M15.762 18.792L17.418 16.274 21.751 9.5 21.732 9.5 23.267 7.093 27.752 10.682 22.006 20.657 21.3 22.023z"/><path fill="#4788c7" d="M23.389,7.831l3.716,2.973l-5.554,9.644l-0.454,0.878l-4.627-2.699l1.372-2.088l3.838-6L22.648,9 h-0.004L23.389,7.831 M23.138,6.364L20.822,10h0.017L17,16l-1.917,2.917c-0.009,0.016,0.181,0.165,0.197,0.174l6.193,3.612 c0.005,0.003,0.011,0.004,0.016,0.004c0.012,0,0.023-0.006,0.029-0.018l0.921-1.782l5.948-10.327 c-0.047-0.046-0.086-0.1-0.139-0.142l-5-4C23.214,6.41,23.174,6.389,23.138,6.364L23.138,6.364z"/></g><g><path fill="#98ccfd" d="M11.689 24.983L16.279 18.012 21.159 21.064 13.601 27.571z"/><path fill="#4788c7" d="M16.428,18.695l3.891,2.433l-6.636,5.713l-1.384-1.874L16.428,18.695 M16.129,17.329L11.08,25 l2.438,3.302L22,21L16.129,17.329L16.129,17.329z"/></g><g><path fill="#b6dcfe" d="M18.34,23.633c-1.453-0.937-2.257-1.958-2.463-3.095c-0.219-1.204,0.283-2.287,0.621-2.85 l5.596,3.591l4.685,6.258l-3.017,1.12L18.34,23.633z"/><path fill="#4788c7" d="M16.684,18.402l5.063,3.249l4.23,5.65l-2.101,0.781l-5.196-4.815l-0.038-0.035l-0.036-0.028 l-0.035-0.027l-0.037-0.024c-1.256-0.801-1.984-1.71-2.164-2.704C16.226,19.664,16.441,18.93,16.684,18.402 M16.361,17.013 c-0.008,0-0.015,0.003-0.02,0.01c-0.233,0.31-2.977,4.021,1.654,6.973C17.997,23.998,17.999,23.999,18,24l5.647,5.233l3.932-1.461 l-5.14-6.865l-6.057-3.888C16.375,17.015,16.368,17.013,16.361,17.013L16.361,17.013z"/></g></svg>