<svg xmlns="http://www.w3.org/2000/svg"  viewBox="0 0 40 40" width="40px" height="40px"><path fill="#b6dcfe" d="M15.142,38.5c-0.214,0-0.424-0.045-0.624-0.134c-0.772-0.343-1.122-1.253-0.778-2.027l3.614-9.104 L16.5,27.264V23.5H20c0.522,0,1.004,0.261,1.287,0.698c0.285,0.438,0.328,0.985,0.116,1.461l-4.862,11.943 C16.3,38.142,15.748,38.5,15.142,38.5z"/><path fill="#4788c7" d="M20,24c0.353,0,0.677,0.176,0.868,0.47c0.192,0.296,0.221,0.664,0.066,1.015L16.09,37.383 C15.923,37.758,15.551,38,15.141,38c-0.144,0-0.285-0.03-0.419-0.09c-0.522-0.232-0.758-0.846-0.51-1.404l3.325-8.376 l0.563-1.419L17,26.747V24H20 M20,23h-4v4.78l0.607-0.02l-3.325,8.376c-0.456,1.028,0.007,2.231,1.034,2.687 C14.585,38.943,14.866,39,15.141,39c0.781,0,1.524-0.451,1.862-1.209l4.857-11.929c0.28-0.63,0.221-1.358-0.154-1.936 C21.332,23.348,20.689,23,20,23L20,23z"/><path fill="#dff0fe" d="M19 1.5A3.5 3.5 0 1 0 19 8.5A3.5 3.5 0 1 0 19 1.5Z"/><path fill="#4788c7" d="M19,2c1.654,0,3,1.346,3,3c0,1.654-1.346,3-3,3s-3-1.346-3-3C16,3.346,17.346,2,19,2 M19,1 c-2.209,0-4,1.792-4,4s1.791,4,4,4c2.209,0,4-1.792,4-4S21.209,1,19,1L19,1z"/><path fill="#dff0fe" d="M20,13.5c-0.827,0-1.5-0.673-1.5-1.5s0.673-1.5,1.5-1.5h13c0.827,0,1.5,0.673,1.5,1.5 s-0.673,1.5-1.5,1.5H20z"/><path fill="#4788c7" d="M33,11c0.551,0,1,0.449,1,1s-0.449,1-1,1H20c-0.551,0-1-0.449-1-1s0.449-1,1-1H33 M33,10H20 c-1.104,0-2,0.896-2,2s0.896,2,2,2h13c1.104,0,2-0.896,2-2S34.104,10,33,10L33,10z"/><g><path fill="#b6dcfe" d="M10.047,27.5c-0.536,0-0.917-0.041-1.395-0.259c-1.842-0.838-2.659-3.019-1.822-4.861l6.316-9.648 c0.576-1.254,1.685-2.045,3.001-2.184c0.173-0.035,0.273-0.048,0.364-0.048h5.607l-8.67,14.535 C12.778,26.507,11.39,27.5,10.047,27.5z"/><path fill="#4788c7" d="M21.239,11L13.02,24.779l-0.029,0.048l-0.023,0.051C12.41,26.107,11.181,27,10.047,27 c-0.476,0-0.791-0.033-1.188-0.214c-1.57-0.714-2.278-2.556-1.603-4.134l6.309-9.647l0.042-0.064l0.032-0.07 c0.465-1.024,1.422-1.707,2.561-1.826l0.059-0.006l0.058-0.013C16.394,11.009,16.458,11,16.512,11H21.239 M23,10h-6.488 c-0.144,0-0.283,0.02-0.417,0.051c-1.423,0.149-2.733,1.011-3.367,2.407l-6.353,9.715c-0.953,2.096-0.026,4.569,2.071,5.523 C9.006,27.952,9.469,28,10.047,28c1.586,0,3.134-1.171,3.832-2.709L23,10L23,10z"/></g><g><path fill="#dff0fe" d="M18.142,38.5c-0.214,0-0.424-0.045-0.624-0.134c-0.772-0.343-1.122-1.253-0.778-2.027l3.612-8.839 H10c-3.46,0-3.5-3.357-3.5-3.5c0-0.722,0.158-1.17,0.287-1.45l16.184,0.949c0.552,0.001,1.033,0.262,1.316,0.699 c0.285,0.438,0.328,0.985,0.116,1.461l-4.862,11.943C19.3,38.142,18.748,38.5,18.142,38.5z"/><path fill="#4788c7" d="M7.123,23.07l15.819,0.928L22.971,24H23c0.353,0,0.677,0.176,0.868,0.47 c0.192,0.296,0.221,0.665,0.066,1.015L19.09,37.383C18.923,37.758,18.551,38,18.141,38c-0.144,0-0.285-0.03-0.419-0.09 c-0.522-0.232-0.758-0.846-0.514-1.395l3.325-8.137L21.096,27h-1.489H10c-2.916,0-3-2.693-3-3C7,23.596,7.054,23.297,7.123,23.07 M6.484,22.031C6.391,22.25,6,22.812,6,24c0,1.125,0.643,4,4,4h9.607l-3.325,8.137c-0.456,1.028,0.007,2.231,1.034,2.687 C17.585,38.943,17.866,39,18.141,39c0.781,0,1.524-0.451,1.862-1.209l4.857-11.929c0.28-0.63,0.221-1.358-0.154-1.936 C24.332,23.348,23.689,23,23,23L6.484,22.031L6.484,22.031z"/></g><g><path fill="#98ccfd" d="M10,27.5c-3.46,0-3.5-3.357-3.5-3.5c0-0.793,0.138-1.207,0.261-1.452L18.5,23.237V27.5H10z"/><path fill="#4788c7" d="M7.097,23.069L18,23.708V27h-8c-2.916,0-3-2.693-3-3C7,23.569,7.042,23.276,7.097,23.069 M6.484,22.031C6.344,22.266,6,22.703,6,24c0,1.125,0.643,4,4,4h9v-5.235L6.484,22.031L6.484,22.031z"/></g></svg>