<svg xmlns="http://www.w3.org/2000/svg"  viewBox="0 0 40 40" width="40px" height="40px"><path fill="#b6dcfe" d="M27.641 35.5L31.391 20.5 33.5 20.5 33.5 35.5z"/><path fill="#4788c7" d="M33,21v14h-4.719l3.5-14H33 M34,20h-3l-4,16h7V20L34,20z"/><path fill="#98ccfd" d="M4,38.5c-0.827,0-1.5-0.673-1.5-1.5s0.673-1.5,1.5-1.5l26.787-2.913 c0.29-0.062,0.504-0.087,0.713-0.087c1.654,0,3,1.346,3,3c0,1.634-1.331,2.978-2.966,2.996L31.243,38.5H4z"/><path fill="#4788c7" d="M31.5,33c1.379,0,2.5,1.122,2.5,2.5c0,1.361-1.109,2.481-2.472,2.496l-0.041,0L31.45,38H4 c-0.551,0-1-0.449-1-1s0.449-1,1-1h0.054l0.054-0.006l26.733-2.91l0.056-0.006l0.055-0.012C31.15,33.022,31.329,33,31.5,33 M31.5,32c-0.264,0-0.519,0.035-0.767,0.09L4,35c-1.105,0-2,0.895-2,2c0,1.105,0.895,2,2,2h27.536c0.001,0,0.002-0.004,0.004-0.004 C33.454,38.974,35,37.419,35,35.5C35,33.567,33.433,32,31.5,32L31.5,32z"/><path fill="#dff0fe" d="M18.989,32.5c-0.189,0-0.375-0.036-0.552-0.107c-0.763-0.306-1.135-1.174-0.83-1.937l1.711-4.361 l-4.703-5.651c-0.378-0.642-0.149-1.559,0.555-1.981c0.002,0,0.005,0,0.007,0c1.107,0,3.92,2.005,4.395,2.794l2.677,4.007 c0.225,0.376,0.265,0.87,0.093,1.299l-1.97,5.002C20.145,32.132,19.602,32.5,18.989,32.5z"/><path fill="#4788c7" d="M15.329,18.959c0.899,0.103,3.452,1.953,3.84,2.597l2.638,3.946 c0.158,0.264,0.185,0.592,0.068,0.882l-1.967,4.994C19.757,31.756,19.396,32,18.989,32c-0.125,0-0.248-0.024-0.367-0.072 c-0.245-0.098-0.438-0.286-0.542-0.529c-0.104-0.243-0.107-0.512-0.007-0.763l1.602-4.083l0.216-0.55l-0.378-0.455l-4.456-5.355 C14.838,19.769,14.956,19.248,15.329,18.959 M15.255,17.955c-0.135,0-0.251,0.025-0.342,0.08c-0.942,0.565-1.247,1.787-0.682,2.73 l4.514,5.424l-1.602,4.083c-0.408,1.02,0.088,2.178,1.108,2.586C18.493,32.954,18.743,33,18.989,33 c0.789,0,1.537-0.473,1.848-1.251l1.969-4.999c0.231-0.577,0.179-1.229-0.141-1.763L20,21 C19.489,20.149,16.52,17.954,15.255,17.955L15.255,17.955z"/><path fill="#dff0fe" d="M7,27.5c-0.827,0-1.5-0.673-1.5-1.5s0.673-1.5,1.5-1.5h5.114l2.226-5.833 c0.234-0.462,0.747-0.777,1.316-0.777c0.231,0,0.455,0.053,0.663,0.157c0.734,0.367,1.033,1.264,0.666,1.998l-2.669,6.67 C14.079,27.185,13.568,27.5,13,27.5H7z"/><path fill="#4788c7" d="M15.657,18.39L15.657,18.39c0.153,0,0.301,0.035,0.438,0.103c0.488,0.244,0.686,0.84,0.443,1.328 l-0.018,0.037l-0.015,0.038l-2.634,6.586C13.696,26.803,13.366,27,13,27H7c-0.542,0-1-0.458-1-1c0-0.542,0.458-1,1-1h4.77h0.689 l0.246-0.643l2.082-5.456C14.961,18.585,15.291,18.39,15.657,18.39 M15.657,17.39c-0.73,0-1.434,0.402-1.784,1.099L11.77,24H7 c-1.099,0-2,0.901-2,2s0.901,2,2,2h6c0.754,0,1.442-0.425,1.78-1.1l2.653-6.632c0.491-0.983,0.093-2.178-0.89-2.669 C16.258,17.458,15.955,17.39,15.657,17.39L15.657,17.39z"/><path fill="#98ccfd" d="M12.38,23.799l1.754-4.911c0.266-0.522,0.987-0.958,1.653-0.958c0.198,0,0.376,0.04,0.532,0.117 c0.707,0.353,1.263,2.322,0.876,3.099l-2.249,4.161L12.38,23.799z"/><path fill="#4788c7" d="M15.787,18.429c0.119,0,0.223,0.022,0.308,0.064c0.422,0.211,0.933,1.868,0.668,2.4l-2.01,3.719 l-1.762-1.035l1.591-4.454C14.802,18.737,15.331,18.429,15.787,18.429 M15.787,17.429c-0.843,0-1.748,0.542-2.124,1.29 l-1.893,5.301L15.14,26l2.503-4.631c0.491-0.983-0.118-3.278-1.1-3.77C16.309,17.483,16.051,17.429,15.787,17.429L15.787,17.429z"/><path fill="#dff0fe" d="M21.5 1.5A3 3 0 1 0 21.5 7.5A3 3 0 1 0 21.5 1.5Z"/><path fill="#4788c7" d="M21.5,2C22.879,2,24,3.122,24,4.5S22.879,7,21.5,7S19,5.878,19,4.5S20.121,2,21.5,2 M21.5,1 C19.567,1,18,2.566,18,4.5S19.567,8,21.5,8S25,6.434,25,4.5S23.433,1,21.5,1L21.5,1z"/><path fill="#98ccfd" d="M31.309 20.5L35.309 12.5 37.376 12.5 35.599 20.5z"/><path fill="#4788c7" d="M36.753,13l-1.556,7h-3.08l3.5-7H36.753 M38,12h-3l-4,8h-3v1h8L38,12L38,12z"/><g><path fill="#fff" d="M31.5 34A1.5 1.5 0 1 0 31.5 37A1.5 1.5 0 1 0 31.5 34Z"/></g><g><path fill="#fff" d="M4 36A1 1 0 1 0 4 38A1 1 0 1 0 4 36Z"/></g><g><path fill="#dff0fe" d="M23.011,18.5c-0.821,0-1.49-0.678-1.49-1.511v-4.257l-6.655,0.075l-2.475,1.397l-2.19,3.653 C9.936,18.252,9.472,18.5,8.972,18.5c-0.438,0-0.845-0.19-1.146-0.534c-0.42-0.481-0.434-1.268-0.031-1.871l2.368-3.908 c0.131-0.197,0.33-0.372,0.561-0.487l5.615-3.05c0.19-0.095,0.42-0.149,0.65-0.149c0.122,0,0.243,0.015,0.361,0.044l6.009,1.691 C24.036,10.405,24.5,11,24.5,11.684V15.5H28c0.833,0,1.511,0.664,1.511,1.479c0,0.825-0.692,1.521-1.511,1.521H23.011z"/><path fill="#4788c7" d="M16.989,9c0.081,0,0.161,0.01,0.211,0.022l6.051,1.703c0.441,0.11,0.749,0.505,0.749,0.96V15v1h1h3 c0.557,0,1.011,0.439,1.011,0.979C29.011,17.532,28.548,18,28,18h-4.989c-0.536,0-0.989-0.463-0.989-1.011v-3.752v-1.011 l-1.011,0.011l-6.021,0.068l-0.257,0.003l-0.224,0.126l-2.248,1.269l-0.23,0.13l-0.136,0.227l-2.097,3.499 C9.613,17.835,9.305,18,8.972,18c-0.292,0-0.565-0.129-0.77-0.363c-0.274-0.314-0.271-0.846,0.032-1.301l2.333-3.853 c0.095-0.143,0.227-0.259,0.41-0.351l5.57-3.026C16.683,9.036,16.836,9,16.989,9 M16.989,8c-0.306,0-0.611,0.071-0.889,0.21 l-5.6,3.042c-0.309,0.155-0.573,0.387-0.765,0.675l-2.356,3.89c-0.505,0.757-0.528,1.793,0.071,2.478 C7.869,18.775,8.425,19,8.972,19c0.643,0,1.274-0.311,1.657-0.886l2.123-3.539L15,13.305l6.021-0.068v3.752 c0,1.099,0.891,2.011,1.989,2.011H28c1.099,0,2.011-0.922,2.011-2.021S29.099,15,28,15h-3v-3.316c0-0.913-0.621-1.708-1.507-1.93 l-6.022-1.695C17.312,8.02,17.15,8,16.989,8L16.989,8z"/></g><g><path fill="#b6dcfe" d="M14.67,21.671c-1.004-1.021-0.845-1.617-0.528-2.805l1.256-5.027l5.6-1.12l-1.526,8.39l1.764,2.639 c-0.42,0.325-0.885,0.654-1.337,0.975c-0.387,0.274-0.77,0.546-1.122,0.812L14.67,21.671z"/><path fill="#4788c7" d="M20.374,13.354l-1.358,7.467l-0.072,0.398l0.225,0.336l1.389,2.078 c-0.307,0.227-0.629,0.455-0.945,0.679c-0.265,0.188-0.536,0.38-0.798,0.571l-3.775-3.551c-0.817-0.831-0.724-1.181-0.407-2.372 l1.173-4.694L20.374,13.354 M21.621,12.085l-6.632,1.326l-1.326,5.309c-0.33,1.239-0.559,2.072,0.664,3.316l4.417,4.156 c0.937-0.744,2.203-1.55,3.162-2.338L20,21L21.621,12.085L21.621,12.085z"/></g><g><path fill="#b6dcfe" d="M14.258,18.402l1.261-5.049l-1.684-3.375l2.406-1.331C16.429,8.554,16.659,8.5,16.889,8.5 c0.122,0,0.243,0.015,0.361,0.044l6.11,1.692c0.676,0.169,1.14,0.763,1.14,1.448V14.5h-2.86l-1.952,5.856L14.258,18.402z"/><path fill="#4788c7" d="M16.889,9c0.081,0,0.161,0.01,0.215,0.023l6.146,1.701c0.441,0.11,0.749,0.505,0.749,0.96V14h-2 h-0.721l-0.228,0.684l-1.676,5.029l-4.522-1.628l1.107-4.431l0.09-0.358l-0.165-0.33l-1.387-2.781l1.95-1.079 C16.584,9.036,16.736,9,16.889,9 M16.889,8C16.583,8,16.278,8.071,16,8.21l-2.825,1.563l1.815,3.638l-1.326,5.308L20,21l2-6h3 v-3.316c0-0.913-0.621-1.708-1.507-1.93l-6.122-1.695C17.212,8.02,17.05,8,16.889,8L16.889,8z"/></g><g><path fill="#4788c7" d="M28.5,21h-2c-0.275,0-0.5-0.225-0.5-0.5l0,0c0-0.275,0.225-0.5,0.5-0.5h2c0.275,0,0.5,0.225,0.5,0.5 l0,0C29,20.775,28.775,21,28.5,21z"/></g></svg>