<svg xmlns="http://www.w3.org/2000/svg"  viewBox="0 0 40 40" width="40px" height="40px"><path fill="#dff0fe" d="M5.047,38.5c-0.279,0-0.554-0.076-0.794-0.221c-0.355-0.213-0.606-0.551-0.706-0.952 c-0.101-0.401-0.038-0.817,0.175-1.172L7.5,31.236V23c0.011-0.836,0.705-1.521,1.548-1.521c1.032,0.013,2.462,0.799,2.452,1.515 l-0.907,8.626c-0.008,0.32-0.084,0.589-0.224,0.822l-3.964,5.263C6.094,38.219,5.597,38.5,5.047,38.5z"/><path fill="#4788c7" d="M9.067,21.979c0.885,0.014,1.883,0.687,1.931,0.985l-0.903,8.604l-0.005,0.045l-0.001,0.045 c-0.003,0.172-0.047,0.34-0.128,0.489l-3.956,5.258l-0.031,0.042l-0.027,0.045C5.756,37.81,5.42,38,5.047,38 c-0.189,0-0.375-0.052-0.538-0.15c-0.24-0.144-0.41-0.373-0.478-0.644c-0.064-0.256-0.03-0.521,0.095-0.752l3.667-4.78L8,31.405 v-0.339l0-8.053c0.007-0.57,0.478-1.034,1.048-1.034H9.067 M9.074,20.979c-0.009,0-0.019,0-0.027,0C7.929,20.979,7.015,21.878,7,23 l0,8.066l-3.708,4.832c-0.583,0.97-0.268,2.228,0.703,2.81C4.325,38.906,4.689,39,5.047,39c0.695,0,1.373-0.354,1.757-0.994 l3.993-5.307c0.187-0.311,0.287-0.665,0.292-1.027L12,23C12.015,21.869,10.205,20.993,9.074,20.979L9.074,20.979z"/><path fill="#98ccfd" d="M7.5,30.521v-8.043C7.504,22.19,7.513,21.5,9.048,21.5h2.693l-1.019,9.021H7.5z"/><path fill="#4788c7" d="M11.181,22l-0.906,8.021H8l0-7.53C8.002,22.308,8.006,22,9.075,22H11.181 M12.301,21H9.075 c-0.009,0-0.019,0-0.027,0C7.929,21,7.015,21.356,7,22.478v8.543h4.168L12.301,21L12.301,21z"/><path fill="#dff0fe" d="M3.047,20.5c-0.24,0-0.473-0.055-0.69-0.164c-0.37-0.185-0.646-0.503-0.776-0.895 c-0.131-0.392-0.101-0.812,0.084-1.182l2.534-4.718c0.21-0.418,0.577-0.713,1.015-0.822l5.71-2.19 c0.064-0.013,0.191-0.028,0.317-0.028h5.031c0.591,0,1.121,0.328,1.385,0.855l2.537,5.145h3.759c0.868,0,1.548,0.659,1.548,1.5 s-0.68,1.5-1.548,1.5h-4.713c-0.591,0-1.121-0.328-1.385-0.855l-2.54-5.048h-3.923l-4.747,1.989l-2.203,4.043 C4.169,20.172,3.638,20.5,3.047,20.5z"/><path fill="#4788c7" d="M16.271,11c0.4,0,0.759,0.222,0.935,0.574l2.401,4.868L19.883,17h0.622h3.448 C24.54,17,25,17.439,25,18s-0.46,1-1.048,1h-4.713c-0.4,0-0.759-0.222-0.939-0.581l-2.401-4.772l-0.277-0.551h-0.616h-3.513h-0.201 l-0.185,0.078l-4.492,1.883L6.29,15.192L6.122,15.5l-2.136,3.92C3.807,19.778,3.447,20,3.047,20c-0.162,0-0.32-0.038-0.467-0.111 c-0.517-0.258-0.727-0.889-0.482-1.38l2.554-4.756c0.138-0.275,0.387-0.475,0.683-0.549l0.06-0.015l0.057-0.022l5.585-2.146 C11.103,11.007,11.172,11,11.24,11H16.271 M16.271,10H11.24c-0.168,0-0.335,0.021-0.497,0.061l-5.651,2.172 c-0.58,0.145-1.067,0.536-1.335,1.071l-2.541,4.731c-0.505,1.012-0.096,2.242,0.916,2.748C2.427,20.93,2.739,21,3.047,21 c0.751,0,1.475-0.415,1.833-1.133L7,15.979l4.492-1.883h3.513l2.401,4.772C17.754,19.562,18.463,20,19.239,20h4.713 C25.083,20,26,19.131,26,18s-0.917-2-2.048-2h-3.448l-2.401-4.868C17.756,10.438,17.047,10,16.271,10L16.271,10z"/><path fill="#b6dcfe" d="M18.5 38.5L18.5 34.5 22.5 34.5 22.5 30.5 26.5 30.5 26.5 26.5 30.5 26.5 30.5 22.5 34.5 22.5 34.5 18.5 38.5 18.5 38.5 38.5z"/><path fill="#4788c7" d="M38,19v19H19v-3h3h1v-1v-3h3h1v-1v-3h3h1v-1v-3h3h1v-1v-3H38 M39,18h-5v4h-4v4h-4v4h-4v4h-4v5h21V18 L39,18z"/><g><path fill="#dff0fe" d="M14.5 2.5A3 3 0 1 0 14.5 8.5A3 3 0 1 0 14.5 2.5Z"/><path fill="#4788c7" d="M14.5,3C15.878,3,17,4.122,17,5.5S15.878,8,14.5,8S12,6.878,12,5.5S13.122,3,14.5,3 M14.5,2 C12.568,2,11,3.566,11,5.5S12.568,9,14.5,9C16.433,9,18,7.434,18,5.5S16.433,2,14.5,2L14.5,2z"/></g><g><path fill="#b6dcfe" d="M9.801,24.575c-0.15,0-0.303-0.016-0.456-0.046c-1.24-0.25-2.049-1.462-1.8-2.704l2.516-7.671 L8.01,15.013l-1.142-2.927l4.055-1.558c0.064-0.013,0.191-0.028,0.317-0.028h5.031c0.591,0,1.121,0.328,1.385,0.855l2.193,4.448 l-2.637,1.545l-1.333-2.738l-2.31,8.021C13.368,23.635,11.042,24.575,9.801,24.575z"/><path fill="#4788c7" d="M16.271,11c0.4,0,0.759,0.222,0.935,0.574l1.99,4.033l-1.77,1.037l-0.527-1.083l-1.14-2.341 l-0.72,2.502l-1.949,6.771l-0.012,0.04l-0.008,0.041c-0.118,0.589-2.103,1.5-3.269,1.5c-0.116,0-0.237-0.012-0.356-0.035 c-0.955-0.192-1.582-1.111-1.419-2.064l2.169-6.627l0.68-2.079l-2.017,0.845L8.29,14.354l-0.773-1.981l3.519-1.352 C11.103,11.007,11.172,11,11.24,11H16.271 M16.271,10H11.24c-0.168,0-0.335,0.021-0.497,0.061L6.22,11.8l1.511,3.873l1.514-0.634 l-2.19,6.689c-0.304,1.515,0.678,2.988,2.193,3.292c0.187,0.036,0.371,0.055,0.553,0.055c1.306,0,3.984-0.974,4.25-2.304L16,16 l1,2.054L20.504,16l-2.401-4.868C17.756,10.438,17.047,10,16.271,10L16.271,10z"/></g><g><path fill="#dff0fe" d="M19.002,34.548c-0.842,0-1.502-0.68-1.502-1.548v-6.401l-9.026-2.012 c-0.016-0.008-0.099-0.045-0.122-0.096c-0.097-0.21,0.149-0.815,0.328-1.257C8.774,23,8.869,22.766,8.945,22.54 c0.21-0.635,0.799-1.061,1.465-1.061c0.166,0,0.332,0.027,0.492,0.082l8.655,2.502c0.574,0.191,0.942,0.754,0.942,1.462V33 C20.5,33.868,19.842,34.548,19.002,34.548z"/><path fill="#4788c7" d="M10.41,21.979L10.41,21.979c0.112,0,0.224,0.019,0.374,0.068l8.596,2.483 c0.576,0.192,0.62,0.809,0.62,0.994V33c0,0.597-0.429,1.048-0.998,1.048C18.44,34.048,18,33.588,18,33v-6v-0.802l-0.782-0.174 L8.87,24.163c0.062-0.22,0.188-0.531,0.273-0.741c0.099-0.243,0.197-0.488,0.277-0.726C9.562,22.267,9.96,21.979,10.41,21.979 M10.41,20.979c-0.857,0-1.655,0.545-1.939,1.403c-0.357,1.073-1.179,2.336-0.105,2.693L17,27v6c0,1.131,0.871,2.048,2.002,2.048 S21,34.131,21,33v-7.476c0-0.881-0.468-1.664-1.304-1.943l-8.635-2.495C10.845,21.013,10.625,20.979,10.41,20.979L10.41,20.979z"/></g><g><path fill="#b6dcfe" d="M9.331,25.362l-0.11-0.029l-0.109-0.042C8.098,24.964,7.5,23.864,7.5,22.344 c0-0.662,0.268-1.438,0.452-1.893l10.26,3.176l-1.489,2.826L9.331,25.362z"/><path fill="#4788c7" d="M8.255,21.069l9.233,2.858l-1.043,1.981L9.49,24.88l-0.072-0.024H9.376l-0.123-0.046 C8.09,24.437,8,22.828,8,22.344C8,21.948,8.12,21.473,8.255,21.069 M7.672,19.841c0,0-0.672,1.367-0.672,2.503 c0,1.564,0.61,2.989,1.946,3.419c0.056,0.02,0.109,0.046,0.169,0.061l0.118,0.028c0.006,0.001,0.01,0.004,0.016,0.005 c0.003,0.001,0.006,0,0.008,0.001L17,27l1.934-3.673L7.672,19.841L7.672,19.841z"/></g></svg>