<svg xmlns="http://www.w3.org/2000/svg"  viewBox="0 0 40 40" width="40px" height="40px"><path fill="#98ccfd" d="M10.5 28.5H13.5V36.5H10.5z"/><path fill="#4788c7" d="M13,29v7h-2v-7H13 M14,28h-4v9h4V28L14,28z"/><path fill="#4788c7" d="M7.5 37h9c.276 0 .5-.224.5-.5l0 0c0-.276-.224-.5-.5-.5h-9C7.224 36 7 36.224 7 36.5l0 0C7 36.776 7.224 37 7.5 37zM7 29H17V30H7z"/><path fill="#b6dcfe" d="M4.5,29.5v-4H13c1.379,0,2.5,1.122,2.5,2.5v1.5H4.5z"/><path fill="#4788c7" d="M13,26c1.103,0,2,0.897,2,2v1H5v-3H13 M13,25H4v5h12v-2C16,26.343,14.657,25,13,25L13,25z"/><path fill="#4788c7" d="M13.879 22.466H32.735V23.482H13.879z" transform="rotate(-45.001 23.307 22.974)"/><path fill="#b6dcfe" d="M17.508,26.985c-0.467-0.466-0.727-1.094-0.727-1.762c0-0.668,0.26-1.296,0.732-1.768l10.898-10.898 c0.473-0.472,1.101-0.732,1.768-0.732c0.668,0,1.296,0.26,1.768,0.732l0.91,0.879L18.424,27.87L17.508,26.985z"/><path fill="#4788c7" d="M30.18,12.324c0.534,0,1.036,0.208,1.427,0.598l0.538,0.519L18.417,27.169l-0.55-0.531 c-0.378-0.378-0.586-0.88-0.586-1.414c0-0.534,0.208-1.036,0.586-1.414L28.766,12.91C29.143,12.532,29.646,12.324,30.18,12.324 M30.18,11.324c-0.768,0-1.536,0.293-2.121,0.879L17.16,23.102c-1.172,1.172-1.172,3.071,0,4.243l1.269,1.226l15.141-15.141 l-1.269-1.226C31.715,11.617,30.948,11.324,30.18,11.324L30.18,11.324z"/><path fill="#dff0fe" d="M28 3.5A3.5 3.5 0 1 0 28 10.5A3.5 3.5 0 1 0 28 3.5Z"/><path fill="#4788c7" d="M28,4c1.654,0,3,1.346,3,3c0,1.654-1.346,3-3,3s-3-1.346-3-3C25,5.346,26.346,4,28,4 M28,3 c-2.209,0-4,1.791-4,4s1.791,4,4,4s4-1.791,4-4S30.209,3,28,3L28,3z"/><path fill="#98ccfd" d="M12.707,19l5.771-5.771c1.101-1.101,2.581-1.708,4.167-1.708h1.944l2.648,2.201l-9.905,9.905 L12.707,19z"/><path fill="#4788c7" d="M23.924,12.021l0.486,0l2.087,1.735l-9.163,9.163L13.414,19l5.418-5.418 c1.007-1.007,2.361-1.561,3.813-1.561L23.924,12.021 M23.924,11.021c-0.315,0-0.733,0-1.278,0c-1.636,0-3.272,0.606-4.52,1.854 L12,19l5.333,5.333l10.646-10.646l-3.208-2.667C24.771,11.021,24.554,11.021,23.924,11.021L23.924,11.021z"/><g><path fill="#dff0fe" d="M30.333,19.5c-0.34,0-0.673-0.117-0.938-0.329l-5.15-3.241c-0.992-0.552-1.556-1.231-1.697-2.034 c-0.144-0.811,0.196-1.52,0.33-1.673c0.35-0.438,0.993-0.721,1.614-0.721c0.414,0,0.795,0.123,1.102,0.354l4.608,4.151l5.737-5.736 C36.223,9.99,36.6,9.833,37,9.833s0.777,0.156,1.061,0.439s0.439,0.66,0.439,1.061c0,0.4-0.156,0.777-0.439,1.061l-6.667,6.667 C31.11,19.344,30.734,19.5,30.333,19.5z"/><path fill="#4788c7" d="M37,10.333c0.267,0,0.518,0.104,0.707,0.293C37.896,10.815,38,11.066,38,11.333 s-0.104,0.518-0.293,0.707l-6.667,6.667C30.851,18.896,30.601,19,30.333,19c-0.16,0-0.399-0.038-0.625-0.219l-0.044-0.035 l-0.048-0.03l-5.104-3.208l-0.023-0.015l-0.024-0.013c-0.804-0.446-1.279-0.987-1.412-1.607c-0.144-0.674,0.148-1.247,0.228-1.352 c0.244-0.304,0.742-0.517,1.212-0.517c0.295,0,0.554,0.078,0.771,0.232l4.252,3.828l0.705,0.635l0.671-0.671l5.401-5.401 C36.482,10.437,36.733,10.333,37,10.333 M37,9.333c-0.512,0-1.023,0.195-1.414,0.586l-5.401,5.401l-4.289-3.861 c-0.421-0.318-0.915-0.455-1.403-0.455c-0.791,0-1.566,0.36-1.992,0.892c-0.397,0.458-1.375,2.875,1.479,4.458l5.104,3.208 c0.367,0.294,0.81,0.438,1.25,0.438c0.514,0,1.026-0.197,1.414-0.586l6.667-6.667c0.781-0.781,0.781-2.048,0-2.828 C38.023,9.529,37.512,9.333,37,9.333L37,9.333z"/></g><g><path fill="#98ccfd" d="M36 8.5A3.5 3.5 0 1 0 36 15.5A3.5 3.5 0 1 0 36 8.5Z"/><path fill="#4788c7" d="M36,9c1.654,0,3,1.346,3,3c0,1.654-1.346,3-3,3s-3-1.346-3-3C33,10.346,34.346,9,36,9 M36,8 c-2.209,0-4,1.791-4,4s1.791,4,4,4s4-1.791,4-4S38.209,8,36,8L36,8z"/></g><g><path fill="#4788c7" d="M36 11A1 1 0 1 0 36 13A1 1 0 1 0 36 11Z"/></g><g><path fill="#dff0fe" d="M4.999,36.5c-0.657,0-1.247-0.439-1.435-1.069L0.568,24.113c-0.141-0.467-0.054-0.963,0.229-1.342 C1.078,22.393,1.528,22.167,2,22.167l10.799-1.267L12.528,25.5H4.374l2.054,9.035c0.124,0.417,0.083,0.822-0.106,1.175 c-0.19,0.353-0.507,0.611-0.891,0.726C5.289,36.479,5.145,36.5,4.999,36.5z"/><path fill="#4788c7" d="M12.265,21.466L12.057,25H5H3.747l0.278,1.222l1.915,8.424l0.008,0.033l0.01,0.033 c0.077,0.256,0.049,0.526-0.077,0.761c-0.127,0.235-0.337,0.407-0.596,0.484C5.192,35.986,5.095,36,4.999,36 c-0.437,0-0.831-0.293-0.947-0.682L1.042,23.953c-0.09-0.301-0.032-0.631,0.156-0.883C1.386,22.817,1.685,22.667,2,22.667h0.059 l0.058-0.007L12.265,21.466 M13.333,20.333L2,21.667c-0.633,0-1.227,0.298-1.604,0.805c-0.378,0.507-0.493,1.163-0.311,1.769 l3,11.333C3.344,36.441,4.139,37,4.999,37c0.191,0,0.384-0.027,0.576-0.085c1.059-0.317,1.659-1.432,1.341-2.49L5,26h8 L13.333,20.333L13.333,20.333z"/></g><g><path fill="#b6dcfe" d="M5.5,25.5v-3.743l3.982-0.467l3.809-2.958L17.96,23l-0.98,0.98C16.244,24.715,15.076,25.5,14,25.5 H5.5z"/><path fill="#4788c7" d="M13.25,18.997L17.252,23l-0.626,0.626C15.792,24.461,14.761,25,14,25H6v-2.798l3.402-0.399 l0.277-0.032l0.22-0.171L13.25,18.997 M13.333,17.667l-4.048,3.143L5,21.313V26h9c1.207,0,2.48-0.813,3.333-1.667L18.667,23 L13.333,17.667L13.333,17.667z"/></g></svg>