<svg xmlns="http://www.w3.org/2000/svg"  viewBox="0 0 40 40" width="40px" height="40px"><path fill="#98ccfd" d="M25.5 31.5H28.5V37.5H25.5z"/><path fill="#4788c7" d="M28,32v5h-2v-5H28 M29,31h-4v7h4V31L29,31z"/><path fill="#4788c7" d="M23.5,38h7c0.276,0,0.5-0.224,0.5-0.5l0,0c0-0.276-0.224-0.5-0.5-0.5h-7c-0.276,0-0.5,0.224-0.5,0.5 l0,0C23,37.776,23.224,38,23.5,38z"/><path fill="#98ccfd" d="M4.5 31.5H7.5V37.5H4.5z"/><path fill="#4788c7" d="M7,32v5H5v-5H7 M8,31H4v7h4V31L8,31z"/><path fill="#4788c7" d="M2.5,38h7c0.276,0,0.5-0.224,0.5-0.5l0,0c0-0.276-0.224-0.5-0.5-0.5h-7C2.224,37,2,37.224,2,37.5 l0,0C2,37.776,2.224,38,2.5,38z"/><path fill="#dff0fe" d="M4 21.5A3.5 3.5 0 1 0 4 28.5A3.5 3.5 0 1 0 4 21.5Z"/><path fill="#4788c7" d="M4,22c1.654,0,3,1.346,3,3s-1.346,3-3,3s-3-1.346-3-3S2.346,22,4,22 M4,21c-2.209,0-4,1.791-4,4 s1.791,4,4,4s4-1.791,4-4S6.209,21,4,21L4,21z"/><path fill="#98ccfd" d="M12.5,28.5c-1.654,0-3-1.346-3-3s1.346-3,3-3h11c1.654,0,3,1.346,3,3s-1.346,3-3,3H12.5z"/><path fill="#4788c7" d="M23.5,23c1.379,0,2.5,1.121,2.5,2.5c0,1.379-1.121,2.5-2.5,2.5h-11c-1.379,0-2.5-1.121-2.5-2.5 s1.121-2.5,2.5-2.5H23.5 M23.5,22h-11C10.575,22,9,23.575,9,25.5v0c0,1.925,1.575,3.5,3.5,3.5h11c1.925,0,3.5-1.575,3.5-3.5v0 C27,23.575,25.425,22,23.5,22L23.5,22z"/><path fill="#dff0fe" d="M11,27.5c-0.827,0-1.5-0.673-1.5-1.5V11c0-0.827,0.673-1.5,1.5-1.5s1.5,0.673,1.5,1.5v15 C12.5,26.828,11.827,27.5,11,27.5z"/><path fill="#4788c7" d="M11,10c0.551,0,1,0.449,1,1v15c0,0.551-0.449,1-1,1s-1-0.449-1-1V11C10,10.449,10.449,10,11,10 M11,9c-1.1,0-2,0.9-2,2v15c0,1.1,0.9,2,2,2s2-0.9,2-2V11C13,9.9,12.1,9,11,9L11,9z"/><g><path fill="#98ccfd" d="M11 2.5A7.5 7.5 0 1 0 11 17.5A7.5 7.5 0 1 0 11 2.5Z"/><path fill="#4788c7" d="M11,3c3.86,0,7,3.14,7,7c0,3.86-3.14,7-7,7s-7-3.14-7-7C4,6.141,7.14,3,11,3 M11,2 c-4.418,0-8,3.582-8,8s3.582,8,8,8s8-3.582,8-8S15.418,2,11,2L11,2z"/></g><g><path fill="#dff0fe" d="M38,37.406c-0.827,0-1.5-0.673-1.5-1.5V28.5H23.966l-0.428-5.988 c4.742,0.207,14.224,2.939,14.323,2.968c1.17,0.433,1.639,0.862,1.639,1.52v8.906C39.5,36.733,38.827,37.406,38,37.406z"/><path fill="#4788c7" d="M24.077,23.046c4.67,0.361,13.002,2.73,13.61,2.905C38.898,26.403,39,26.73,39,27v8.906 c0,0.551-0.449,1-1,1s-1-0.449-1-1V29v-1h-1H24.431L24.077,23.046 M23,22l0.5,7H36v6.906c0,1.105,0.896,2,2,2s2-0.895,2-2V27 c0-1.105-0.975-1.622-2-2C38,25,27.642,22,23,22L23,22z"/></g><g><path fill="#b6dcfe" d="M23.5,28.5v-5.992c2.315,0.077,5.1,0.661,8,1.325V28.5H23.5z"/><path fill="#4788c7" d="M24,23.034c2.224,0.142,4.85,0.707,7,1.198V28h-7V23.034 M23,22v7h9v-5.565 C28.988,22.742,25.659,22,23,22L23,22z"/></g><g><path fill="#4788c7" d="M11 9.001A0.999 0.999 0 1 0 11 10.999A0.999 0.999 0 1 0 11 9.001Z"/></g><g><path fill="#b6dcfe" d="M0.5,31.5V31c0-1.378,1.121-2.5,2.5-2.5h27.333c1.195,0,2.167,0.972,2.167,2.167V31.5H0.5z"/><path fill="#4788c7" d="M30.333,29C31.252,29,32,29.748,32,30.667V31H1c0-1.103,0.897-2,2-2H30.333 M30.333,28H3 c-1.657,0-3,1.343-3,3v1h33v-1.333C33,29.194,31.806,28,30.333,28L30.333,28z"/></g></svg>