<svg xmlns="http://www.w3.org/2000/svg"  viewBox="0 0 40 40" width="40px" height="40px"><path fill="#dff0fe" d="M17.999,29.501c-0.202,0-0.4-0.041-0.589-0.122l-6.331-2.893l-8.141,1.018 C1.505,27.5,0.5,26.495,0.5,25c0-0.827,0.673-1.5,1.5-1.5h9.411c0.205,0,0.403,0.041,0.589,0.121l6.581,2.996 c0.378,0.162,0.664,0.454,0.812,0.826c0.149,0.371,0.144,0.779-0.014,1.147C19.142,29.143,18.6,29.5,17.999,29.501z"/><path fill="#4788c7" d="M11.411 24c.136 0 .268.027.373.072l6.61 3.009c.245.105.435.299.534.547.099.248.096.52-.009.765-.158.368-.52.607-.92.607-.134 0-.265-.028-.371-.073l-6.212-2.838-.258-.118-.282.035-7.933.992C1.76 26.975 1 26.196 1 25c0-.551.449-1 1-1H11.411M11.411 23H2c-1.104 0-2 .896-2 2 0 1.67 1.132 3 3 3l8-1 6.212 2.838c.257.11.524.163.787.163.776-.001 1.514-.455 1.839-1.213.435-1.016-.035-2.191-1.051-2.626l-6.589-3C11.95 23.055 11.682 23 11.411 23L11.411 23zM19 18H34V20H19z"/><path fill="#dff0fe" d="M10 6.5A2.5 2.5 0 1 0 10 11.5A2.5 2.5 0 1 0 10 6.5Z"/><path fill="#4788c7" d="M10,7c1.103,0,2,0.897,2,2s-0.897,2-2,2s-2-0.897-2-2S8.897,7,10,7 M10,6C8.343,6,7,7.344,7,9 s1.343,3,3,3s3-1.344,3-3S11.657,6,10,6L10,6z"/><path fill="#98ccfd" d="M2.934,27.196c-0.401,0-0.798-0.103-1.15-0.296c-0.566-0.309-0.978-0.818-1.159-1.436 c-0.182-0.618-0.112-1.269,0.196-1.834l4.146-8.876c0.409-0.748,1.221-1.229,2.104-1.229c0.4,0,0.798,0.103,1.151,0.296 l0.284,0.153c0.846,0.455,1.805,0.972,1.971,1.531c0.034,0.115,0.061,0.304-0.105,0.607l-5.32,9.828 C4.629,26.715,3.817,27.196,2.934,27.196z"/><path fill="#4788c7" d="M7.07,14.026c0.321,0,0.627,0.079,0.913,0.236l0.285,0.154c0.607,0.326,1.622,0.873,1.729,1.233 c0.018,0.06-0.033,0.166-0.067,0.228L4.613,25.7c-0.335,0.614-0.979,0.996-1.679,0.996c-0.322,0-0.627-0.079-0.913-0.236 c-0.448-0.244-0.773-0.647-0.917-1.137c-0.144-0.489-0.089-1.005,0.155-1.453l0.015-0.028l0.013-0.028l4.118-8.818 C5.743,14.397,6.379,14.026,7.07,14.026 M7.07,13.026c-1.03,0-2.029,0.55-2.557,1.517l-4.132,8.849 c-0.769,1.41-0.249,3.178,1.162,3.947c0.442,0.244,0.921,0.358,1.391,0.358c1.03,0,2.029-0.549,2.557-1.517l5.319-9.827 c0.77-1.41-0.937-2.2-2.348-2.969C8.019,13.141,7.541,13.026,7.07,13.026L7.07,13.026z"/><path fill="#dff0fe" d="M19.006,20.5c-0.096,0-0.193-0.009-0.291-0.028L6.767,16.48c-0.453-0.094-0.792-0.319-1.014-0.65 c-0.222-0.333-0.302-0.731-0.224-1.125C5.667,14.007,6.282,13.5,6.992,13.5c0.097,0,0.195,0.01,0.294,0.029l11.947,3.991 c0.87,0.177,1.398,0.966,1.238,1.775C20.333,19.993,19.717,20.5,19.006,20.5z"/><path fill="#4788c7" d="M6.992,14c0.048,0,0.097,0.004,0.145,0.011l11.938,3.984l0.06,0.02l0.062,0.012 c0.539,0.107,0.89,0.632,0.783,1.172C19.889,19.663,19.479,20,19.006,20c-0.05,0-0.097-0.003-0.144-0.01L6.925,16.007l-0.06-0.02 l-0.062-0.012c-0.539-0.107-0.89-0.632-0.783-1.172C6.111,14.337,6.52,14,6.992,14 M6.992,13c-0.933,0-1.766,0.659-1.953,1.609 c-0.214,1.082,0.489,2.132,1.57,2.347l12.008,4.007C18.747,20.988,18.877,21,19.006,21c0.934,0,1.768-0.657,1.956-1.607 c0.214-1.082-0.489-2.132-1.57-2.347L7.384,13.039C7.252,13.013,7.121,13,6.992,13L6.992,13z"/><path fill="#dff0fe" d="M0.5 32.5L0.5 29.5 28.281 29.5 33.654 20.662 36.187 21.998 29.738 32.5z"/><path fill="#4788c7" d="M33.837,21.323l1.644,0.867L29.458,32H1v-2h27h0.562l0.292-0.481L33.837,21.323 M33.472,20L28,29H0 v4h30.017l6.875-11.196L33.472,20L33.472,20z"/><g><path fill="#98ccfd" d="M35 14.5A4.5 4.5 0 1 0 35 23.5A4.5 4.5 0 1 0 35 14.5Z"/><path fill="#4788c7" d="M35,15c2.206,0,4,1.794,4,4s-1.794,4-4,4s-4-1.794-4-4S32.794,15,35,15 M35,14c-2.761,0-5,2.239-5,5 s2.239,5,5,5s5-2.239,5-5S37.761,14,35,14L35,14z"/></g><g><path fill="#fff" d="M34.996 17.008000000000003A1.996 1.996 0 1 0 34.996 21A1.996 1.996 0 1 0 34.996 17.008000000000003Z"/></g><g><path fill="#98ccfd" d="M0.5,32.5V29c0-0.827,0.673-1.5,1.5-1.5h7c0.827,0,1.5,0.673,1.5,1.5v3.5H0.5z"/><path fill="#4788c7" d="M9,28c0.551,0,1,0.449,1,1l0,3H1l0-3c0-0.551,0.449-1,1-1H9 M9,27H2c-1.105,0-2,0.895-2,2l0,4h11 l0-4C11,27.895,10.105,27,9,27L9,27z"/></g><g><path fill="#b6dcfe" d="M18.006 29.502L18.068 29.506 17.989 30.5z"/><path fill="#4788c7" d="M18.006 30L17.989 30 17.999 30.001 18.006 30z"/><g><path fill="#b6dcfe" d="M2.97,27.5C1.491,27.486,0.5,26.485,0.5,25c-0.014-0.529,0.081-0.949,0.287-1.327L0.868,23.5H10.5 v3.059L2.97,27.5z"/><path fill="#4788c7" d="M10,24v2.117l-7.058,0.882c-1.164-0.024-1.919-0.78-1.942-1.946l0.003-0.023l0.002-0.059 l0.001-0.036l-0.002-0.035C0.991,24.576,1.05,24.274,1.181,24H2H10 M11,23H2H0.55l-0.202,0.433c-0.262,0.48-0.364,1-0.342,1.51 C0.005,24.963,0,24.981,0,25c0,1.67,1.132,3,3,3l8-1V23L11,23z"/></g></g></svg>