<svg id="Fitness_Color_Icons" data-name="Fitness Color Icons" xmlns="http://www.w3.org/2000/svg" viewBox="0 0 600 600"><rect x="219.6" y="196.21" width="181.39" height="395.11" rx="84.48" fill="#bd3b43"/><path d="M401,286.9V500.61a90.73,90.73,0,0,1-77.31,89.72,90.73,90.73,0,0,1-77.3-89.72V286.9a90.71,90.71,0,0,1,77.3-89.7A90.73,90.73,0,0,1,401,286.9Z" fill="#ff807d"/><path d="M401,491.36H219.6a3.76,3.76,0,0,1-3.75-3.76V299a3.75,3.75,0,0,1,3.75-3.75H401a3.75,3.75,0,0,1,3.76,3.75V487.6A3.76,3.76,0,0,1,401,491.36Zm-177.63-7.52H397.23V302.78H223.36Z"/><rect x="219.6" y="299.03" width="181.39" height="188.57" fill="#64646e"/><rect x="249.5" y="299.02" width="151.5" height="188.58" fill="#8d91ac"/><path d="M249.5,223.36a3.72,3.72,0,0,1-2.21-.72,3.76,3.76,0,0,1-.83-5.25l60.8-83.5a3.76,3.76,0,0,1,6.8,2.21v60.11a3.76,3.76,0,0,1-7.52,0V147.64l-54,74.18A3.75,3.75,0,0,1,249.5,223.36Z"/><path d="M371.1,223.36a3.74,3.74,0,0,1-3-1.54l-54-74.18v48.57a3.76,3.76,0,0,1-7.52,0V136.1a3.76,3.76,0,0,1,6.8-2.21l60.79,83.5a3.75,3.75,0,0,1-3,6Z"/><rect x="297.69" y="89.63" width="25.98" height="46.09" rx="12.1" fill="#bd3b43"/><path d="M310.68,139.48a16.76,16.76,0,0,1-16.75-16.75V102.62a16.75,16.75,0,1,1,33.49,0v20.11A16.76,16.76,0,0,1,310.68,139.48Zm0-46.09a9.24,9.24,0,0,0-9.24,9.23v20.11a9.24,9.24,0,0,0,18.47,0V102.62A9.24,9.24,0,0,0,310.68,93.39Z"/><path d="M310.68,93.39a3.76,3.76,0,0,1-3.76-3.76V8.69a3.76,3.76,0,1,1,7.51,0V89.63A3.75,3.75,0,0,1,310.68,93.39Z"/><path d="M459.71,370.73a2.65,2.65,0,0,1-1.87-.76,2.69,2.69,0,0,1-.06-3.8,8.91,8.91,0,0,0-.17-12.59,2.68,2.68,0,1,1,3.74-3.85,14.28,14.28,0,0,1,.28,20.18A2.63,2.63,0,0,1,459.71,370.73Z"/><path d="M472.28,352.76a14.2,14.2,0,0,1-9.95-4,2.69,2.69,0,0,1,3.75-3.85,8.91,8.91,0,0,0,12.59-.17,2.68,2.68,0,1,1,3.85,3.74A14.27,14.27,0,0,1,472.28,352.76Z"/><path d="M485.93,370.6a2.69,2.69,0,0,1-1.88-.76,14.29,14.29,0,0,1-.28-20.18,2.68,2.68,0,0,1,3.85,3.74A8.92,8.92,0,0,0,487.8,366a2.69,2.69,0,0,1-1.87,4.61Z"/><path d="M464.81,375.69a2.68,2.68,0,0,1-1.92-4.55,14.28,14.28,0,0,1,20.18-.29,2.68,2.68,0,0,1-3.74,3.85,8.92,8.92,0,0,0-12.59.18A2.7,2.7,0,0,1,464.81,375.69Z"/><path d="M165.75,205a2.68,2.68,0,0,1-1.92-4.55,8.92,8.92,0,0,0-.18-12.59,2.68,2.68,0,0,1,3.74-3.85,14.28,14.28,0,0,1,.28,20.18A2.66,2.66,0,0,1,165.75,205Z"/><path d="M178.32,187a14.19,14.19,0,0,1-9.95-4,2.69,2.69,0,1,1,3.75-3.85,8.62,8.62,0,0,0,6.33,2.52,8.82,8.82,0,0,0,6.26-2.7,2.69,2.69,0,0,1,3.85,3.75,14.23,14.23,0,0,1-10,4.32Z"/><path d="M192,204.83a2.73,2.73,0,0,1-1.88-.76,14.29,14.29,0,0,1-.28-20.18,2.68,2.68,0,1,1,3.85,3.74,8.92,8.92,0,0,0,.18,12.59,2.68,2.68,0,0,1,0,3.79A2.64,2.64,0,0,1,192,204.83Z"/><path d="M170.85,209.92a2.68,2.68,0,0,1-1.92-4.56,14.28,14.28,0,0,1,20.18-.28,2.68,2.68,0,0,1-3.74,3.85,8.92,8.92,0,0,0-12.59.17A2.67,2.67,0,0,1,170.85,209.92Z"/><path d="M114.3,556.66a2.68,2.68,0,0,1-1.92-4.55,8.92,8.92,0,0,0-.18-12.59,2.69,2.69,0,1,1,3.75-3.85,14.29,14.29,0,0,1,.28,20.18A2.7,2.7,0,0,1,114.3,556.66Z"/><path d="M126.87,538.7a14.17,14.17,0,0,1-9.94-4,2.68,2.68,0,0,1,3.74-3.85,8.92,8.92,0,0,0,12.59-.18,2.69,2.69,0,1,1,3.85,3.75,14.22,14.22,0,0,1-10,4.32Z"/><path d="M140.52,556.54a2.67,2.67,0,0,1-1.87-.76,14.27,14.27,0,0,1-.28-20.18,2.68,2.68,0,1,1,3.85,3.74,8.91,8.91,0,0,0,.17,12.59,2.68,2.68,0,0,1-1.87,4.61Z"/><path d="M119.41,561.63a2.69,2.69,0,0,1-1.93-4.56,14.3,14.3,0,0,1,20.19-.28,2.69,2.69,0,0,1-3.75,3.85,8.92,8.92,0,0,0-12.59.17A2.63,2.63,0,0,1,119.41,561.63Z"/><path d="M239.35,286.19l-.36,0a3.77,3.77,0,0,1-3.39-4.1c3-32,19.56-49.68,32.89-58.86a77.46,77.46,0,0,1,28.59-12.35,3.75,3.75,0,0,1,1.22,7.41,71.42,71.42,0,0,0-25.8,11.3c-17.31,12-27.21,29.94-29.42,53.21A3.75,3.75,0,0,1,239.35,286.19Z"/><path d="M239.34,352.08a3.75,3.75,0,0,1-3.75-3.76V314.57a3.76,3.76,0,1,1,7.51,0v33.75A3.76,3.76,0,0,1,239.34,352.08Z"/><path d="M239.34,450.74a3.76,3.76,0,0,1-3.75-3.76V368a3.76,3.76,0,0,1,7.51,0V447A3.76,3.76,0,0,1,239.34,450.74Z"/><path d="M310.3,595.07a94.56,94.56,0,0,1-94.45-94.45V286.9a94.45,94.45,0,1,1,188.9,0V500.62A94.56,94.56,0,0,1,310.3,595.07Zm0-395.1a87,87,0,0,0-86.94,86.93V500.62a86.94,86.94,0,1,0,173.87,0V286.9A87,87,0,0,0,310.3,200Z"/><path d="M401,491.36H219.6a3.76,3.76,0,0,1-3.75-3.76V299a3.75,3.75,0,0,1,3.75-3.75H401a3.75,3.75,0,0,1,3.76,3.75V487.6A3.76,3.76,0,0,1,401,491.36Zm-177.63-7.52H397.23V302.78H223.36Z"/></svg>