<svg id="Fitness_Color_Icons" data-name="Fitness Color Icons" xmlns="http://www.w3.org/2000/svg" viewBox="0 0 600 600"><path d="M563.54,510.05a12.74,12.74,0,0,1-12.75,12.74H439.25a12.75,12.75,0,1,1,0-25.49H550.79A12.75,12.75,0,0,1,563.54,510.05Z" fill="#ccc"/><path d="M235.65,234.4a111.76,111.76,0,1,1-95.22-110.61A111.85,111.85,0,0,1,235.65,234.4Z" fill="#7c8199"/><path d="M123.82,349.93a115.54,115.54,0,1,1,0-231.07A117.42,117.42,0,0,1,141,120.13a115.55,115.55,0,0,1,0,228.53A117.66,117.66,0,0,1,123.82,349.93Zm0-223.67a108.14,108.14,0,1,0,0,216.27,111,111,0,0,0,16.07-1.18c52.48-7.82,92.06-53.79,92.06-107s-39.58-99.14-92.06-106.95A109.6,109.6,0,0,0,123.82,126.26Z"/><path d="M235.65,234.4A111.85,111.85,0,0,1,140.43,345a111.85,111.85,0,0,1,0-221.21A111.85,111.85,0,0,1,235.65,234.4Z" fill="#8d91ac"/><path d="M123.82,349.93a115.54,115.54,0,1,1,0-231.07A117.42,117.42,0,0,1,141,120.13a115.55,115.55,0,0,1,0,228.53A117.66,117.66,0,0,1,123.82,349.93Zm0-223.67a108.14,108.14,0,1,0,0,216.27,111,111,0,0,0,16.07-1.18c52.48-7.82,92.06-53.79,92.06-107s-39.58-99.14-92.06-106.95A109.6,109.6,0,0,0,123.82,126.26Z"/><path d="M207.67,510.83v.78a11.19,11.19,0,0,1-11.18,11.18H51.15A11.19,11.19,0,0,1,40,511.61v-.78a11.19,11.19,0,0,1,11.19-11.18h58.09L46.25,315a111.59,111.59,0,0,0,14.26,11.66,107.29,107.29,0,0,0,11.9,7.13l51.41,150.74,51.41-150.74A112,112,0,0,0,201.38,315l-63,184.7h58.09A11.19,11.19,0,0,1,207.67,510.83Z" fill="#ccc"/><path d="M207.67,510.83v.78a11.19,11.19,0,0,1-11.18,11.18h-135a11.19,11.19,0,0,1-11.18-11.18v-.78a11.19,11.19,0,0,1,11.18-11.18h58.09l-59-173a107.29,107.29,0,0,0,11.9,7.13l51.41,150.74,68.65-161.8a111.13,111.13,0,0,0,8.91-7.73l-63,184.7h58.09A11.19,11.19,0,0,1,207.67,510.83Z" fill="#e6e6e6"/><path d="M180.67,234.4a56.86,56.86,0,1,1-59.83-56.79c1-.05,2-.07,3-.07A56.86,56.86,0,0,1,180.67,234.4Z" fill="#afd9ef"/><path d="M180.67,234.4a56.88,56.88,0,0,1-33.29,51.76c-1,0-2,.07-3,.07a56.87,56.87,0,0,1-23.56-108.62c1-.05,2-.07,3-.07A56.86,56.86,0,0,1,180.67,234.4Z" fill="#cce6f7"/><path d="M588,445.62a10.81,10.81,0,0,1-.07,1.27,11.44,11.44,0,0,1-11.37,10.16H397.14a11.42,11.42,0,0,1-7.84-3.11L218.85,293.39a113.64,113.64,0,0,0,10.41-21.64L401.67,434.18H576.58A11.42,11.42,0,0,1,588,445.62Z" fill="#ef9614"/><path d="M588,445.62a10.81,10.81,0,0,1-.07,1.27,11.3,11.3,0,0,1-5,1.13H403.54a11.39,11.39,0,0,1-7.84-3.13L224.52,283.07a107.58,107.58,0,0,0,4.74-11.32L401.67,434.18H576.58A11.42,11.42,0,0,1,588,445.62Z" fill="#f8a926"/><path d="M563.54,510.05a12.66,12.66,0,0,1-.23,2.39H455.63a12.73,12.73,0,0,1-12.52-15.14H550.79A12.75,12.75,0,0,1,563.54,510.05Z" fill="#e6e6e6"/><rect x="481.7" y="457.05" width="26.64" height="40.25" fill="#4a4a4f"/><path d="M508.34,465.15V497.3H492.43V472.08a6.94,6.94,0,0,1,6.93-6.93Z" fill="#64646e"/><rect x="474.33" y="406.05" width="41.38" height="27.63" fill="#4a4a4f"/><path d="M515.71,413.84v19.84H485v-8.55a11.28,11.28,0,0,1,11.29-11.29Z" fill="#64646e"/><path d="M576.07,387.69a18.23,18.23,0,0,1-2.25,8.82,18.43,18.43,0,0,1-16.12,9.54H432.34a18.36,18.36,0,0,1,0-36.72H557.7A18.36,18.36,0,0,1,576.07,387.69Z" fill="#ef9614"/><path d="M576.07,387.69a18.23,18.23,0,0,1-2.25,8.82,18.58,18.58,0,0,1-5.76.92H442.69a18.36,18.36,0,0,1-16.11-27.17,18.29,18.29,0,0,1,5.76-.93H557.7A18.36,18.36,0,0,1,576.07,387.69Z" fill="#f8a926"/><path d="M303,91.27V145.1a14.07,14.07,0,1,1-28.14,0V123.46L198.33,151a110.83,110.83,0,0,0-14.54-11L197,135.22l77.86-28V91.27a14.07,14.07,0,0,1,28.14,0Z" fill="#f4b59f"/><path d="M303,91.27V145.1a14.06,14.06,0,0,1-.4,3.33,13.88,13.88,0,0,1-6.69,1.7,14.08,14.08,0,0,1-14.09-14.06V114.43L205.3,142c-2.66-2.37-5.43-4.64-8.32-6.75l77.86-28V91.27a14.07,14.07,0,0,1,28.14,0Z" fill="#fccdb9"/><path d="M33.44,238.1a3.7,3.7,0,0,1-3.7-3.7A94.11,94.11,0,0,1,33.5,208,3.7,3.7,0,0,1,40.6,210a86.87,86.87,0,0,0-3.47,24.36A3.7,3.7,0,0,1,33.44,238.1Z"/><path d="M45.2,193.48A3.7,3.7,0,0,1,42,188a94,94,0,0,1,24.92-28.48,3.7,3.7,0,1,1,4.48,5.89,86.7,86.7,0,0,0-23,26.25A3.71,3.71,0,0,1,45.2,193.48Z"/><path d="M95.08,268.52a3.69,3.69,0,0,1-2.54-1,45.78,45.78,0,0,1-11.7-18,3.7,3.7,0,1,1,7-2.46,38.24,38.24,0,0,0,9.8,15.06,3.7,3.7,0,0,1,.14,5.23A3.66,3.66,0,0,1,95.08,268.52Z"/><path d="M82,238.1a3.7,3.7,0,0,1-3.7-3.7,45.46,45.46,0,0,1,25-40.67,3.7,3.7,0,0,1,3.34,6.6,38.11,38.11,0,0,0-21,34.07A3.7,3.7,0,0,1,82,238.1Z"/><path d="M432.16,400.6c4.08,0,4.09-6.34,0-6.34s-4.08,6.34,0,6.34Z"/><path d="M430,387.08a5,5,0,0,1-.42-.5l.53.7a7.5,7.5,0,0,1-.81-1.4l.35.82a7.33,7.33,0,0,1-.48-1.72l.13.91a7.07,7.07,0,0,1,0-1.78l-.12.91a7.21,7.21,0,0,1,.42-1.56l-.34.82a6.61,6.61,0,0,1,.79-1.36l-.53.69a7.16,7.16,0,0,1,1.23-1.23l-.69.54a6.93,6.93,0,0,1,1.51-.88l-.82.35a7.15,7.15,0,0,1,1.52-.43l-.91.13.47,0a3.67,3.67,0,0,0,2.43-1,3.5,3.5,0,0,0,1-2.43c-.08-1.74-1.52-3.58-3.44-3.43a10.19,10.19,0,0,0-8.85,6.47,10,10,0,0,0,2.18,10.29,3.45,3.45,0,0,0,4.85,0,3.49,3.49,0,0,0,0-4.85Z"/><path d="M123.82,295a60.56,60.56,0,0,1-3.17-121c1,0,2-.08,3.17-.08a60.56,60.56,0,1,1,0,121.11Zm0-113.71c-1,0-1.93,0-2.78.07a53.2,53.2,0,1,0,2.78-.07Z"/><path d="M196.49,526.49H51.15a14.91,14.91,0,0,1-14.89-14.88v-.78A14.91,14.91,0,0,1,51.15,496h52.92L42.75,316.15a3.7,3.7,0,0,1,6.07-3.86,107.59,107.59,0,0,0,13.79,11.27,102.71,102.71,0,0,0,11.49,6.89,3.71,3.71,0,0,1,1.81,2.1L123.82,473l47.91-140.47a3.61,3.61,0,0,1,1.8-2.09,108.49,108.49,0,0,0,25.28-18.17,3.7,3.7,0,0,1,6.07,3.86L143.57,496h52.92a14.9,14.9,0,0,1,14.88,14.88v.78A14.9,14.9,0,0,1,196.49,526.49ZM51.15,503.35a7.49,7.49,0,0,0-7.49,7.48v.78a7.49,7.49,0,0,0,7.49,7.48H196.49a7.49,7.49,0,0,0,7.48-7.48v-.78a7.49,7.49,0,0,0-7.48-7.48H138.4a3.7,3.7,0,0,1-3.5-4.89l58.62-171.93a114.83,114.83,0,0,1-15.27,9.8L127.32,485.67a3.7,3.7,0,0,1-7,0L69.39,336.33a111.23,111.23,0,0,1-11-6.68q-2.19-1.5-4.3-3.11l58.63,171.92a3.71,3.71,0,0,1-3.5,4.89Z"/><path d="M576.58,460.75H397.14a15,15,0,0,1-10.38-4.13L216.31,296.08a3.71,3.71,0,0,1-.6-4.65,105.23,105.23,0,0,0,5.48-10,104,104,0,0,0,4.58-11,3.69,3.69,0,0,1,2.61-2.36,3.73,3.73,0,0,1,3.41.9L403.14,430.48H576.58a15.15,15.15,0,0,1,15.14,15.14,16,16,0,0,1-.1,1.73A15.08,15.08,0,0,1,576.58,460.75Zm-353-168L391.84,451.25a7.69,7.69,0,0,0,5.3,2.11H576.58a7.72,7.72,0,0,0,7.69-6.87,6.44,6.44,0,0,0,.05-.87,7.75,7.75,0,0,0-7.74-7.74H401.67a3.66,3.66,0,0,1-2.53-1L230.74,278.23c-.91,2.22-1.88,4.37-2.89,6.46C226.56,287.37,225.12,290.07,223.56,292.74Z"/><path d="M557.7,409.75H432.34a22.08,22.08,0,0,1-22.06-22.06,21.86,21.86,0,0,1,6.46-15.6,22.2,22.2,0,0,1,8.68-5.34,21.85,21.85,0,0,1,6.92-1.12H557.7a22.06,22.06,0,0,1,19.36,32.65,22.09,22.09,0,0,1-19.36,11.47ZM432.34,373a14.51,14.51,0,0,0-4.59.74,14.82,14.82,0,0,0-5.79,3.56,14.66,14.66,0,0,0,10.38,25H557.7a14.61,14.61,0,0,0,10.38-4.3,14.81,14.81,0,0,0,2.5-3.33A14.67,14.67,0,0,0,557.7,373Z"/><path d="M515.71,437.38H474.33a3.7,3.7,0,0,1-3.7-3.7V406.05a3.7,3.7,0,0,1,3.7-3.7h41.38a3.7,3.7,0,0,1,3.7,3.7v27.63A3.7,3.7,0,0,1,515.71,437.38ZM478,430h34V409.75H478Z"/><path d="M508.34,501H481.7a3.69,3.69,0,0,1-3.7-3.7V457.05a3.69,3.69,0,0,1,3.7-3.69h26.64a3.69,3.69,0,0,1,3.69,3.69V497.3A3.69,3.69,0,0,1,508.34,501Zm-22.94-7.39h19.24V460.75H485.4Z"/><path d="M550.79,526.49H439.25a16.44,16.44,0,1,1,0-32.88H550.79a16.44,16.44,0,1,1,0,32.88ZM439.25,501a9,9,0,1,0,0,18.09H550.79a9,9,0,0,0,8.89-7.34,8.67,8.67,0,0,0,.16-1.7,9.06,9.06,0,0,0-9.05-9.05Z"/><path d="M288.92,162.86a17.79,17.79,0,0,1-17.78-17.76V128.72L199.58,154.5a3.71,3.71,0,0,1-3.73-.73,106.44,106.44,0,0,0-14-10.67,3.7,3.7,0,0,1,.73-6.6l88.61-31.91V91.27a17.77,17.77,0,0,1,35.54,0V145.1a17.77,17.77,0,0,1-17.76,17.76Zm-14.08-43.1a3.69,3.69,0,0,1,3.7,3.7V145.1A10.37,10.37,0,0,0,299,147.56a10.23,10.23,0,0,0,.3-2.46V91.27a10.37,10.37,0,0,0-20.74,0v15.92a3.7,3.7,0,0,1-2.45,3.48L191.84,141q3.78,2.76,7.29,5.8L273.59,120A3.58,3.58,0,0,1,274.84,119.76Z"/></svg>