<svg id="Fitness_Color_Icons" data-name="Fitness Color Icons" xmlns="http://www.w3.org/2000/svg" viewBox="0 0 600 600"><path d="M124.18,316.92v170a35.71,35.71,0,1,1-71.41,0v-170Z" fill="#ef9614"/><path d="M156.79,287.56v7.49a21.88,21.88,0,0,1-21.86,21.87H42a21.87,21.87,0,0,1-21.87-21.87v-7.49A21.87,21.87,0,0,1,42,265.69h92.9A21.87,21.87,0,0,1,156.79,287.56Z" fill="#bd3b43"/><path d="M156.79,287.56v7.49a21.71,21.71,0,0,1-.57,4.95H68.1a21.87,21.87,0,0,1-21.87-21.87v-7.5a21.75,21.75,0,0,1,.57-4.94h88.13A21.87,21.87,0,0,1,156.79,287.56Z" fill="#ff807d"/><path d="M579.84,287.56v7.49a21.16,21.16,0,0,1-.57,4.95A21.85,21.85,0,0,1,558,316.92h-92.9a21.87,21.87,0,0,1-21.86-21.87v-7.49a21.87,21.87,0,0,1,21.86-21.87H558A21.86,21.86,0,0,1,579.84,287.56Z" fill="#bd3b43"/><path d="M579.84,287.56v7.49a21.16,21.16,0,0,1-.57,4.95H491.15a21.87,21.87,0,0,1-21.86-21.87v-7.5a21.2,21.2,0,0,1,.57-4.94H558A21.86,21.86,0,0,1,579.84,287.56Z" fill="#ff807d"/><path d="M547.24,316.92v170a35.71,35.71,0,0,1-71.42,0v-170Z" fill="#ef9614"/><path d="M124.18,316.92v170a35.71,35.71,0,0,1-22.75,33.28,35.71,35.71,0,0,1-22.76-33.28v-170Z" fill="#f8a926"/><path d="M547.24,316.92v170a35.71,35.71,0,0,1-22.76,33.28,35.7,35.7,0,0,1-22.75-33.28v-170Z" fill="#f8a926"/><path d="M558,320.48H465.08a25.44,25.44,0,0,1-25.41-25.42v-7.51a25.44,25.44,0,0,1,25.41-25.42H558a25.46,25.46,0,0,1,25.42,25.42v7.51A25.46,25.46,0,0,1,558,320.48Zm-92.89-51.24a18.33,18.33,0,0,0-18.3,18.31v7.51a18.33,18.33,0,0,0,18.3,18.31H558a18.34,18.34,0,0,0,18.31-18.31v-7.51A18.34,18.34,0,0,0,558,269.24Z"/><path d="M441,8.1a80.4,80.4,0,0,0-80.31,80.31V511.58a60.71,60.71,0,1,1-121.42,0V88.41a80.31,80.31,0,1,0-160.62,0V265.69h19.6V88.41a60.71,60.71,0,1,1,121.42,0V511.58a80.31,80.31,0,0,0,160.62,0V88.41a60.71,60.71,0,0,1,121.42,0V265.69h19.6V88.41A80.4,80.4,0,0,0,441,8.1Z" fill="#f8a926"/><path d="M300,595.45a83.94,83.94,0,0,1-83.86-83.87V88.41a57.16,57.16,0,0,0-114.31,0V265.69a3.55,3.55,0,0,1-3.56,3.55H78.67a3.55,3.55,0,0,1-3.55-3.55V88.41a83.87,83.87,0,0,1,167.73,0V511.58a57.15,57.15,0,1,0,114.3,0V88.41a83.87,83.87,0,0,1,167.73,0V265.69a3.55,3.55,0,0,1-3.55,3.55h-19.6a3.55,3.55,0,0,1-3.56-3.55V88.41a57.16,57.16,0,0,0-114.31,0V511.58A83.94,83.94,0,0,1,300,595.45ZM159,24.15a64.33,64.33,0,0,1,64.26,64.26V511.58a76.75,76.75,0,0,0,153.5,0V88.41a64.27,64.27,0,0,1,128.53,0V262.13h12.49V88.41a76.76,76.76,0,0,0-153.51,0V511.58a64.26,64.26,0,1,1-128.52,0V88.41a76.76,76.76,0,0,0-153.51,0V262.13H94.72V88.41A64.33,64.33,0,0,1,159,24.15Z"/><path d="M88.47,526.18a39.3,39.3,0,0,1-39.25-39.26v-170a3.55,3.55,0,0,1,3.55-3.55h71.41a3.55,3.55,0,0,1,3.56,3.55v170a39.24,39.24,0,0,1-39.27,39.26ZM56.33,320.47V486.92a32.15,32.15,0,1,0,64.3,0V320.47Z"/><path d="M511.53,526.18a39.3,39.3,0,0,1-39.27-39.26v-170a3.55,3.55,0,0,1,3.56-3.55h71.42a3.55,3.55,0,0,1,3.55,3.55v170a39.26,39.26,0,0,1-39.26,39.26ZM479.37,320.47V486.92a32.16,32.16,0,1,0,64.31,0V320.47Z"/><path d="M134.92,320.48H42a25.46,25.46,0,0,1-25.42-25.42v-7.51A25.46,25.46,0,0,1,42,262.13h92.89a25.45,25.45,0,0,1,25.42,25.42v7.51A25.45,25.45,0,0,1,134.92,320.48ZM42,269.24a18.34,18.34,0,0,0-18.31,18.31v7.51A18.34,18.34,0,0,0,42,313.37h92.89a18.34,18.34,0,0,0,18.32-18.31v-7.51a18.34,18.34,0,0,0-18.32-18.31Z"/><path d="M73,375.85a3.5,3.5,0,0,1-3.5-3.5v-39a3.5,3.5,0,0,1,7,0v39A3.5,3.5,0,0,1,73,375.85Z"/><path d="M73,484.68a3.5,3.5,0,0,1-3.5-3.5v-88.4a3.5,3.5,0,0,1,7,0v88.4A3.5,3.5,0,0,1,73,484.68Z"/><path d="M490.1,375.85a3.5,3.5,0,0,1-3.5-3.5v-39a3.5,3.5,0,0,1,7,0v39A3.5,3.5,0,0,1,490.1,375.85Z"/><path d="M490.1,484.68a3.5,3.5,0,0,1-3.5-3.5v-88.4a3.5,3.5,0,0,1,7,0v88.4A3.5,3.5,0,0,1,490.1,484.68Z"/></svg>