<svg id="Fitness_Color_Icons" data-name="Fitness Color Icons" xmlns="http://www.w3.org/2000/svg" viewBox="0 0 600 600"><path d="M373,30.09V62.44a81.38,81.38,0,0,0-36.65,0V30.09Z" fill="#cce6f7"/><path d="M373,66.21a4.17,4.17,0,0,1-.85-.09,77.82,77.82,0,0,0-34.95,0,3.79,3.79,0,0,1-4.62-3.68V30.09a3.77,3.77,0,0,1,3.77-3.77H373a3.77,3.77,0,0,1,3.77,3.77V62.44A3.77,3.77,0,0,1,373,66.21Zm-18.32-9.63a84.51,84.51,0,0,1,14.55,1.26v-24h-29.1v24A84.42,84.42,0,0,1,354.71,56.58Z"/><rect x="320.2" y="7.56" width="69.02" height="21.92" rx="10.17" fill="#cce6f7"/><path d="M378.26,33.25h-47.1a14.73,14.73,0,0,1,0-29.46h47.1a14.73,14.73,0,1,1,0,29.46Zm-47.1-21.92a7.19,7.19,0,1,0,0,14.37h47.1a7.19,7.19,0,1,0,0-14.37Z"/><path d="M435.49,141.15H273.93a80.79,80.79,0,0,1,159.79-16.9A81.69,81.69,0,0,1,435.49,141.15Z" fill="#64646e"/><path d="M433.72,124.25H347.45c-28,0-42.87-33.18-24.15-54A80,80,0,0,1,329,64.55a80.87,80.87,0,0,1,104.76,59.7Z" fill="#8d91ac"/><path d="M475.63,173.2v45.6a11.79,11.79,0,0,1-11.78,11.79H245.57a11.78,11.78,0,0,1-11.78-11.79V173.2a32,32,0,0,1,32-32H443.58A32.05,32.05,0,0,1,475.63,173.2Z" fill="#41a3e0"/><path d="M475.63,423.49V560.37a32,32,0,0,1-32.05,32.07H265.84a32.06,32.06,0,0,1-32-32.07V423.49a9.5,9.5,0,0,1,9.5-9.51H466.13A9.5,9.5,0,0,1,475.63,423.49Z" fill="#41a3e0"/><path d="M475.63,423.49V560.37a32.4,32.4,0,0,1-.5,5.7,32,32,0,0,1-7,.76H290.43a32.06,32.06,0,0,1-32.07-32.06V414H466.13A9.5,9.5,0,0,1,475.63,423.49Z" fill="#6bb5f6"/><path d="M454.87,414H254.55a115.74,115.74,0,0,0,0-70.4H454.87C446.84,368.84,447.41,392.18,454.87,414Z" fill="#afd9ef"/><path d="M454.87,414H275.31a115.59,115.59,0,0,0,0-70.4H454.87C446.84,368.84,447.41,392.18,454.87,414Z" fill="#cce6f7"/><path d="M475.63,303.91v30.78a8.89,8.89,0,0,1-8.9,8.89h-224a8.89,8.89,0,0,1-8.9-8.89V303.91a8.9,8.9,0,0,1,8.9-8.9h224A8.9,8.9,0,0,1,475.63,303.91Z" fill="#41a3e0"/><path d="M475.63,173.2v42.57H262.34A11.79,11.79,0,0,1,250.55,204v-45.6a31.9,31.9,0,0,1,3.78-15.11,31.85,31.85,0,0,1,11.51-2.13H443.58A32.05,32.05,0,0,1,475.63,173.2Z" fill="#6bb5f6"/><path d="M475.63,303.91v24.87H259.44a8.9,8.9,0,0,1-8.89-8.9V295H466.73A8.9,8.9,0,0,1,475.63,303.91Z" fill="#6bb5f6"/><rect x="254.55" y="230.59" width="200.32" height="64.42" fill="#afd9ef"/><rect x="273.93" y="230.59" width="180.94" height="64.42" fill="#cce6f7"/><path d="M233.81,172.35a32,32,0,0,1,18.66-28.28,7.46,7.46,0,0,0-2-2.17,5.89,5.89,0,0,0-1-.64,7.55,7.55,0,0,0-8.72,1.44c-6.67,6.73-162.6,165.77-102.62,247,8.82,11.94,17.45,15.2,24.26,15.2a21.46,21.46,0,0,0,4.44-.46c.29-.05.59-.12.87-.19,13.37-3.38,25.19-18.72,37.18-48.3,8.72-21.49,17.39-50.48,25.78-86.14,3.27-13.93,6.24-27.82,8.9-41a11.83,11.83,0,0,1-5.7-10.1v-42q-.58,3.43-1.23,7.15c-3.91,22.4-9.6,52.36-16.68,82.49-22.13,94.14-40.23,116.84-49.11,122a11.21,11.21,0,0,1-2.83,1.19c-4,1-8.65-2-13.73-8.86-26.77-36.26,1.41-95.46,29.76-138.73C198.42,213.9,219.39,188.64,233.81,172.35Z" fill="#ff807d"/><path d="M232.56,184l1.23-1.43v-5.72Q233.21,180.28,232.56,184Zm1.25-11.65a32,32,0,0,1,18.66-28.28,7.46,7.46,0,0,0-2-2.17,6.35,6.35,0,0,0-.93.8c-6.67,6.73-162.6,165.77-102.62,247,7,9.49,13.9,13.5,19.86,14.74.29-.05.59-.12.87-.19,13.37-3.38,25.19-18.72,37.18-48.3,8.72-21.49,17.39-50.48,25.78-86.14,3.27-13.93,6.24-27.82,8.9-41a11.76,11.76,0,0,1-5.21-6.75c-2.8,14.12-6,29.21-9.57,44.34C199.89,372.1,180.13,387.8,172.78,389.65a7.77,7.77,0,0,1-6-1.19,11.21,11.21,0,0,1-2.83,1.19c-4,1-8.65-2-13.73-8.86-26.77-36.26,1.41-95.46,29.76-138.73C198.42,213.9,219.39,188.64,233.81,172.35Z" fill="#bd3b43"/><path d="M250.55,524.41a3.77,3.77,0,0,1-3.77-3.77v-62a3.77,3.77,0,1,1,7.54,0v62A3.77,3.77,0,0,1,250.55,524.41Z"/><path d="M278.39,578.57h-.2c-9-.46-16.3-3.75-21.69-9.77-10.73-12-9.76-30.5-9.72-31.28a3.77,3.77,0,0,1,7.53.44h0c0,.16-.8,16.22,7.83,25.84,4,4.45,9.53,6.88,16.44,7.24a3.77,3.77,0,0,1-.19,7.54Z"/><path d="M250.51,332.54a3.77,3.77,0,0,1-3.77-3.77V309.83a3.78,3.78,0,1,1,7.55,0v18.94A3.77,3.77,0,0,1,250.51,332.54Z"/><path d="M250.51,185.17a3.77,3.77,0,0,1-3.77-3.77V167.83a3.78,3.78,0,0,1,7.55,0V181.4A3.77,3.77,0,0,1,250.51,185.17Z"/><path d="M250.51,223.58a3.77,3.77,0,0,1-3.77-3.77V194.2a3.78,3.78,0,0,1,7.55,0v25.61A3.77,3.77,0,0,1,250.51,223.58Z"/><path d="M418.34,133.84a3.78,3.78,0,0,1-3.74-3.29c-2.43-18.77-14.3-26.54-14.42-26.62a3.77,3.77,0,0,1,4.06-6.36c.61.39,15,9.78,17.84,32a3.77,3.77,0,0,1-3.25,4.23Z"/><path d="M443.58,596.21H265.84A35.88,35.88,0,0,1,230,560.37V423.49a13.3,13.3,0,0,1,13.28-13.28H466.13a13.29,13.29,0,0,1,13.27,13.28V560.37a36.36,36.36,0,0,1-.56,6.37A35.78,35.78,0,0,1,443.58,596.21ZM243.29,417.75a5.74,5.74,0,0,0-5.73,5.74V560.37a28.31,28.31,0,0,0,28.28,28.3H443.58a28.3,28.3,0,0,0,28.28-28.3V423.49a5.74,5.74,0,0,0-5.73-5.74Z"/><path d="M454.87,417.75H254.55a3.76,3.76,0,0,1-3.6-4.89,112.47,112.47,0,0,0,0-68.16,3.77,3.77,0,0,1,3.6-4.89H454.87a3.77,3.77,0,0,1,3.59,4.91c-7.55,23.76-7.55,46,0,68a3.76,3.76,0,0,1-3.57,5Zm-195.3-7.54H449.72c-5.89-20.24-5.86-41.34.1-62.86H259.57A119.29,119.29,0,0,1,259.57,410.21Z"/><path d="M454.87,298.78H254.55a3.77,3.77,0,0,1-3.77-3.77V230.59a3.77,3.77,0,0,1,3.77-3.77H454.87a3.77,3.77,0,0,1,3.77,3.77V295A3.77,3.77,0,0,1,454.87,298.78Zm-196.55-7.54H451.1V234.36H258.32Z"/><path d="M463.85,234.36H245.57A15.58,15.58,0,0,1,230,218.8V173.2a36,36,0,0,1,23-33.44,35.56,35.56,0,0,1,12.86-2.38H443.58A35.86,35.86,0,0,1,479.4,173.2v45.6A15.57,15.57,0,0,1,463.85,234.36Zm-198-89.44a28,28,0,0,0-10.15,1.88,28.44,28.44,0,0,0-18.13,26.4v45.6a8,8,0,0,0,8,8H463.85a8,8,0,0,0,8-8V173.2a28.32,28.32,0,0,0-28.28-28.28Z"/><path d="M466.73,347.35h-224A12.69,12.69,0,0,1,230,334.69V303.91a12.69,12.69,0,0,1,12.68-12.67h224a12.68,12.68,0,0,1,12.67,12.67v30.78A12.68,12.68,0,0,1,466.73,347.35Zm-224-48.57a5.13,5.13,0,0,0-5.13,5.13v30.78a5.13,5.13,0,0,0,5.13,5.12h224a5.13,5.13,0,0,0,5.13-5.12V303.91a5.13,5.13,0,0,0-5.13-5.13Z"/><path d="M435.49,144.92H273.93a3.77,3.77,0,0,1-3.77-3.77,84.55,84.55,0,1,1,169.1,0A3.77,3.77,0,0,1,435.49,144.92Zm-157.7-7.54H431.62a77,77,0,0,0-153.83,0Z"/><path d="M162.32,408.71c-9.91,0-19.09-5.63-27.29-16.73-14.4-19.51-18-44.76-10.84-75.05,5.68-23.89,18.13-51,37-80.69,32.3-50.74,72.34-91.69,76.8-96.2a11.29,11.29,0,0,1,13.07-2.16,9.38,9.38,0,0,1,1.62,1,11.09,11.09,0,0,1,3,3.22,3.76,3.76,0,0,1-1.64,5.4,28.1,28.1,0,0,0-16.46,25,3.8,3.8,0,0,1-.76,2.17,3.78,3.78,0,0,1,.74,2.23v42a7.71,7.71,0,0,0,.33,2.25,8,8,0,0,0,3.55,4.62,3.76,3.76,0,0,1,1.74,4c-2.94,14.58-5.94,28.4-8.92,41.07-8.43,35.84-17.16,65-25.95,86.7-12.48,30.78-25.12,46.84-39.76,50.53-.31.09-.72.18-1.11.25A25,25,0,0,1,162.32,408.71Zm74.42-256.47c-13.45,14.3-43.74,48.1-69.18,88-18.43,28.94-30.55,55.31-36,78.38-6.66,28-3.44,51.19,9.58,68.83,6.69,9.07,13.83,13.67,21.22,13.67a17.8,17.8,0,0,0,3.65-.38c.29-.05.49-.09.67-.14,12-3,23.33-18.1,34.68-46.07,8.65-21.33,17.26-50.13,25.59-85.59,2.8-11.92,5.63-24.86,8.4-38.49a15.7,15.7,0,0,1-5.3-11.7v-.35c-3,15.14-6.48,32-10.46,48.9-21.35,90.83-39.46,117.77-50.9,124.37a14.83,14.83,0,0,1-3.77,1.59c-5.67,1.42-11.63-2-17.71-10.29-28-38,.64-98.75,29.64-143,18.26-27.87,38.89-52.82,53.29-69.15A35.6,35.6,0,0,1,236.74,152.24Zm-8,31.68a608.37,608.37,0,0,0-45.62,60.21c-27.69,42.27-55.36,99.9-29.88,134.42,3.92,5.31,7.48,8,9.78,7.45a8.13,8.13,0,0,0,1.86-.8c6.69-3.87,24.68-23.25,47.33-119.57C219.44,234.84,225.18,204.3,228.74,183.92Zm5.07-11.57h0Z"/></svg>