<svg id="Fitness_Color_Icons" data-name="Fitness Color Icons" xmlns="http://www.w3.org/2000/svg" viewBox="0 0 600 600"><path d="M381.78,165.22V526.37a66,66,0,0,1-66,66H97.91a66,66,0,0,1-66-66V165.22A66,66,0,0,1,89,99.83a67.26,67.26,0,0,1,8.92-.6H315.79A66,66,0,0,1,381.78,165.22Z" fill="#ea4747"/><path d="M315.79,596.36H97.91a70.07,70.07,0,0,1-70-70V165.22A70.2,70.2,0,0,1,88.45,95.85a71.59,71.59,0,0,1,9.46-.64H315.79a70.09,70.09,0,0,1,70,70V526.36a69.94,69.94,0,0,1-70,70ZM97.91,103.25a63.91,63.91,0,0,0-8.39.56A62.14,62.14,0,0,0,36,165.22V526.36a62,62,0,0,0,62,62H315.79a61.9,61.9,0,0,0,62-62V165.22a62,62,0,0,0-62-62Z"/><path d="M381.78,165.22V526.37a65.52,65.52,0,0,1-5.4,26.15,67.3,67.3,0,0,1-8.93.6H149.57a66,66,0,0,1-66-66V126A65.57,65.57,0,0,1,89,99.83a67.26,67.26,0,0,1,8.92-.6H315.79A66,66,0,0,1,381.78,165.22Z" fill="#ff807d"/><path d="M102.75,296.31a117,117,0,0,0-3.43,98.95H31.93V296.31Z" fill="#8d91ac"/><path d="M99.32,399.27H31.93a4,4,0,0,1-4-4V296.31a4,4,0,0,1,4-4h70.82a4,4,0,0,1,3.42,1.92,4,4,0,0,1,.15,3.93A113,113,0,0,0,103,393.68a4,4,0,0,1-3.69,5.59Zm-63.38-8H93.4a121.22,121.22,0,0,1,3-90.91H35.94Z"/><path d="M381.78,296.31v98.95h-67.4A117,117,0,0,0,311,296.31Z" fill="#8d91ac"/><path d="M381.78,399.27h-67.4a4,4,0,0,1-3.69-5.59,113,113,0,0,0-3.31-95.53A4,4,0,0,1,311,292.3h70.82a4,4,0,0,1,4,4v98.95A4,4,0,0,1,381.78,399.27Zm-61.47-8h57.45V300.33H317.34a121.22,121.22,0,0,1,3,90.91Z"/><path d="M323.72,349.45A117,117,0,1,1,206.86,232.57,116.87,116.87,0,0,1,323.72,349.45Z" fill="#4a4a4f"/><path d="M323.72,349.45a116.87,116.87,0,0,1-67.05,105.74,118.32,118.32,0,0,1-18.18,1.4A116.88,116.88,0,0,1,188.71,234a117,117,0,0,1,135,115.48Z" fill="#64646e"/><path d="M244.23,338.1l-.9,0c-6.07-.3-12.13-.48-18.2-.62s-12.14-.14-18.21-.23-12.13.06-18.2.17h-.47c.65-1.32,1.32-2.63,2-3.95,3.38-6.92,6.68-13.89,9.81-21s6.16-14.19,9-21.41,5.53-14.56,7.86-22.09c-5.4,5.74-10.46,11.68-15.34,17.73S192,298.89,187.4,305.12s-9,12.52-13.39,18.88-8.6,12.76-12.72,19.25a10.58,10.58,0,0,0-1.61,5.07,10.43,10.43,0,0,0,9.9,10.94l.94.05c6.07.3,12.13.4,18.2.57s12.14.14,18.2.17,12.14,0,18.21-.24l2.68-.07c-.67,1.81-1.37,3.61-2,5.43q-1.91,5.25-3.7,10.55c-1.22,3.51-2.38,7.06-3.52,10.62q-3.44,10.65-6.41,21.52c-2,7.24-3.79,14.57-5.25,22.05,4.62-6.07,8.89-12.29,13-18.59s8-12.68,11.78-19.12c1.9-3.21,3.77-6.44,5.58-9.7s3.64-6.5,5.41-9.78,3.53-6.55,5.23-9.85,3.45-6.59,5.09-9.92A10.5,10.5,0,0,0,254,348.9,10.32,10.32,0,0,0,244.23,338.1Z" fill="#f8a926"/><path d="M206.92,433.92a4,4,0,0,1-1.64-.35,4,4,0,0,1-2.3-4.43c1.35-6.92,3.08-14.23,5.31-22.35,2-7.29,4.18-14.59,6.47-21.69,1.26-4,2.43-7.47,3.55-10.7,1-3.08,2.2-6.42,3.67-10.48-2.87.05-5.77.07-8.59.09-2.14,0-4.27,0-6.41.05-6.53,0-12.35-.06-18.33-.17l-4.7-.12c-4.46-.11-9.07-.22-13.63-.45l-.95-.05a14.47,14.47,0,0,1-13.71-15.15,14.67,14.67,0,0,1,2.23-7c3.78-5.95,8-12.28,12.8-19.38s9.29-13.34,13.48-19c4.25-5.81,8.93-11.89,14.27-18.53,5.48-6.8,10.56-12.68,15.55-18a4,4,0,0,1,6.76,3.94c-2.15,7-4.75,14.28-8,22.39-3.15,7.94-6.13,15-9.1,21.58-2.6,5.88-5.53,12.17-8.92,19.15,3.91,0,7.88-.06,12.14-.08,2.21,0,4.34,0,6.48.05,3.88,0,7.9.05,11.87.18,6.91.15,12.73.34,18.27.62l.9,0a14.32,14.32,0,0,1,13.61,15,14.62,14.62,0,0,1-1.45,5.61c-1.64,3.34-3.37,6.65-5.14,10-1.84,3.57-3.57,6.83-5.27,9.92-2.06,3.81-3.79,6.95-5.44,9.84s-3.51,6.19-5.61,9.75c-3.76,6.41-7.75,12.9-11.87,19.25-4.58,7.07-8.88,13.24-13.14,18.84A4,4,0,0,1,206.92,433.92Zm20.89-78.19a4,4,0,0,1,3.76,5.41l-.63,1.68c-.45,1.23-.91,2.45-1.35,3.69-1.48,4.08-2.65,7.4-3.68,10.48s-2.25,6.65-3.5,10.57c-2.26,7-4.4,14.17-6.37,21.36-.15.54-.3,1.08-.44,1.62.3-.46.61-.93.91-1.41,4.06-6.25,8-12.63,11.69-19,2.08-3.51,3.89-6.65,5.54-9.62s3.34-5.95,5.38-9.73c1.68-3.06,3.38-6.25,5.21-9.79,1.75-3.35,3.45-6.61,5-9.85a6.33,6.33,0,0,0,.64-2.48,6.22,6.22,0,0,0-1.62-4.53,6.3,6.3,0,0,0-4.35-2.06h0l-.91,0c-5.46-.27-11.21-.46-18.09-.61-3.91-.13-7.87-.15-11.7-.17l-6.47-.06c-6.39,0-12.22.06-18.08.17h-.43a4,4,0,0,1-3.71-5.8l.8-1.6c.39-.78.78-1.56,1.16-2.34,3.75-7.66,6.94-14.47,9.75-20.82s5.86-13.44,9-21.26c.29-.73.57-1.46.85-2.17l-1.47,1.81c-5.26,6.55-9.86,12.53-14.06,18.27-4.14,5.59-8.49,11.72-13.31,18.76s-8.93,13.28-12.65,19.15a6.52,6.52,0,0,0-1,3.11,6.42,6.42,0,0,0,6.09,6.73l.94.05c4.46.22,9,.33,13.42.44l4.69.12c5.89.11,11.69.14,18.11.17,2.09,0,4.24,0,6.4-.06,3.83,0,7.79,0,11.65-.17l2.72-.07Z"/><path d="M311,35.2v64H102.75v-64A27.54,27.54,0,0,1,130.29,7.66H283.41A27.55,27.55,0,0,1,311,35.2Z" fill="#afd9ef"/><path d="M311,35.2v46h-145a37.35,37.35,0,0,1-37.36-37.35V17.21a27,27,0,0,1,1.71-9.55H283.41A27.55,27.55,0,0,1,311,35.2Z" fill="#cce6f7"/><path d="M311,103.25H102.75a4,4,0,0,1-4-4v-64A31.59,31.59,0,0,1,130.29,3.64H283.41A31.6,31.6,0,0,1,315,35.2v64A4,4,0,0,1,311,103.25Zm-204.19-8H306.94v-60a23.55,23.55,0,0,0-23.53-23.52H130.29A23.55,23.55,0,0,0,106.77,35.2Z"/><path d="M136.41,102.94a4,4,0,0,1-4-4V62.09a4,4,0,0,1,8,0V98.92A4,4,0,0,1,136.41,102.94Z"/><path d="M136.41,47.86a4,4,0,0,1-4-4V27.06a4,4,0,1,1,8,0V43.84A4,4,0,0,1,136.41,47.86Z"/><path d="M171.08,67.9a4,4,0,0,1-4-4V27.06a4,4,0,1,1,8,0V63.88A4,4,0,0,1,171.08,67.9Z"/><path d="M171.08,102.94a4,4,0,0,1-4-4V82.13a4,4,0,0,1,8,0V98.92A4,4,0,0,1,171.08,102.94Z"/><path d="M206.41,102.94a4,4,0,0,1-4-4V62.09a4,4,0,0,1,8,0V98.92A4,4,0,0,1,206.41,102.94Z"/><path d="M206.41,47.86a4,4,0,0,1-4-4V27.06a4,4,0,0,1,8,0V43.84A4,4,0,0,1,206.41,47.86Z"/><path d="M242.25,102.94a4,4,0,0,1-4-4V62.09a4,4,0,0,1,8,0V98.92A4,4,0,0,1,242.25,102.94Z"/><path d="M242.25,47.86a4,4,0,0,1-4-4V27.06a4,4,0,1,1,8,0V43.84A4,4,0,0,1,242.25,47.86Z"/><path d="M277.29,67.9a4,4,0,0,1-4-4V27.06a4,4,0,1,1,8,0V63.88A4,4,0,0,1,277.29,67.9Z"/><path d="M277.29,102.94a4,4,0,0,1-4-4V82.13a4,4,0,0,1,8,0V98.92A4,4,0,0,1,277.29,102.94Z"/><path d="M111.67,344.89l-.56,0a4,4,0,0,1-3.42-4.54c7.11-50.9,37.77-70.65,39.07-71.46a4,4,0,0,1,4.28,6.8c-.41.26-28.84,18.88-35.39,65.77A4,4,0,0,1,111.67,344.89Z"/><path d="M127,406.21a4,4,0,0,1-3.2-1.58c-13.3-17.49-16-42.93-16.13-44a4,4,0,1,1,8-.82c0,.33,2.63,24.32,14.53,39.95a4,4,0,0,1-3.2,6.45Z"/><path d="M67.34,184a4,4,0,0,1-4-4c0-40.23,21.17-52.35,22.07-52.85a4,4,0,0,1,3.9,7c-.79.46-17.94,10.75-17.94,45.83A4,4,0,0,1,67.34,184Z"/><path d="M67.34,280.29a4,4,0,0,1-4-4V205.84a4,4,0,1,1,8,0v70.44A4,4,0,0,1,67.34,280.29Z"/><path d="M516.78,474.9a39.27,39.27,0,0,1-10.63,26.93l-27.16,29L421.38,477l27.16-29a39.44,39.44,0,0,1,68.24,26.95Z" fill="#bd3b43"/><path d="M479,534.88a4,4,0,0,1-2.74-1.08l-57.62-53.88a4,4,0,0,1-.19-5.68l27.17-29a43.45,43.45,0,1,1,63.47,59.37l-27.15,29A4,4,0,0,1,479,534.88ZM427.05,476.8l51.75,48.39,24.42-26.11a35.42,35.42,0,1,0-51.74-48.39Z"/><path d="M423,576.42a43.14,43.14,0,0,1-29.65-11.72,43.46,43.46,0,0,1-2.07-61.42l27.16-29a4,4,0,0,1,5.68-.19l57.62,53.88a4,4,0,0,1,1.27,2.8,4,4,0,0,1-1.08,2.88l-27.16,29a43.16,43.16,0,0,1-30.28,13.75Zm-1.43-93.75-24.42,26.1a35.42,35.42,0,1,0,51.75,48.39l24.42-26.1Z"/><path d="M528.62,595.51H488.87a4,4,0,0,1-4-4v-71.2a4,4,0,0,1,1.08-2.74l7.2-7.69a4,4,0,0,1,2.93-1.27h32.56a43.46,43.46,0,0,1,0,86.92Zm-35.74-8h35.74a35.43,35.43,0,1,0,0-70.85H497.81l-4.93,5.26Z"/><path d="M488.87,520.29v71.2H449.12a39.39,39.39,0,0,1-34.29-20,39.29,39.29,0,0,0,37-11.64Z" fill="#bd3b43"/><path d="M488.87,595.51H449.12a43.52,43.52,0,0,1-37.78-22,4,4,0,0,1,4.33-5.91,35,35,0,0,0,33.22-10.45l37-39.6a4,4,0,0,1,6.95,2.74v71.2A4,4,0,0,1,488.87,595.51Zm-65.43-19.07a35.5,35.5,0,0,0,25.68,11h35.73v-57l-30.09,32.17A43,43,0,0,1,423.44,576.44Z"/><path d="M315.79,596.36H97.91a70.07,70.07,0,0,1-70-70V165.22A70.2,70.2,0,0,1,88.45,95.85a71.59,71.59,0,0,1,9.46-.64H315.79a70.09,70.09,0,0,1,70,70V526.36a69.94,69.94,0,0,1-70,70ZM97.91,103.25a63.91,63.91,0,0,0-8.39.56A62.14,62.14,0,0,0,36,165.22V526.36a62,62,0,0,0,62,62H315.79a61.9,61.9,0,0,0,62-62V165.22a62,62,0,0,0-62-62Z"/><path d="M206.86,470.33A120.9,120.9,0,0,1,188.09,230a122.82,122.82,0,0,1,18.77-1.45,120.9,120.9,0,0,1,51.52,230.27A119.73,119.73,0,0,1,206.86,470.33Zm0-233.74a114.12,114.12,0,0,0-17.53,1.35A112.87,112.87,0,1,0,255,451.56a112.87,112.87,0,0,0-48.1-215Z"/></svg>