<svg id="Fitness_Color_Icons" data-name="Fitness Color Icons" xmlns="http://www.w3.org/2000/svg" viewBox="0 0 600 600"><path d="M556.57,336.2A256.43,256.43,0,0,1,300,592.76C158.3,592.76,43.43,477.9,43.43,336.2c0-126,90.77-230.74,210.48-252.44A256.37,256.37,0,0,1,300,79.62C441.7,79.62,556.57,194.49,556.57,336.2Z" fill="#ef9614"/><path d="M556.57,336.2A256.49,256.49,0,0,1,427.25,559a257.82,257.82,0,0,1-46.13,4.14c-141.7,0-256.57-114.88-256.57-256.57A256.42,256.42,0,0,1,253.91,83.76,256.37,256.37,0,0,1,300,79.62C441.7,79.62,556.57,194.49,556.57,336.2Z" fill="#f8a926"/><path d="M534.38,336.2A234.31,234.31,0,0,1,300,570.58c-129.45,0-234.38-105-234.38-234.38,0-105.7,69.95-195,166.09-224.27A233.71,233.71,0,0,1,300,101.81C429.45,101.81,534.38,206.75,534.38,336.2Z" fill="#f4b59f"/><path d="M534.38,336.2A234.21,234.21,0,0,1,422.91,535.8a234,234,0,0,1-68.29,10.11c-129.45,0-234.38-104.94-234.38-234.38a234.17,234.17,0,0,1,111.47-199.6A233.71,233.71,0,0,1,300,101.81C429.45,101.81,534.38,206.75,534.38,336.2Z" fill="#fccdb9"/><path d="M331.71,43.43V81.57a260.13,260.13,0,0,0-63.42,0V43.43Z" fill="#8d91ac"/><path d="M331.71,85.6a2.7,2.7,0,0,1-.49,0,256.78,256.78,0,0,0-62.44,0,4,4,0,0,1-3.16-1,4.06,4.06,0,0,1-1.35-3V43.43a4,4,0,0,1,4-4h63.42a4,4,0,0,1,4,4V81.57a4,4,0,0,1-4,4ZM300,75.6a263.62,263.62,0,0,1,27.69,1.46V47.45H272.31V77.06A263.62,263.62,0,0,1,300,75.6Z"/><path d="M367.76,25.33a19.2,19.2,0,0,1-.17,2.53,18.11,18.11,0,0,1-17.92,15.57H250.33a18.1,18.1,0,0,1,0-36.19h99.34A18.08,18.08,0,0,1,367.76,25.33Z" fill="#ef9614"/><path d="M367.76,25.33a19.2,19.2,0,0,1-.17,2.53H270.41a18.1,18.1,0,0,1-18.1-18.09,19.08,19.08,0,0,1,.17-2.53h97.19A18.08,18.08,0,0,1,367.76,25.33Z" fill="#f8a926"/><path d="M445.78,412.56,307.07,364.92a29.59,29.59,0,1,1,20.57-39.26l79.84,58.73Z" fill="#7c8199"/><path d="M445.78,416.59a3.94,3.94,0,0,1-1.3-.22L306.84,369.1a33.61,33.61,0,0,1-36.61-48.51,33.61,33.61,0,0,1,60.72,2.5l117.22,86.23a4,4,0,0,1-2.39,7.27ZM307.07,360.9a4,4,0,0,1,1.31.22L422.2,400.21,325.26,328.9a4.11,4.11,0,0,1-1.38-1.81A25.55,25.55,0,0,0,285,315.51a25.12,25.12,0,0,0-7.61,8.82A25.55,25.55,0,0,0,306.11,361,4.42,4.42,0,0,1,307.07,360.9Z"/><path d="M407.48,384.39l-90.85-31.22a29.57,29.57,0,0,1-34-40.92,29.58,29.58,0,0,1,45,13.41Z" fill="#8d91ac"/><path d="M461,225.37a45,45,0,0,1-14,32.7h0a45.18,45.18,0,1,1-41-76.79s0,0,0,0a45.21,45.21,0,0,1,55,44.1Z" fill="#e2e2e2"/><path d="M461,225.37a45,45,0,0,1-14,32.7h0a45.18,45.18,0,0,1-41-76.79s0,0,0,0a45.21,45.21,0,0,1,55,44.1Z" fill="#fff"/><path d="M415.85,229.39a4,4,0,0,1-3.21-1.59L395.37,205a4,4,0,0,1,6.42-4.86l17.26,22.78a4,4,0,0,1-.78,5.64A4,4,0,0,1,415.85,229.39Z"/><path d="M300,539.93A201.94,201.94,0,0,1,177.52,499,205.33,205.33,0,0,1,105,395.35a4,4,0,1,1,7.7-2.34C137.85,476.07,213.13,531.88,300,531.88a4,4,0,0,1,0,8Z"/><path d="M100.29,340.22a4,4,0,0,1-4-4,203.6,203.6,0,0,1,28-103.15,4,4,0,0,1,6.94,4.08,195.46,195.46,0,0,0-26.9,99.07A4,4,0,0,1,100.29,340.22Z"/><path d="M67.85,160.58a4,4,0,0,1-3.37-6.22c40.15-61.92,94.63-78,96.93-78.61a4,4,0,0,1,2.2,7.74c-.69.2-54,16.08-92.38,75.25A4,4,0,0,1,67.85,160.58Z"/><path d="M534.39,160.58a4,4,0,0,1-3.38-1.84c-38.43-59.26-91.85-75.1-92.38-75.25a4,4,0,0,1,2.2-7.74c2.3.65,56.77,16.69,96.93,78.61a4,4,0,0,1-1.19,5.57A4,4,0,0,1,534.39,160.58Z"/><path d="M300,574.6c-131.46,0-238.41-107-238.41-238.4A236.31,236.31,0,0,1,109.4,193,237.95,237.95,0,0,1,300,97.79c131.46,0,238.41,107,238.41,238.41A238.34,238.34,0,0,1,300,574.6Zm0-468.76a230,230,0,0,0-67.12,9.94C135.24,145.45,69.64,234,69.64,336.2c0,127,103.34,230.36,230.36,230.36a229.73,229.73,0,0,0,120.8-34.19c68.6-42.32,109.56-115.65,109.56-196.17C530.36,209.18,427,105.84,300,105.84Z"/><path d="M415.84,274.57a49.2,49.2,0,0,1-11-97.15l.32-.08a48.61,48.61,0,0,1,10.68-1.17,49.21,49.21,0,0,1,34,84.78l0,0h0A49,49,0,0,1,415.84,274.57Zm-8.75-89.42-.25.06a41.16,41.16,0,1,0,37.37,70l0,0a41.18,41.18,0,0,0-37.16-70Z"/><path d="M445.78,416.59a3.94,3.94,0,0,1-1.3-.22L306.84,369.1a33.61,33.61,0,0,1-36.61-48.51,33.61,33.61,0,0,1,60.72,2.5l117.22,86.23a4,4,0,0,1-2.39,7.27ZM307.07,360.9a4,4,0,0,1,1.31.22L422.2,400.21,325.26,328.9a4.11,4.11,0,0,1-1.38-1.81A25.55,25.55,0,0,0,285,315.51a25.12,25.12,0,0,0-7.61,8.82A25.55,25.55,0,0,0,306.11,361,4.42,4.42,0,0,1,307.07,360.9Z"/><path d="M349.67,47.46H250.33a22.13,22.13,0,0,1,0-44.25h99.34a22.15,22.15,0,0,1,22.11,22.12A22.06,22.06,0,0,1,365.31,41,22,22,0,0,1,349.67,47.46Zm-99.34-36.2a14.08,14.08,0,0,0-14.07,14.07,14.09,14.09,0,0,0,14.07,14.08h99.34A14.06,14.06,0,0,0,363.6,27.3a14.06,14.06,0,0,0-13.93-16Z"/><path d="M300,596.79a260.62,260.62,0,0,1-46.81-517A261.79,261.79,0,0,1,300,75.59,260.66,260.66,0,0,1,524.34,468.86,260.44,260.44,0,0,1,300,596.79Zm0-513.15A252.31,252.31,0,0,0,47.46,336.2c0,139.25,113.29,252.54,252.54,252.54A252.39,252.39,0,0,0,552.54,336.2C552.54,196.94,439.25,83.64,300,83.64Z"/></svg>