<svg id="Fitness_Color_Icons" data-name="Fitness Color Icons" xmlns="http://www.w3.org/2000/svg" viewBox="0 0 600 600"><rect x="383.37" y="195.93" width="111.86" height="319.73" rx="32.88" transform="translate(-77.12 125.82) rotate(-15)" fill="#f4c708"/><path d="M499.79,505.08l-14.82,4a36.14,36.14,0,0,1-43.7-25.7l-64-239a36.14,36.14,0,0,1,25.55-44.26L417,196.25l.12,0a36.14,36.14,0,0,1,44.14,25.59l64,239A36.13,36.13,0,0,1,499.79,505.08Z" fill="#fddc2b"/><path d="M371.1,317.37l0-.11-9.19-34.33c18.23,18.58,101.53-3.73,108-29l9.2,34.34C486.8,317,379.06,345.91,371.1,317.37Z" fill="#6bb5f6"/><path d="M399.94,329.1c-14.8.3-26.42-3.06-28.84-11.73l0-.11-9.18-34.32c5.11,5.19,15.32,7.19,27.52,6.81Z" fill="#44a3ea"/><rect x="104.78" y="270.58" width="111.86" height="319.73" rx="32.88" transform="translate(-105.93 56.26) rotate(-15)" fill="#f4c708"/><path d="M221.2,579.73l-14.82,4a36.14,36.14,0,0,1-43.7-25.7l-64-239a36.15,36.15,0,0,1,25.55-44.26l14.26-3.82.12,0a36.14,36.14,0,0,1,44.14,25.58l64,239A36.13,36.13,0,0,1,221.2,579.73Z" fill="#fddc2b"/><path d="M452.14,520.42a40,40,0,0,1-38.56-29.65l-64.05-239a40,40,0,0,1,28.28-49L416,192.54a40,40,0,0,1,49,28.27l64,239a40,40,0,0,1-28.28,49L462.55,519A39.87,39.87,0,0,1,452.14,520.42Zm-25.7-321.57A32.3,32.3,0,0,0,418,200L379.8,210.21A32.29,32.29,0,0,0,357,249.76l64,239a32.29,32.29,0,0,0,39.55,22.83l38.23-10.24a32.3,32.3,0,0,0,22.84-39.55l-64.05-239a32.34,32.34,0,0,0-31.14-24Zm73.35,306.23h0Z"/><path d="M109,151.93q1,6,2.58,12c1,3.71,2.16,7.35,3.47,10.88a162,162,0,0,0,5.54,46.39l13.62,50.88-11,2.94-18.75,5L90.85,229.13C65.72,135.38,111.05,41.05,192.26,15.42A122.73,122.73,0,0,0,109,151.93Z" fill="#8d91ac"/><path d="M399.16,146.52l13.63,50.88-29.72,8-13.64-50.88A162.54,162.54,0,0,0,351,111.54q-1-5.58-2.45-11.15A122.71,122.71,0,0,0,204.45,12.15C287.6-6.26,374,52.77,399.16,146.52Z" fill="#8d91ac"/><path d="M383.07,209.21a3.85,3.85,0,0,1-3.72-2.85l-13.63-50.88a158.68,158.68,0,0,0-18-41.93,4,4,0,0,1-.52-1.36c-.61-3.59-1.41-7.23-2.37-10.8A118.72,118.72,0,0,0,205.26,15.91a3.85,3.85,0,0,1-1.64-7.52c41.35-9.15,84.71,0,122.12,25.72s64.77,65.27,77.13,111.41L416.5,196.4a3.83,3.83,0,0,1-2.72,4.71l-29.72,8A3.74,3.74,0,0,1,383.07,209.21ZM354.7,110.16a166.4,166.4,0,0,1,18.45,43.33l12.64,47.16,22.29-6-12.64-47.17C381.19,94.34,347.25,52.58,305.3,30.33a126.15,126.15,0,0,1,47,69.06C353.26,103,354.06,106.57,354.7,110.16Z"/><path d="M351,111.54c-.64-3.71-1.45-7.44-2.44-11.15A122.71,122.71,0,0,0,204.45,12.15c-.95.2-1.9.42-2.87.64s-2.18.55-3.26.84-2.18.6-3.25.91-1.88.57-2.81.88A122.72,122.72,0,0,0,111.55,163.9c1,3.71,2.16,7.35,3.47,10.88a122.7,122.7,0,0,0,236-63.24Zm-41.63,66.4a91.59,91.59,0,1,1,9.14-69.5A91,91,0,0,1,309.4,177.94Z" fill="#8d91ac"/><path d="M352.53,124.09A122.71,122.71,0,0,1,115,158.59c-1.31-3.53-2.47-7.17-3.47-10.88A123.79,123.79,0,0,1,107.62,124a122.56,122.56,0,0,0,3.93,39.86c1,3.71,2.16,7.35,3.47,10.88a122.71,122.71,0,0,0,237.51-50.69Z" fill="#64646e"/><path d="M354.82,110.89c-.64-3.82-1.5-7.69-2.51-11.49a126.44,126.44,0,0,0-148.65-91c-1,.21-1.95.43-3,.69l-3.32.84-3.22.9-.17,0c-1,.29-1.92.59-2.86.9a126.41,126.41,0,0,0-83.24,153.13c1,3.82,2.22,7.59,3.56,11.22a126.55,126.55,0,0,0,243.42-65.22Zm-236.2,62.55c-1.26-3.4-2.38-6.95-3.35-10.54A118.72,118.72,0,0,1,193.46,19.08c.9-.3,1.81-.58,2.74-.87l3.12-.86c1.06-.29,2.14-.56,3.13-.81s1.87-.43,2.81-.63a118.76,118.76,0,0,1,139.62,85.48c.95,3.57,1.74,7.21,2.36,10.8a118.85,118.85,0,0,1-228.62,61.25Z"/><path d="M318.54,108.44a91.59,91.59,0,1,0-9.14,69.5A91.69,91.69,0,0,0,318.54,108.44Zm-15.81,65.65a83.9,83.9,0,1,1,8.38-63.66A83.36,83.36,0,0,1,302.73,174.09Z"/><path d="M398.16,333c-15.56,0-27.84-4.16-30.76-14.55l0-.09-9.21-34.41a3.85,3.85,0,0,1,6.46-3.69c7.13,7.26,29.62,7.64,54.68.92s44.35-18.29,46.89-28.15a3.85,3.85,0,0,1,3.71-2.88h0a3.84,3.84,0,0,1,3.71,2.85l9.2,34.33c4.62,17.26-21.88,32.79-50.19,40.53C420.91,331,408.77,333,398.16,333ZM368,291l6.76,25.27v0c2.81,10.07,27.33,11.86,55.81,4.08,28.22-7.71,47.48-21.09,44.79-31.12l-6.76-25.24c-9.43,11.12-29.33,19.71-47.35,24.53S381.75,295.94,368,291Z"/><path d="M92.51,392l0-.11-9.19-34.33c18.23,18.58,101.53-3.73,108-29l9.2,34.34C208.21,391.65,100.47,420.56,92.51,392Z" fill="#6bb5f6"/><path d="M134.18,272.05l-15.12,4.05C93,188.43,105.26,159.16,109,151.93q1,6,2.58,12c1,3.71,2.16,7.35,3.47,10.88a162,162,0,0,0,5.54,46.39Z" fill="#64646e"/><path d="M104.48,283.86a3.86,3.86,0,0,1-3.72-2.85L87.13,230.13C74.77,184,78.7,136,98.2,95.08s52.52-70.59,92.9-83.33a3.85,3.85,0,0,1,2.34,7.33C138,37,103.32,93.84,112.77,151.31h0c.64,3.88,1.48,7.78,2.5,11.6,1,3.61,2.1,7.16,3.36,10.54a3.92,3.92,0,0,1,.23,1.44,158.37,158.37,0,0,0,5.41,45.28l13.63,50.89a3.87,3.87,0,0,1-.38,2.92,3.93,3.93,0,0,1-2.34,1.79l-29.71,8A4.2,4.2,0,0,1,104.48,283.86Zm9.71-202.53C88.86,121.6,80.28,174.85,94.56,228.14L107.2,275.3l22.27-6-12.63-47.17a166.08,166.08,0,0,1-5.69-46.74c-1.23-3.39-2.34-6.92-3.31-10.51-1.09-4.07-2-8.22-2.66-12.35h0A126.26,126.26,0,0,1,114.19,81.33Z"/><path d="M173.55,595.07A40,40,0,0,1,135,565.42l-64.05-239a40,40,0,0,1,28.28-49l38.23-10.25a40,40,0,0,1,49,28.28l64.05,239a40,40,0,0,1-28.28,49h0L184,593.69A40.3,40.3,0,0,1,173.55,595.07ZM147.85,273.5a32.3,32.3,0,0,0-8.41,1.12l-38.23,10.24a32.3,32.3,0,0,0-22.84,39.55l64,239A32.31,32.31,0,0,0,182,586.26L220.2,576A32.33,32.33,0,0,0,243,536.47l-64-239a32.34,32.34,0,0,0-31.14-23.95ZM221.2,579.73h0Z"/><path d="M121.35,403.74c-14.8.31-26.42-3.05-28.84-11.72l0-.11-9.18-34.33c5.11,5.2,15.32,7.2,27.52,6.82Z" fill="#44a3ea"/><path d="M119.57,407.62c-15.55,0-27.83-4.15-30.75-14.53l0-.07,0-.12-9.19-34.32A3.85,3.85,0,0,1,86,354.89c7.13,7.26,29.62,7.64,54.69.92s44.34-18.29,46.88-28.15a3.84,3.84,0,0,1,3.71-2.88h0a3.83,3.83,0,0,1,3.71,2.85l9.2,34.33c4.62,17.26-21.88,32.79-50.19,40.53C142.32,405.69,130.18,407.62,119.57,407.62ZM96.18,390.85v0l0,.08c2.81,10.08,27.33,11.87,55.81,4.09C180.24,387.35,199.5,374,196.81,364l-6.76-25.24c-9.43,11.12-29.33,19.7-47.34,24.53s-39.55,7.34-53.27,2.43Z"/></svg>