<svg id="Fitness_Color_Icons" data-name="Fitness Color Icons" xmlns="http://www.w3.org/2000/svg" viewBox="0 0 600 600"><path d="M378,419.28v.2a19,19,0,0,1-19,19H241a19,19,0,0,1-2.74-37.85,17.68,17.68,0,0,1,2.74-.2H359A19,19,0,0,1,378,419.28Z" fill="#64646e"/><path d="M378,419.28a19,19,0,0,1-2.74.2h-118a19,19,0,0,1-19-18.83,17.68,17.68,0,0,1,2.74-.2H359A19,19,0,0,1,378,419.28Z" fill="#8d91ac"/><path d="M378,381.46v.2a19,19,0,0,1-19,19H241a19,19,0,0,1,0-38.05H359A19,19,0,0,1,378,381.46Z" fill="#64646e"/><path d="M378,381.46a19,19,0,0,1-2.74.2h-118a19,19,0,0,1-19-18.83,19,19,0,0,1,2.74-.2H359A19,19,0,0,1,378,381.46Z" fill="#8d91ac"/><path d="M378,343.41v.2a19,19,0,0,1-19,19H241a19,19,0,0,1,0-38.05H359A19,19,0,0,1,378,343.41Z" fill="#64646e"/><path d="M378,343.41a19,19,0,0,1-2.74.2h-118a19,19,0,0,1-19-18.83,19,19,0,0,1,2.74-.2H359A19,19,0,0,1,378,343.41Z" fill="#8d91ac"/><path d="M456.61,400.45a26,26,0,0,1-26,26H169.38a26,26,0,0,1,0-52H430.62A26,26,0,0,1,456.61,400.45Z" fill="#bd3b43"/><path d="M456.61,400.45a25.87,25.87,0,0,1-3.39,12.84,25.76,25.76,0,0,1-8.23,1.33H183.76a26,26,0,0,1-22.6-38.83,25.75,25.75,0,0,1,8.22-1.34H430.62A26,26,0,0,1,456.61,400.45Z" fill="#ff807d"/><path d="M426.54,556.76H173.46a3.87,3.87,0,0,1-3.87-3.87V427a3.87,3.87,0,0,1,3.87-3.87H426.54a3.87,3.87,0,0,1,3.87,3.87V552.89A3.87,3.87,0,0,1,426.54,556.76ZM177.33,549H422.67V430.84H177.33Z"/><rect x="398.71" y="426.97" width="27.83" height="125.92" fill="#bd3b43"/><rect x="173.46" y="426.97" width="27.83" height="125.92" fill="#bd3b43"/><path d="M426.54,427V542H422.4a11.88,11.88,0,0,1-11.88-11.88V427Z" fill="#ff807d"/><path d="M201.29,427V542h-4.13a11.88,11.88,0,0,1-11.88-11.88V427Z" fill="#ff807d"/><path d="M540.51,571.93a17.66,17.66,0,0,1-.28,3.18A19,19,0,0,1,521.48,591h-443a19,19,0,0,1-2-38,18.25,18.25,0,0,1,2-.1h443A19,19,0,0,1,540.51,571.93Z" fill="#64646e"/><path d="M540.51,571.93a17.66,17.66,0,0,1-.28,3.18,17.93,17.93,0,0,1-2,.1H95.33a19,19,0,0,1-19-19,18.61,18.61,0,0,1,.27-3.18,18.25,18.25,0,0,1,2-.1h443A19,19,0,0,1,540.51,571.93Z" fill="#8d91ac"/><path d="M540.51,28.07a19,19,0,0,1-19,19h-443A19,19,0,1,1,78.52,9h443A19,19,0,0,1,540.51,28.07Z" fill="#64646e"/><path d="M540.51,28.07H104.26a19,19,0,0,1-19-19H521.48A19,19,0,0,1,540.51,28.07Z" fill="#8d91ac"/><path d="M378,533.67v.2a19,19,0,0,1-19,19H241A19,19,0,0,1,238.26,515a17.68,17.68,0,0,1,2.74-.2H359A19,19,0,0,1,378,533.67Z" fill="#64646e"/><path d="M378,533.67a19,19,0,0,1-2.74.2h-118a19,19,0,0,1-19-18.83,17.68,17.68,0,0,1,2.74-.2H359A19,19,0,0,1,378,533.67Z" fill="#8d91ac"/><path d="M378,495.62v.2a19,19,0,0,1-19,19H241A19,19,0,0,1,238.26,477a17.68,17.68,0,0,1,2.74-.2H359A19,19,0,0,1,378,495.62Z" fill="#64646e"/><path d="M378,495.62a19,19,0,0,1-2.74.2h-118a19,19,0,0,1-19-18.83,17.68,17.68,0,0,1,2.74-.2H359A19,19,0,0,1,378,495.62Z" fill="#8d91ac"/><path d="M378,457.57v.2a19,19,0,0,1-19,19H241a19,19,0,1,1,0-38.05H359A19,19,0,0,1,378,457.57Z" fill="#64646e"/><path d="M378,457.57a19,19,0,0,1-2.74.2h-118a19,19,0,0,1-19-18.84,19,19,0,0,1,2.74-.19H359A19,19,0,0,1,378,457.57Z" fill="#8d91ac"/><path d="M359,518.71H241a22.9,22.9,0,0,1,0-45.79H359a22.9,22.9,0,0,1,0,45.79ZM241,480.65A15.16,15.16,0,1,0,241,511H359a15.16,15.16,0,1,0,0-30.32Z"/><path d="M359,480.65H241a22.89,22.89,0,0,1,0-45.78H359a22.89,22.89,0,0,1,0,45.78Zm-118-38a15.16,15.16,0,0,0,0,30.32H359a15.16,15.16,0,1,0,0-30.32Z"/><path d="M359,442.6H241a23,23,0,0,1-21.41-14.79,3.86,3.86,0,0,1,3.61-5.24H376.8a3.86,3.86,0,0,1,3.61,5.24A22.9,22.9,0,0,1,359,442.6ZM230.18,430.31A15.26,15.26,0,0,0,241,434.86H359a15,15,0,0,0,10.71-4.43l.12-.12Z"/><path d="M308.29,47.12V290.41a6.59,6.59,0,0,1-.07,1,34.62,34.62,0,0,0-16.44,0,6.59,6.59,0,0,1-.07-1V47.12Z" fill="#8d91ac"/><path d="M308.22,295.27a3.69,3.69,0,0,1-.93-.11,30.72,30.72,0,0,0-14.58,0,3.88,3.88,0,0,1-4.77-3.24,12.76,12.76,0,0,1-.1-1.51V47.12a3.87,3.87,0,0,1,3.87-3.87h16.58a3.87,3.87,0,0,1,3.87,3.87V290.41a12.76,12.76,0,0,1-.1,1.51,3.87,3.87,0,0,1-3.84,3.35ZM300,286.54a38.27,38.27,0,0,1,4.42.26V51h-8.84V286.8A38.27,38.27,0,0,1,300,286.54Z"/><path d="M376.61,378.31H223.39a3.87,3.87,0,0,1-3.58-5.33A22.88,22.88,0,0,1,241,358.76H359A22.82,22.82,0,0,1,380.19,373a3.87,3.87,0,0,1-3.58,5.33Zm-146-7.73H369.36A15.1,15.1,0,0,0,359,366.5H241A15,15,0,0,0,230.65,370.58Z"/><path d="M359,366.5H241a22.9,22.9,0,0,1,0-45.79H359a22.9,22.9,0,1,1,0,45.79ZM241,328.45a15.16,15.16,0,0,0,0,30.31H359a15.16,15.16,0,0,0,0-30.31Z"/><path d="M334.17,328.45H265.83a3.87,3.87,0,0,1-3.87-3.87,37.94,37.94,0,0,1,28.89-36.93,38.52,38.52,0,0,1,18.3,0A37.94,37.94,0,0,1,338,324.58,3.87,3.87,0,0,1,334.17,328.45Zm-64.23-7.74h60.12a30.22,30.22,0,0,0-22.76-25.55,30.76,30.76,0,0,0-14.59,0A30.22,30.22,0,0,0,269.94,320.71Z"/><rect x="474.33" y="47.11" width="35.45" height="505.77" fill="#64646e"/><rect x="90.21" y="47.11" width="35.45" height="505.77" fill="#64646e"/><path d="M509.79,47.11V531.38h0a17.73,17.73,0,0,1-17.73-17.73V47.11Z" fill="#8d91ac"/><path d="M125.67,47.11V531.38h0a17.73,17.73,0,0,1-17.73-17.73V47.11Z" fill="#8d91ac"/><path d="M173.46,419.91h-.19c-15.86-.75-19.6-12.1-19.36-18a3.87,3.87,0,0,1,7.73.28c0,1.59.42,9.44,12,10a3.87,3.87,0,0,1-.18,7.74Z"/><path d="M159.41,395.71a5,5,0,1,0-5-5,5,5,0,0,0,5,5Z"/><path d="M359,556.76H241a22.89,22.89,0,0,1-3.29-45.55A22.15,22.15,0,0,1,241,511H359a23,23,0,0,1,22.89,22.66v.24A22.89,22.89,0,0,1,359,556.76Zm-118-38a15.65,15.65,0,0,0-2.18.15A15.16,15.16,0,0,0,241,549H359a15.14,15.14,0,0,0,15.15-15.15v-.18a15.2,15.2,0,0,0-15.15-15Z"/><path d="M430.61,430.31H169.39a29.87,29.87,0,1,1,0-59.73H430.61a29.87,29.87,0,1,1,0,59.73Zm-261.22-52a22.13,22.13,0,1,0,0,44.26H430.61a22.13,22.13,0,0,0,0-44.26Z"/><path d="M426.54,556.76H398.71a3.87,3.87,0,0,1-3.87-3.87V427a3.87,3.87,0,0,1,3.87-3.87h27.83a3.87,3.87,0,0,1,3.87,3.87V552.89A3.88,3.88,0,0,1,426.54,556.76Zm-24-7.74h20.09V430.84H402.58Z"/><path d="M201.29,556.76H173.46a3.88,3.88,0,0,1-3.87-3.87V427a3.87,3.87,0,0,1,3.87-3.87h27.83a3.87,3.87,0,0,1,3.87,3.87V552.89A3.87,3.87,0,0,1,201.29,556.76Zm-24-7.74h20.09V430.84H177.33Z"/><path d="M509.79,556.76H474.33a3.87,3.87,0,0,1-3.86-3.87V47.11a3.87,3.87,0,0,1,3.86-3.87h35.46a3.87,3.87,0,0,1,3.86,3.87V552.89A3.87,3.87,0,0,1,509.79,556.76ZM478.2,549h27.72V51H478.2Z"/><path d="M125.67,556.76H90.21a3.87,3.87,0,0,1-3.86-3.87V47.11a3.87,3.87,0,0,1,3.86-3.87h35.46a3.87,3.87,0,0,1,3.86,3.87V552.89A3.87,3.87,0,0,1,125.67,556.76ZM94.08,549H121.8V51H94.08Z"/><path d="M546.39,172.07l-84.14-52.78a1.71,1.71,0,0,0-.23-.13l-.6-.34-.39-.19-.6-.25a4.7,4.7,0,0,0-.45-.17l-.55-.18-.52-.13-.52-.11-.59-.09-.48,0-.63,0H143.34l-.67,0-.45,0c-.21,0-.41,0-.62.09l-.49.11a5.36,5.36,0,0,0-.54.14l-.55.17-.46.17-.58.25-.4.19-.6.34c-.07,0-.16.08-.23.13L53.61,172.07A11.06,11.06,0,0,0,65.36,190.8l81.44-51.1H453.2l81.44,51.1a11.06,11.06,0,0,0,11.75-18.73Z" fill="#f8a926"/><path d="M540.5,196.36a14.86,14.86,0,0,1-7.92-2.29l-80.49-50.5H147.91l-80.5,50.5A14.91,14.91,0,1,1,51.56,168.8L135.69,116l.37-.21c.21-.12.48-.28.75-.42l.54-.26.79-.34.62-.23.74-.23.73-.19.67-.14.83-.13.61-.07c.3,0,.6,0,.9,0l.38,0H456.38l.44,0,.81,0,.66.07.79.12.7.15.71.19.75.23.62.23c.27.11.53.22.8.35l.53.25c.27.14.54.29.8.45a3.25,3.25,0,0,1,.33.19l84.12,52.78a14.92,14.92,0,0,1-7.94,27.56ZM146.8,135.83H453.2a3.86,3.86,0,0,1,2.06.6l81.44,51.09a7.18,7.18,0,1,0,7.63-12.17l-84.06-52.74-.24-.14-.38-.21-.25-.12L459,122l-.3-.1-.35-.12-.34-.09-.34-.07-.38,0-.31,0-.41,0H143.42l-.41,0-.3,0-.4.06-.33.08-.35.08-.34.12-.3.1-.38.17-.26.12c-.13.07-.26.14-.38.22l-.24.13L55.67,175.35a7.18,7.18,0,1,0,7.63,12.17l81.44-51.09A3.86,3.86,0,0,1,146.8,135.83Z"/><path d="M521.48,51h-443a22.91,22.91,0,1,1,0-45.82h443a22.91,22.91,0,0,1,0,45.82ZM78.52,12.9a15.17,15.17,0,0,0,0,30.34h443a15.16,15.16,0,0,0,15.16-15.17A15.18,15.18,0,0,0,521.48,12.9Z"/><path d="M521.48,594.84h-443a22.91,22.91,0,0,1-2.35-45.7,22.68,22.68,0,0,1,2.35-.12h443a22.93,22.93,0,0,1,22.9,22.91,22.2,22.2,0,0,1-.34,3.87,22.88,22.88,0,0,1-22.56,19Zm-443-38.08c-.53,0-1,0-1.56.07a15.18,15.18,0,0,0,1.56,30.27h443a15.17,15.17,0,0,0,14.94-12.62,14.39,14.39,0,0,0,.22-2.55,15.18,15.18,0,0,0-15.16-15.17Z"/></svg>