<svg id="Fitness_Color_Icons" data-name="Fitness Color Icons" xmlns="http://www.w3.org/2000/svg" viewBox="0 0 600 600"><path d="M475.39,167.14V549.59H104.27V167.14h44.46v16.54A37.26,37.26,0,0,0,186,220.93H393.67a37.26,37.26,0,0,0,37.26-37.25V167.14Z" fill="#41a3e0"/><path d="M475.39,167.14v335.6h-238a88.65,88.65,0,0,1-88.65-88.65V183.68A37.26,37.26,0,0,0,186,220.93H393.67a37.26,37.26,0,0,0,37.26-37.25V167.14Z" fill="#6bb5f6"/><path d="M430.93,87.67v96a37.21,37.21,0,0,1-37.26,37.25H186a37.25,37.25,0,0,1-37.25-37.25v-96A37.25,37.25,0,0,1,183.1,50.52c1-.07,1.91-.11,2.88-.11H393.67A37.26,37.26,0,0,1,430.93,87.67Z" fill="#ef9614"/><path d="M430.93,87.67v96a37.48,37.48,0,0,1-1.94,11.9c-.95.07-1.91.11-2.89.11H218.41a37.26,37.26,0,0,1-37.26-37.26v-96a37.16,37.16,0,0,1,1.95-11.9c1-.07,1.91-.11,2.88-.11H393.67A37.26,37.26,0,0,1,430.93,87.67Z" fill="#f8a926"/><path d="M396.67,405.71V549.59H183V405.71a37.77,37.77,0,0,1,37.83-37.82H358.86A37.81,37.81,0,0,1,396.67,405.71Z" fill="#afd9ef"/><path d="M220.8,367.89h66.32V528.7H251.26a44.6,44.6,0,0,1-44.6-44.6V384.82a37.58,37.58,0,0,1,3.24-15.34A37.61,37.61,0,0,1,220.8,367.89Z" fill="#cce6f7"/><path d="M396.67,405.7v123H325.16a16.87,16.87,0,0,1-16.87-16.87V367.89h50.57A37.81,37.81,0,0,1,396.67,405.7Z" fill="#cce6f7"/><path d="M396.67,553.17H183a3.57,3.57,0,0,1-3.57-3.58V405.71a41.66,41.66,0,0,1,29.47-39.65,41.1,41.1,0,0,1,11.93-1.75H358.86a41.44,41.44,0,0,1,41.39,41.4V549.59A3.58,3.58,0,0,1,396.67,553.17ZM186.55,546H393.1V405.71a34.28,34.28,0,0,0-34.24-34.24H220.8a33.85,33.85,0,0,0-9.86,1.44,34.46,34.46,0,0,0-24.39,32.8Z"/><rect x="238.47" y="127.26" width="100.98" height="16.83" fill="#8d91ac"/><path d="M339.44,147.66h-101a3.58,3.58,0,0,1-3.58-3.58V127.26a3.58,3.58,0,0,1,3.58-3.58h101a3.58,3.58,0,0,1,3.58,3.58v16.82A3.58,3.58,0,0,1,339.44,147.66Zm-97.39-7.15h93.82v-9.68H242.05Z"/><rect x="224.61" y="110.43" width="13.86" height="50.49" fill="#64646e"/><path d="M238.47,164.49H224.61a3.57,3.57,0,0,1-3.58-3.57V110.43a3.58,3.58,0,0,1,3.58-3.58h13.86a3.58,3.58,0,0,1,3.58,3.58v50.49A3.58,3.58,0,0,1,238.47,164.49Zm-10.28-7.15h6.7V114h-6.7Z"/><rect x="339.44" y="110.43" width="13.86" height="50.49" fill="#64646e"/><path d="M353.3,164.49H339.44a3.57,3.57,0,0,1-3.57-3.57V110.43a3.57,3.57,0,0,1,3.57-3.58H353.3a3.58,3.58,0,0,1,3.58,3.58v50.49A3.57,3.57,0,0,1,353.3,164.49ZM343,157.34h6.71V114H343Z"/><rect x="353.3" y="83.2" width="36.63" height="104.94" rx="17.92" fill="#64646e"/><path d="M371.62,191.72a21.92,21.92,0,0,1-21.89-21.9v-68.3a21.89,21.89,0,1,1,43.78,0v68.3A21.92,21.92,0,0,1,371.62,191.72Zm0-104.94a14.75,14.75,0,0,0-14.74,14.74v68.3a14.74,14.74,0,1,0,29.48,0v-68.3A14.76,14.76,0,0,0,371.62,86.78Z"/><rect x="389.93" y="104.2" width="21.97" height="62.94" rx="10.75" fill="#64646e"/><path d="M400.92,170.72a14.57,14.57,0,0,1-14.56-14.56v-41a14.56,14.56,0,0,1,29.12,0v41A14.57,14.57,0,0,1,400.92,170.72Zm0-62.94a7.41,7.41,0,0,0-7.41,7.4v41a7.41,7.41,0,1,0,14.82,0v-41A7.42,7.42,0,0,0,400.92,107.78Z"/><rect x="166.01" y="104.2" width="21.97" height="62.94" rx="10.75" fill="#64646e"/><path d="M177,170.72a14.57,14.57,0,0,1-14.56-14.56v-41a14.57,14.57,0,0,1,29.13,0v41A14.58,14.58,0,0,1,177,170.72Zm0-62.94a7.41,7.41,0,0,0-7.4,7.4v41a7.41,7.41,0,1,0,14.81,0v-41A7.41,7.41,0,0,0,177,107.78Z"/><rect x="187.98" y="83.2" width="36.63" height="104.94" rx="17.92" fill="#64646e"/><path d="M206.29,191.72a21.92,21.92,0,0,1-21.89-21.9v-68.3a21.9,21.9,0,1,1,43.79,0v68.3A21.93,21.93,0,0,1,206.29,191.72Zm0-104.94a14.75,14.75,0,0,0-14.73,14.74v68.3a14.74,14.74,0,1,0,29.47,0v-68.3A14.75,14.75,0,0,0,206.29,86.78Z"/><path d="M148.73,104.2v62.94H94.83A21.45,21.45,0,0,1,73.38,145.7V125.64A21.44,21.44,0,0,1,94.83,104.2Z" fill="#afd9ef"/><path d="M148.73,104.2v39.89H112.1a21.45,21.45,0,0,1-21.45-21.44v-18a21.24,21.24,0,0,1,4.18-.41Z" fill="#cce6f7"/><path d="M504.53,125.64V145.7a21.44,21.44,0,0,1-21.45,21.44H430.93V104.2h52.15A21.44,21.44,0,0,1,504.53,125.64Z" fill="#afd9ef"/><path d="M504.53,125.64v18a22,22,0,0,1-4.48.47H464.26a16.37,16.37,0,0,1-16.36-16.37V104.2h35.18A21.44,21.44,0,0,1,504.53,125.64Z" fill="#cce6f7"/><path d="M287.11,553.17a3.58,3.58,0,0,1-3.57-3.58V367.89a3.58,3.58,0,1,1,7.15,0v181.7A3.58,3.58,0,0,1,287.11,553.17Z"/><path d="M270.24,479.63a5,5,0,0,1-5-5V442.87a5,5,0,0,1,10,0v31.74A5,5,0,0,1,270.24,479.63Z" fill="#64646e"/><path d="M270.24,483.21a8.61,8.61,0,0,1-8.6-8.6V442.87a8.6,8.6,0,1,1,17.2,0v31.74A8.61,8.61,0,0,1,270.24,483.21Zm0-41.78a1.44,1.44,0,0,0-1.44,1.44v31.74a1.45,1.45,0,0,0,2.89,0V442.87A1.44,1.44,0,0,0,270.24,441.43Z"/><path d="M303.27,479.63a5,5,0,0,1-5-5V442.87a5,5,0,0,1,10,0v31.74A5,5,0,0,1,303.27,479.63Z" fill="#64646e"/><path d="M303.27,483.21a8.61,8.61,0,0,1-8.6-8.6V442.87a8.6,8.6,0,0,1,17.2,0v31.74A8.61,8.61,0,0,1,303.27,483.21Zm0-41.78a1.44,1.44,0,0,0-1.45,1.44v31.74a1.45,1.45,0,0,0,2.89,0V442.87A1.44,1.44,0,0,0,303.27,441.43Z"/><path d="M30.37,553.17H10A3.58,3.58,0,0,1,10,546h20.4a3.58,3.58,0,1,1,0,7.16Z"/><path d="M104.27,553.17H49.8a3.58,3.58,0,0,1,0-7.16h54.47a3.58,3.58,0,1,1,0,7.16Z"/><path d="M502.59,553.17h-27.2a3.58,3.58,0,0,1,0-7.16h27.2a3.58,3.58,0,0,1,0,7.16Z"/><path d="M590,553.17H519.59a3.58,3.58,0,0,1,0-7.16H590a3.58,3.58,0,1,1,0,7.16Z"/><path d="M199.44,480.29a3.57,3.57,0,0,1-3.58-3.57v-69a3.58,3.58,0,1,1,7.15,0v69A3.57,3.57,0,0,1,199.44,480.29Z"/><path d="M199.44,537.13a3.57,3.57,0,0,1-3.58-3.57v-33a3.58,3.58,0,1,1,7.15,0v33A3.57,3.57,0,0,1,199.44,537.13Z"/><path d="M132.15,291.43a3.58,3.58,0,0,1-3.58-3.58V243.4a3.58,3.58,0,1,1,7.16,0v44.45A3.58,3.58,0,0,1,132.15,291.43Z"/><path d="M132.15,445.44a3.58,3.58,0,0,1-3.58-3.58V325.75a3.58,3.58,0,1,1,7.16,0V441.86A3.58,3.58,0,0,1,132.15,445.44Z"/><path d="M393.67,224.51H186a40.88,40.88,0,0,1-40.83-40.83v-96A41,41,0,0,1,182.82,47c1.09-.08,2.15-.12,3.16-.12H393.67a40.89,40.89,0,0,1,40.84,40.84v96a40.8,40.8,0,0,1-40.84,40.83ZM186,54c-.83,0-1.71,0-2.61.1a33.8,33.8,0,0,0-31.06,33.58v96A33.7,33.7,0,0,0,186,217.35H393.67a33.63,33.63,0,0,0,33.68-33.67v-96A33.72,33.72,0,0,0,393.67,54Z"/><path d="M148.73,170.72H94.83a25.05,25.05,0,0,1-25-25V125.64A25,25,0,0,1,90,101.1a24.72,24.72,0,0,1,4.86-.48h53.9a3.58,3.58,0,0,1,3.58,3.58v62.94A3.59,3.59,0,0,1,148.73,170.72Zm-53.9-62.94A17.86,17.86,0,0,0,77,125.64V145.7a17.88,17.88,0,0,0,17.87,17.86h50.32V107.78Z"/><path d="M483.08,170.72H430.93a3.58,3.58,0,0,1-3.58-3.58V104.2a3.58,3.58,0,0,1,3.58-3.58h52.15a25.05,25.05,0,0,1,25,25V145.7A25.05,25.05,0,0,1,483.08,170.72Zm-48.57-7.16h48.57A17.88,17.88,0,0,0,501,145.7V125.64a17.88,17.88,0,0,0-17.87-17.86H434.51Z"/><path d="M475.39,553.17H104.27a3.58,3.58,0,0,1-3.58-3.58V167.14a3.58,3.58,0,0,1,3.58-3.58h44.46a3.58,3.58,0,0,1,3.58,3.58v16.54A33.71,33.71,0,0,0,186,217.35H393.67a33.71,33.71,0,0,0,33.68-33.67V167.14a3.58,3.58,0,0,1,3.58-3.58h44.46a3.57,3.57,0,0,1,3.57,3.58V549.59A3.57,3.57,0,0,1,475.39,553.17ZM107.85,546h364V170.72h-37.3v13a40.88,40.88,0,0,1-40.84,40.83H186a40.88,40.88,0,0,1-40.84-40.83v-13h-37.3Z"/></svg>