<svg id="Fitness_Color_Icons" data-name="Fitness Color Icons" xmlns="http://www.w3.org/2000/svg" viewBox="0 0 600 600"><path d="M586.79,252.21v95.58a25.63,25.63,0,0,1-51.25,0V252.21A25.63,25.63,0,0,1,554,227.62a25.3,25.3,0,0,1,7.22-1,25.61,25.61,0,0,1,25.62,25.62Z" fill="#64646e"/><path d="M586.79,252.21v95.58a25.58,25.58,0,0,1-4.36,14.31,25.59,25.59,0,0,1-32.85-24.58V242A25.58,25.58,0,0,1,554,227.62a25.3,25.3,0,0,1,7.22-1,25.61,25.61,0,0,1,25.62,25.62Z" fill="#8d91ac"/><path d="M549.58,278.77A3.78,3.78,0,0,1,545.8,275v-20.8a3.78,3.78,0,1,1,7.56,0V275A3.79,3.79,0,0,1,549.58,278.77Z"/><path d="M549.58,351.75A3.77,3.77,0,0,1,545.8,348V285.92a3.78,3.78,0,1,1,7.56,0V348A3.78,3.78,0,0,1,549.58,351.75Z"/><rect x="182.23" y="280.37" width="235.54" height="39.26" fill="#b3b3b3"/><path d="M417.77,280.37v22.35H222.27A21.3,21.3,0,0,1,201,281.42v-1.05Z" fill="#e6e6e6"/><path d="M149.9,241.11h25.37a7,7,0,0,1,7,7V351.93a7,7,0,0,1-7,7H149.9a0,0,0,0,1,0,0V241.11A0,0,0,0,1,149.9,241.11Z" fill="#b3b3b3"/><rect x="450.1" y="177.61" width="85.44" height="244.78" rx="39.56" fill="#64646e"/><path d="M561.17,377.19a29.44,29.44,0,0,1-29.41-29.4V252.21a29.41,29.41,0,0,1,58.81,0v95.58A29.43,29.43,0,0,1,561.17,377.19Zm0-146.82a21.87,21.87,0,0,0-21.85,21.84v95.58a21.87,21.87,0,0,0,21.85,21.84h0A21.87,21.87,0,0,0,583,347.79V252.21A21.87,21.87,0,0,0,561.17,230.37Z"/><path d="M64.46,252.21v95.58a25.63,25.63,0,0,1-51.25,0V252.21a25.62,25.62,0,0,1,18.41-24.59,25.29,25.29,0,0,1,7.21-1,25.62,25.62,0,0,1,25.63,25.62Z" fill="#64646e"/><path d="M64.46,252.21v95.58a25.51,25.51,0,0,1-4.37,14.31,25.26,25.26,0,0,1-7.22,1,25.62,25.62,0,0,1-25.62-25.63V242a25.58,25.58,0,0,1,4.37-14.33,25.29,25.29,0,0,1,7.21-1,25.62,25.62,0,0,1,25.63,25.62Z" fill="#8d91ac"/><path d="M149.9,220.33V379.67a42.72,42.72,0,0,1-85.44,0V220.33a42.72,42.72,0,1,1,85.44,0Z" fill="#64646e"/><path d="M149.9,220.33V379.67a42.74,42.74,0,0,1-33.13,41.64,42.74,42.74,0,0,1-33.13-41.64V220.33a42.74,42.74,0,0,1,33.13-41.64,42.73,42.73,0,0,1,33.13,41.64Z" fill="#8d91ac"/><path d="M535.54,220.33V379.67a42.73,42.73,0,0,1-33.13,41.64,42.73,42.73,0,0,1-33.12-41.64V220.33a42.73,42.73,0,0,1,33.12-41.64,42.73,42.73,0,0,1,33.13,41.64Z" fill="#8d91ac"/><path d="M107.18,426.17a46.55,46.55,0,0,1-46.5-46.5V220.33a46.5,46.5,0,1,1,93,0V379.67A46.55,46.55,0,0,1,107.18,426.17Zm0-244.78a39,39,0,0,0-38.94,38.94V379.67a38.94,38.94,0,0,0,77.88,0V220.33A39,39,0,0,0,107.18,181.39Z"/><path d="M83.64,271a3.77,3.77,0,0,1-3.77-3.78V236.92a3.78,3.78,0,1,1,7.55,0v30.27A3.78,3.78,0,0,1,83.64,271Z"/><path d="M83.64,377.19a3.77,3.77,0,0,1-3.77-3.78V283.1a3.78,3.78,0,1,1,7.55,0v90.31A3.78,3.78,0,0,1,83.64,377.19Z"/><path d="M27.24,278.77A3.79,3.79,0,0,1,23.46,275v-20.8a3.78,3.78,0,0,1,7.56,0V275A3.78,3.78,0,0,1,27.24,278.77Z"/><path d="M27.24,351.75A3.78,3.78,0,0,1,23.46,348V285.92a3.78,3.78,0,1,1,7.56,0V348A3.77,3.77,0,0,1,27.24,351.75Z"/><path d="M470.1,271a3.78,3.78,0,0,1-3.78-3.78V236.92a3.78,3.78,0,1,1,7.56,0v30.27A3.78,3.78,0,0,1,470.1,271Z"/><path d="M470.1,377.19a3.78,3.78,0,0,1-3.78-3.78V283.1a3.78,3.78,0,1,1,7.56,0v90.31A3.78,3.78,0,0,1,470.1,377.19Z"/><path d="M492.82,426.17a46.55,46.55,0,0,1-46.5-46.5V220.33a46.5,46.5,0,0,1,93,0V379.67A46.55,46.55,0,0,1,492.82,426.17Zm0-244.78a39,39,0,0,0-38.94,38.94V379.67a38.94,38.94,0,0,0,77.88,0V220.33A39,39,0,0,0,492.82,181.39Z"/><path d="M417.77,323.41H182.23a3.78,3.78,0,0,1-3.78-3.78V280.37a3.78,3.78,0,0,1,3.78-3.78H417.77a3.78,3.78,0,0,1,3.78,3.78v39.26A3.78,3.78,0,0,1,417.77,323.41ZM186,315.85H414v-31.7H186Z"/><path d="M182.23,248.65v95.71H177.4A14.42,14.42,0,0,1,163,329.94V241.12h11.7A7.53,7.53,0,0,1,182.23,248.65Z" fill="#e6e6e6"/><path d="M174.71,362.66H149.9a3.77,3.77,0,0,1-3.78-3.77V241.11a3.77,3.77,0,0,1,3.78-3.77h24.81A11.31,11.31,0,0,1,186,248.63V351.37A11.31,11.31,0,0,1,174.71,362.66Zm-21-7.55h21a3.75,3.75,0,0,0,3.74-3.74V248.63a3.75,3.75,0,0,0-3.74-3.74h-21Z"/><path d="M417.77,241.11h25.37a7,7,0,0,1,7,7V351.93a7,7,0,0,1-7,7H417.77a0,0,0,0,1,0,0V241.11A0,0,0,0,1,417.77,241.11Z" transform="translate(867.87 600) rotate(-180)" fill="#b3b3b3"/><path d="M417.77,248.65v95.71h4.83A14.42,14.42,0,0,0,437,329.94V241.12h-11.7A7.53,7.53,0,0,0,417.77,248.65Z" fill="#e6e6e6"/><path d="M450.1,362.66H425.29A11.31,11.31,0,0,1,414,351.37V248.63a11.31,11.31,0,0,1,11.3-11.29H450.1a3.77,3.77,0,0,1,3.78,3.77V358.89A3.77,3.77,0,0,1,450.1,362.66ZM425.29,244.89a3.75,3.75,0,0,0-3.74,3.74V351.37a3.75,3.75,0,0,0,3.74,3.74h21V244.89Z"/><path d="M38.83,377.19a29.43,29.43,0,0,1-29.4-29.4V252.21a29.41,29.41,0,0,1,58.81,0v95.58A29.44,29.44,0,0,1,38.83,377.19Zm0-146.82A21.87,21.87,0,0,0,17,252.21v95.58a21.87,21.87,0,0,0,21.84,21.84h0a21.87,21.87,0,0,0,21.85-21.84V252.21A21.87,21.87,0,0,0,38.83,230.37Z"/><path d="M182.23,426.17H29.69a3.78,3.78,0,1,1,0-7.56H182.23a3.78,3.78,0,1,1,0,7.56Z"/><path d="M570.31,426.17H417.77a3.78,3.78,0,1,1,0-7.56H570.31a3.78,3.78,0,1,1,0,7.56Z"/></svg>