<svg id="Fitness_Color_Icons" data-name="Fitness Color Icons" xmlns="http://www.w3.org/2000/svg" viewBox="0 0 600 600"><path d="M488.26,99.28V549.84A42.22,42.22,0,0,1,446,592.12H154a42.27,42.27,0,0,1-42.27-42.28V99.28A42.23,42.23,0,0,1,154,57h48.25V83A11.14,11.14,0,0,0,213.4,94.12H386.6A11.14,11.14,0,0,0,397.74,83V57H446A42.27,42.27,0,0,1,488.26,99.28Z" fill="#c88342"/><path d="M446,596.21H154a46.42,46.42,0,0,1-46.37-46.37V99.28A46.57,46.57,0,0,1,137.7,55.86a46,46,0,0,1,16.31-3h48.25a4.11,4.11,0,0,1,4.1,4.1V83a7.05,7.05,0,0,0,7,7H386.6a7.05,7.05,0,0,0,7-7V57a4.11,4.11,0,0,1,4.1-4.1H446a46.43,46.43,0,0,1,46.37,46.38V549.84A46.33,46.33,0,0,1,446,596.21ZM154,61.1a37.92,37.92,0,0,0-13.42,2.43,38.35,38.35,0,0,0-24.75,35.75V549.84A38.22,38.22,0,0,0,154,588H446a38.11,38.11,0,0,0,38.17-38.18V99.28A38.22,38.22,0,0,0,446,61.1H401.84V83A15.25,15.25,0,0,1,386.6,98.22H213.4A15.25,15.25,0,0,1,198.16,83V61.1Z"/><path d="M488.26,99.28V549.84a42.05,42.05,0,0,1-.69,7.66,42.14,42.14,0,0,1-14.87,2.69h-292a42.26,42.26,0,0,1-42.27-42.27V67.35a42.13,42.13,0,0,1,.69-7.66A42.18,42.18,0,0,1,154,57h48.25V83A11.14,11.14,0,0,0,213.4,94.12H386.6A11.14,11.14,0,0,0,397.74,83V57H446A42.27,42.27,0,0,1,488.26,99.28Z" fill="#d89a6c"/><path d="M397.74,57.15V83A11.15,11.15,0,0,1,386.6,94.12H213.4A11.15,11.15,0,0,1,202.26,83V57.15A11.13,11.13,0,0,1,213.4,46h46.17a38.12,38.12,0,1,1,76.24,0H386.6A11.13,11.13,0,0,1,397.74,57.15Z" fill="#64646e"/><path d="M397.74,57.15V81.6h-166a11.14,11.14,0,0,1-11.15-11.14V46h38.95a38.12,38.12,0,1,1,76.24,0H386.6A11.13,11.13,0,0,1,397.74,57.15Z" fill="#8d91ac"/><path d="M447.4,112.79V509.21A33.46,33.46,0,0,1,414,542.67H186a33.45,33.45,0,0,1-33.44-33.46V112.79A33.43,33.43,0,0,1,182.82,79.5a28.57,28.57,0,0,1,3.22-.17h16.22V83A11.14,11.14,0,0,0,213.4,94.12H386.6A11.14,11.14,0,0,0,397.74,83V79.33H414A33.45,33.45,0,0,1,447.4,112.79Z" fill="#ccc"/><path d="M447.4,112.79V509.21a33.18,33.18,0,0,1-3.51,14.92,28.57,28.57,0,0,1-3.22.17H212.75a33.46,33.46,0,0,1-33.44-33.46V94.42a33.18,33.18,0,0,1,3.51-14.92,28.57,28.57,0,0,1,3.22-.17h16.22V83A11.14,11.14,0,0,0,213.4,94.12H386.6A11.14,11.14,0,0,0,397.74,83V79.33H414A33.45,33.45,0,0,1,447.4,112.79Z" fill="#e6e6e6"/><path d="M418.74,148.83H268.47a4.1,4.1,0,0,1,0-8.2H418.74a4.1,4.1,0,0,1,0,8.2Z"/><path d="M418.74,233.42H268.47a4.1,4.1,0,1,1,0-8.19H418.74a4.1,4.1,0,1,1,0,8.19Z"/><path d="M418.74,315.1H268.47a4.1,4.1,0,0,1,0-8.2H418.74a4.1,4.1,0,0,1,0,8.2Z"/><path d="M418.74,396.77H268.47a4.1,4.1,0,0,1,0-8.2H418.74a4.1,4.1,0,0,1,0,8.2Z"/><path d="M418.74,478.44H268.47a4.1,4.1,0,1,1,0-8.19H418.74a4.1,4.1,0,1,1,0,8.19Z"/><rect x="183.9" y="126.36" width="36.73" height="36.73" rx="6.29" fill="#e6e6e6"/><path d="M213.26,167.19h-22a11.47,11.47,0,0,1-11.46-11.46v-22a11.48,11.48,0,0,1,11.46-11.47h22a11.49,11.49,0,0,1,11.47,11.47v22A11.48,11.48,0,0,1,213.26,167.19Zm-22-36.73a3.28,3.28,0,0,0-3.27,3.27v22a3.28,3.28,0,0,0,3.27,3.27h22a3.28,3.28,0,0,0,3.27-3.27v-22a3.28,3.28,0,0,0-3.27-3.27Z"/><rect x="183.9" y="210.96" width="36.73" height="36.73" rx="6.29" fill="#e6e6e6"/><path d="M213.26,251.79h-22a11.47,11.47,0,0,1-11.46-11.46v-22a11.47,11.47,0,0,1,11.46-11.46h22a11.48,11.48,0,0,1,11.47,11.46v22A11.48,11.48,0,0,1,213.26,251.79Zm-22-36.73a3.27,3.27,0,0,0-3.27,3.26v22a3.27,3.27,0,0,0,3.27,3.26h22a3.27,3.27,0,0,0,3.27-3.26v-22a3.27,3.27,0,0,0-3.27-3.26Z"/><rect x="183.9" y="292.63" width="36.73" height="36.73" rx="6.29" fill="#e6e6e6"/><path d="M213.26,333.46h-22A11.47,11.47,0,0,1,179.8,322V300a11.48,11.48,0,0,1,11.46-11.47h22A11.49,11.49,0,0,1,224.73,300v22A11.48,11.48,0,0,1,213.26,333.46Zm-22-36.73A3.28,3.28,0,0,0,188,300v22a3.28,3.28,0,0,0,3.27,3.27h22a3.28,3.28,0,0,0,3.27-3.27V300a3.28,3.28,0,0,0-3.27-3.27Z"/><rect x="183.9" y="374.31" width="36.73" height="36.73" rx="6.29" fill="#e6e6e6"/><path d="M213.26,415.14h-22a11.48,11.48,0,0,1-11.46-11.47v-22a11.47,11.47,0,0,1,11.46-11.46h22a11.48,11.48,0,0,1,11.47,11.46v22A11.49,11.49,0,0,1,213.26,415.14Zm-22-36.74a3.28,3.28,0,0,0-3.27,3.27v22a3.28,3.28,0,0,0,3.27,3.27h22a3.28,3.28,0,0,0,3.27-3.27v-22a3.28,3.28,0,0,0-3.27-3.27Z"/><rect x="183.9" y="455.98" width="36.73" height="36.73" rx="6.29" fill="#e6e6e6"/><path d="M213.26,496.81h-22a11.47,11.47,0,0,1-11.46-11.46v-22a11.47,11.47,0,0,1,11.46-11.46h22a11.48,11.48,0,0,1,11.47,11.46v22A11.48,11.48,0,0,1,213.26,496.81Zm-22-36.73a3.27,3.27,0,0,0-3.27,3.26v22a3.27,3.27,0,0,0,3.27,3.26h22a3.27,3.27,0,0,0,3.27-3.26v-22a3.27,3.27,0,0,0-3.27-3.26Z"/><path d="M414,546.77H186a37.59,37.59,0,0,1-37.54-37.55V112.79a37.37,37.37,0,0,1,33.93-37.37,33,33,0,0,1,3.61-.19h16.22a4.11,4.11,0,0,1,4.1,4.1V83a7.05,7.05,0,0,0,7,7H386.6a7.05,7.05,0,0,0,7-7V79.33a4.11,4.11,0,0,1,4.1-4.1H414a37.59,37.59,0,0,1,37.54,37.56V509.22A37.54,37.54,0,0,1,414,546.77ZM186,83.43a26,26,0,0,0-2.77.14,29.23,29.23,0,0,0-26.58,29.22V509.22A29.39,29.39,0,0,0,186,538.57H414a29.37,29.37,0,0,0,29.35-29.35V112.79A29.39,29.39,0,0,0,414,83.43H401.83A15.26,15.26,0,0,1,386.6,98.22H213.4a15.26,15.26,0,0,1-15.23-14.79Z"/><path d="M446,596.21H154a46.42,46.42,0,0,1-46.37-46.37V99.28A46.57,46.57,0,0,1,137.7,55.86a46,46,0,0,1,16.31-3h48.25a4.11,4.11,0,0,1,4.1,4.1V83a7.05,7.05,0,0,0,7,7H386.6a7.05,7.05,0,0,0,7-7V57a4.11,4.11,0,0,1,4.1-4.1H446a46.43,46.43,0,0,1,46.37,46.38V549.84A46.33,46.33,0,0,1,446,596.21ZM154,61.1a37.92,37.92,0,0,0-13.42,2.43,38.35,38.35,0,0,0-24.75,35.75V549.84A38.22,38.22,0,0,0,154,588H446a38.11,38.11,0,0,0,38.17-38.18V99.28A38.22,38.22,0,0,0,446,61.1H401.84V83A15.25,15.25,0,0,1,386.6,98.22H213.4A15.25,15.25,0,0,1,198.16,83V61.1Z"/><path d="M386.6,98.22H213.4A15.26,15.26,0,0,1,198.16,83V57.15A15.25,15.25,0,0,1,213.4,41.92h42.27a42.22,42.22,0,0,1,84,0H386.6a15.25,15.25,0,0,1,15.24,15.23V83A15.26,15.26,0,0,1,386.6,98.22ZM213.4,50.11a7.05,7.05,0,0,0-7,7V83a7.06,7.06,0,0,0,7,7.06H386.6a7.06,7.06,0,0,0,7-7.06V57.15a7.05,7.05,0,0,0-7-7H335.81a4.1,4.1,0,0,1-4.1-4.09,34,34,0,1,0-68,0,4.09,4.09,0,0,1-4.1,4.09Z"/></svg>