<svg id="Fitness_Color_Icons" data-name="Fitness Color Icons" xmlns="http://www.w3.org/2000/svg" viewBox="0 0 600 600"><rect x="272.3" y="190.2" width="198.29" height="56.64" fill="#ef9614"/><path d="M470.58,190.2v35.94H323A31.13,31.13,0,0,1,291.9,195V190.2Z" fill="#f8a926"/><path d="M265.85,159.27l-41-36.45a19.17,19.17,0,0,0-25.5,0l-41,36.45a19.24,19.24,0,0,0-6.45,14.36V263.4a19.2,19.2,0,0,0,6.45,14.35l41,36.46a19.2,19.2,0,0,0,25.5,0l28.54-25.35h0l12.48-11.1a19.24,19.24,0,0,0,6.45-14.35V173.63A19.28,19.28,0,0,0,265.85,159.27Z" fill="#ef9614"/><path d="M265.85,159.27l-41-36.45a19.23,19.23,0,0,0-21-3L191.27,131a19.14,19.14,0,0,0-6.45,14.35v89.77a19.15,19.15,0,0,0,6.45,14.35l41,36.46a19.18,19.18,0,0,0,21,3h0l12.48-11.1a19.24,19.24,0,0,0,6.45-14.35V173.63A19.28,19.28,0,0,0,265.85,159.27Z" fill="#f8a926"/><path d="M186.23,185a3.56,3.56,0,0,1-3.57-3.56V153.08a3.57,3.57,0,0,1,7.13,0v28.39A3.56,3.56,0,0,1,186.23,185Z"/><path d="M186.23,280.08a3.57,3.57,0,0,1-3.57-3.57V201.25a3.57,3.57,0,1,1,7.13,0v75.26A3.56,3.56,0,0,1,186.23,280.08Z"/><path d="M212.06,322.61a22.7,22.7,0,0,1-15.12-5.74l-41-36.45a22.81,22.81,0,0,1-7.64-17V173.63a22.81,22.81,0,0,1,7.64-17l41-36.46a22.76,22.76,0,0,1,30.24,0l41,36.46h0a22.81,22.81,0,0,1,7.64,17V263.4a22.81,22.81,0,0,1-7.64,17l-12.48,11.09-.16.13-28.4,25.23A22.71,22.71,0,0,1,212.06,322.61Zm0-201.08a15.76,15.76,0,0,0-10.39,4l-41,36.46a15.68,15.68,0,0,0-5.24,11.69V263.4a15.65,15.65,0,0,0,5.25,11.69l41,36.45a15.64,15.64,0,0,0,20.77,0L251,286.19l.16-.13,12.34-11a15.65,15.65,0,0,0,5.25-11.69V173.63a15.65,15.65,0,0,0-5.25-11.69l-41-36.46A15.62,15.62,0,0,0,212.06,121.53Z"/><path d="M584.61,159.27l-41-36.45a19.18,19.18,0,0,0-25.51,0l-41,36.45a19.27,19.27,0,0,0-6.44,14.36V263.4A19.23,19.23,0,0,0,477,277.75l41,36.46a19.21,19.21,0,0,0,25.51,0l28.54-25.35h0l12.47-11.1a19.2,19.2,0,0,0,6.45-14.35V173.63A19.24,19.24,0,0,0,584.61,159.27Z" fill="#ef9614"/><path d="M584.61,159.27l-41-36.45a19.25,19.25,0,0,0-21.05-3L510,131a19.16,19.16,0,0,0-6.44,14.35v89.77A19.18,19.18,0,0,0,510,249.43l41,36.46a19.2,19.2,0,0,0,21,3h0l12.47-11.1a19.2,19.2,0,0,0,6.45-14.35V173.63A19.24,19.24,0,0,0,584.61,159.27Z" fill="#f8a926"/><path d="M505,185a3.56,3.56,0,0,1-3.56-3.56V153.08a3.57,3.57,0,0,1,7.13,0v28.39A3.56,3.56,0,0,1,505,185Z"/><path d="M505,280.08a3.57,3.57,0,0,1-3.56-3.57V201.25a3.57,3.57,0,1,1,7.13,0v75.26A3.57,3.57,0,0,1,505,280.08Z"/><path d="M530.82,322.61a22.71,22.71,0,0,1-15.12-5.74l-41-36.45a22.85,22.85,0,0,1-7.64-17V173.63a22.85,22.85,0,0,1,7.64-17l41-36.46a22.78,22.78,0,0,1,30.24,0l41,36.46h0a22.82,22.82,0,0,1,7.65,17V263.4a22.82,22.82,0,0,1-7.65,17l-12.47,11.09-.16.13-28.41,25.23A22.7,22.7,0,0,1,530.82,322.61Zm0-201.08a15.7,15.7,0,0,0-6.76,1.54,15.29,15.29,0,0,0-3.63,2.41l-41,36.46a15.69,15.69,0,0,0-5.25,11.69V263.4a15.69,15.69,0,0,0,5.25,11.69l41,36.45a15.64,15.64,0,0,0,20.77,0l28.54-25.35.15-.13,12.35-11a15.69,15.69,0,0,0,5.25-11.69V173.63a15.66,15.66,0,0,0-5.26-11.69l-41-36.46A15.62,15.62,0,0,0,530.83,121.53Z"/><path d="M470.58,250.41H272.3a3.57,3.57,0,0,1-3.57-3.57V190.2a3.57,3.57,0,0,1,3.57-3.57H470.58a3.57,3.57,0,0,1,3.57,3.57v56.64A3.57,3.57,0,0,1,470.58,250.41Zm-194.72-7.13H467V193.76H275.86Z"/><rect x="129.41" y="353.18" width="198.29" height="56.64" fill="#ef9614"/><path d="M327.7,353.18v35.95H180.15A31.14,31.14,0,0,1,149,358v-4.81Z" fill="#f8a926"/><path d="M123,322.26l-41-36.46a19.23,19.23,0,0,0-21-3,19,19,0,0,0-4.47,3l-41,36.46a19.22,19.22,0,0,0-6.45,14.35v89.78a19.22,19.22,0,0,0,6.45,14.35l41,36.45a19.21,19.21,0,0,0,25.51,0l28.54-25.35h0L123,440.74a19.24,19.24,0,0,0,6.44-14.35V336.61A19.24,19.24,0,0,0,123,322.26Z" fill="#ef9614"/><path d="M123,322.26l-41-36.46a19.23,19.23,0,0,0-21-3l-12.5,11.1a19.15,19.15,0,0,0-6.45,14.35v89.77a19.14,19.14,0,0,0,6.45,14.35l41,36.47a19.19,19.19,0,0,0,21,3h0L123,440.74a19.24,19.24,0,0,0,6.44-14.35V336.61A19.24,19.24,0,0,0,123,322.26Z" fill="#f8a926"/><path d="M43.35,348a3.57,3.57,0,0,1-3.57-3.57V316.07a3.57,3.57,0,1,1,7.13,0v28.38A3.56,3.56,0,0,1,43.35,348Z"/><path d="M43.35,443.06a3.56,3.56,0,0,1-3.57-3.56V364.24a3.57,3.57,0,1,1,7.13,0V439.5A3.56,3.56,0,0,1,43.35,443.06Z"/><path d="M69.18,485.6a22.7,22.7,0,0,1-15.12-5.74L13,443.4a22.78,22.78,0,0,1-7.65-17V336.61a22.81,22.81,0,0,1,7.64-17l41.05-36.46a22.33,22.33,0,0,1,5.3-3.52,22.71,22.71,0,0,1,24.93,3.52l41,36.45h0a22.81,22.81,0,0,1,7.64,17v89.78a22.81,22.81,0,0,1-7.64,17l-12.48,11.1-.15.12L84.3,479.86A22.71,22.71,0,0,1,69.18,485.6Zm0-201.08a15.69,15.69,0,0,0-10.39,4l-41,36.45a15.7,15.7,0,0,0-5.25,11.69v89.78a15.69,15.69,0,0,0,5.26,11.69l41,36.45a15.65,15.65,0,0,0,20.77,0l28.54-25.35h0l.14-.12,12.36-11a15.72,15.72,0,0,0,5.25-11.69V336.61a15.69,15.69,0,0,0-5.25-11.69l-41-36.45A15.62,15.62,0,0,0,69.18,284.52Z"/><path d="M441.73,322.26l-41-36.46a19.23,19.23,0,0,0-21-3,18.7,18.7,0,0,0-4.46,3l-41,36.46a19.25,19.25,0,0,0-6.45,14.35v89.78a19.25,19.25,0,0,0,6.45,14.35l41,36.45a19.2,19.2,0,0,0,25.5,0l28.54-25.35h0l12.47-11.09a19.22,19.22,0,0,0,6.45-14.35V336.61A19.22,19.22,0,0,0,441.73,322.26Z" fill="#ef9614"/><path d="M441.73,322.26l-41-36.46a19.23,19.23,0,0,0-21-3l-12.5,11.1a19.18,19.18,0,0,0-6.44,14.35v89.77a19.16,19.16,0,0,0,6.44,14.35l41,36.47a19.2,19.2,0,0,0,21,3h0l12.47-11.09a19.22,19.22,0,0,0,6.45-14.35V336.61A19.22,19.22,0,0,0,441.73,322.26Z" fill="#f8a926"/><path d="M362.11,348a3.56,3.56,0,0,1-3.56-3.57V316.07a3.57,3.57,0,1,1,7.13,0v28.38A3.57,3.57,0,0,1,362.11,348Z"/><path d="M362.11,443.06a3.56,3.56,0,0,1-3.56-3.56V364.24a3.57,3.57,0,1,1,7.13,0V439.5A3.56,3.56,0,0,1,362.11,443.06Z"/><path d="M387.94,485.6a22.71,22.71,0,0,1-15.12-5.74l-41-36.46a22.77,22.77,0,0,1-7.64-17V336.61a22.77,22.77,0,0,1,7.64-17l41-36.46a22.76,22.76,0,0,1,30.24,0l41,36.45h0a22.77,22.77,0,0,1,7.64,17v89.78a22.77,22.77,0,0,1-7.64,17l-12.48,11.1-.15.13-28.41,25.23A22.7,22.7,0,0,1,387.94,485.6Zm0-201.08a15.56,15.56,0,0,0-6.76,1.54,15.29,15.29,0,0,0-3.63,2.41l-41,36.45a15.67,15.67,0,0,0-5.25,11.69v89.78a15.69,15.69,0,0,0,5.25,11.69l41,36.45a15.65,15.65,0,0,0,20.77,0l28.54-25.35h0c.05,0,.09-.09.15-.13l12.34-11a15.69,15.69,0,0,0,5.25-11.69V336.61a15.67,15.67,0,0,0-5.25-11.69l-41-36.45A15.62,15.62,0,0,0,388,284.52Z"/><path d="M327.7,413.39H129.41a3.56,3.56,0,0,1-3.56-3.56V353.18a3.56,3.56,0,0,1,3.56-3.56H327.7a3.56,3.56,0,0,1,3.57,3.56v56.65A3.56,3.56,0,0,1,327.7,413.39ZM133,406.26H324.14V356.75H133Z"/></svg>