<svg id="Fitness_Color_Icons" data-name="Fitness Color Icons" xmlns="http://www.w3.org/2000/svg" viewBox="0 0 600 600"><path d="M590.05,319.24A290.59,290.59,0,0,1,444.49,570.81h-289C68.53,520.73,10,426.82,10,319.24,10,183.19,103.64,69,230,37.7a290,290,0,0,1,70-8.51C460.19,29.19,590.05,159.06,590.05,319.24Z" fill="#afd9ef"/><path d="M590.05,319.24A289.54,289.54,0,0,1,478.91,547.56H240.54a78.63,78.63,0,0,1-45.35-14.31A289.66,289.66,0,0,1,72,296C72,183.38,136.22,85.75,230,37.7a290,290,0,0,1,70-8.51C460.19,29.19,590.05,159.06,590.05,319.24Z" fill="#cce6f7"/><path d="M446.87,479.06a75.16,75.16,0,0,1-66.65,40.56H219.78a75,75,0,0,1-53-128.06,74.14,74.14,0,0,1,8.56-7.36A75,75,0,0,0,242,493.66H402.4A74.65,74.65,0,0,0,446.87,479.06Z" fill="#afd9ef"/><path d="M444.49,574.92h-289a4.09,4.09,0,0,1-2.05-.55A294.07,294.07,0,0,1,5.85,319.24,294.15,294.15,0,0,1,508,111.24a294.33,294.33,0,0,1,45.43,357.44A295.8,295.8,0,0,1,446.54,574.37,4.09,4.09,0,0,1,444.49,574.92ZM156.62,566.7H443.39A287,287,0,0,0,585.94,319.24C585.94,161.57,457.67,33.3,300,33.3S14.06,161.57,14.06,319.24A287,287,0,0,0,156.62,566.7Z"/><path d="M404.77,89.52,387.5,134.25l-6.4,16.58a6.3,6.3,0,0,1-5.89,4H224.79a6.3,6.3,0,0,1-5.89-4L195.23,89.52a9.1,9.1,0,0,1,5.1-11.71c5.34-2.13,10.92-4.12,16.72-5.9,1.13-.35,2.27-.69,3.41-1a258,258,0,0,1,32.4-7.24,306.23,306.23,0,0,1,94.28,0,258,258,0,0,1,32.4,7.24c7,2,13.75,4.36,20.13,6.92A9.1,9.1,0,0,1,404.77,89.52Z" fill="#e2e2e2"/><path d="M404.77,89.52,387.5,134.25H260.22a27.89,27.89,0,0,1-26-17.86L217.05,71.91c1.13-.35,2.27-.69,3.41-1a258,258,0,0,1,32.4-7.24,306.23,306.23,0,0,1,94.28,0,258,258,0,0,1,32.4,7.24c7,2,13.75,4.36,20.13,6.92A9.1,9.1,0,0,1,404.77,89.52Z" fill="#fff"/><rect x="291.57" y="75.39" width="16.85" height="30.38" rx="7.18" fill="#64646e"/><path d="M300,109.87a12.54,12.54,0,0,1-12.53-12.53V83.81a12.53,12.53,0,1,1,25.06,0V97.34A12.54,12.54,0,0,1,300,109.87Zm0-30.37a4.32,4.32,0,0,0-4.32,4.31V97.34a4.32,4.32,0,1,0,8.64,0V83.81A4.32,4.32,0,0,0,300,79.5Z"/><rect x="228.82" y="84.03" width="16.85" height="30.38" rx="7.18" transform="translate(-19.44 83.7) rotate(-19.24)" fill="#64646e"/><path d="M239.46,118.14a12.56,12.56,0,0,1-11.82-8.41L223.19,97a12.53,12.53,0,1,1,23.66-8.26l4.46,12.77a12.53,12.53,0,0,1-7.71,16h0A12.56,12.56,0,0,1,239.46,118.14ZM235,88.51a4.35,4.35,0,0,0-1.41.24,4.32,4.32,0,0,0-2.66,5.5L235.4,107a4.3,4.3,0,0,0,5.5,2.65h0a4.31,4.31,0,0,0,2.65-5.49l-4.46-12.77A4.32,4.32,0,0,0,235,88.51Z"/><rect x="355.18" y="84.03" width="16.85" height="30.38" rx="7.18" transform="translate(674.22 312.67) rotate(-160.76)" fill="#64646e"/><path d="M361.38,118.14a12.65,12.65,0,0,1-4.14-.71,12.54,12.54,0,0,1-7.7-16L354,88.7A12.53,12.53,0,1,1,377.66,97l-4.45,12.77a12.56,12.56,0,0,1-11.83,8.41Zm4.45-29.63a4.33,4.33,0,0,0-4.08,2.9l-4.45,12.77a4.31,4.31,0,0,0,2.65,5.49h0a4.3,4.3,0,0,0,5.5-2.65l4.46-12.77a4.33,4.33,0,0,0-2.66-5.5A4.41,4.41,0,0,0,365.83,88.51Z"/><path d="M295.89,153.42l4.11-39.2,4.11,39.2a4.13,4.13,0,1,1-8.22.86A4.94,4.94,0,0,1,295.89,153.42Z"/><path d="M444.49,574.92h-289a4.05,4.05,0,0,1-2-.55A294.11,294.11,0,0,1,5.84,319.24a291.07,291.07,0,0,1,63.53-182.6A293.49,293.49,0,0,1,300,25.08,294.17,294.17,0,0,1,594.16,319.24c0,90.94-41.08,175.34-112.71,231.55a292.62,292.62,0,0,1-34.92,23.58A4.08,4.08,0,0,1,444.49,574.92Zm-287.87-8.21H443.38A286.54,286.54,0,0,0,585.94,319.24C585.94,161.57,457.67,33.29,300,33.29A286,286,0,0,0,156.62,566.71Z"/><path d="M94.2,427.52a4.1,4.1,0,0,1-3.63-2.19,237.05,237.05,0,0,1-27-109.91,4.11,4.11,0,1,1,8.21,0A228.77,228.77,0,0,0,97.84,421.5a4.11,4.11,0,0,1-3.64,6Z"/><path d="M76.09,257.2a4.22,4.22,0,0,1-1.1-.15A4.11,4.11,0,0,1,72.13,252a235.93,235.93,0,0,1,71.34-113.83,4.11,4.11,0,0,1,5.44,6.16A227.62,227.62,0,0,0,80.05,254.19,4.13,4.13,0,0,1,76.09,257.2Z"/><path d="M219.75,523.55a79.12,79.12,0,1,1,0-158.24,4.11,4.11,0,0,1,0,8.21,70.91,70.91,0,1,0,0,141.81,4.11,4.11,0,0,1,0,8.22Z"/><path d="M380.26,523.55a4.11,4.11,0,0,1,0-8.22,71,71,0,0,0,70.9-70.9,4.11,4.11,0,1,1,8.22,0A79.21,79.21,0,0,1,380.26,523.55Z"/><path d="M179.51,474.65a4.1,4.1,0,0,1-4.1-4.11V418.65a4.11,4.11,0,0,1,8.21,0v51.89A4.11,4.11,0,0,1,179.51,474.65Z"/><path d="M420.49,474.65a4.11,4.11,0,0,1-4.11-4.11V418.65a4.11,4.11,0,0,1,8.21,0v51.89A4.1,4.1,0,0,1,420.49,474.65Z"/><path d="M205,493.61a4.11,4.11,0,0,1-4.11-4.11V399.7a4.11,4.11,0,1,1,8.22,0v89.8A4.11,4.11,0,0,1,205,493.61Z"/><path d="M232.4,493.61a4.11,4.11,0,0,1-4.11-4.11V399.7a4.11,4.11,0,1,1,8.22,0v89.8A4.11,4.11,0,0,1,232.4,493.61Z"/><path d="M259.11,493.61a4.1,4.1,0,0,1-4.1-4.11V399.7a4.11,4.11,0,1,1,8.21,0v89.8A4.11,4.11,0,0,1,259.11,493.61Z"/><path d="M286.55,493.61a4.11,4.11,0,0,1-4.1-4.11V399.7a4.11,4.11,0,1,1,8.21,0v89.8A4.11,4.11,0,0,1,286.55,493.61Z"/><path d="M313.72,493.61a4.11,4.11,0,0,1-4.1-4.11V399.7a4.11,4.11,0,1,1,8.21,0v89.8A4.11,4.11,0,0,1,313.72,493.61Z"/><path d="M341.17,493.61a4.11,4.11,0,0,1-4.11-4.11V399.7a4.11,4.11,0,1,1,8.21,0v89.8A4.11,4.11,0,0,1,341.17,493.61Z"/><path d="M369.61,493.61a4.11,4.11,0,0,1-4.11-4.11V399.7a4.11,4.11,0,1,1,8.21,0v89.8A4.11,4.11,0,0,1,369.61,493.61Z"/><path d="M397.05,493.61a4.11,4.11,0,0,1-4.11-4.11V399.7a4.11,4.11,0,1,1,8.21,0v89.8A4.1,4.1,0,0,1,397.05,493.61Z"/><path d="M375.21,159H224.79a10.5,10.5,0,0,1-9.73-6.68L191.4,91a13.24,13.24,0,0,1,7.4-17c5.55-2.22,11.28-4.24,17-6l3.48-1a265.62,265.62,0,0,1,32.9-7.35,310.35,310.35,0,0,1,95.56,0A265,265,0,0,1,380.7,67c7,2,13.92,4.41,20.5,7a13.24,13.24,0,0,1,7.4,17h0l-23.66,61.32A10.5,10.5,0,0,1,375.21,159ZM300,64.1a299,299,0,0,0-46.49,3.6,258,258,0,0,0-31.9,7.13l-3.33,1c-5.57,1.71-11.09,3.66-16.43,5.8A5,5,0,0,0,199.07,88l23.66,61.31a2.22,2.22,0,0,0,2.06,1.42H375.21a2.23,2.23,0,0,0,2.06-1.41L400.93,88a5,5,0,0,0-2.78-6.41c-6.33-2.54-13-4.83-19.75-6.8a258.53,258.53,0,0,0-31.91-7.13A299,299,0,0,0,300,64.1ZM404.77,89.52h0Z"/></svg>