<svg id="Fitness_Color_Icons" data-name="Fitness Color Icons" xmlns="http://www.w3.org/2000/svg" viewBox="0 0 600 600"><path d="M409.59,158.5v283a46.76,46.76,0,0,1-.94,9.32,46.06,46.06,0,0,1-45,36.66H236.37a46,46,0,0,1-46-46v-283a46,46,0,0,1,46-46H363.63A46,46,0,0,1,409.59,158.5Z" fill="#64646e"/><path d="M409.59,158.5v283a46.76,46.76,0,0,1-.94,9.32A45.39,45.39,0,0,1,396,452.59H268.76a46,46,0,0,1-46-46v-283a46.91,46.91,0,0,1,.94-9.32,45.77,45.77,0,0,1,12.63-1.77H363.63A46,46,0,0,1,409.59,158.5Z" fill="#8d91ac"/><path d="M363.62,491.55H236.38a50.1,50.1,0,0,1-50-50v-283a50.1,50.1,0,0,1,50-50H363.62a50.1,50.1,0,0,1,50.05,50v283A50.1,50.1,0,0,1,363.62,491.55Zm-127.24-375a41.94,41.94,0,0,0-41.89,41.89v283a41.94,41.94,0,0,0,41.89,41.89H363.62a41.94,41.94,0,0,0,41.89-41.89v-283a41.94,41.94,0,0,0-41.89-41.89Z"/><path d="M389.17,158.5v283a25.54,25.54,0,0,1-25.54,25.55H236.37a25.54,25.54,0,0,1-25.54-25.55v-283A25.54,25.54,0,0,1,236.37,133H363.63A25.54,25.54,0,0,1,389.17,158.5Z" fill="#6bb5f6"/><path d="M389.17,158.49v282H332.8a91.25,91.25,0,0,1-91.25-91.25V133H363.63A25.54,25.54,0,0,1,389.17,158.49Z" fill="#cce6f7"/><path d="M277.56,361h-.25a4.07,4.07,0,0,1-3.74-3.22l-19.32-90.32-12.16,33.94a4.07,4.07,0,0,1-3.84,2.71H210.83a4.08,4.08,0,0,1,0-8.16h24.55l16-44.73a4.08,4.08,0,0,1,7.82.52l19.26,90,17.67-51.18a4.07,4.07,0,0,1,7.37-.72l15.37,26.42L344,221a4.08,4.08,0,0,1,3.93-3h0a4.08,4.08,0,0,1,3.94,3l20.06,75h17.25a4.08,4.08,0,1,1,0,8.16H368.79a4.08,4.08,0,0,1-3.94-3L348,237.89l-23.68,90a4.08,4.08,0,0,1-7.47,1L301,301.62l-19.54,56.61A4.07,4.07,0,0,1,277.56,361Z"/><path d="M265.43,177.79H230.49a4.08,4.08,0,0,1,0-8.16h34.94a4.08,4.08,0,0,1,0,8.16Z"/><path d="M386.65,481.26,360.47,568.9l-2.3,7.66A23,23,0,0,1,336.12,593H263.88a23,23,0,0,1-22-16.43l-28.51-95.3a45.83,45.83,0,0,0,23.05,6.21H363.62A45.4,45.4,0,0,0,386.65,481.26Z" fill="#af222f"/><path d="M386.65,481.26,360.47,568.9H288.8a23,23,0,0,1-22.05-16.42l-19.45-65H363.62A45.4,45.4,0,0,0,386.65,481.26Z" fill="#bd3b43"/><path d="M284,519.9H260.33a4.08,4.08,0,0,1,0-8.16H284a4.08,4.08,0,0,1,0,8.16Z"/><path d="M347.32,519.9H306.19a4.08,4.08,0,0,1,0-8.16h41.13a4.08,4.08,0,0,1,0,8.16Z"/><path d="M386.65,118.74a45.87,45.87,0,0,0-23.06-6.21H236.35a45.4,45.4,0,0,0-23,6.21l28.47-95.3A23,23,0,0,1,263.85,7h72.23a23,23,0,0,1,22.06,16.43l19.7,65.86Z" fill="#af222f"/><path d="M377.84,89.3H269.18a15.42,15.42,0,0,1-15-19.76L272.84,7h63.24a23,23,0,0,1,22.06,16.43Z" fill="#bd3b43"/><path d="M241.55,96.05a4.19,4.19,0,0,1-1-.12,4.07,4.07,0,0,1-3-4.94l9.69-38.76a4.08,4.08,0,1,1,7.91,2L245.5,93A4.06,4.06,0,0,1,241.55,96.05Z"/><path d="M255.12,43.73a4.17,4.17,0,0,1-1-.12,4.08,4.08,0,0,1-3-4.93L255,22.9A4.08,4.08,0,1,1,263,24.84l-3.88,15.78A4.07,4.07,0,0,1,255.12,43.73Z"/><path d="M363.63,471.13H236.37a29.65,29.65,0,0,1-29.61-29.63v-283a29.65,29.65,0,0,1,29.61-29.63H363.63a29.65,29.65,0,0,1,29.61,29.63v283A29.65,29.65,0,0,1,363.63,471.13ZM236.37,137a21.5,21.5,0,0,0-21.46,21.48v283A21.5,21.5,0,0,0,236.37,463H363.63a21.5,21.5,0,0,0,21.46-21.48v-283A21.5,21.5,0,0,0,363.63,137Z"/><path d="M363.63,491.56H236.37a50.11,50.11,0,0,1-50-50.06v-283a50.27,50.27,0,0,1,36.29-48.13,49.75,49.75,0,0,1,13.75-1.93H363.63a50.11,50.11,0,0,1,50,50.06v283a50,50,0,0,1-50,50.06Zm-127.26-375a41.59,41.59,0,0,0-11.5,1.61,42.09,42.09,0,0,0-30.38,40.29v283a41.94,41.94,0,0,0,41.88,41.9H363.63a41.84,41.84,0,0,0,41.88-41.9v-283a41.94,41.94,0,0,0-41.88-41.9Z"/><path d="M336.12,597.07H263.88a26.94,26.94,0,0,1-26-19.34l-28.51-95.3a4.07,4.07,0,0,1,6-4.7,41.92,41.92,0,0,0,21,5.66H363.62a41.47,41.47,0,0,0,21-5.65,4.08,4.08,0,0,1,6,4.68l-28.48,95.31A27.26,27.26,0,0,1,336.12,597.07ZM219.8,488.72l25.93,86.67a18.84,18.84,0,0,0,18.15,13.52h72.24a19.07,19.07,0,0,0,18.15-13.52l25.89-86.66a49.76,49.76,0,0,1-16.54,2.81H236.37A50.16,50.16,0,0,1,219.8,488.72Z"/><path d="M386.65,122.82a4.07,4.07,0,0,1-2-.55,41.89,41.89,0,0,0-21-5.66H236.35a41.44,41.44,0,0,0-21,5.65,4.08,4.08,0,0,1-6-4.68l28.47-95.31a27.27,27.27,0,0,1,26-19.34h72.23a27,27,0,0,1,26,19.34l28.51,95.3a4.08,4.08,0,0,1-1.39,4.38A4,4,0,0,1,386.65,122.82Zm-150.3-14.36H363.59a50.08,50.08,0,0,1,16.57,2.82L354.23,24.61a18.83,18.83,0,0,0-18.15-13.52H263.85A19.06,19.06,0,0,0,245.7,24.61l-25.89,86.66A49.72,49.72,0,0,1,236.35,108.46Z"/></svg>