<svg id="Fitness_Color_Icons" data-name="Fitness Color Icons" xmlns="http://www.w3.org/2000/svg" viewBox="0 0 600 600"><path d="M46.43,60.32H165.35a37.6,37.6,0,0,1,37.6,37.6V521.24a0,0,0,0,1,0,0H8.83a0,0,0,0,1,0,0V97.92A37.6,37.6,0,0,1,46.43,60.32Z" fill="#7c8199"/><path d="M202.94,524.81H8.83a3.56,3.56,0,0,1-3.56-3.57V98.6A41.89,41.89,0,0,1,47.11,56.76H164.66A41.89,41.89,0,0,1,206.51,98.6V521.24A3.57,3.57,0,0,1,202.94,524.81ZM12.4,517.68h187V98.6a34.75,34.75,0,0,0-34.72-34.71H47.11A34.75,34.75,0,0,0,12.4,98.6Z"/><path d="M202.94,98.6V500.19H111.51A76.55,76.55,0,0,1,35,423.64V77.55a38.21,38.21,0,0,1,3.63-16.28,38.56,38.56,0,0,1,8.52-.94H164.67A38.26,38.26,0,0,1,202.94,98.6Z" fill="#8d91ac"/><rect x="159.35" y="253.28" width="16.15" height="75" rx="7.93" fill="#64646e"/><path d="M167.42,331.85a11.65,11.65,0,0,1-11.64-11.64V261.36a11.64,11.64,0,1,1,23.27,0v58.85A11.65,11.65,0,0,1,167.42,331.85Zm0-75a4.51,4.51,0,0,0-4.51,4.51v58.85a4.51,4.51,0,0,0,9,0V261.36A4.52,4.52,0,0,0,167.42,256.85Z"/><path d="M171.32,409.83a9.69,9.69,0,0,1-.22,2,9.05,9.05,0,0,1-8.82,7H49.48a9,9,0,0,1,0-18.07h112.8A9,9,0,0,1,171.32,409.83Z" fill="#ccc"/><path d="M171.32,439.51a9.16,9.16,0,0,1-.23,2,9,9,0,0,1-2.41,4.36,9.06,9.06,0,0,1-6.4,2.65H49.48a9,9,0,0,1-9-9,9,9,0,0,1,9-9h112.8A9,9,0,0,1,171.32,439.51Z" fill="#ccc"/><path d="M171.32,469.2a9.62,9.62,0,0,1-.22,2,9.05,9.05,0,0,1-8.82,7H49.48a9,9,0,0,1,0-18.07h112.8A9,9,0,0,1,171.32,469.2Z" fill="#ccc"/><path d="M171.32,409.83a9.69,9.69,0,0,1-.22,2H59.4a9,9,0,0,1-8.8-11.06H162.28A9,9,0,0,1,171.32,409.83Z" fill="#e6e6e6"/><path d="M171.32,439.51a9.16,9.16,0,0,1-.23,2H59.4a9,9,0,0,1-9-9.05,9.52,9.52,0,0,1,.22-2H162.28A9,9,0,0,1,171.32,439.51Z" fill="#e6e6e6"/><path d="M171.32,469.2a9.62,9.62,0,0,1-.22,2H59.4a9,9,0,0,1-8.8-11.06H162.28A9,9,0,0,1,171.32,469.2Z" fill="#e6e6e6"/><path d="M162.28,422.42H49.48a12.59,12.59,0,0,1-8.9-21.5,12.46,12.46,0,0,1,8.9-3.7h112.8a12.63,12.63,0,0,1,12.61,12.61,13.23,13.23,0,0,1-.31,2.78,12.63,12.63,0,0,1-12.3,9.81ZM49.48,404.35a5.38,5.38,0,0,0-3.85,1.6,5.47,5.47,0,0,0,3.85,9.35h112.8a5.4,5.4,0,0,0,3.87-1.61,5.31,5.31,0,0,0,1.47-2.64,5.57,5.57,0,0,0,.14-1.22,5.49,5.49,0,0,0-5.48-5.48Z"/><path d="M162.28,452.12H49.48a12.62,12.62,0,0,1-12.59-12.61,12.62,12.62,0,0,1,12.59-12.6h112.8a12.62,12.62,0,0,1,12.61,12.6,12.65,12.65,0,0,1-3.7,8.91A12.51,12.51,0,0,1,162.28,452.12ZM49.48,434A5.48,5.48,0,0,0,44,439.51,5.48,5.48,0,0,0,49.48,445h112.8a5.45,5.45,0,0,0,3.88-1.61,5.33,5.33,0,0,0,1.45-2.62,5.45,5.45,0,0,0-5.33-6.72Z"/><path d="M162.28,481.8H49.48a12.6,12.6,0,0,1,0-25.2h112.8a12.62,12.62,0,0,1,12.61,12.6,13.23,13.23,0,0,1-.31,2.78,12.65,12.65,0,0,1-12.3,9.82ZM49.48,463.72A5.48,5.48,0,0,0,44,469.2a5.47,5.47,0,0,0,5.46,5.47h112.8a5.45,5.45,0,0,0,3.87-1.6,5.38,5.38,0,0,0,1.47-2.65,5.57,5.57,0,0,0,.14-1.22,5.49,5.49,0,0,0-5.48-5.48Z"/><path d="M167.42,132.41V189.8c0,.4,0,.8,0,1.19a16.61,16.61,0,0,1-16.57,15.42H61A16.61,16.61,0,0,1,44.36,189.8V132.41A16.62,16.62,0,0,1,58.61,116a16.84,16.84,0,0,1,2.37-.17h89.83A16.62,16.62,0,0,1,167.42,132.41Z" fill="#ccc"/><path d="M150.81,210H61A20.21,20.21,0,0,1,40.79,189.8V132.4a20.26,20.26,0,0,1,17.32-20,21.31,21.31,0,0,1,2.87-.21h89.83A20.2,20.2,0,0,1,171,132.4v57.4c0,.49,0,1,0,1.47A20.22,20.22,0,0,1,150.81,210ZM61,119.35A13.11,13.11,0,0,0,47.92,132.4v57.4a13.07,13.07,0,0,0,13.06,13h89.83a13.08,13.08,0,0,0,13-12.1c0-.33,0-.63,0-.94V132.4a13.06,13.06,0,0,0-13-13.05Z"/><path d="M167.42,132.41V189.8c0,.4,0,.8,0,1.19a16.7,16.7,0,0,1-2.36.18H75.18a16.61,16.61,0,0,1-16.61-16.61v-57.4c0-.4,0-.8,0-1.2a16.84,16.84,0,0,1,2.37-.17h89.83A16.62,16.62,0,0,1,167.42,132.41Z" fill="#e6e6e6"/><path d="M58.57,146.18A3.56,3.56,0,0,1,55,142.61V132.2a3.56,3.56,0,1,1,7.12,0v10.41A3.56,3.56,0,0,1,58.57,146.18Z"/><path d="M58.57,192.53A3.56,3.56,0,0,1,55,189V158.24a3.56,3.56,0,1,1,7.12,0V189A3.56,3.56,0,0,1,58.57,192.53Z"/><path d="M150.81,210H61A20.21,20.21,0,0,1,40.79,189.8V132.4a20.26,20.26,0,0,1,17.32-20,21.31,21.31,0,0,1,2.87-.21h89.83A20.2,20.2,0,0,1,171,132.4v57.4c0,.49,0,1,0,1.47A20.22,20.22,0,0,1,150.81,210ZM61,119.35A13.11,13.11,0,0,0,47.92,132.4v57.4a13.07,13.07,0,0,0,13.06,13h89.83a13.08,13.08,0,0,0,13-12.1c0-.33,0-.63,0-.94V132.4a13.06,13.06,0,0,0-13-13.05Z"/><path d="M202.94,524.81H8.83a3.56,3.56,0,0,1-3.56-3.57V98.6A41.89,41.89,0,0,1,47.11,56.76H164.66A41.89,41.89,0,0,1,206.51,98.6V521.24A3.57,3.57,0,0,1,202.94,524.81ZM12.4,517.68h187V98.6a34.75,34.75,0,0,0-34.72-34.71H47.11A34.75,34.75,0,0,0,12.4,98.6Z"/><path d="M397.06,98.6V521.25H202.94V98.6a38.18,38.18,0,0,1,38.28-38.27H358.78A38.27,38.27,0,0,1,397.06,98.6Z" fill="#4a4a4f"/><path d="M397.06,98.6V500.19H305.62a76.55,76.55,0,0,1-76.55-76.55V77.55a38.21,38.21,0,0,1,3.63-16.28,38.56,38.56,0,0,1,8.52-.94H358.78A38.27,38.27,0,0,1,397.06,98.6Z" fill="#64646e"/><path d="M361.53,132.41V189.8c0,.4,0,.8,0,1.19a16.61,16.61,0,0,1-16.57,15.42H255.08a16.6,16.6,0,0,1-16.61-16.61V132.41a16.62,16.62,0,0,1,16.61-16.62h89.84A16.61,16.61,0,0,1,361.53,132.41Z" fill="#bababa"/><path d="M361.53,132.41V189.8c0,.4,0,.8,0,1.19a16.7,16.7,0,0,1-2.36.18H269.29a16.61,16.61,0,0,1-16.61-16.61V117.15c0-.39,0-.79,0-1.19a16.7,16.7,0,0,1,2.36-.17h89.84A16.61,16.61,0,0,1,361.53,132.41Z" fill="#cecece"/><rect x="353.46" y="253.28" width="16.15" height="75" rx="7.93" fill="#4a4a4f"/><path d="M361.53,331.85a11.65,11.65,0,0,1-11.64-11.64V261.36a11.64,11.64,0,0,1,23.28,0v58.85A11.65,11.65,0,0,1,361.53,331.85Zm0-75a4.51,4.51,0,0,0-4.51,4.51v58.85a4.51,4.51,0,0,0,9,0V261.36A4.51,4.51,0,0,0,361.53,256.85Z"/><path d="M365.44,409.82a9.54,9.54,0,0,1-.22,2,9.1,9.1,0,0,1-2.43,4.37,9,9,0,0,1-6.39,2.65H243.6a9,9,0,0,1,0-18.08H356.4A9,9,0,0,1,365.44,409.82Z" fill="#bababa"/><path d="M365.44,439.5a9,9,0,0,1-9,9.05H243.6a9,9,0,0,1,0-18.08H356.4A9,9,0,0,1,365.44,439.5Z" fill="#bababa"/><path d="M365.44,469.2a9.52,9.52,0,0,1-.22,2,9.1,9.1,0,0,1-2.43,4.37,9,9,0,0,1-6.39,2.65H243.6a9,9,0,0,1,0-18.08H356.4A9.05,9.05,0,0,1,365.44,469.2Z" fill="#bababa"/><path d="M365.44,409.82a9.54,9.54,0,0,1-.22,2H254.73a9,9,0,0,1-8.81-11.06H356.4A9,9,0,0,1,365.44,409.82Z" fill="#cecece"/><path d="M365.44,439.5a9,9,0,0,1-.23,2H254.73a9,9,0,0,1-9-9,9.69,9.69,0,0,1,.22-2H356.4A9,9,0,0,1,365.44,439.5Z" fill="#cecece"/><path d="M365.44,469.2a9.52,9.52,0,0,1-.22,2H254.73a9,9,0,0,1-9-9,9.16,9.16,0,0,1,.23-2H356.4A9.05,9.05,0,0,1,365.44,469.2Z" fill="#cecece"/><path d="M252.68,146.18a3.56,3.56,0,0,1-3.56-3.57V132.2a3.57,3.57,0,1,1,7.13,0v10.41A3.57,3.57,0,0,1,252.68,146.18Z"/><path d="M252.68,192.53a3.56,3.56,0,0,1-3.56-3.57V158.24a3.57,3.57,0,1,1,7.13,0V189A3.57,3.57,0,0,1,252.68,192.53Z"/><path d="M344.92,210H255.08a20.2,20.2,0,0,1-20.17-20.17V132.4a20.25,20.25,0,0,1,17.32-20,20.67,20.67,0,0,1,2.85-.21h89.84a20.2,20.2,0,0,1,20.17,20.18v57.4c0,.49,0,1,0,1.47A20.22,20.22,0,0,1,344.92,210Zm-89.84-90.62a12.67,12.67,0,0,0-1.84.14A13.08,13.08,0,0,0,242,132.4v57.4a13.06,13.06,0,0,0,13.05,13h89.84a13.07,13.07,0,0,0,13-12.1c0-.33,0-.63,0-.94V132.4a13.07,13.07,0,0,0-13.05-13.05Z"/><path d="M356.4,422.42H243.6a12.6,12.6,0,1,1,0-25.2H356.4a12.61,12.61,0,0,1,12.6,12.6,13.21,13.21,0,0,1-.3,2.78,12.62,12.62,0,0,1-12.3,9.82ZM243.6,404.35a5.47,5.47,0,1,0,0,10.94H356.4a5.48,5.48,0,0,0,5.34-4.25,5.57,5.57,0,0,0,.14-1.22,5.48,5.48,0,0,0-5.48-5.47Z"/><path d="M356.4,452.11H243.6a12.6,12.6,0,1,1,0-25.2H356.4A12.61,12.61,0,0,1,369,439.5a12.88,12.88,0,0,1-.32,2.84,12.6,12.6,0,0,1-12.28,9.77ZM243.6,434a5.45,5.45,0,0,0-3.87,1.6,5.39,5.39,0,0,0-1.61,3.86A5.48,5.48,0,0,0,243.6,445H356.4a5.47,5.47,0,0,0,3.88-1.61,5.37,5.37,0,0,0,1.45-2.62A5.44,5.44,0,0,0,356.4,434Z"/><path d="M356.4,481.79H243.6a12.6,12.6,0,1,1,0-25.2H356.4A12.62,12.62,0,0,1,369,469.2a13.19,13.19,0,0,1-.3,2.77,12.62,12.62,0,0,1-12.3,9.82ZM243.6,463.72a5.47,5.47,0,1,0,0,10.94H356.4a5.48,5.48,0,0,0,5.34-4.25,5.55,5.55,0,0,0,.14-1.21,5.49,5.49,0,0,0-5.48-5.48Z"/><path d="M397.06,524.81H202.94a3.57,3.57,0,0,1-3.56-3.56V98.6a41.8,41.8,0,0,1,41.84-41.84H358.78A41.89,41.89,0,0,1,400.62,98.6V521.25A3.57,3.57,0,0,1,397.06,524.81Zm-190.55-7.13h187V98.6a34.75,34.75,0,0,0-34.71-34.71H241.22a35,35,0,0,0-7.73.86,34.53,34.53,0,0,0-27,33.85Z"/><path d="M434.65,60.32H553.57a37.6,37.6,0,0,1,37.6,37.6V521.24a0,0,0,0,1,0,0H397.06a0,0,0,0,1,0,0V97.92A37.6,37.6,0,0,1,434.65,60.32Z" fill="#7c8199"/><path d="M591.17,524.81H397.06a3.57,3.57,0,0,1-3.57-3.57V98.6a41.89,41.89,0,0,1,41.85-41.84H552.89A41.89,41.89,0,0,1,594.73,98.6V521.24A3.56,3.56,0,0,1,591.17,524.81Zm-190.55-7.13h187V98.6a34.75,34.75,0,0,0-34.71-34.71H435.34A34.75,34.75,0,0,0,400.62,98.6Z"/><path d="M591.17,98.6V500.19H499.73a76.54,76.54,0,0,1-76.54-76.55V77.55a38.21,38.21,0,0,1,3.62-16.28,38.56,38.56,0,0,1,8.52-.94H552.89A38.27,38.27,0,0,1,591.17,98.6Z" fill="#8d91ac"/><path d="M555.64,132.41V189.8c0,.4,0,.8,0,1.19A16.61,16.61,0,0,1,539,206.41H449.2a16.61,16.61,0,0,1-16.62-16.61V132.41A16.62,16.62,0,0,1,446.83,116a16.84,16.84,0,0,1,2.37-.17H539A16.61,16.61,0,0,1,555.64,132.41Z" fill="#ccc"/><path d="M539,210H449.2A20.2,20.2,0,0,1,429,189.8V132.4a20.25,20.25,0,0,1,17.32-20,21,21,0,0,1,2.86-.21H539A20.2,20.2,0,0,1,559.2,132.4v57.4c0,.49,0,1-.05,1.47A20.22,20.22,0,0,1,539,210ZM449.2,119.35a12.91,12.91,0,0,0-1.85.14,13.09,13.09,0,0,0-11.21,12.91v57.4a13.07,13.07,0,0,0,13.06,13H539a13.07,13.07,0,0,0,13-12.1c0-.33,0-.63,0-.94V132.4A13.07,13.07,0,0,0,539,119.35Z"/><path d="M555.64,132.41V189.8c0,.4,0,.8,0,1.19a16.56,16.56,0,0,1-2.35.18H463.4a16.61,16.61,0,0,1-16.61-16.61v-57.4c0-.4,0-.8,0-1.2a16.84,16.84,0,0,1,2.37-.17H539A16.61,16.61,0,0,1,555.64,132.41Z" fill="#e6e6e6"/><rect x="547.57" y="253.28" width="16.15" height="75" rx="7.93" fill="#64646e"/><path d="M555.64,331.85A11.65,11.65,0,0,1,544,320.21V261.36a11.64,11.64,0,1,1,23.27,0v58.85A11.65,11.65,0,0,1,555.64,331.85Zm0-75a4.52,4.52,0,0,0-4.51,4.51v58.85a4.51,4.51,0,1,0,9,0V261.36A4.51,4.51,0,0,0,555.64,256.85Z"/><path d="M446.79,146.18a3.57,3.57,0,0,1-3.56-3.57V132.2a3.57,3.57,0,1,1,7.13,0v10.41A3.57,3.57,0,0,1,446.79,146.18Z"/><path d="M446.79,192.53a3.57,3.57,0,0,1-3.56-3.57V158.24a3.57,3.57,0,1,1,7.13,0V189A3.57,3.57,0,0,1,446.79,192.53Z"/><path d="M539,210H449.2A20.2,20.2,0,0,1,429,189.8V132.4a20.25,20.25,0,0,1,17.32-20,21,21,0,0,1,2.86-.21H539A20.2,20.2,0,0,1,559.2,132.4v57.4c0,.49,0,1-.05,1.47A20.22,20.22,0,0,1,539,210ZM449.2,119.35a12.91,12.91,0,0,0-1.85.14,13.09,13.09,0,0,0-11.21,12.91v57.4a13.07,13.07,0,0,0,13.06,13H539a13.07,13.07,0,0,0,13-12.1c0-.33,0-.63,0-.94V132.4A13.07,13.07,0,0,0,539,119.35Z"/><path d="M559.55,409.82a9.54,9.54,0,0,1-.22,2,9.1,9.1,0,0,1-2.43,4.37,9,9,0,0,1-6.39,2.65H437.71a9,9,0,0,1,0-18.08h112.8A9,9,0,0,1,559.55,409.82Z" fill="#ccc"/><path d="M559.55,439.5a9,9,0,0,1-9,9.05H437.71a9,9,0,0,1,0-18.08h112.8A9,9,0,0,1,559.55,439.5Z" fill="#ccc"/><path d="M559.55,469.2a9.52,9.52,0,0,1-.22,2,9.1,9.1,0,0,1-2.43,4.37,9,9,0,0,1-6.39,2.65H437.71a9,9,0,0,1,0-18.08h112.8A9.05,9.05,0,0,1,559.55,469.2Z" fill="#ccc"/><path d="M559.55,409.82a9.54,9.54,0,0,1-.22,2H447.63a9,9,0,0,1-8.8-11.06H550.51A9,9,0,0,1,559.55,409.82Z" fill="#e6e6e6"/><path d="M559.55,439.5a9,9,0,0,1-.23,2H447.63a9,9,0,0,1-9-9,9.69,9.69,0,0,1,.22-2H550.51A9,9,0,0,1,559.55,439.5Z" fill="#e6e6e6"/><path d="M559.55,469.2a9.52,9.52,0,0,1-.22,2H447.63a9,9,0,0,1-9-9,9.16,9.16,0,0,1,.23-2H550.51A9.05,9.05,0,0,1,559.55,469.2Z" fill="#e6e6e6"/><path d="M550.51,422.42H437.71a12.6,12.6,0,0,1-8.9-21.51,12.44,12.44,0,0,1,8.9-3.69h112.8a12.61,12.61,0,0,1,12.6,12.6,13.21,13.21,0,0,1-.3,2.78,12.67,12.67,0,0,1-3.39,6.13A12.51,12.51,0,0,1,550.51,422.42Zm-112.8-18.07a5.48,5.48,0,0,0-5.47,5.47,5.48,5.48,0,0,0,5.47,5.47h112.8a5.48,5.48,0,0,0,5.34-4.25,5.57,5.57,0,0,0,.14-1.22,5.48,5.48,0,0,0-5.48-5.47Z"/><path d="M550.51,452.11H437.71a12.61,12.61,0,0,1-12.59-12.61,12.6,12.6,0,0,1,12.59-12.59h112.8a12.61,12.61,0,0,1,12.6,12.59,12.69,12.69,0,0,1-3.69,8.92A12.58,12.58,0,0,1,550.51,452.11ZM437.71,434a5.48,5.48,0,0,0-5.47,5.46,5.48,5.48,0,0,0,5.47,5.48h112.8a5.45,5.45,0,0,0,3.88-1.61,5.37,5.37,0,0,0,1.45-2.62,5.44,5.44,0,0,0-5.33-6.71Z"/><path d="M550.51,481.79H437.71a12.6,12.6,0,0,1,0-25.2h112.8a12.62,12.62,0,0,1,12.6,12.61,13.28,13.28,0,0,1-.3,2.78,12.68,12.68,0,0,1-3.39,6.12A12.51,12.51,0,0,1,550.51,481.79Zm-112.8-18.07a5.47,5.47,0,1,0,0,10.94h112.8a5.48,5.48,0,0,0,5.34-4.25,5.55,5.55,0,0,0,.14-1.21,5.49,5.49,0,0,0-5.48-5.48Z"/><path d="M591.17,524.81H397.06a3.57,3.57,0,0,1-3.57-3.57V98.6a41.89,41.89,0,0,1,41.85-41.84H552.89A41.89,41.89,0,0,1,594.73,98.6V521.24A3.56,3.56,0,0,1,591.17,524.81Zm-190.55-7.13h187V98.6a34.75,34.75,0,0,0-34.71-34.71H435.34A34.75,34.75,0,0,0,400.62,98.6Z"/><rect x="8.83" y="521.24" width="582.34" height="18.43" fill="#64646e"/><path d="M591.17,543.24H8.83a3.56,3.56,0,0,1-3.56-3.56V521.24a3.56,3.56,0,0,1,3.56-3.56H591.17a3.56,3.56,0,0,1,3.56,3.56v18.44A3.56,3.56,0,0,1,591.17,543.24ZM12.4,536.11H587.6v-11.3H12.4Z"/></svg>