<svg id="Fitness_Color_Icons" data-name="Fitness Color Icons" xmlns="http://www.w3.org/2000/svg" viewBox="0 0 600 600"><path d="M587.15,249.1l-17.47,99a79,79,0,0,1-79.88,65.22,78.12,78.12,0,0,1-11.6-1.18L380.74,395a79,79,0,0,1-64-91.48l10.23-58a25.49,25.49,0,0,1,29.53-20.67l5.29-30a64.62,64.62,0,0,1,74.86-52.42l9.9,1.75,76.59,13.51A79,79,0,0,1,587.15,249.1Z" fill="#bd3b43"/><line x1="422.9" y1="279.65" x2="422.49" y2="279.59" fill="#bd3b43"/><path d="M587.15,249.1l-17.47,99a79,79,0,0,1-79.88,65.22L401.15,397.7a78.94,78.94,0,0,1-64-91.47l10.23-58.05a25.48,25.48,0,0,1,29.53-20.67l5.28-30a64.63,64.63,0,0,1,64.36-53.39l76.59,13.51A79,79,0,0,1,587.15,249.1Z" fill="#ff807d"/><path d="M532.21,266.7c-3,17.26-35.83,25.56-53.09,22.52l-56.22-9.57a18.65,18.65,0,0,0,4.46-9.22l1.2-6.78,65.93,11.63a31.74,31.74,0,0,0,36.78-25.74l3.92-.27Z" fill="#bd3b43"/><path d="M500,279.69a35.54,35.54,0,0,1-6.21-.54l-65.94-11.63a3.93,3.93,0,0,1,1.37-7.74l65.94,11.63a27.84,27.84,0,0,0,32.22-22.56l4.77-27.06a3.93,3.93,0,0,1,7.74,1.37l-4.77,27.06A35.73,35.73,0,0,1,500,279.69Z"/><path d="M429.75,256.87l-2.39,13.56a18.88,18.88,0,0,1-21.86,15.3l-49.19-8.68c-8.27-2-5.85-12.06,2.42-10.08l41.6,7.34A18.87,18.87,0,0,0,422.19,259l2.39-13.55a18.56,18.56,0,0,0,.21-4.92A18.79,18.79,0,0,1,429.75,256.87Z" fill="#bd3b43"/><path d="M572.3,260.43a4,4,0,0,1-.69-.06l-41-7.23A3.93,3.93,0,1,1,532,245.4l41,7.23a3.93,3.93,0,0,1-.68,7.8Z"/><path d="M408.8,290a23.33,23.33,0,0,1-4-.35l-49.2-8.68a3.93,3.93,0,1,1,1.36-7.74l49.2,8.68a15,15,0,0,0,17.3-12.11l2.39-13.56a15,15,0,0,0-12.11-17.3l-61.08-10.78a18.43,18.43,0,0,0-21.34,14.94l-5.06,28.7a3.93,3.93,0,1,1-7.74-1.36l5.07-28.71a26.26,26.26,0,0,1,30.43-21.31l61.09,10.78a22.82,22.82,0,0,1,18.48,26.4l-2.39,13.56A22.85,22.85,0,0,1,408.8,290Z"/><path d="M513.87,425l-1.67,9.45a15.21,15.21,0,0,1-10.53,11.9,24.5,24.5,0,0,1,1.25,13.08l-10.73,60.81a24.6,24.6,0,0,1-28.5,20L366,522.93l-15.37-2.71a24.61,24.61,0,0,1-20-28.5l10.73-60.82A24.5,24.5,0,0,1,347,419a15.22,15.22,0,0,1-5.83-14.79l1.67-9.45a15.18,15.18,0,0,1,8.75-11.23,75.24,75.24,0,0,0,10.26,5.59A78.82,78.82,0,0,0,380.74,395l97.46,17.18a78.4,78.4,0,0,0,31.29-.76A15.2,15.2,0,0,1,513.87,425Z" fill="#64646e"/><path d="M468,544.48a29.24,29.24,0,0,1-5-.44l-113.1-19.95A28.56,28.56,0,0,1,326.76,491l10.73-60.82a28.51,28.51,0,0,1,4.26-10.73,19.07,19.07,0,0,1-4.44-15.92l1.67-9.46A19.14,19.14,0,0,1,350,380a3.92,3.92,0,0,1,3.74.28,72.6,72.6,0,0,0,9.74,5.31,75.41,75.41,0,0,0,17.95,5.54l97.46,17.18a74.21,74.21,0,0,0,29.73-.72,3.9,3.9,0,0,1,3.61,1,19.09,19.09,0,0,1,5.51,17.06l-1.66,9.45a19.06,19.06,0,0,1-9.61,13.44,28.61,28.61,0,0,1,.33,11.55l-10.73,60.8a28.54,28.54,0,0,1-28,23.59ZM351.47,388.13a11.26,11.26,0,0,0-4.75,7.35l-1.67,9.45a11.25,11.25,0,0,0,4.33,11,3.95,3.95,0,0,1,.59,5.72,20.55,20.55,0,0,0-4.74,9.95L334.5,492.4a20.69,20.69,0,0,0,16.77,24l113.1,19.95a20.66,20.66,0,0,0,23.95-16.77l10.73-60.81a20.78,20.78,0,0,0-1-11,3.91,3.91,0,0,1,2.51-5.16,11.29,11.29,0,0,0,7.82-8.83l1.66-9.45h0a11.29,11.29,0,0,0-1.95-8.55,82,82,0,0,1-30.53.3l-97.46-17.18a82.92,82.92,0,0,1-19.82-6.12A79.82,79.82,0,0,1,351.47,388.13Z"/><path d="M513.87,425l-1.67,9.45a15.21,15.21,0,0,1-10.53,11.9,24.5,24.5,0,0,1,1.25,13.08l-10.73,60.81a24.6,24.6,0,0,1-28.5,20L366,522.93a24.59,24.59,0,0,1-17.88-28l10.72-60.82a24.46,24.46,0,0,1,5.66-11.86,15.18,15.18,0,0,1-5.83-14.78L360.3,398c.28-1.62.82-5,1.56-8.82A78.82,78.82,0,0,0,380.74,395l97.46,17.18a78.4,78.4,0,0,0,31.29-.76A15.2,15.2,0,0,1,513.87,425Z" fill="#8d91ac"/><path d="M501.67,450.25a4,4,0,0,1-.68-.06l-47.52-8.38a3.93,3.93,0,0,1,1.37-7.74l47.51,8.38a3.93,3.93,0,0,1-.68,7.8Z"/><path d="M432.09,438a4,4,0,0,1-.68-.06L391,430.78a3.93,3.93,0,1,1,1.37-7.74l40.45,7.14a3.93,3.93,0,0,1-.68,7.8Z"/><path d="M362.29,486.67a4,4,0,0,1-.69-.06l-29.16-5.15a3.93,3.93,0,1,1,1.37-7.74L363,478.87a3.93,3.93,0,0,1-.68,7.8Z"/><path d="M501.36,468.27l-5.11,28.92L493.2,514.5l-57.67-10.17a23.48,23.48,0,0,1,4.06-46.59,23,23,0,0,1,4.1.36Z" fill="#f4c708"/><path d="M501.36,468.27l-5.11,28.92-48-8.47a23.46,23.46,0,0,1-19-27.19c.09-.51.2-1,.33-1.53a23.36,23.36,0,0,1,14.11-1.9Z" fill="#fddc2b"/><path d="M547.38,321.86a3.22,3.22,0,0,1-.69-.06,3.93,3.93,0,0,1-3.19-4.55l5.7-32.32a3.93,3.93,0,1,1,7.74,1.36l-5.7,32.33A3.92,3.92,0,0,1,547.38,321.86Z"/><path d="M512.18,390.68a3.93,3.93,0,0,1-1.72-7.47C536.8,370.45,541,331.85,541,331.46a3.93,3.93,0,0,1,7.82.77c-.17,1.77-4.62,43.36-34.94,58A3.89,3.89,0,0,1,512.18,390.68Z"/><path d="M492.09,417.33A83.75,83.75,0,0,1,477.52,416l-97.46-17.19a83,83,0,0,1-67.23-96l10.24-58a29.42,29.42,0,0,1,30.15-24.28l4.66-26.41a68.54,68.54,0,0,1,79.41-55.59l86.5,15.26a83,83,0,0,1,67.23,96h0l-17.47,99a82.94,82.94,0,0,1-81.46,68.52ZM352,228.33a21.57,21.57,0,0,0-21.18,17.81l-10.23,58.05a75.11,75.11,0,0,0,60.85,86.92l97.47,17.19a75,75,0,0,0,86.92-60.85l17.47-99,3.87.68-3.87-.68a75.12,75.12,0,0,0-60.86-86.93l-86.49-15.25a60.69,60.69,0,0,0-70.31,49.22l-5.29,30a3.93,3.93,0,0,1-4.56,3.19A22.05,22.05,0,0,0,352,228.33Z"/><path d="M493.2,518.43a3.82,3.82,0,0,1-.68-.06L434.85,508.2a27.4,27.4,0,1,1,9.54-54L502,464.4a3.93,3.93,0,0,1,3.19,4.55l-8.16,46.23a3.93,3.93,0,0,1-3.87,3.25Zm-53.62-56.76a19.23,19.23,0,0,0-8.31,1.87,19.54,19.54,0,0,0,4.94,36.92L490,510l6.8-38.49L443,462A19.53,19.53,0,0,0,439.58,461.67Z"/><path d="M468,544.48a29,29,0,0,1-5-.44L349.91,524.09A28.53,28.53,0,0,1,326.76,491l10.73-60.81a28.48,28.48,0,0,1,4.26-10.73,19.07,19.07,0,0,1-4.44-15.92l1.67-9.45A19.13,19.13,0,0,1,350,380a3.94,3.94,0,0,1,3.75.29,74.49,74.49,0,0,0,27.68,10.85l97.47,17.19a74.51,74.51,0,0,0,29.72-.72,3.93,3.93,0,0,1,3.62,1,19.13,19.13,0,0,1,5.51,17l-1.67,9.45a19,19,0,0,1-9.61,13.44,28.56,28.56,0,0,1,.33,11.54l-10.73,60.81A28.59,28.59,0,0,1,468,544.48ZM351.47,388.12a11.27,11.27,0,0,0-4.75,7.36l-1.67,9.46a11.23,11.23,0,0,0,4.33,11,4,4,0,0,1,1.54,2.73,3.94,3.94,0,0,1-.95,3,20.58,20.58,0,0,0-4.74,10L334.5,492.4a20.68,20.68,0,0,0,16.77,24l113.1,19.95a20.69,20.69,0,0,0,23.95-16.77l10.73-60.82a20.63,20.63,0,0,0-1.05-11,3.94,3.94,0,0,1,2.52-5.17,11.26,11.26,0,0,0,7.82-8.82l1.66-9.45h0a11.28,11.28,0,0,0-1.95-8.54,82.45,82.45,0,0,1-30.53.31l-97.46-17.19A82.55,82.55,0,0,1,351.47,388.12Z"/><path d="M276.78,275.71a78.69,78.69,0,0,1-48.29,34.39L132.21,333a79,79,0,0,1-95.11-58.5L13.79,176.71A78.84,78.84,0,0,1,72.3,81.6l85.44-20.36a64.61,64.61,0,0,1,77.83,47.87l7.07,29.65a25.48,25.48,0,0,1,30.69,18.88L287,215A78.68,78.68,0,0,1,276.78,275.71Z" fill="#bd3b43"/><path d="M276.78,275.71A79.17,79.17,0,0,1,257.64,283l-96.26,22.94a79,79,0,0,1-95.12-58.51L43,149.6A78.73,78.73,0,0,1,53.18,88.85,79.56,79.56,0,0,1,72.3,81.6l85.44-20.36a64.61,64.61,0,0,1,77.83,47.87l7.07,29.65a25.48,25.48,0,0,1,30.69,18.88L287,215A78.68,78.68,0,0,1,276.78,275.71Z" fill="#ff807d"/><path d="M38.3,178.28l9.87,19.06L54.28,196a12.21,12.21,0,0,1,12.43,4.78c5,6.69,16.44,15,41.28,7.66,38.21-11.26,67.52-17,67.52-17l-2.54-9.6-65.13,15.52A31.75,31.75,0,0,1,69.6,173.83Z" fill="#bd3b43"/><path d="M100.41,202.16a35.7,35.7,0,0,1-34.63-27.42L59.41,148a3.93,3.93,0,1,1,7.64-1.83l6.37,26.73a27.83,27.83,0,0,0,33.51,20.61L172.06,178a3.93,3.93,0,0,1,1.82,7.64l-65.13,15.52A35.93,35.93,0,0,1,100.41,202.16Z"/><path d="M245.89,190.93l-48.6,11.57a18.86,18.86,0,0,1-22.72-14l-3.2-13.39a18.87,18.87,0,0,1,14-22.72l7.39-1.76c5.49,26.18,13.49,31.18,41.21,26.6a9.38,9.38,0,0,1,9.79,6.6Z" fill="#bd3b43"/><path d="M29.06,187.15a3.93,3.93,0,0,1-.91-7.75l40.48-9.65a3.93,3.93,0,0,1,1.82,7.64L30,187A4.11,4.11,0,0,1,29.06,187.15Z"/><path d="M192.91,207a22.83,22.83,0,0,1-22.17-17.51l-3.19-13.39a22.82,22.82,0,0,1,16.89-27.46l60.33-14.38a26.27,26.27,0,0,1,31.65,19.47L283.18,182a3.93,3.93,0,1,1-7.65,1.83l-6.75-28.36a18.41,18.41,0,0,0-22.18-13.64l-60.34,14.37a15,15,0,0,0-11.07,18l3.19,13.4a15,15,0,0,0,18,11.06L245,187.1a3.93,3.93,0,1,1,1.82,7.64L198.2,206.33A22.87,22.87,0,0,1,192.91,207Z"/><path d="M274.4,429.56a24.4,24.4,0,0,1-8.39,3.76L154.31,460a24.62,24.62,0,0,1-29.65-18.23l-14.31-60.08a24.46,24.46,0,0,1,.47-13.12,15.23,15.23,0,0,1-11.23-11.26l-2.22-9.33a15.22,15.22,0,0,1,3.57-13.8,77.92,77.92,0,0,0,17.38.95,79.73,79.73,0,0,0,13.9-2l96.27-22.94A78.66,78.66,0,0,0,256.9,297a15.16,15.16,0,0,1,9.4,10.68l2.23,9.34a15.21,15.21,0,0,1-4.94,15.11,24.53,24.53,0,0,1,6.34,11.51l14.31,60.07A24.58,24.58,0,0,1,274.4,429.56Z" fill="#64646e"/><path d="M148.61,464.55a28.6,28.6,0,0,1-27.77-21.92l-14.32-60.08a28.54,28.54,0,0,1-.35-11.53,19.07,19.07,0,0,1-10.4-12.85l-2.22-9.33A19.16,19.16,0,0,1,98,331.48a3.91,3.91,0,0,1,3.55-1.22,73.91,73.91,0,0,0,16.5.89,74.87,74.87,0,0,0,13.23-1.93l96.25-22.94a74.34,74.34,0,0,0,27-12.47,3.93,3.93,0,0,1,3.72-.51,19.1,19.1,0,0,1,11.84,13.45l2.22,9.34a19.11,19.11,0,0,1-3.48,16.16,28.72,28.72,0,0,1,4.88,10.45l14.31,60.08a28.51,28.51,0,0,1-21.13,34.36L155.22,463.77A28.4,28.4,0,0,1,148.61,464.55Zm-46-126.18a11.3,11.3,0,0,0-1.44,8.65l2.22,9.33a11.27,11.27,0,0,0,8.33,8.35,3.92,3.92,0,0,1,2.82,5,20.63,20.63,0,0,0-.39,11l14.31,60.09a20.72,20.72,0,0,0,24.92,15.32L265.1,429.5a20.29,20.29,0,0,0,7-3.15h0a20.54,20.54,0,0,0,8.27-21.74l-14.31-60.07a20.67,20.67,0,0,0-5.33-9.67,3.92,3.92,0,0,1,.26-5.74,11.23,11.23,0,0,0,3.66-11.21l-2.22-9.34a11.26,11.26,0,0,0-5.18-7.06,82.26,82.26,0,0,1-27.91,12.41l-96.25,22.95a84,84,0,0,1-14.6,2.13A82.82,82.82,0,0,1,102.63,338.37Z"/><path d="M274.4,429.56l-99,23.59a24.61,24.61,0,0,1-29.63-18.23L131.5,374.85a24.33,24.33,0,0,1,.47-13.14,15.2,15.2,0,0,1-11.23-11.26l-2.22-9.32a15.11,15.11,0,0,1-.2-6.05,79.73,79.73,0,0,0,13.9-2l96.27-22.94A78.66,78.66,0,0,0,256.9,297a15.16,15.16,0,0,1,9.4,10.68l2.23,9.34a15.21,15.21,0,0,1-4.94,15.11,24.53,24.53,0,0,1,6.34,11.51l14.31,60.07A24.58,24.58,0,0,1,274.4,429.56Z" fill="#8d91ac"/><path d="M110.82,372.45a3.93,3.93,0,0,1-.91-7.76l46.93-11.18a3.93,3.93,0,1,1,1.82,7.64l-46.93,11.19A4.11,4.11,0,0,1,110.82,372.45Z"/><path d="M179.55,356.07a3.93,3.93,0,0,1-.91-7.75l40-9.53a3.93,3.93,0,0,1,1.82,7.65l-40,9.52A4.11,4.11,0,0,1,179.55,356.07Z"/><path d="M252.12,400.53a3.93,3.93,0,0,1-.91-7.75l28.8-6.86a3.93,3.93,0,0,1,1.82,7.64L253,400.43A4.09,4.09,0,0,1,252.12,400.53Z"/><path d="M198.15,402.37a23.47,23.47,0,0,1-17.88,20.13l-57,13.57-10.88-45.66L132,385.75l37.39-8.91a23.46,23.46,0,0,1,28.76,25.53Z" fill="#f4c708"/><path d="M198.15,402.37c-.6.21-1.23.37-1.87.53L154,413a15.1,15.1,0,0,1-18.2-11.19l-3.82-16,37.39-8.91a23.46,23.46,0,0,1,28.76,25.53Z" fill="#fddc2b"/><path d="M259.72,198.61a3.93,3.93,0,0,1-3.81-3l-7.61-31.93a3.93,3.93,0,0,1,7.64-1.82l7.61,31.93a3.93,3.93,0,0,1-2.91,4.73A4.13,4.13,0,0,1,259.72,198.61Z"/><path d="M254.76,275.74a3.94,3.94,0,0,1-3-6.5c19.1-22.17,7.59-59.25,7.47-59.63a3.93,3.93,0,0,1,7.48-2.39c.54,1.69,13,41.62-9,67.15A3.93,3.93,0,0,1,254.76,275.74Z"/><path d="M113.92,339.13a83,83,0,0,1-80.64-63.68L10,177.63A82.77,82.77,0,0,1,71.39,77.78l85.44-20.37a68.55,68.55,0,0,1,82.56,50.79l6.22,26.08a29.46,29.46,0,0,1,31.54,22.45l13.67,57.34a82.19,82.19,0,0,1-10.73,63.75h0a82.46,82.46,0,0,1-50.69,36.1l-96.28,22.95A82.77,82.77,0,0,1,113.92,339.13ZM172.83,63.38a61.25,61.25,0,0,0-14.18,1.68L73.21,85.42A75.93,75.93,0,0,0,55,92.31,75.11,75.11,0,0,0,17.62,175.8l23.3,97.82a75.13,75.13,0,0,0,90.38,55.6l96.27-22.94a74.64,74.64,0,0,0,45.89-32.68h0a74.4,74.4,0,0,0,9.71-57.71l-13.66-57.34a21.59,21.59,0,0,0-26-16,3.93,3.93,0,0,1-4.73-2.91L231.75,110a60.75,60.75,0,0,0-58.92-46.65ZM276.78,275.71h0Z"/><path d="M148.61,464.55a28.6,28.6,0,0,1-27.77-21.92l-14.32-60.08a28.54,28.54,0,0,1-.35-11.53,19.07,19.07,0,0,1-10.4-12.85l-2.22-9.33A19.16,19.16,0,0,1,98,331.48a3.91,3.91,0,0,1,3.55-1.22,73.91,73.91,0,0,0,16.5.89,74.87,74.87,0,0,0,13.23-1.93l96.25-22.94a74.34,74.34,0,0,0,27-12.47,3.93,3.93,0,0,1,3.72-.51,19.1,19.1,0,0,1,11.84,13.45l2.22,9.34a19.11,19.11,0,0,1-3.48,16.16,28.72,28.72,0,0,1,4.88,10.45l14.31,60.08a28.51,28.51,0,0,1-21.13,34.36L155.22,463.77A28.4,28.4,0,0,1,148.61,464.55Zm-46-126.18a11.3,11.3,0,0,0-1.44,8.65l2.22,9.33a11.27,11.27,0,0,0,8.33,8.35,3.92,3.92,0,0,1,2.82,5,20.63,20.63,0,0,0-.39,11l14.31,60.09a20.72,20.72,0,0,0,24.92,15.32L265.1,429.5a20.29,20.29,0,0,0,7-3.15h0a20.54,20.54,0,0,0,8.27-21.74l-14.31-60.07a20.67,20.67,0,0,0-5.33-9.67,3.92,3.92,0,0,1,.26-5.74,11.23,11.23,0,0,0,3.66-11.21l-2.22-9.34a11.26,11.26,0,0,0-5.18-7.06,82.26,82.26,0,0,1-27.91,12.41l-96.25,22.95a84,84,0,0,1-14.6,2.13A82.82,82.82,0,0,1,102.63,338.37Z"/><path d="M123.31,440a3.91,3.91,0,0,1-3.82-3l-10.88-45.66a4,4,0,0,1,2.91-4.74l57-13.57a27.6,27.6,0,0,1,6.38-.75,27.42,27.42,0,0,1,27.2,30.57h0a27.51,27.51,0,0,1-20.88,23.49l-57,13.58A4,4,0,0,1,123.31,440Zm-6.14-46.68,9,38,53.14-12.66a19.61,19.61,0,0,0,14.89-16.76h0a19.48,19.48,0,0,0-23.94-21.25Z"/><path d="M29.06,187.15a3.93,3.93,0,0,1-.91-7.75l40.48-9.65a3.93,3.93,0,0,1,1.82,7.64L30,187A4.11,4.11,0,0,1,29.06,187.15Z"/></svg>