<svg id="Fitness_Color_Icons" data-name="Fitness Color Icons" xmlns="http://www.w3.org/2000/svg" viewBox="0 0 600 600"><path d="M516.26,445a215.11,215.11,0,0,1-33.45,115.55,67.11,67.11,0,0,1-56.71,31.25H173.89a66.74,66.74,0,0,1-56.3-30.61A215.18,215.18,0,0,1,83.74,445c0-118.42,95.19-214.62,213.23-216.24a214.43,214.43,0,0,1,24.41,1.07C429.67,240.8,516.26,333.81,516.26,445Z" fill="#64646e"/><path d="M516.26,445a215.11,215.11,0,0,1-33.45,115.55,67.11,67.11,0,0,1-56.71,31.25H217a66.75,66.75,0,0,1-56.3-30.61A215.18,215.18,0,0,1,126.88,445c0-112.09,85.29-204.27,194.5-215.17C429.67,240.8,516.26,333.81,516.26,445Z" fill="#8d91ac"/><path d="M123,428.63h-.24a3.67,3.67,0,0,1-3.43-3.91c3.32-51,24.2-85.14,41.13-104.77,18.41-21.34,35.88-30.48,36.62-30.86a3.68,3.68,0,1,1,3.37,6.55h0c-.16.08-17.15,9-34.64,29.38-16.1,18.75-36,51.35-39.14,100.18A3.68,3.68,0,0,1,123,428.63Z"/><path d="M149.33,536a3.65,3.65,0,0,1-2.9-1.42c-26.78-34.28-27.09-81.31-27.09-83.29a3.68,3.68,0,0,1,3.68-3.68h0a3.68,3.68,0,0,1,3.68,3.68c0,.46.34,46.52,25.53,78.76a3.69,3.69,0,0,1-2.9,6Z"/><path d="M402.93,49.27a40.89,40.89,0,0,1-12,29c-.45.45-.91.9-1.37,1.32a41,41,0,0,1-27.64,10.7H238.09a41,41,0,0,1,0-82.09H361.9A41,41,0,0,1,402.93,49.27Z" fill="#64646e"/><path d="M402.93,49.27a40.89,40.89,0,0,1-12,29c-.45.45-.91.9-1.37,1.32H270.61a41,41,0,0,1-29-70.07c.45-.45.91-.89,1.37-1.32H361.9A41,41,0,0,1,402.93,49.27Z" fill="#8d91ac"/><path d="M473.25,75.2a72.52,72.52,0,0,0-63.46-36.64h-8.26a41.23,41.23,0,0,1-.67,23.62h8.93a49.66,49.66,0,0,1,43,74.48l-64.31,111.4a217.77,217.77,0,0,1,20.93,11l3.3-5.71,60.53-104.84A72.5,72.5,0,0,0,473.25,75.2ZM147.19,136.66a49.66,49.66,0,0,1,43-74.48h8.93a41.33,41.33,0,0,1-.71-23.43,1.06,1.06,0,0,1,0-.19h-8.26a73.28,73.28,0,0,0-63.46,109.91l63.55,110.1c3.36-2,6.77-3.87,10.23-5.67s7.12-3.57,10.77-5.21Z" fill="#64646e"/><path d="M473.25,75.2a72.52,72.52,0,0,0-63.46-36.64H381.67c.93,3.42,0,7,0,10.7,0,4.52,8.18,8.86,6.82,12.92h34.8a49.66,49.66,0,0,1,43,74.48L398.11,252c3.63,1.65,6.58,4,10.1,5.86l65-109.34A72.5,72.5,0,0,0,473.25,75.2ZM147.19,136.66a49.66,49.66,0,0,1,43-74.48h8.93a41.33,41.33,0,0,1-.71-23.43,73.28,73.28,0,0,0-58.18,109.72L200.53,252.9q5.29-2.76,10.77-5.21Z" fill="#8d91ac"/><path d="M361.9,94H238.1a44.72,44.72,0,0,1,0-89.44H361.9a44.72,44.72,0,1,1,0,89.44ZM238.1,11.91a37.36,37.36,0,1,0,0,74.72H361.9a37.36,37.36,0,0,0,0-74.72Z"/><path d="M215.89,45.45a3.85,3.85,0,0,1-.88-.11,3.68,3.68,0,0,1-2.69-4.46c4.57-18.54,22.54-21.27,31.4-20.13a3.68,3.68,0,0,1-.93,7.3c-.83-.1-19.2-2.14-23.32,14.6A3.69,3.69,0,0,1,215.89,45.45Z"/><path d="M229.57,77.77a3.56,3.56,0,0,1-1.52-.33c-13-5.88-14.68-16.31-14.74-16.75a3.68,3.68,0,0,1,7.27-1.12c.07.36,1.39,7,10.51,11.17a3.68,3.68,0,0,1-1.52,7Z"/><path d="M426.11,595.45H173.88a70,70,0,0,1-59.4-32.3A220,220,0,0,1,296.92,225.06c58.8-.8,114.54,21.86,157.08,63.82s65.94,97.38,65.94,156.1h0a219.23,219.23,0,0,1-34,117.52A70.48,70.48,0,0,1,426.11,595.45ZM300,232.4l-2.93,0C181.45,234,87.42,329.36,87.42,445a211.78,211.78,0,0,0,33.27,114.21,62.69,62.69,0,0,0,53.19,28.9H426.11a63.15,63.15,0,0,0,53.6-29.53A211.91,211.91,0,0,0,512.58,445c0-56.73-22.64-110.31-63.75-150.86C408.41,254.25,355.64,232.4,300,232.4ZM516.26,445h0Z"/><path d="M409.42,262.71a3.7,3.7,0,0,1-1.88-.52A212.94,212.94,0,0,0,387,251.41a3.69,3.69,0,0,1-1.67-5.19l64.31-111.39a46,46,0,0,0-39.82-69h-8.93A3.68,3.68,0,0,1,397.37,61a37.41,37.41,0,0,0,.6-21.48,3.69,3.69,0,0,1,3.56-4.65h8.26a77,77,0,0,1,66.65,115.44L412.61,260.87a3.69,3.69,0,0,1-3.19,1.84Zm-15.73-16.29c4.88,2.34,9.7,4.87,14.4,7.56l62-107.34a69.6,69.6,0,0,0-60.28-104.4h-3.71a45.62,45.62,0,0,1,.54,7,45.06,45.06,0,0,1-.95,9.24h4.12a53.34,53.34,0,0,1,46.19,80ZM190.3,262.25a3.79,3.79,0,0,1-.94-.12,3.68,3.68,0,0,1-2.25-1.72L123.56,150.32A77,77,0,0,1,190.21,34.88h8.27A3.69,3.69,0,0,1,202,39.53a37.41,37.41,0,0,0,.6,21.48,3.68,3.68,0,0,1-3.49,4.85h-8.93a45.53,45.53,0,0,0-39.82,23h0a45.54,45.54,0,0,0,0,46l64.1,111a3.67,3.67,0,0,1-1.68,5.2,210.91,210.91,0,0,0-20.63,10.69A3.65,3.65,0,0,1,190.3,262.25Zm-.09-220a69.6,69.6,0,0,0-60.27,104.4l61.71,106.9c4.71-2.68,9.55-5.19,14.44-7.5L144,138.51a52.81,52.81,0,0,1,0-53.34h0a52.8,52.8,0,0,1,46.2-26.67h4.12a45.06,45.06,0,0,1-1-9.24,44.41,44.41,0,0,1,.55-7Z"/><path d="M343.15,493.11a54.77,54.77,0,0,1-54.72-54.71V382.1a54.72,54.72,0,1,1,109.43,0v56.3A54.77,54.77,0,0,1,343.15,493.11Zm0-148.9a37.92,37.92,0,0,0-37.89,37.89v56.3a37.89,37.89,0,0,0,75.77,0V382.1A37.92,37.92,0,0,0,343.15,344.21Z" fill="#fff"/><path d="M242.65,493.11a8.42,8.42,0,0,1-8.42-8.41V354.59l-18.07,16.15A8.41,8.41,0,1,1,205,358.2L237,329.52a8.41,8.41,0,0,1,14,6.27V484.7A8.42,8.42,0,0,1,242.65,493.11Z" fill="#fff"/><path d="M274.74,493.11H210.55a8.42,8.42,0,0,1,0-16.83h64.19a8.42,8.42,0,1,1,0,16.83Z" fill="#fff"/></svg>