<svg id="Fitness_Color_Icons" data-name="Fitness Color Icons" xmlns="http://www.w3.org/2000/svg" viewBox="0 0 600 600"><path d="M592.18,306V461c0,39.7-27.18,71.88-60.7,71.88h-66c-8.26,0-14.95-7.91-14.95-17.68V251.85c0-9.77,6.69-17.69,14.95-17.69h66c.84,0,1.67,0,2.5.06C566.34,235.79,592.18,267.34,592.18,306Z" fill="#afd9ef"/><path d="M592.18,306V427.79c0,39.7-27.18,71.89-60.7,71.89h-66c-8.26,0-14.95-7.92-14.95-17.69V251.85c0-9.77,6.69-17.69,14.95-17.69h66c.84,0,1.67,0,2.5.06C566.34,235.79,592.18,267.34,592.18,306Z" fill="#cce6f7"/><path d="M418.05,234.16V532.89H68.52C35,532.89,7.82,500.71,7.82,461V306c0-28.71,14.22-53.5,34.79-65A52.94,52.94,0,0,1,66,234.22c.83,0,1.66-.06,2.5-.06Z" fill="#afd9ef"/><path d="M418.05,234.16V499.68h-321c-33.52,0-60.71-32.19-60.71-71.89v-155A82.51,82.51,0,0,1,42.61,241,52.94,52.94,0,0,1,66,234.22c.83,0,1.66-.06,2.5-.06Z" fill="#cce6f7"/><rect x="418.05" y="253.82" width="32.46" height="259.42" fill="#4a4a4f"/><rect x="418.05" y="253.82" width="18.74" height="259.42" fill="#64646e"/><rect x="103.46" y="234.16" width="28.82" height="298.73" fill="#4a4a4f"/><rect x="116.89" y="234.16" width="15.4" height="298.73" fill="#64646e"/><path d="M393.78,377.2a92.43,92.43,0,0,1-20,57.44,89.08,89.08,0,0,1-7.14,8,92.31,92.31,0,0,1-65.48,27.14h-2.36a92.58,92.58,0,0,1-92.6-92.6Z" fill="#41a3e0"/><path d="M393.78,377.2a92.43,92.43,0,0,1-20,57.44,92.15,92.15,0,0,1-51.64,15.71h-2.35a92.55,92.55,0,0,1-87.41-62,90.46,90.46,0,0,1-3.15-11.14Z" fill="#6bb5f6"/><path d="M393.78,377.2a91.92,91.92,0,0,1-5.19,30.58H211.41a91.92,91.92,0,0,1-5.19-30.58Z" fill="#4a4a4f"/><path d="M393.78,377.2a91.92,91.92,0,0,1-5.19,30.58H243.41a91.92,91.92,0,0,1-5.19-30.58Z" fill="#64646e"/><path d="M30.4,459.56a3.75,3.75,0,0,1-3.75-3.75V352.31a3.75,3.75,0,1,1,7.49,0v103.5A3.74,3.74,0,0,1,30.4,459.56Z"/><path d="M30.4,337.27a3.75,3.75,0,0,1-3.75-3.74V307.32a3.75,3.75,0,0,1,7.49,0v26.21A3.74,3.74,0,0,1,30.4,337.27Z"/><path d="M473.7,504.54A3.73,3.73,0,0,1,470,500.8V397.29a3.74,3.74,0,0,1,7.48,0V500.8A3.73,3.73,0,0,1,473.7,504.54Z"/><path d="M473.7,382.25a3.73,3.73,0,0,1-3.74-3.74v-26.2a3.74,3.74,0,1,1,7.48,0v26.2A3.73,3.73,0,0,1,473.7,382.25Z"/><path d="M225.4,115.56A171.45,171.45,0,0,0,92.79,234.16H68.52c-.84,0-1.67,0-2.5.06A197.35,197.35,0,0,1,222.49,89.92a30.69,30.69,0,0,0-1.13,5.29,32.59,32.59,0,0,0-.28,4.21A32,32,0,0,0,225.4,115.56Z" fill="#4a4a4f"/><path d="M225.4,115.56A171.45,171.45,0,0,0,92.79,234.16H81.27A197.4,197.4,0,0,1,221.36,95.21a32.59,32.59,0,0,0-.28,4.21A32,32,0,0,0,225.4,115.56Z" fill="#64646e"/><path d="M534,234.22c-.83,0-1.66-.06-2.5-.06H507.21A171.45,171.45,0,0,0,374.6,115.56a31.86,31.86,0,0,0,4.18-13.18,28.91,28.91,0,0,0,.14-3,32.4,32.4,0,0,0-1.41-9.5A197.35,197.35,0,0,1,534,234.22Z" fill="#64646e"/><path d="M534,238h-.19c-.77,0-1.53-.06-2.31-.06H507.21a3.74,3.74,0,0,1-3.58-2.66c-18-59.28-68.88-104.81-129.71-116a3.75,3.75,0,0,1-2.56-5.56,27.87,27.87,0,0,0,3.69-11.63,24.9,24.9,0,0,0,.13-2.63,28.53,28.53,0,0,0-1.25-8.4,3.74,3.74,0,0,1,4.22-4.78,200.83,200.83,0,0,1,159.45,147A3.74,3.74,0,0,1,534,238Zm-24-7.55h19.09A193.42,193.42,0,0,0,382.35,94.65a36,36,0,0,1,.31,4.77c0,1.16-.05,2.28-.15,3.33a35.62,35.62,0,0,1-2.42,10.08A175.31,175.31,0,0,1,510,230.42Z"/><path d="M518.6,234.16H507.21A171.45,171.45,0,0,0,374.6,115.56a31.86,31.86,0,0,0,4.18-13.18A197.53,197.53,0,0,1,518.6,234.16Z" fill="#4a4a4f"/><path d="M378.92,99.43a32.3,32.3,0,0,1-32.31,32.31H253.39A32.31,32.31,0,0,1,251,67.22c.8-.08,1.62-.11,2.44-.11h93.22A32.32,32.32,0,0,1,378.92,99.43Z" fill="#ef9614"/><path d="M378.92,99.43a32.05,32.05,0,0,1-4.72,16.82c-.8.08-1.61.11-2.43.11H278.56A32.32,32.32,0,0,1,251,67.22c.8-.08,1.62-.11,2.44-.11h93.22A32.32,32.32,0,0,1,378.92,99.43Z" fill="#f8a926"/><path d="M346.61,135.48H253.39a36.05,36.05,0,0,1-2.71-72c.8-.07,1.74-.11,2.71-.11h93.22a36.08,36.08,0,0,1,30.79,54.84,36.19,36.19,0,0,1-30.79,17.27ZM253.39,70.85c-.74,0-1.44,0-2.09.09A28.57,28.57,0,0,0,253.39,128h93.22a28.37,28.37,0,0,0,20.2-8.37,28.84,28.84,0,0,0,4.2-5.32,28.59,28.59,0,0,0-24.4-43.46Z"/><path d="M66,238a3.74,3.74,0,0,1-3.62-4.69,200.83,200.83,0,0,1,159.45-147A3.74,3.74,0,0,1,226.07,91a26.67,26.67,0,0,0-1,4.64,29.89,29.89,0,0,0-.25,3.75,28.33,28.33,0,0,0,3.82,14.26,3.75,3.75,0,0,1-2.56,5.56c-60.83,11.19-111.75,56.72-129.71,116a3.74,3.74,0,0,1-3.58,2.66H68.52c-.78,0-1.54,0-2.31.06Zm4.92-7.55H90A175.31,175.31,0,0,1,219.91,112.83a36.1,36.1,0,0,1-2.57-13.41,35.33,35.33,0,0,1,.31-4.7v-.07A193.4,193.4,0,0,0,70.94,230.42Z"/><path d="M534,238h-.19c-.77,0-1.53-.06-2.31-.06H507.21a3.74,3.74,0,0,1-3.58-2.66c-18-59.28-68.88-104.81-129.71-116a3.75,3.75,0,0,1-2.56-5.56,27.87,27.87,0,0,0,3.69-11.63,24.9,24.9,0,0,0,.13-2.63,28.53,28.53,0,0,0-1.25-8.4,3.74,3.74,0,0,1,4.22-4.78,200.83,200.83,0,0,1,159.45,147A3.74,3.74,0,0,1,534,238Zm-24-7.55h19.09A193.42,193.42,0,0,0,382.35,94.65a36,36,0,0,1,.31,4.77c0,1.16-.05,2.28-.15,3.33a35.62,35.62,0,0,1-2.42,10.08A175.31,175.31,0,0,1,510,230.42Z"/><path d="M418.05,536.63H68.52C33,536.63,4.07,502.71,4.07,461V306c0-29,14.41-55.79,36.71-68.27a56.39,56.39,0,0,1,25.06-7.29c.88,0,1.77-.06,2.68-.06H418.05a3.74,3.74,0,0,1,3.75,3.74V532.89A3.74,3.74,0,0,1,418.05,536.63ZM68.52,237.9c-.78,0-1.54,0-2.31.06a49,49,0,0,0-21.77,6.34c-20,11.18-32.88,35.41-32.88,61.74V461c0,37.57,25.55,68.14,57,68.14H414.31V237.9Z"/><path d="M132.29,536.63H103.46a3.74,3.74,0,0,1-3.74-3.74V234.16a3.74,3.74,0,0,1,3.74-3.74h28.83a3.74,3.74,0,0,1,3.74,3.74V532.89A3.74,3.74,0,0,1,132.29,536.63Zm-25.08-7.48h21.33V237.9H107.21Z"/><path d="M450.52,517H418.05a3.75,3.75,0,0,1-3.74-3.75V253.82a3.75,3.75,0,0,1,3.74-3.75h32.47a3.75,3.75,0,0,1,3.74,3.75V513.24A3.75,3.75,0,0,1,450.52,517ZM421.8,509.5h25V257.56h-25Z"/><path d="M531.48,536.63h-66c-10.31,0-18.69-9.61-18.69-21.42V251.85c0-11.82,8.38-21.43,18.69-21.43h66c.91,0,1.8,0,2.69.07,34.63,1.67,61.76,34.85,61.76,75.55V461C595.93,502.71,567,536.63,531.48,536.63Zm-66-298.73c-6.18,0-11.2,6.26-11.2,13.95V515.21c0,7.68,5,13.94,11.2,13.94h66c31.41,0,57-30.57,57-68.14V306c0-36.69-24-66.6-54.64-68.08-.78,0-1.54-.06-2.32-.06Z"/><path d="M301.18,473.54h-2.36a96.33,96.33,0,0,1-96.34-96.34,3.75,3.75,0,0,1,3.74-3.75H393.78a3.75,3.75,0,0,1,3.74,3.75,96.35,96.35,0,0,1-96.34,96.34ZM210,380.94a88.84,88.84,0,0,0,88.78,85.11h2.36A88.87,88.87,0,0,0,390,380.94Z"/><path d="M388.59,411.52H211.41a3.74,3.74,0,0,1-3.53-2.5,95.64,95.64,0,0,1-5.4-31.82,3.75,3.75,0,0,1,3.74-3.75H393.78a3.75,3.75,0,0,1,3.74,3.75,95.64,95.64,0,0,1-5.4,31.82A3.74,3.74,0,0,1,388.59,411.52ZM214.1,404H385.9A88.17,88.17,0,0,0,390,380.94H210A88.17,88.17,0,0,0,214.1,404Z"/></svg>