<svg id="Fitness_Lineart_Icons" data-name="Fitness Lineart Icons" xmlns="http://www.w3.org/2000/svg" viewBox="0 0 600 600"><path d="M295.44,597H82.13a38.81,38.81,0,0,1-38.76-38.76V156.88a38.8,38.8,0,0,1,38.76-38.75H295.44a38.8,38.8,0,0,1,38.76,38.75V558.24A38.81,38.81,0,0,1,295.44,597ZM82.13,125.48a31.44,31.44,0,0,0-31.41,31.4V558.24a31.44,31.44,0,0,0,31.41,31.41H295.44a31.44,31.44,0,0,0,31.41-31.41V156.88a31.44,31.44,0,0,0-31.41-31.4Z"/><path d="M270.2,364.59H107.37a28.94,28.94,0,0,1-28.91-28.91V199a29,29,0,0,1,28.91-28.92H270.2A29,29,0,0,1,299.11,199V335.68A28.94,28.94,0,0,1,270.2,364.59ZM107.37,177.4A21.59,21.59,0,0,0,85.8,199V335.68a21.59,21.59,0,0,0,21.57,21.56H270.2a21.58,21.58,0,0,0,21.56-21.56V199A21.58,21.58,0,0,0,270.2,177.4Z"/><path d="M161,545.3a12.79,12.79,0,0,1-12.73-12.79l.22-64.15a12.73,12.73,0,0,1,19.14-11L223,489.67a12.73,12.73,0,0,1-.08,22.05L167.28,543.6A12.79,12.79,0,0,1,161,545.3Zm.22-82.29a5.41,5.41,0,0,0-5.38,5.37h0l-.22,64.15a5.38,5.38,0,0,0,8.05,4.69l55.67-31.88a5.38,5.38,0,0,0,0-9.32l-55.45-32.27A5.42,5.42,0,0,0,161.17,463Zm-9,5.36h0Z"/><path d="M102.67,242A3.67,3.67,0,0,1,99,238.28V208.81a3.68,3.68,0,1,1,7.35,0v29.47A3.67,3.67,0,0,1,102.67,242Z"/><path d="M102.67,328.49A3.67,3.67,0,0,1,99,324.82V252.31a3.68,3.68,0,0,1,7.35,0v72.51A3.67,3.67,0,0,1,102.67,328.49Z"/><path d="M163.48,488.94a3.67,3.67,0,0,1-3.67-3.67v-11a3.68,3.68,0,1,1,7.35,0v11A3.67,3.67,0,0,1,163.48,488.94Z"/><path d="M163.48,528.41a3.67,3.67,0,0,1-3.67-3.67V496.5a3.68,3.68,0,1,1,7.35,0v28.24A3.67,3.67,0,0,1,163.48,528.41Z"/><path d="M497.26,473.52h-.09A109.1,109.1,0,0,1,391,364.59V119.69a95.57,95.57,0,0,0-191.13,0,10.67,10.67,0,0,1-.5,3.22,3.67,3.67,0,0,1-3.5,2.56H182.75a3.67,3.67,0,0,1-3.5-2.56,10.62,10.62,0,0,1-.5-3.22,116.69,116.69,0,1,1,233.38,0v244.9c0,47,38.24,86.43,85.24,87.8a3.67,3.67,0,0,1,3.57,3.67v13.78a3.69,3.69,0,0,1-3.68,3.68ZM295.43,16.78A103,103,0,0,1,398.35,119.69v244.9c0,53.37,42.39,98.09,95.24,101.41v-6.44a95.31,95.31,0,0,1-88.81-95V119.69a109.34,109.34,0,0,0-218.67-1.57h6.42A103,103,0,0,1,295.43,16.78Z"/><path d="M516.46,490.37H504.41a10.83,10.83,0,0,1-10.82-10.81V446.42a10.83,10.83,0,0,1,10.82-10.81h12.05a3.67,3.67,0,0,1,3.68,3.67V486.7A3.67,3.67,0,0,1,516.46,490.37ZM504.41,443a3.48,3.48,0,0,0-3.47,3.47v33.14a3.48,3.48,0,0,0,3.47,3.47h8.38V443Z"/><path d="M520,508.56a7.22,7.22,0,0,1-7.21-7.21V424.64a7.23,7.23,0,0,1,7.21-7.22,36.64,36.64,0,0,1,36.63,36.63v17.89A36.63,36.63,0,0,1,520,508.56Zm.14-83.79v76.44a29.18,29.18,0,0,0,29-26.22,27.93,27.93,0,0,0,.16-3.05V454.05a27.48,27.48,0,0,0-.16-3,29.29,29.29,0,0,0-29-26.24Z"/><path d="M552.78,479h0a16,16,0,0,1,0-32.09h0a3.67,3.67,0,0,1,3.65,3.29,36.66,36.66,0,0,1,.2,3.81v17.89a36.66,36.66,0,0,1-.2,3.81A3.68,3.68,0,0,1,552.78,479Zm-3.5-23.93a8.7,8.7,0,0,0,0,15.77Z"/><path d="M161,545.3a12.79,12.79,0,0,1-12.73-12.79l.22-64.16a12.73,12.73,0,0,1,19.14-11L223,489.67a12.73,12.73,0,0,1-.09,22.05L167.27,543.6A12.73,12.73,0,0,1,161,545.3Zm.22-82.29a5.41,5.41,0,0,0-5.38,5.37l-.22,64.16a5.38,5.38,0,0,0,8.05,4.68l55.67-31.88h0a5.38,5.38,0,0,0,0-9.32l-55.45-32.27A5.36,5.36,0,0,0,161.17,463Z"/><path d="M270.2,364.59H107.37a28.94,28.94,0,0,1-28.91-28.91V199a28.94,28.94,0,0,1,28.91-28.91H270.2A28.94,28.94,0,0,1,299.11,199V335.68A28.94,28.94,0,0,1,270.2,364.59ZM107.37,177.4A21.58,21.58,0,0,0,85.81,199V335.68a21.58,21.58,0,0,0,21.56,21.56H270.2a21.58,21.58,0,0,0,21.56-21.56V199A21.58,21.58,0,0,0,270.2,177.4Z"/><path d="M270.2,364.59H107.37a28.94,28.94,0,0,1-28.91-28.91V199a28.94,28.94,0,0,1,28.91-28.91H270.2A28.94,28.94,0,0,1,299.11,199V335.68A28.94,28.94,0,0,1,270.2,364.59ZM107.37,177.4A21.58,21.58,0,0,0,85.81,199V335.68a21.58,21.58,0,0,0,21.56,21.56H270.2a21.58,21.58,0,0,0,21.56-21.56V199A21.58,21.58,0,0,0,270.2,177.4Z"/><path d="M161,545.3a12.79,12.79,0,0,1-12.73-12.79l.22-64.16a12.73,12.73,0,0,1,19.14-11L223,489.67a12.73,12.73,0,0,1-.09,22.05L167.27,543.6A12.73,12.73,0,0,1,161,545.3Zm.22-82.29a5.41,5.41,0,0,0-5.38,5.37l-.22,64.16a5.38,5.38,0,0,0,8.05,4.68l55.67-31.88h0a5.38,5.38,0,0,0,0-9.32l-55.45-32.27A5.36,5.36,0,0,0,161.17,463Z"/><path d="M102.67,242A3.67,3.67,0,0,1,99,238.28V208.81a3.68,3.68,0,1,1,7.35,0v29.47A3.67,3.67,0,0,1,102.67,242Z"/><path d="M102.67,328.49A3.67,3.67,0,0,1,99,324.82V252.31a3.68,3.68,0,0,1,7.35,0v72.51A3.67,3.67,0,0,1,102.67,328.49Z"/><path d="M163.48,488.94a3.67,3.67,0,0,1-3.67-3.67v-11a3.68,3.68,0,1,1,7.35,0v11A3.67,3.67,0,0,1,163.48,488.94Z"/><path d="M163.48,528.41a3.67,3.67,0,0,1-3.67-3.67V496.5a3.68,3.68,0,1,1,7.35,0v28.24A3.67,3.67,0,0,1,163.48,528.41Z"/><path d="M70.82,439.84a3.67,3.67,0,0,1-3.68-3.67V398.75a3.68,3.68,0,0,1,7.35,0v37.42A3.67,3.67,0,0,1,70.82,439.84Z"/><path d="M70.82,544.61a3.68,3.68,0,0,1-3.68-3.68V456.62a3.68,3.68,0,0,1,7.35,0v84.31A3.67,3.67,0,0,1,70.82,544.61Z"/></svg>