<svg id="Fitness_Lineart_Icons" data-name="Fitness Lineart Icons" xmlns="http://www.w3.org/2000/svg" viewBox="0 0 600 600"><path d="M191.28,596.14a40.17,40.17,0,0,1-38.7-29.76L88.3,326.5a40.18,40.18,0,0,1,28.38-49.15l38.37-10.28a40.17,40.17,0,0,1,49.15,28.37l64.28,239.89a40.19,40.19,0,0,1-28.38,49.15l-38.37,10.28A40.66,40.66,0,0,1,191.28,596.14ZM165.43,273.42a32.32,32.32,0,0,0-8.38,1.1L118.68,284.8a32.46,32.46,0,0,0-22.92,39.7L160,564.38a32.41,32.41,0,0,0,39.69,22.92L238.1,577l1,3.73-1-3.73A32.42,32.42,0,0,0,261,537.32L196.74,297.44A32.46,32.46,0,0,0,165.43,273.42Z"/><path d="M470.88,521.22a40.17,40.17,0,0,1-38.7-29.76L367.91,251.58a40.17,40.17,0,0,1,28.37-49.15l38.37-10.28a40.11,40.11,0,0,1,49.15,28.37l64.28,239.89a40.17,40.17,0,0,1-28.38,49.15l-38.37,10.28A40.54,40.54,0,0,1,470.88,521.22ZM445.09,198.49a32.94,32.94,0,0,0-8.44,1.11l-38.37,10.29a32.41,32.41,0,0,0-22.92,39.69l64.28,239.88a32.41,32.41,0,0,0,39.69,22.92L517.7,502.1a32.41,32.41,0,0,0,22.92-39.69L476.34,222.52a32.43,32.43,0,0,0-31.25-24ZM518.7,505.83h0Z"/><path d="M122,283.8a3.87,3.87,0,0,1-3.73-2.87l-13.68-51.06c-12.41-46.31-8.46-94.44,11.12-135.54s52.7-70.84,93.23-83.63a3.86,3.86,0,0,1,2.35,7.36,119.16,119.16,0,0,0-78.46,144.35c1,3.59,2.1,7.15,3.36,10.58a3.73,3.73,0,0,1,.24,1.44,159.16,159.16,0,0,0,5.43,45.45L155.5,271a3.87,3.87,0,0,1-2.73,4.73l-29.81,8A3.77,3.77,0,0,1,122,283.8Zm9.55-203c-25.26,40.39-33.8,93.69-19.5,147l12.68,47.34,22.35-6-12.68-47.34a166.9,166.9,0,0,1-5.7-46.91c-1.25-3.43-2.36-7-3.32-10.56h0A126.7,126.7,0,0,1,131.51,80.83Z"/><path d="M401.56,208.88a3.87,3.87,0,0,1-3.73-2.86L384.15,155a159.5,159.5,0,0,0-18-42.08,3.74,3.74,0,0,1-.51-1.36c-.62-3.6-1.42-7.25-2.38-10.85A119.16,119.16,0,0,0,223.11,14.88a3.86,3.86,0,0,1-1.65-7.55c41.5-9.18,85,0,122.57,25.81S409,98.66,421.44,145L435.12,196a3.86,3.86,0,0,1-2.73,4.73l-29.83,8A4.22,4.22,0,0,1,401.56,208.88Zm-28.47-99.41A166.74,166.74,0,0,1,391.61,153l12.68,47.34,22.37-6L414,147h0c-14.3-53.36-48.37-95.28-90.47-117.61a126.63,126.63,0,0,1,47.17,69.32C371.64,102.25,372.45,105.88,373.09,109.47Z"/><path d="M247.94,258.57a127.07,127.07,0,0,1-119-82.91c-1.35-3.64-2.55-7.43-3.57-11.25a126.87,126.87,0,0,1,83.54-153.7c.94-.31,1.89-.6,2.87-.9l.18-.05c1.06-.3,2.13-.61,3.21-.9L218.45,8c1.09-.25,2.07-.48,3.05-.68A126.87,126.87,0,0,1,370.68,98.67h0c1,3.82,1.88,7.7,2.54,11.53A127.05,127.05,0,0,1,247.94,258.57Zm.26-246.36a119.14,119.14,0,0,0-25.09,2.67c-1,.2-1.88.41-2.83.63s-2.08.52-3.14.81l-3.1.86-2.78.87a119.18,119.18,0,0,0-78.47,144.36c1,3.59,2.1,7.15,3.36,10.58a119.29,119.29,0,0,0,229.46-61.48c-.62-3.6-1.42-7.25-2.38-10.85h0A119.23,119.23,0,0,0,248.2,12.21Z"/><path d="M247.86,223.5a92.2,92.2,0,1,1,23.94-3.17A92.43,92.43,0,0,1,247.86,223.5ZM248,47.32a84.21,84.21,0,1,0,81.36,62.42A84,84,0,0,0,248,47.32Z"/><path d="M126.06,368.05a59.41,59.41,0,0,1-15.16-1.71c-10.62-2.85-14.24-8.64-15.41-13a3.86,3.86,0,0,1,7.46-2c.94,3.49,4.28,6,10,7.55,22.32,6,69.85-6.75,86.19-23.1,4.15-4.14,5.78-8,4.84-11.5a3.86,3.86,0,1,1,7.46-2c1.17,4.36.93,11.19-6.84,19C189.62,356.18,152.51,368.05,126.06,368.05Z"/><path d="M136.76,408a59.94,59.94,0,0,1-15.17-1.71c-10.61-2.85-14.23-8.65-15.4-13a3.86,3.86,0,1,1,7.46-2c.93,3.49,4.28,6,9.94,7.55,22.32,6,69.85-6.76,86.2-23.1,4.14-4.14,5.77-8,4.84-11.5a3.86,3.86,0,1,1,7.45-2c1.17,4.36.94,11.19-6.83,19C200.31,396.09,163.21,408,136.76,408Z"/><path d="M406.07,293.16c-15.73,0-28.15-4.21-31-14.75a3.86,3.86,0,1,1,7.45-2c2.69,10,27,12,55.29,4.37s48.38-21.39,45.7-31.42a3.86,3.86,0,1,1,7.45-2c4.7,17.51-22.31,33.15-51.15,40.88A134.56,134.56,0,0,1,406.07,293.16Z"/><path d="M416.77,333.07c-15.74,0-28.16-4.21-31-14.75a3.86,3.86,0,1,1,7.46-2c2.69,10,27,12,55.28,4.37,13.59-3.64,26.22-9.05,34.64-14.85,4.89-3.36,12.82-10,11.06-16.57a3.86,3.86,0,0,1,7.46-2c1.57,5.86.39,14.94-14.14,24.94-9.25,6.36-22.4,12-37,15.94A134.55,134.55,0,0,1,416.77,333.07Z"/><path d="M449.24,66.53A3.86,3.86,0,0,1,446.47,60,23.14,23.14,0,0,0,446,27.29a3.86,3.86,0,0,1,5.39-5.53,30.87,30.87,0,0,1,.61,43.6A3.85,3.85,0,0,1,449.24,66.53Z"/><path d="M478.5,24.71A30.62,30.62,0,0,1,457,16a3.86,3.86,0,1,1,5.38-5.54A23.15,23.15,0,0,0,495.09,10a3.86,3.86,0,1,1,5.53,5.38A30.62,30.62,0,0,1,479,24.7Z"/><path d="M510.27,66.24a3.85,3.85,0,0,1-2.69-1.1,30.86,30.86,0,0,1-.61-43.6,3.86,3.86,0,1,1,5.53,5.38A23.15,23.15,0,0,0,513,59.61a3.86,3.86,0,0,1-2.69,6.63Z"/><path d="M461.12,78.09a3.87,3.87,0,0,1-2.76-6.56,30.87,30.87,0,0,1,43.6-.61,3.86,3.86,0,1,1-5.38,5.54,23.14,23.14,0,0,0-32.69.46A3.85,3.85,0,0,1,461.12,78.09Z"/><path d="M54.74,554A3.86,3.86,0,0,1,52,547.48a13,13,0,0,0-.26-18.38,3.86,3.86,0,1,1,5.38-5.54,20.75,20.75,0,0,1,.41,29.3A3.85,3.85,0,0,1,54.74,554Z"/><path d="M73,527.88A20.65,20.65,0,0,1,58.59,522,3.86,3.86,0,0,1,64,516.49a13,13,0,0,0,18.37-.26,3.86,3.86,0,0,1,5.54,5.39A20.64,20.64,0,0,1,73,527.88Z"/><path d="M92.88,553.84a3.84,3.84,0,0,1-2.69-1.09,20.75,20.75,0,0,1-.41-29.3,3.86,3.86,0,0,1,5.54,5.39,13,13,0,0,0,.25,18.37,3.86,3.86,0,0,1-2.69,6.63Z"/><path d="M62.17,561.25a3.86,3.86,0,0,1-2.77-6.55,20.74,20.74,0,0,1,29.3-.41,3.86,3.86,0,0,1-5.38,5.53,13,13,0,0,0-18.38.26A3.86,3.86,0,0,1,62.17,561.25Z"/></svg>