<svg id="Fitness_Lineart_Icons" data-name="Fitness Lineart Icons" xmlns="http://www.w3.org/2000/svg" viewBox="0 0 600 600"><path d="M475.39,553.17H104.27a3.58,3.58,0,0,1-3.58-3.58V167.14a3.58,3.58,0,0,1,3.58-3.58h44.46a3.58,3.58,0,0,1,3.58,3.58v16.54A33.71,33.71,0,0,0,186,217.35H393.67a33.71,33.71,0,0,0,33.68-33.67V167.14a3.58,3.58,0,0,1,3.58-3.58h44.46a3.57,3.57,0,0,1,3.57,3.58V549.59A3.57,3.57,0,0,1,475.39,553.17ZM107.85,546h364V170.72h-37.3v13a40.88,40.88,0,0,1-40.84,40.83H186a40.88,40.88,0,0,1-40.84-40.83v-13h-37.3Z"/><path d="M393.67,224.51H186a40.88,40.88,0,0,1-40.83-40.84v-96A40.88,40.88,0,0,1,186,46.83H393.67a40.89,40.89,0,0,1,40.84,40.84v96A40.89,40.89,0,0,1,393.67,224.51ZM186,54A33.72,33.72,0,0,0,152.3,87.67v96A33.71,33.71,0,0,0,186,217.35H393.67a33.71,33.71,0,0,0,33.68-33.68v-96A33.72,33.72,0,0,0,393.67,54Z"/><path d="M396.68,553.17H183a3.58,3.58,0,0,1-3.58-3.58V405.71a41.44,41.44,0,0,1,41.39-41.4H358.86a41.44,41.44,0,0,1,41.4,41.4V549.59A3.59,3.59,0,0,1,396.68,553.17ZM186.55,546H393.1V405.71a34.28,34.28,0,0,0-34.24-34.24H220.79a34.28,34.28,0,0,0-34.24,34.24Z"/><path d="M339.44,147.66h-101a3.58,3.58,0,0,1-3.58-3.58V127.26a3.58,3.58,0,0,1,3.58-3.58h101a3.58,3.58,0,0,1,3.58,3.58v16.82A3.58,3.58,0,0,1,339.44,147.66Zm-97.39-7.15h93.82v-9.68H242.05Z"/><path d="M238.47,164.49H224.61a3.57,3.57,0,0,1-3.58-3.57V110.43a3.58,3.58,0,0,1,3.58-3.58h13.86a3.58,3.58,0,0,1,3.58,3.58v50.49A3.58,3.58,0,0,1,238.47,164.49Zm-10.28-7.15h6.7V114h-6.7Z"/><path d="M353.3,164.49H339.44a3.57,3.57,0,0,1-3.57-3.57V110.43a3.57,3.57,0,0,1,3.57-3.58H353.3a3.58,3.58,0,0,1,3.58,3.58v50.49A3.57,3.57,0,0,1,353.3,164.49ZM343,157.34h6.71V114H343Z"/><path d="M371.62,191.72a21.92,21.92,0,0,1-21.89-21.9v-68.3a21.89,21.89,0,1,1,43.78,0v68.3A21.92,21.92,0,0,1,371.62,191.72Zm0-104.94a14.75,14.75,0,0,0-14.74,14.74v68.3a14.74,14.74,0,1,0,29.48,0v-68.3A14.76,14.76,0,0,0,371.62,86.78Z"/><path d="M400.92,170.72a14.57,14.57,0,0,1-14.56-14.56v-41a14.56,14.56,0,0,1,29.12,0v41A14.57,14.57,0,0,1,400.92,170.72Zm0-62.94a7.41,7.41,0,0,0-7.41,7.4v41a7.41,7.41,0,1,0,14.82,0v-41A7.42,7.42,0,0,0,400.92,107.78Z"/><path d="M177,170.72a14.57,14.57,0,0,1-14.56-14.56v-41a14.57,14.57,0,0,1,29.13,0v41A14.58,14.58,0,0,1,177,170.72Zm0-62.94a7.41,7.41,0,0,0-7.4,7.4v41a7.41,7.41,0,1,0,14.81,0v-41A7.41,7.41,0,0,0,177,107.78Z"/><path d="M206.29,191.72a21.92,21.92,0,0,1-21.89-21.9v-68.3a21.9,21.9,0,1,1,43.79,0v68.3A21.93,21.93,0,0,1,206.29,191.72Zm0-104.94a14.75,14.75,0,0,0-14.73,14.74v68.3a14.74,14.74,0,1,0,29.47,0v-68.3A14.75,14.75,0,0,0,206.29,86.78Z"/><path d="M148.73,170.72H94.82a25.06,25.06,0,0,1-25-25V125.64a25,25,0,0,1,25-25h53.91a3.58,3.58,0,0,1,3.58,3.58v62.94A3.59,3.59,0,0,1,148.73,170.72ZM94.82,107.78A17.88,17.88,0,0,0,77,125.64V145.7a17.88,17.88,0,0,0,17.86,17.86h50.33V107.78Z"/><path d="M483.08,170.72H430.93a3.58,3.58,0,0,1-3.58-3.58V104.2a3.58,3.58,0,0,1,3.58-3.58h52.15a25.05,25.05,0,0,1,25,25V145.7A25.06,25.06,0,0,1,483.08,170.72Zm-48.57-7.16h48.57A17.88,17.88,0,0,0,501,145.7V125.64a17.88,17.88,0,0,0-17.87-17.86H434.51Z"/><path d="M287.11,553.17a3.58,3.58,0,0,1-3.57-3.58V367.89a3.58,3.58,0,1,1,7.15,0v181.7A3.58,3.58,0,0,1,287.11,553.17Z"/><path d="M270.24,483.21a8.61,8.61,0,0,1-8.6-8.6V442.87a8.6,8.6,0,1,1,17.2,0v31.74A8.61,8.61,0,0,1,270.24,483.21Zm0-41.78a1.44,1.44,0,0,0-1.44,1.44v31.74a1.45,1.45,0,0,0,2.89,0V442.87A1.44,1.44,0,0,0,270.24,441.43Z"/><path d="M303.27,483.21a8.61,8.61,0,0,1-8.6-8.6V442.87a8.6,8.6,0,0,1,17.2,0v31.74A8.61,8.61,0,0,1,303.27,483.21Zm0-41.78a1.44,1.44,0,0,0-1.45,1.44v31.74a1.45,1.45,0,0,0,2.89,0V442.87A1.44,1.44,0,0,0,303.27,441.43Z"/><path d="M30.37,553.17H10A3.58,3.58,0,0,1,10,546h20.4a3.58,3.58,0,1,1,0,7.16Z"/><path d="M104.27,553.17H49.8a3.58,3.58,0,0,1,0-7.16h54.47a3.58,3.58,0,1,1,0,7.16Z"/><path d="M502.59,553.17h-27.2a3.58,3.58,0,0,1,0-7.16h27.2a3.58,3.58,0,0,1,0,7.16Z"/><path d="M590,553.17H519.59a3.58,3.58,0,0,1,0-7.16H590a3.58,3.58,0,1,1,0,7.16Z"/><path d="M199.44,480.29a3.57,3.57,0,0,1-3.58-3.57v-69a3.58,3.58,0,1,1,7.15,0v69A3.57,3.57,0,0,1,199.44,480.29Z"/><path d="M199.44,537.13a3.57,3.57,0,0,1-3.58-3.57v-33a3.58,3.58,0,1,1,7.15,0v33A3.57,3.57,0,0,1,199.44,537.13Z"/><path d="M132.15,291.43a3.58,3.58,0,0,1-3.58-3.58V243.4a3.58,3.58,0,1,1,7.16,0v44.45A3.58,3.58,0,0,1,132.15,291.43Z"/><path d="M132.15,445.44a3.58,3.58,0,0,1-3.58-3.58V325.75a3.58,3.58,0,1,1,7.16,0V441.86A3.58,3.58,0,0,1,132.15,445.44Z"/></svg>