<svg id="Fitness_Lineart_Icons" data-name="Fitness Lineart Icons" xmlns="http://www.w3.org/2000/svg" viewBox="0 0 600 600"><path d="M420.52,324h-241a3.86,3.86,0,0,1-3.87-3.86V279.91a3.86,3.86,0,0,1,3.87-3.86h241a3.86,3.86,0,0,1,3.87,3.86v40.18A3.86,3.86,0,0,1,420.52,324Zm-237.17-7.73h233.3V283.78H183.35Z"/><path d="M179.48,364.13H146.39a3.86,3.86,0,0,1-3.86-3.87V239.74a3.86,3.86,0,0,1,3.86-3.87h33.09a3.87,3.87,0,0,1,3.87,3.87V360.26A3.87,3.87,0,0,1,179.48,364.13Zm-29.22-7.74h25.35V243.61H150.26Z"/><path d="M453.61,364.13H420.52a3.87,3.87,0,0,1-3.87-3.87V239.74a3.87,3.87,0,0,1,3.87-3.87h33.09a3.86,3.86,0,0,1,3.86,3.87V360.26A3.86,3.86,0,0,1,453.61,364.13Zm-29.22-7.74h25.35V243.61H424.39Z"/><path d="M497.32,429.12a47.64,47.64,0,0,1-47.58-47.59V218.47a47.59,47.59,0,1,1,95.17,0V381.53A47.65,47.65,0,0,1,497.32,429.12Zm0-250.5a39.9,39.9,0,0,0-39.85,39.85V381.53a39.85,39.85,0,0,0,79.7,0V218.47A39.89,39.89,0,0,0,497.32,178.62Z"/><path d="M567.27,379a30.12,30.12,0,0,1-30.1-30.09V251.1a30.1,30.1,0,0,1,60.19,0v97.8A30.12,30.12,0,0,1,567.27,379Zm0-150.25a22.38,22.38,0,0,0-22.36,22.36v97.8a22.36,22.36,0,1,0,44.71,0V251.1A22.38,22.38,0,0,0,567.27,228.74Z"/><path d="M32.73,379A30.12,30.12,0,0,1,2.64,348.9V251.1a30.1,30.1,0,0,1,60.19,0v97.8A30.12,30.12,0,0,1,32.73,379Zm0-150.25A22.38,22.38,0,0,0,10.38,251.1v97.8a22.36,22.36,0,1,0,44.71,0V251.1A22.38,22.38,0,0,0,32.73,228.74Z"/><path d="M102.68,429.12a47.65,47.65,0,0,1-47.59-47.59V218.47a47.59,47.59,0,1,1,95.17,0V381.53A47.64,47.64,0,0,1,102.68,429.12Zm0-250.5a39.89,39.89,0,0,0-39.85,39.85V381.53a39.85,39.85,0,0,0,79.7,0V218.47A39.9,39.9,0,0,0,102.68,178.62Z"/><path d="M78.59,390.8a3.87,3.87,0,0,1-3.87-3.87V242.72a33.56,33.56,0,0,1,33.52-33.52,3.87,3.87,0,1,1,0,7.74,25.8,25.8,0,0,0-25.78,25.78V386.93A3.87,3.87,0,0,1,78.59,390.8Z"/><path d="M476.33,390.8a3.87,3.87,0,0,1-3.87-3.87V242.72A33.56,33.56,0,0,1,506,209.2a3.87,3.87,0,0,1,0,7.74,25.8,25.8,0,0,0-25.78,25.78V386.93A3.87,3.87,0,0,1,476.33,390.8Z"/><path d="M23.38,346.32a3.87,3.87,0,0,1-3.87-3.87V272a18.37,18.37,0,0,1,18.35-18.35,3.87,3.87,0,0,1,0,7.74A10.62,10.62,0,0,0,27.25,272v70.42A3.87,3.87,0,0,1,23.38,346.32Z"/><path d="M560,346.32a3.87,3.87,0,0,1-3.87-3.87V272a18.37,18.37,0,0,1,18.35-18.35,3.87,3.87,0,0,1,0,7.74A10.62,10.62,0,0,0,563.89,272v70.42A3.86,3.86,0,0,1,560,346.32Z"/><path d="M179.48,429.12H23.38a3.87,3.87,0,1,1,0-7.74h156.1a3.87,3.87,0,1,1,0,7.74Z"/><path d="M576.62,429.12H420.52a3.87,3.87,0,0,1,0-7.74h156.1a3.87,3.87,0,1,1,0,7.74Z"/></svg>