<svg id="Fitness_Lineart_Icons" data-name="Fitness Lineart Icons" xmlns="http://www.w3.org/2000/svg" viewBox="0 0 600 600"><path d="M203,524.6H9.1A3.56,3.56,0,0,1,5.54,521V98.79A41.85,41.85,0,0,1,47.34,57H164.79a41.85,41.85,0,0,1,41.8,41.81V521A3.56,3.56,0,0,1,203,524.6ZM12.66,517.48H199.47V98.79A34.72,34.72,0,0,0,164.79,64.1H47.34A34.72,34.72,0,0,0,12.66,98.79Z"/><path d="M150.94,210.06H61.18A20.18,20.18,0,0,1,41,189.9V132.55A20.17,20.17,0,0,1,61.18,112.4h89.76a20.18,20.18,0,0,1,20.16,20.15V189.9A20.18,20.18,0,0,1,150.94,210.06ZM61.18,119.52a13.05,13.05,0,0,0-13,13V189.9a13.05,13.05,0,0,0,13,13h89.76a13.06,13.06,0,0,0,13-13V132.55a13.05,13.05,0,0,0-13-13Z"/><path d="M167.54,331.82a11.65,11.65,0,0,1-11.63-11.63v-58.8a11.63,11.63,0,0,1,23.25,0v58.8A11.64,11.64,0,0,1,167.54,331.82Zm0-74.93a4.51,4.51,0,0,0-4.51,4.5v58.8a4.51,4.51,0,1,0,9,0v-58.8A4.51,4.51,0,0,0,167.54,256.89Z"/><path d="M162.41,422.31H49.72a12.59,12.59,0,1,1,0-25.18H162.41a12.59,12.59,0,1,1,0,25.18ZM49.72,404.25a5.47,5.47,0,0,0,0,10.94H162.41a5.47,5.47,0,0,0,0-10.94Z"/><path d="M162.41,452H49.72a12.59,12.59,0,1,1,0-25.18H162.41a12.59,12.59,0,1,1,0,25.18ZM49.72,433.91a5.47,5.47,0,0,0,0,10.94H162.41a5.47,5.47,0,0,0,0-10.94Z"/><path d="M162.41,481.63H49.72a12.59,12.59,0,0,1,0-25.18H162.41a12.59,12.59,0,0,1,0,25.18ZM49.72,463.57a5.47,5.47,0,1,0,0,10.94H162.41a5.47,5.47,0,0,0,0-10.94Z"/><path d="M58.79,146.32a3.56,3.56,0,0,1-3.56-3.56V132.35a3.56,3.56,0,0,1,7.12,0v10.41A3.57,3.57,0,0,1,58.79,146.32Z"/><path d="M58.79,192.63a3.56,3.56,0,0,1-3.56-3.56v-30.7a3.56,3.56,0,0,1,7.12,0v30.7A3.57,3.57,0,0,1,58.79,192.63Z"/><path d="M397,524.6H203a3.56,3.56,0,0,1-3.56-3.56V98.79A41.86,41.86,0,0,1,241.28,57H358.72a41.86,41.86,0,0,1,41.81,41.81V521A3.56,3.56,0,0,1,397,524.6Zm-190.38-7.12H393.41V98.79A34.73,34.73,0,0,0,358.72,64.1H241.28a34.73,34.73,0,0,0-34.69,34.69Z"/><path d="M344.88,210.06H255.12A20.18,20.18,0,0,1,235,189.9V132.55a20.18,20.18,0,0,1,20.16-20.15h89.76A20.18,20.18,0,0,1,365,132.55V189.9A20.18,20.18,0,0,1,344.88,210.06Zm-89.76-90.54a13,13,0,0,0-13,13V189.9a13,13,0,0,0,13,13h89.76a13,13,0,0,0,13-13V132.55a13,13,0,0,0-13-13Z"/><path d="M361.47,331.82a11.64,11.64,0,0,1-11.62-11.63v-58.8a11.63,11.63,0,0,1,23.25,0v58.8A11.64,11.64,0,0,1,361.47,331.82Zm0-74.93a4.51,4.51,0,0,0-4.5,4.5v58.8a4.51,4.51,0,1,0,9,0v-58.8A4.51,4.51,0,0,0,361.47,256.89Z"/><path d="M356.35,422.31H243.65a12.59,12.59,0,0,1,0-25.18h112.7a12.59,12.59,0,0,1,0,25.18Zm-112.7-18.06a5.47,5.47,0,0,0,0,10.94h112.7a5.47,5.47,0,0,0,0-10.94Z"/><path d="M356.35,452H243.65a12.59,12.59,0,0,1,0-25.18h112.7a12.59,12.59,0,0,1,0,25.18Zm-112.7-18.06a5.47,5.47,0,0,0,0,10.94h112.7a5.47,5.47,0,1,0,0-10.94Z"/><path d="M356.35,481.63H243.65a12.59,12.59,0,0,1,0-25.18h112.7a12.59,12.59,0,0,1,0,25.18Zm-112.7-18.06a5.47,5.47,0,1,0,0,10.94h112.7a5.47,5.47,0,0,0,0-10.94Z"/><path d="M252.72,146.32a3.57,3.57,0,0,1-3.56-3.56V132.35a3.56,3.56,0,1,1,7.12,0v10.41A3.56,3.56,0,0,1,252.72,146.32Z"/><path d="M252.72,192.63a3.57,3.57,0,0,1-3.56-3.56v-30.7a3.56,3.56,0,1,1,7.12,0v30.7A3.56,3.56,0,0,1,252.72,192.63Z"/><path d="M590.9,524.6H397a3.56,3.56,0,0,1-3.56-3.56V98.79A41.85,41.85,0,0,1,435.21,57H552.66a41.85,41.85,0,0,1,41.8,41.81V521A3.56,3.56,0,0,1,590.9,524.6Zm-190.37-7.12H587.34V98.79A34.72,34.72,0,0,0,552.66,64.1H435.21a34.72,34.72,0,0,0-34.68,34.69Z"/><path d="M538.82,210.06H449.06A20.18,20.18,0,0,1,428.9,189.9V132.55a20.18,20.18,0,0,1,20.16-20.15h89.76A20.17,20.17,0,0,1,559,132.55V189.9A20.18,20.18,0,0,1,538.82,210.06Zm-89.76-90.54a13.05,13.05,0,0,0-13,13V189.9a13.06,13.06,0,0,0,13,13h89.76a13.05,13.05,0,0,0,13-13V132.55a13.05,13.05,0,0,0-13-13Z"/><path d="M555.41,331.82a11.65,11.65,0,0,1-11.63-11.63v-58.8a11.63,11.63,0,0,1,23.26,0v58.8A11.65,11.65,0,0,1,555.41,331.82Zm0-74.93a4.51,4.51,0,0,0-4.5,4.5v58.8a4.51,4.51,0,1,0,9,0v-58.8A4.52,4.52,0,0,0,555.41,256.89Z"/><path d="M550.28,422.31H437.59a12.59,12.59,0,1,1,0-25.18H550.28a12.59,12.59,0,1,1,0,25.18ZM437.59,404.25a5.47,5.47,0,0,0,0,10.94H550.28a5.47,5.47,0,1,0,0-10.94Z"/><path d="M550.28,452H437.59a12.59,12.59,0,1,1,0-25.18H550.28a12.59,12.59,0,1,1,0,25.18ZM437.59,433.91a5.47,5.47,0,1,0,0,10.94H550.28a5.47,5.47,0,1,0,0-10.94Z"/><path d="M550.28,481.63H437.59a12.59,12.59,0,0,1,0-25.18H550.28a12.59,12.59,0,1,1,0,25.18ZM437.59,463.57a5.47,5.47,0,1,0,0,10.94H550.28a5.47,5.47,0,0,0,0-10.94Z"/><path d="M446.66,146.32a3.56,3.56,0,0,1-3.56-3.56V132.35a3.56,3.56,0,0,1,7.12,0v10.41A3.56,3.56,0,0,1,446.66,146.32Z"/><path d="M446.66,192.63a3.56,3.56,0,0,1-3.56-3.56v-30.7a3.56,3.56,0,0,1,7.12,0v30.7A3.56,3.56,0,0,1,446.66,192.63Z"/><path d="M590.9,543H9.1a3.56,3.56,0,0,1-3.56-3.56V521a3.56,3.56,0,0,1,3.56-3.56H590.9a3.56,3.56,0,0,1,3.56,3.56v18.42A3.56,3.56,0,0,1,590.9,543ZM12.66,535.9H587.34V524.6H12.66Z"/></svg>