<svg id="Fitness_Lineart_Icons" data-name="Fitness Lineart Icons" xmlns="http://www.w3.org/2000/svg" viewBox="0 0 600 600"><path d="M101.47,525a50.45,50.45,0,0,1-4.8-100.66l383.91-37a50.44,50.44,0,0,1,9.68,100.42l-383.91,37C104.71,524.88,103.08,525,101.47,525Zm384-130.77c-1.39,0-2.78.07-4.19.2l-383.91,37a43.31,43.31,0,0,0,8.31,86.22l383.91-37,.35,3.55-.35-3.55a43.31,43.31,0,0,0-4.12-86.42Z"/><path d="M105,475a3.57,3.57,0,0,1-.33-7.12l10.15-.94a3.57,3.57,0,0,1,.66,7.1l-10.15.95Z"/><path d="M135.48,472.12a3.57,3.57,0,0,1-.33-7.12l20.39-1.89a3.57,3.57,0,0,1,.66,7.1l-20.38,1.89A2,2,0,0,1,135.48,472.12Zm40.77-3.79a3.57,3.57,0,0,1-.32-7.12l20.38-1.9a3.57,3.57,0,0,1,.66,7.1l-20.38,1.9Zm40.77-3.8a3.57,3.57,0,0,1-.32-7.12l20.38-1.89a3.57,3.57,0,0,1,.66,7.1l-20.38,1.9Zm40.77-3.79a3.57,3.57,0,0,1-.32-7.12l20.38-1.9a3.57,3.57,0,1,1,.66,7.1l-20.38,1.9Zm40.78-3.8a3.57,3.57,0,0,1-.33-7.12l20.39-1.89a3.57,3.57,0,0,1,.66,7.1l-20.39,1.9Zm40.77-3.79A3.57,3.57,0,0,1,339,446l20.39-1.9a3.57,3.57,0,0,1,.66,7.1l-20.39,1.9Zm40.77-3.8a3.56,3.56,0,0,1-.33-7.11l20.39-1.9a3.57,3.57,0,0,1,.66,7.1l-20.39,1.9Zm40.77-3.79a3.57,3.57,0,0,1-.33-7.12l20.39-1.9a3.57,3.57,0,0,1,.66,7.11l-20.39,1.89Z"/><path d="M461.65,441.76a3.56,3.56,0,0,1-.33-7.11l10.15-.95a3.57,3.57,0,0,1,.66,7.1l-10.14.95Z"/><path d="M86.43,585.8H30.86a3.57,3.57,0,0,1-3-5.49l44.38-68.89a3.57,3.57,0,0,1,5-1,43.38,43.38,0,0,0,28.42,7.23l21.08-2a3.56,3.56,0,0,1,3.34,5.48L89.42,584.17A3.54,3.54,0,0,1,86.43,585.8Zm-49-7.13H84.48L120.1,523.4l-13.76,1.33a50.62,50.62,0,0,1-30-6.49Z"/><path d="M565.3,585.8H498.53a3.57,3.57,0,0,1-3-1.63l-60-93.12a3.56,3.56,0,0,1,2.66-5.48l51.39-4.95a44,44,0,0,0,9.89-2.13,3.57,3.57,0,0,1,4.15,1.44L568.29,580.3a3.56,3.56,0,0,1-3,5.5Zm-64.83-7.13h58.28l-59.66-92.6a51.43,51.43,0,0,1-8.83,1.65l-45.56,4.39Z"/><path d="M293.46,585.81H9.06a3.57,3.57,0,0,1,0-7.14h284.4a3.57,3.57,0,1,1,0,7.14Z"/><path d="M393.71,585.81H339.23a3.57,3.57,0,0,1,0-7.14h54.48a3.57,3.57,0,0,1,0,7.14Z"/><path d="M590.94,585.81H424.22a3.57,3.57,0,0,1,0-7.14H590.94a3.57,3.57,0,0,1,0,7.14Z"/><path d="M108.14,430.35a3.57,3.57,0,0,1-3.54-3.15q-.07-.68-.09-1.35c-.09-2.88-1.6-71.41,35.54-142.44,22-42.08,53-76.26,92.09-101.57,43.18-27.93,96.33-44.94,158-50.57l-6.43-31a3.56,3.56,0,0,1,2.44-4.13l29.35-9a3.56,3.56,0,0,1,4.54,2.68l62,298.9a19,19,0,0,1,.3,2,3.56,3.56,0,0,1-3.21,3.88l-30.52,2.93a3.57,3.57,0,0,1-3.83-2.82L397.88,168.44c-107,8.62-182.32,52.82-223.88,131.39-30.92,58.48-31.81,117.48-31.81,124a3.57,3.57,0,0,1-3.23,3.55l-30.48,2.95ZM391.37,102,398,133.75a3.57,3.57,0,0,1-3.2,4.28c-62.22,5.15-115.63,21.9-158.74,49.8-38.06,24.64-68.22,57.9-89.65,98.88-32.6,62.34-34.72,122.52-34.76,136.16l23.48-2.27c.37-16.38,3.87-69.76,32.61-124.1,43.18-81.65,121.5-127.21,232.77-135.42a3.59,3.59,0,0,1,3.76,2.84l46.93,226.21,23.48-2.26L413.87,95.07Z"/><path d="M359,111a20.46,20.46,0,0,1-19.5-14.44l-5.24-17.07A20.45,20.45,0,0,1,347.76,54L474.24,15.1a20.45,20.45,0,0,1,25.53,13.52,38.33,38.33,0,0,1-25.35,47.84l-1.05-3.41,1.05,3.41L365,110.08A20.48,20.48,0,0,1,359,111ZM480.24,21.33a13.23,13.23,0,0,0-3.9.59L349.86,60.78a13.31,13.31,0,0,0-8.8,16.62l5.24,17.06a13.28,13.28,0,0,0,16.61,8.81L472.33,69.64A31.15,31.15,0,0,0,493,30.72,13.31,13.31,0,0,0,480.24,21.33Z"/></svg>