<svg id="Fitness_Lineart_Icons" data-name="Fitness Lineart Icons" xmlns="http://www.w3.org/2000/svg" viewBox="0 0 600 600"><path d="M534.18,519.89H63.82c-15.88,0-30.63-7-41.53-19.63C9.87,485.83,4.44,466.31,7.38,446.72l47.23-314c4.58-30.5,28.32-52.63,56.43-52.63H489c28.11,0,51.85,22.13,56.43,52.63l47.23,314c2.94,19.59-2.49,39.11-14.91,53.54-10.9,12.66-25.65,19.63-41.53,19.63h-2ZM66.05,512.21H536.18c13.61,0,26.29-6,35.7-17,11-12.73,15.75-30,13.13-47.38l-47.22-314c-4-26.7-24.55-46.09-48.83-46.09H111c-24.28,0-44.81,19.39-48.83,46.09L15,447.86c-2.62,17.38,2.17,34.65,13.13,47.38,9.41,10.94,22.09,17,35.7,17h2.23Z"/><path d="M401.33,278.22H198.67a24.85,24.85,0,0,1-24.81-24.82V251a24.84,24.84,0,0,1,24.81-24.81H401.33A24.84,24.84,0,0,1,426.14,251v2.36A24.85,24.85,0,0,1,401.33,278.22Zm-202.66-44.3A17.15,17.15,0,0,0,181.54,251v2.36a17.15,17.15,0,0,0,17.13,17.13H401.33a17.15,17.15,0,0,0,17.13-17.13V251a17.15,17.15,0,0,0-17.13-17.12Z"/><path d="M81.05,311l-.39,0a3.85,3.85,0,0,1-3.44-4.21l5.6-55.18a3.84,3.84,0,1,1,7.64.77l-5.59,55.19A3.85,3.85,0,0,1,81.05,311Z"/><path d="M64.5,448.55l-.46,0a3.85,3.85,0,0,1-3.36-4.28l12.62-105a3.84,3.84,0,1,1,7.63.91L68.31,445.17A3.83,3.83,0,0,1,64.5,448.55Z"/><path d="M548.75,184.71H51.25a3.85,3.85,0,0,1-3.8-4.42l7.15-47.56C59.2,102.24,82.94,80.11,111,80.11H489c28.1,0,51.84,22.13,56.44,52.62l7.15,47.56a3.85,3.85,0,0,1-3.8,4.42ZM55.72,177H544.28l-6.48-43.15c-4-26.7-24.57-46.08-48.84-46.08H111c-24.27,0-44.81,19.38-48.84,46.08Z"/><path d="M548.75,184.71H51.25a3.85,3.85,0,0,1-3.8-4.42l7.15-47.56C59.2,102.24,82.94,80.11,111,80.11H489c28.1,0,51.84,22.13,56.44,52.62l7.15,47.56a3.85,3.85,0,0,1-3.8,4.42ZM55.72,177H544.28l-6.48-43.15c-4-26.7-24.57-46.08-48.84-46.08H111c-24.27,0-44.81,19.38-48.84,46.08Z"/><path d="M353.08,322.33h0a7.35,7.35,0,0,1-7.35,7.35H272.25A7.35,7.35,0,0,0,264.9,337v48.61a2.09,2.09,0,0,0,3.6,1.46c8.64-8.71,23.21-15,39.05-15,41.68,0,55.89,29.4,55.89,56.62,0,32.53-17.83,60-58.55,60-29.58,0-49.57-14.85-56.82-38.07a7.38,7.38,0,0,1,7-9.63H257a7.23,7.23,0,0,1,6.85,5.16c5.74,18.17,21,28.09,41.07,28.09,29.16,0,42.41-19.28,42.41-45.3,0-26.26-14.46-42.4-41.92-42.4-17,0-30.3,7.66-37.77,19.56a9.85,9.85,0,0,1-8.37,4.53h0a10,10,0,0,1-10-10v-78.3a7.35,7.35,0,0,1,7.35-7.35h89.14A7.35,7.35,0,0,1,353.08,322.33Z"/></svg>