<svg id="Fitness_Lineart_Icons" data-name="Fitness Lineart Icons" xmlns="http://www.w3.org/2000/svg" viewBox="0 0 600 600"><path d="M300,338.91c-77.91,0-151.2-9.34-206.38-26.3-56.47-17.36-87.57-41-87.57-66.53s31.1-49.17,87.57-66.53c55.18-17,128.47-26.3,206.38-26.3s151.2,9.34,206.38,26.3c56.47,17.36,87.57,41,87.57,66.53s-31.1,49.17-87.57,66.53C451.2,329.57,377.91,338.91,300,338.91Zm0-178.51c-77.22,0-149.76,9.23-204.28,26C43.28,202.5,13.2,224.26,13.2,246.08s30.08,43.58,82.52,59.7c54.52,16.75,127.06,26,204.28,26s149.76-9.23,204.28-26c52.44-16.12,82.52-37.88,82.52-59.7s-30.08-43.58-82.52-59.7C449.76,169.63,377.22,160.4,300,160.4Z"/><path d="M300,320.7c-68,0-132-7.44-180.17-20.94C70.28,285.87,43,266.8,43,246.08s27.29-39.79,76.84-53.68C168,178.9,232,171.46,300,171.46s132,7.44,180.17,20.94c49.55,13.89,76.84,33,76.84,53.68s-27.29,39.79-76.84,53.68C432,313.26,368,320.7,300,320.7Zm0-142.09c-67.38,0-130.68,7.34-178.24,20.68C76.24,212,50.14,229.1,50.14,246.08s26.1,34,71.62,46.79c47.56,13.34,110.86,20.68,178.24,20.68s130.68-7.34,178.24-20.68c45.52-12.75,71.62-29.81,71.62-46.79s-26.1-34-71.62-46.79C430.68,186,367.38,178.61,300,178.61Z"/><path d="M300,446.75a78.39,78.39,0,0,1-78.3-78.3V332.36a3.57,3.57,0,0,1,3.87-3.56c24.23,2,49.27,3,74.43,3s50.2-1,74.44-3a3.56,3.56,0,0,1,3.86,3.56v36.09A78.39,78.39,0,0,1,300,446.75ZM228.85,336.23v32.22a71.15,71.15,0,1,0,142.3,0V336.23C347.93,338,324,338.91,300,338.91S252.07,338,228.85,336.23Z"/><path d="M300,426.39c-29.82,0-54.09-29-54.09-64.56V334a3.57,3.57,0,0,1,3.77-3.57,954.37,954.37,0,0,0,100.64,0,3.57,3.57,0,0,1,3.77,3.57v27.83C354.09,397.43,329.83,426.39,300,426.39Zm-46.94-88.63v24.07c0,31.66,21.06,57.41,46.94,57.41s46.94-25.75,46.94-57.41V337.76C316.11,339.29,283.89,339.29,253.06,337.76Z"/><path d="M24.83,392.7A18.79,18.79,0,0,1,6.06,373.93v-121a18.85,18.85,0,0,1,.34-3.6,3.57,3.57,0,0,1,7,.18c1.6,11.48,11.17,22.7,28.45,33.35a3.56,3.56,0,0,1,1.7,3v88.05A18.79,18.79,0,0,1,24.83,392.7ZM13.2,267V373.93a11.63,11.63,0,0,0,23.25,0V287.86Q20.85,277.92,13.2,267Z"/><path d="M575.17,392.7a18.79,18.79,0,0,1-18.77-18.77V285.88a3.56,3.56,0,0,1,1.7-3C575.38,272.19,585,261,586.55,249.49a3.57,3.57,0,0,1,7.05-.18,18.85,18.85,0,0,1,.35,3.6v121A18.8,18.8,0,0,1,575.17,392.7ZM563.55,287.86v86.07a11.63,11.63,0,0,0,23.25,0V267Q579.18,277.9,563.55,287.86Z"/><path d="M83.77,238.61a3.57,3.57,0,0,1-2.44-6.18c36-33.79,114.31-35.86,117.62-35.93a3.57,3.57,0,1,1,.16,7.14c-.79,0-78.91,2.1-112.89,34A3.56,3.56,0,0,1,83.77,238.61Z"/><path d="M153.71,288.26a2.49,2.49,0,0,1-.47,0c-53.48-7-71.52-28.87-72.26-29.8A3.57,3.57,0,0,1,86.55,254c.23.28,17.42,20.61,67.62,27.19a3.58,3.58,0,0,1-.46,7.12Z"/></svg>