<svg id="Fitness_Lineart_Icons" data-name="Fitness Lineart Icons" xmlns="http://www.w3.org/2000/svg" viewBox="0 0 600 600"><path d="M419.9,580.92H180.09a66.58,66.58,0,0,1-56.48-30.72A209.13,209.13,0,0,1,297.07,228.75C353,228,406,249.53,446.42,289.43s62.7,92.59,62.7,148.42h0a208.42,208.42,0,0,1-32.34,111.74A67,67,0,0,1,419.9,580.92ZM300,235.73c-.93,0-1.85,0-2.78,0-109.89,1.51-199.29,92.17-199.29,202.1a201.48,201.48,0,0,0,31.63,108.59,59.64,59.64,0,0,0,50.58,27.48H419.9a60.06,60.06,0,0,0,51-28.08,201.48,201.48,0,0,0,31.25-108c0-54-21.52-104.89-60.61-143.44C403.08,256.51,352.9,235.73,300,235.73Z"/><path d="M131.73,422.3h-.23a3.5,3.5,0,0,1-3.27-3.72c3.17-48.51,23-80.95,39.12-99.61,17.5-20.29,34.11-29,34.81-29.34a3.5,3.5,0,1,1,3.21,6.22h0c-.16.09-16.31,8.57-32.94,27.94-15.3,17.83-34.18,48.82-37.21,95.25A3.5,3.5,0,0,1,131.73,422.3Z"/><path d="M156.74,524.36A3.48,3.48,0,0,1,154,523c-25.46-32.59-25.75-77.31-25.75-79.19a3.49,3.49,0,0,1,3.49-3.5h0a3.5,3.5,0,0,1,3.5,3.49c0,.44.32,44.24,24.27,74.89a3.5,3.5,0,0,1-.61,4.92A3.46,3.46,0,0,1,156.74,524.36Z"/><path d="M404,264.54a3.42,3.42,0,0,1-1.79-.49,202.12,202.12,0,0,0-19.56-10.25,3.51,3.51,0,0,1-1.89-2.12,3.46,3.46,0,0,1,.31-2.81L442.25,143a43.72,43.72,0,0,0-37.86-65.57H395.9a3.5,3.5,0,0,1-3.32-4.61,35.52,35.52,0,0,0,.57-20.43,3.51,3.51,0,0,1,3.38-4.42h7.86a73.18,73.18,0,0,1,63.37,109.76L407.07,262.79a3.52,3.52,0,0,1-2.15,1.64A3.27,3.27,0,0,1,404,264.54Zm-15-15.48c4.64,2.22,9.22,4.63,13.69,7.19L461.7,154.18a66.18,66.18,0,0,0-57.31-99.26h-3.53a43.71,43.71,0,0,1,.52,6.68,42.75,42.75,0,0,1-.91,8.78h3.92a50.72,50.72,0,0,1,43.92,76.07ZM195.7,264.11a3.35,3.35,0,0,1-.89-.12,3.42,3.42,0,0,1-2.14-1.63L132.24,157.68A73.18,73.18,0,0,1,195.61,47.92h7.86a3.51,3.51,0,0,1,3.38,4.42,35.75,35.75,0,0,0,.57,20.43,3.5,3.5,0,0,1-3.32,4.61h-8.49a43.27,43.27,0,0,0-37.86,21.86h0a43.27,43.27,0,0,0,0,43.71l60.94,105.56a3.5,3.5,0,0,1-1.6,5,198.91,198.91,0,0,0-19.61,10.16A3.53,3.53,0,0,1,195.7,264.11Zm-.09-209.19a66.18,66.18,0,0,0-57.31,99.26L197,255.82c4.48-2.54,9.08-4.93,13.73-7.13l-59-102.24a50.22,50.22,0,0,1,0-50.71h0a50.21,50.21,0,0,1,43.93-25.36h3.92a43.23,43.23,0,0,1-.38-15.46Z"/><path d="M358.85,104.13H241.14a42.53,42.53,0,0,1,0-85H358.85a42.53,42.53,0,0,1,0,85.05Zm-117.71-78a35.53,35.53,0,0,0,0,71.05H358.85a35.53,35.53,0,0,0,0-71Z"/><path d="M220,58a3.44,3.44,0,0,1-.84-.1,3.5,3.5,0,0,1-2.56-4.24C221,36,238.07,33.4,246.49,34.49a3.5,3.5,0,0,1-.89,6.94c-.79-.09-18.25-2-22.17,13.88A3.52,3.52,0,0,1,220,58Z"/><path d="M233,88.71a3.38,3.38,0,0,1-1.44-.32c-12.35-5.6-14-15.51-14-15.93a3.5,3.5,0,0,1,6.92-1.06c.06.35,1.32,6.69,10,10.62A3.5,3.5,0,0,1,233,88.71Z"/><path d="M341,483.61a52.08,52.08,0,0,1-52-52V378.06a52,52,0,1,1,104.05,0v53.53A52.09,52.09,0,0,1,341,483.61ZM341,342a36.06,36.06,0,0,0-36,36v53.53a36,36,0,0,0,72.05,0V378.06A36.07,36.07,0,0,0,341,342Z"/><path d="M245.47,483.61a8,8,0,0,1-8-8V351.91l-17.19,15.35a8,8,0,0,1-10.66-11.93l30.52-27.26a8,8,0,0,1,13.33,6V475.61A8,8,0,0,1,245.47,483.61Z"/><path d="M276,483.61H215a8,8,0,1,1,0-16h61a8,8,0,0,1,0,16Z"/></svg>