<svg id="Fitness_Lineart_Icons" data-name="Fitness Lineart Icons" xmlns="http://www.w3.org/2000/svg" viewBox="0 0 600 600"><path d="M479.92,326.29H76.72A47.4,47.4,0,0,1,29.38,279V251.61a116.11,116.11,0,0,1,116-116h266a116.1,116.1,0,0,1,116,116V279A47.39,47.39,0,0,1,479.92,326.29ZM145.35,144.05A107.68,107.68,0,0,0,37.79,251.61V279a39,39,0,0,0,38.93,38.94h403.2A39,39,0,0,0,518.86,279V251.61A107.68,107.68,0,0,0,411.3,144.05Z"/><path d="M252.07,144.05h-21.6a4.2,4.2,0,0,1-4.2-4.2V109a22.22,22.22,0,1,0-44.43,0v30.81a4.2,4.2,0,0,1-4.2,4.2H156a4.2,4.2,0,0,1-4.2-4.2V109a52.22,52.22,0,1,1,104.44,0v30.81A4.2,4.2,0,0,1,252.07,144.05Zm-17.4-8.4h13.2V109a43.82,43.82,0,1,0-87.64,0v26.61h13.21V109a30.62,30.62,0,1,1,61.23,0Z"/><path d="M400.61,144.05H379a4.2,4.2,0,0,1-4.2-4.2V109a22.22,22.22,0,1,0-44.43,0v30.81a4.2,4.2,0,0,1-4.2,4.2H304.57a4.2,4.2,0,0,1-4.2-4.2V109a52.22,52.22,0,0,1,104.44,0v30.81A4.2,4.2,0,0,1,400.61,144.05Zm-17.4-8.4h13.2V109a43.82,43.82,0,0,0-87.64,0v26.61H322V109a30.62,30.62,0,0,1,61.24,0Z"/><path d="M479.92,326.29H76.72A47.4,47.4,0,0,1,29.38,279V251.61c0-.94,0-1.86,0-2.79a4.21,4.21,0,0,1,4.2-4.09H523a4.2,4.2,0,0,1,4.2,4.09c0,.93,0,1.85,0,2.79V279A47.39,47.39,0,0,1,479.92,326.29ZM37.79,253.14V279a39,39,0,0,0,38.93,38.94h403.2A39,39,0,0,0,518.86,279V253.14Z"/><path d="M86.06,195.39a4.19,4.19,0,0,1-3.23-6.87c21.21-25.64,58.51-34,60.09-34.37a4.2,4.2,0,1,1,1.79,8.21h0c-.36.07-36.07,8.14-55.41,31.51A4.2,4.2,0,0,1,86.06,195.39Z"/><path d="M63.53,272.67a4.2,4.2,0,0,1-4.2-4.16c-.42-47,12.77-62.75,13.33-63.39A4.2,4.2,0,0,1,79,210.58c-.23.3-11.69,14.87-11.31,57.85a4.2,4.2,0,0,1-4.16,4.24Z"/><path d="M422.74,543.18H133.9a4.2,4.2,0,0,1-4.2-4.2V322.09a4.2,4.2,0,0,1,4.2-4.2H422.74a4.2,4.2,0,0,1,4.2,4.2V539A4.2,4.2,0,0,1,422.74,543.18Zm-284.64-8.4H418.54V326.29H138.1Z"/><path d="M422.74,396.88H133.9a4.21,4.21,0,0,1,0-8.41H422.74a4.21,4.21,0,0,1,0,8.41Z"/><path d="M422.74,467.46H133.9a4.2,4.2,0,0,1,0-8.4H422.74a4.2,4.2,0,0,1,0,8.4Z"/><path d="M48,543.18H10.42a4.2,4.2,0,1,1,0-8.4H48a4.2,4.2,0,1,1,0,8.4Z"/><path d="M523.06,543.18H75.84a4.2,4.2,0,0,1,0-8.4H523.06a4.2,4.2,0,0,1,0,8.4Z"/><path d="M589.58,543.18H560.07a4.2,4.2,0,0,1,0-8.4h29.51a4.2,4.2,0,1,1,0,8.4Z"/></svg>