<svg id="Fitness_Lineart_Icons" data-name="Fitness Lineart Icons" xmlns="http://www.w3.org/2000/svg" viewBox="0 0 600 600"><path d="M258.82,511.77A44.78,44.78,0,0,1,214.09,467V133a44.73,44.73,0,0,1,89.46,0V467A44.78,44.78,0,0,1,258.82,511.77Zm0-416.44A37.67,37.67,0,0,0,221.19,133V467a37.67,37.67,0,0,0,37.63,37.63h0A37.67,37.67,0,0,0,296.45,467V133A37.67,37.67,0,0,0,258.82,95.33Z"/><path d="M341.18,511.77A44.78,44.78,0,0,1,296.45,467V133a44.73,44.73,0,0,1,89.46,0V467A44.78,44.78,0,0,1,341.18,511.77Zm0-416.44A37.67,37.67,0,0,0,303.55,133V467a37.63,37.63,0,0,0,75.26,0V133A37.67,37.67,0,0,0,341.18,95.33Z"/><path d="M175.88,337.2H41.43a37.2,37.2,0,0,1,0-74.4H175.88a3.56,3.56,0,0,1,3.55,3.77c0,.14,0,.29,0,.44v66c0,.14,0,.29,0,.43a3.56,3.56,0,0,1-3.55,3.77ZM41.43,269.9A30.13,30.13,0,0,0,11.34,300a30.12,30.12,0,0,0,30.09,30.09H172.32V269.9Z"/><path d="M558.57,337.2H424.12a3.56,3.56,0,0,1-3.55-3.77c0-.14,0-.29,0-.43V267c0-.15,0-.3,0-.44a3.56,3.56,0,0,1,3.55-3.77H558.57a37.2,37.2,0,0,1,0,74.4Zm-130.89-7.11H558.57a30.1,30.1,0,0,0,0-60.19H427.68Z"/><path d="M217.64,378.32A45.37,45.37,0,0,1,172.32,333V267a45.37,45.37,0,0,1,45.32-45.32,3.55,3.55,0,0,1,3.55,3.55V374.77A3.55,3.55,0,0,1,217.64,378.32ZM214.09,229A38.27,38.27,0,0,0,179.42,267v66a38.27,38.27,0,0,0,34.67,38.05Z"/><path d="M382.36,378.32a3.55,3.55,0,0,1-3.55-3.55V225.23a3.55,3.55,0,0,1,3.55-3.55A45.37,45.37,0,0,1,427.68,267v66A45.37,45.37,0,0,1,382.36,378.32ZM385.91,229v142.1A38.27,38.27,0,0,0,420.58,333V267A38.27,38.27,0,0,0,385.91,229Z"/><path d="M243.62,324.11a3.55,3.55,0,0,1-3.55-3.55V129.9a3.55,3.55,0,1,1,7.1,0V320.56A3.55,3.55,0,0,1,243.62,324.11Z"/><path d="M243.62,432.53a3.55,3.55,0,0,1-3.55-3.55V354.21a3.55,3.55,0,0,1,7.1,0V429A3.55,3.55,0,0,1,243.62,432.53Z"/><path d="M323.69,324.11a3.55,3.55,0,0,1-3.55-3.55V129.9a3.55,3.55,0,0,1,7.1,0V320.56A3.55,3.55,0,0,1,323.69,324.11Z"/><path d="M323.69,432.53a3.55,3.55,0,0,1-3.55-3.55V354.21a3.55,3.55,0,0,1,7.1,0V429A3.55,3.55,0,0,1,323.69,432.53Z"/><path d="M54.91,337.2a3.55,3.55,0,0,1-3.55-3.55V293a3.55,3.55,0,0,1,7.1,0v40.66A3.55,3.55,0,0,1,54.91,337.2Z"/><path d="M138.87,337.2a3.55,3.55,0,0,1-3.55-3.55V293a3.55,3.55,0,1,1,7.1,0v40.66A3.55,3.55,0,0,1,138.87,337.2Z"/><path d="M80.81,337.2a3.55,3.55,0,0,1-3.55-3.55V279.91a3.55,3.55,0,1,1,7.1,0v53.74A3.55,3.55,0,0,1,80.81,337.2Z"/><path d="M110.37,337.2a3.55,3.55,0,0,1-3.56-3.55V279.91a3.56,3.56,0,0,1,7.11,0v53.74A3.55,3.55,0,0,1,110.37,337.2Z"/><path d="M456.36,337.2a3.55,3.55,0,0,1-3.55-3.55V293a3.55,3.55,0,0,1,7.1,0v40.66A3.55,3.55,0,0,1,456.36,337.2Z"/><path d="M540.32,337.2a3.55,3.55,0,0,1-3.55-3.55V293a3.55,3.55,0,1,1,7.1,0v40.66A3.55,3.55,0,0,1,540.32,337.2Z"/><path d="M482.26,337.2a3.55,3.55,0,0,1-3.55-3.55V279.91a3.55,3.55,0,1,1,7.1,0v53.74A3.55,3.55,0,0,1,482.26,337.2Z"/><path d="M511.82,337.2a3.55,3.55,0,0,1-3.55-3.55V279.91a3.55,3.55,0,0,1,7.1,0v53.74A3.55,3.55,0,0,1,511.82,337.2Z"/></svg>