<svg id="Fitness_Lineart_Icons" data-name="Fitness Lineart Icons" xmlns="http://www.w3.org/2000/svg" viewBox="0 0 600 600"><path d="M88.76,525.88a39.26,39.26,0,0,1-39.21-39.21V316.9a3.55,3.55,0,0,1,3.55-3.55h71.32A3.55,3.55,0,0,1,128,316.9V486.67A39.26,39.26,0,0,1,88.76,525.88ZM56.65,320.45V486.67a32.11,32.11,0,0,0,64.22,0V320.45Z"/><path d="M135.14,320.45H42.37A25.42,25.42,0,0,1,17,295.06v-7.49a25.42,25.42,0,0,1,25.38-25.39h92.77a25.42,25.42,0,0,1,25.39,25.39v7.49A25.42,25.42,0,0,1,135.14,320.45ZM42.37,269.28a18.31,18.31,0,0,0-18.28,18.29v7.49a18.3,18.3,0,0,0,18.28,18.29h92.77a18.3,18.3,0,0,0,18.29-18.29v-7.49a18.31,18.31,0,0,0-18.29-18.29Z"/><path d="M511.25,525.88A39.26,39.26,0,0,1,472,486.67V316.9a3.54,3.54,0,0,1,3.55-3.55H546.9a3.54,3.54,0,0,1,3.55,3.55V486.67A39.25,39.25,0,0,1,511.25,525.88ZM479.14,320.45V486.67a32.11,32.11,0,1,0,64.21,0V320.45Z"/><path d="M557.63,320.45H464.86a25.41,25.41,0,0,1-25.38-25.39v-7.49a25.41,25.41,0,0,1,25.38-25.39h92.77A25.42,25.42,0,0,1,583,287.57v7.49A25.42,25.42,0,0,1,557.63,320.45Zm-92.77-51.17a18.31,18.31,0,0,0-18.28,18.29v7.49a18.3,18.3,0,0,0,18.28,18.29h92.77a18.3,18.3,0,0,0,18.28-18.29v-7.49a18.31,18.31,0,0,0-18.28-18.29Z"/><path d="M300,595.06a83.82,83.82,0,0,1-83.75-83.76V88.69a57.08,57.08,0,1,0-114.16,0v177a3.54,3.54,0,0,1-3.55,3.55H79a3.54,3.54,0,0,1-3.55-3.55v-177a83.75,83.75,0,0,1,167.5,0V511.3a57.08,57.08,0,1,0,114.16,0V88.69a83.75,83.75,0,1,1,167.5,0v177a3.54,3.54,0,0,1-3.55,3.55H501.46a3.54,3.54,0,0,1-3.55-3.55v-177a57.08,57.08,0,1,0-114.16,0V511.3A83.82,83.82,0,0,1,300,595.06ZM159.18,24.51a64.25,64.25,0,0,1,64.17,64.18V511.3a76.65,76.65,0,0,0,153.3,0V88.69a64.18,64.18,0,1,1,128.36,0V262.18h12.47V88.69a76.65,76.65,0,0,0-153.3,0V511.3a64.18,64.18,0,1,1-128.36,0V88.69a76.65,76.65,0,1,0-153.3,0V262.18H95V88.69A64.25,64.25,0,0,1,159.18,24.51Z"/><path d="M68.78,412.9a3.55,3.55,0,0,1-3.55-3.55V354.88a3.55,3.55,0,0,1,7.1,0v54.47A3.55,3.55,0,0,1,68.78,412.9Z"/><path d="M68.78,460.62a3.55,3.55,0,0,1-3.55-3.55V427.19a3.55,3.55,0,1,1,7.1,0v29.88A3.55,3.55,0,0,1,68.78,460.62Z"/><path d="M493.71,407.21a3.5,3.5,0,0,1-3.5-3.5V350a3.5,3.5,0,0,1,7,0v53.7A3.49,3.49,0,0,1,493.71,407.21Z"/><path d="M493.71,454.26a3.5,3.5,0,0,1-3.5-3.5V421.3a3.5,3.5,0,0,1,7,0v29.46A3.49,3.49,0,0,1,493.71,454.26Z"/></svg>