<?xml version="1.0" encoding="utf-8"?>
<!-- Generator: Adobe Illustrator 19.0.1, SVG Export Plug-In . SVG Version: 6.00 Build 0)  -->
<svg version="1.1" id="fitness_1_" xmlns="http://www.w3.org/2000/svg" xmlns:xlink="http://www.w3.org/1999/xlink" x="0px" y="0px"
	 viewBox="0 0 256 256" style="enable-background:new 0 0 256 256;" xml:space="preserve">
<style type="text/css">
	.st0{display:none;}
	.st1{display:inline;fill-rule:evenodd;clip-rule:evenodd;fill:#2B2B2B;}
	.st2{display:inline;}
	.st3{fill:#2B2B2B;}
	.st4{fill-rule:evenodd;clip-rule:evenodd;fill:#2B2B2B;}
	.st5{display:inline;fill-rule:evenodd;clip-rule:evenodd;}
	.st6{fill:#31302C;}
	.st7{fill:#3D3D3D;}
	.st8{display:inline;fill-rule:evenodd;clip-rule:evenodd;fill:#7C7C7C;}
	.st9{display:inline;fill-rule:evenodd;clip-rule:evenodd;fill:#FFFFFF;}
	.st10{display:inline;fill-rule:evenodd;clip-rule:evenodd;fill:#565656;}
	.st11{display:inline;fill-rule:evenodd;clip-rule:evenodd;fill:#3D3D3D;}
	.st12{display:inline;fill:#2B2B2B;}
</style>
<g id="garment_2_" class="st0">
	<polygon id="_x32_" class="st1" points="68.7,156.4 187.3,156.4 187.3,256 148.6,256 135.1,203.9 125.6,203.9 106.1,256 68.7,256 	
		"/>
	<path id="_x31_" class="st1" d="M68.7,75.8c0,0,3.9-10.6,9.5-28.4C86.4,21.7,83,0,83,0h9.5c0,0,1.6,71.1,33.2,71.1
		c31.6,0,33.2-71.1,33.2-71.1h9.5c0,0-2.2,20.6,4.7,42.7c7.2,22.9,14.2,33.2,14.2,33.2V147H68.7V75.8z"/>
</g>
<g id="treadmill_1_" class="st0">
	<polygon id="_x32__44_" class="st1" points="210.5,57 229,178.2 202.1,178.2 197.6,74.9 175.2,82.2 164.9,114.3 147.5,108 
		174,28.4 183.8,31.1 179.7,64.8 	"/>
	<g id="_x31__1_" class="st2">
		<g>
			<path class="st3" d="M238,178.2H18c-9.9,0-18,8-18,18c0,9.9,8,18,18,18h22.5v13.5h27v-13.5h125.7v13.5h26.9v-13.5h18
				c9.9,0,18-8,18-18C256,186.2,247.9,178.2,238,178.2z"/>
		</g>
	</g>
</g>
<g id="cycle_1_" class="st0">
	<g id="_x32__2_" class="st2">
		<g>
			<path class="st3" d="M49.1,103.5C22,103.5,0,125.4,0,152.6c0,27.1,22,49.1,49.1,49.1c27.1,0,49.1-22,49.1-49.1
				C98.2,125.4,76.2,103.5,49.1,103.5z M49.1,187.6c-19.4,0-35.1-15.7-35.1-35.1c0-19.4,15.7-35.1,35.1-35.1
				c19.4,0,35.1,15.7,35.1,35.1C84.2,171.9,68.5,187.6,49.1,187.6z M206.9,103.5c-27.1,0-49.1,22-49.1,49.1
				c0,27.1,22,49.1,49.1,49.1c27.1,0,49.1-22,49.1-49.1C256,125.4,234,103.5,206.9,103.5z M206.9,187.6c-19.4,0-35.1-15.7-35.1-35.1
				c0-19.4,15.7-35.1,35.1-35.1c19.4,0,35.1,15.7,35.1,35.1C242,171.9,226.3,187.6,206.9,187.6z"/>
		</g>
	</g>
	<g id="padle_3_" class="st2">
		<polygon id="_x32__3_" class="st4" points="126.1,152.5 129.5,153.1 123.5,191.2 120,190.6 		"/>
		<polygon id="_x31__2_" class="st4" points="113.6,186.1 131,188.8 129.9,195.8 112.5,193 		"/>
	</g>
	<g id="padle_2_" class="st2">
		
			<rect id="_x32__4_" x="129.4" y="110.4" transform="matrix(0.9846 0.1748 -0.1748 0.9846 24.703 -20.9401)" class="st4" width="3.5" height="38.6"/>
		<polygon id="_x31__3_" class="st4" points="142.6,115.7 125.3,112.7 126.5,105.8 143.8,108.8 		"/>
	</g>
	<g id="_x31__4_" class="st2">
		<g>
			<path class="st3" d="M208.7,74.2c-4.4-5.8-35.6-5.2-35.6-5.2l-15.9,9.5l49.8,7.3C207,85.8,213.1,80.1,208.7,74.2z M189.4,89.4
				L83.2,79.1l4.5-10.7l24.5-7l-7-7l-27.1,9.1l-17.6,43.7l-0.8,6.8l-14.9,38.6l7.9,0l14-38.6l3-2.5l4.6-10.9l34.5,38l0.2-0.2
				c-2.4,3.6-3.7,7.9-3.7,12.5c0,12.6,10.2,22.8,22.8,22.8c10.8,0,19.8-7.5,22.2-17.5h53.2h7L189.4,89.4z M80.7,89.4l87.7,10.5
				l-28.1,31.6l0.2,0.2c-3.6-2.4-7.9-3.7-12.5-3.7c-4.6,0-8.9,1.4-12.5,3.7l0.2-0.2L80.7,89.4z M128,166.6
				c-8.7,0-15.8-7.1-15.8-15.8c0-8.7,7.1-15.8,15.8-15.8c8.7,0,15.8,7.1,15.8,15.8C143.8,159.5,136.7,166.6,128,166.6z M150.7,152.6
				c0-0.6,0.1-1.2,0.1-1.8c0-4.6-1.4-8.9-3.7-12.5l0.2,0.2l35.1-40.9l19.8,55H150.7z M128,145.5c-2.9,0-5.3,2.4-5.3,5.3
				c0,2.9,2.4,5.2,5.3,5.2c2.9,0,5.3-2.4,5.3-5.2C133.3,147.9,130.9,145.5,128,145.5z"/>
		</g>
	</g>
</g>
<g id="checklist_1_" class="st0">
	<path class="st1" d="M202.9,192.1l3.3,4.4V4.8H30.8v227.5h175.4v-30.9L192,212.1v6h-8l-17.2,12.8l-9.6-12.8H45V19h147v181.3
		L202.9,192.1z"/>
	<path id="_x33__11_" class="st1" d="M173,0v19c0,7.9-6.4,14.2-14.2,14.2H78.2C70.4,33.2,64,26.8,64,19V0H173z"/>
	<g id="_x32__5_" class="st2">
		<g>
			<path class="st3" d="M92.4,75.9v4.7h90.1v-4.7H92.4z M59.3,137.5h28.4V109H59.3V137.5z M64,113.8h19v19H64V113.8z M92.4,165.9
				h90.1v-4.7H92.4V165.9z M59.3,180.1h28.4v-28.4H59.3V180.1z M64,156.4h19v19H64V156.4z M59.3,94.8h28.4V66.4H59.3V94.8z M64,71.1
				h19v19H64V71.1z M92.4,123.3h90.1v-4.8H92.4V123.3z"/>
		</g>
	</g>
	<path class="st1" d="M177.8,161.2c-26.2,0-47.4,21.2-47.4,47.4s21.2,47.4,47.4,47.4s47.4-21.2,47.4-47.4S203.9,161.2,177.8,161.2z
		 M166.8,230.9l-17.1-22.8l7.6-5.6l11.3,15.2l34.2-25.6l5.7,7.6L166.8,230.9z"/>
</g>
<g id="shoes_1_" class="st0">
	<g id="icon" class="st2">
		<g>
			<path class="st3" d="M256,157.9c0,0-29.6,16.8-66.6,16.9c-18.3,0-42.6-0.8-75.5-4.1c-25.6-2.6-61.1-4.3-81.7-7.4
				c-26.2-3.9-30.7-8.8-30.7-8.8s0,7.9,0,13.2c0,6.6,6.6,9,6.6,9s108.4,11.9,120.7,14.2c12.2,2.3,45.9,4.5,77.3,0.8
				c30-3.5,46-19.1,47.8-21.4C256.1,167.1,256,157.9,256,157.9z M188.3,167c0.4,0,0.8,0,1.4,0C189.2,167.1,188.7,167.1,188.3,167z
				 M10.3,150.1c3.5,0.4,137.4,15.8,178,16.9c-14.4-0.5,90-1.9,61.9-31.6c-15.8-16.6-55.2-28.1-55.2-28.1l-27.6,16.9l-11-5.6
				l23.4-18.5l-19.1-8.8l-26.4,16.1l-11-5.6l22.4-17.3l-44.5-22c0,0-12.2,20.8-33.1,28.1c-19.6,6.8-42.1-4.5-49.7-28.1
				C-14.3,132.6,5.7,149.5,10.3,150.1z"/>
		</g>
	</g>
</g>
<g id="muscles_1_" class="st0">
	<path class="st1" d="M213.6,89.3c-8.4-17.3-45.9-76-69.9-86c-11.8-5.1-33.6-3.8-48.4,0C78.1,7.7,73.7,14.7,68.5,19.5
		c-4.5,4,4.7,24.3,16.1,26.9c13.4,3,29.8-12.2,32.3-16.1c4.4-7.3,16.1,0,16.1,0s11.9,67.1,10.8,64.5c-0.5-1.1-13-2.5-21.5,0
		c-11.5,3.4-19.9,11.6-21.5,16.1c-2.7,7.9-16.1,0-16.1,0s-10.9-6.6-21.5-5.4c-13.3,1.5-26.9,10.8-26.9,10.8V256
		c0,0,11.7-5.4,26.9-16.1s32.3-48.4,32.3-48.4s30,2.3,59.1-10.8c30.5-13.7,55-42.9,59.1-48.4C221.7,121.7,222,106.7,213.6,89.3z
		 M127.6,116.2c-11.3,6.3-31,15.5-32.2,16.1c0.8-1.2,13-20.9,26.8-26.8c14.2-6.2,32.3,0,32.3,0S140.1,109.3,127.6,116.2z"/>
</g>
<g id="Clutch_x5F_Hand_1_" class="st0">
	<g id="_x32__37_" class="st2">
		<g>
			<path class="st3" d="M99.8,87.1l-17.7-5.5L65,123.1l-9.5-4.2l-46.2,110c-4.2,9.4,0.1,20.4,9.5,24.6c9.4,4.2,20.3-0.1,24.5-9.5
				l46.2-110l-7.6-3.4L99.8,87.1z"/>
		</g>
	</g>
	<g id="_x31__38_" class="st2">
		<g>
			<path class="st3" d="M247,230.5l-45.8-110.2l-8.2,3.3l-20.6-47.7l-0.1,0.1c3.4-7,5.3-14.8,5.3-23.1C177.6,23.7,154,0,125,0
				C95.9,0,72.3,23.7,72.3,52.9c0,29.2,23.6,52.9,52.6,52.9c13.2,0,25.3-4.9,34.6-13l16.2,37.7l-9,3.6l45.8,110.2
				c3.8,9.6,14.6,14.3,24.1,10.5C246.1,250.9,250.8,240.1,247,230.5z M125,87.1c-18.8,0-34-15.3-34-34.2c0-18.9,15.2-34.2,34-34.2
				c18.8,0,34,15.3,34,34.2C159,71.8,143.8,87.1,125,87.1z"/>
		</g>
	</g>
</g>
<g id="tape_1_" class="st0">
	<polygon class="st5" points="244.9,136.4 244.9,208.7 239.3,208.7 239.3,175.3 233.7,175.3 233.7,208.7 217,208.7 217,175.3 
		211.5,175.3 211.5,208.7 194.8,208.7 194.8,175.3 189.2,175.3 189.2,208.7 172.5,208.7 172.5,141.9 167,141.9 167,208.7 
		150.3,208.7 150.3,175.3 144.7,175.3 144.7,208.7 128,208.7 128,175.3 122.4,175.3 122.4,208.7 105.7,208.7 105.7,175.3 
		100.2,175.3 100.2,208.7 83.5,208.7 83.5,175.3 77.9,175.3 77.9,208.7 61.2,208.7 61.2,141.9 55.7,142 55.7,208.7 44.5,208.7 
		44.5,136.4 	"/>
	<g id="_x32__6_" class="st2">
		<path class="st3" d="M83.1,47.3C37.2,47.3,0,61.7,0,79.4c0,17.7,37.2,32.1,83.1,32.1c45.9,0,83.1-14.4,83.1-32.1
			C166.2,61.7,129,47.3,83.1,47.3z M86.3,97.3c-41.5,0-75.1-8.7-75.1-19.5c0-10.8,33.6-25,75.1-25c41.5,0,69.5,17.1,69.5,27.9
			C155.8,91.4,127.8,97.3,86.3,97.3z M83.1,65.6c-16.1,0-29.2,4.1-29.2,9.2c0,5.1,13.1,9.2,29.2,9.2s33.8-3.8,33.8-8.8
			C116.9,70.1,99.2,65.6,83.1,65.6z"/>
	</g>
	<g id="_x31__6_" class="st2">
		<path class="st3" d="M256,86.3v122.4c0,0-4.1,0-11.1,0h-5.6v-33.4h-5.6v33.4H217v-33.4h-5.6v33.4h-16.7v-33.4h-5.6v33.4h-16.7
			v-66.8H167v66.8h-16.7v-33.4h-5.6v33.4H128v-33.4h-5.6v33.4h-16.7v-33.4h-5.6v33.4H83.5v-33.4h-5.6v33.4H61.2v-66.8l-5.6,0.1v66.7
			H44.5C21.2,208.4,0,178.1,0,166.5c0-35.3,0-85.8,0-85.8s0.1,0,0.1,0.1c2.3,1.6,40,26.2,80.8,26.2c27.7,0,61.4-4.9,83.2-20.4h0.1
			C245.5,86.5,256,86.3,256,86.3z"/>
	</g>
</g>
<g id="tablets_1_" class="st0">
	<g id="icon_2_" class="st2">
		<g>
			<path class="st3" d="M187.9,54.5H68.1L51.7,70.8v168.9c0,9,7.3,16.3,16.3,16.3h119.8c9,0,16.3-7.3,16.3-16.3V70.8L187.9,54.5z
				 M187.9,169.4c0,2.7-2.3,5-5.2,5H73.3c-2.9,0-5.2-2.2-5.2-5v-50c0-2.7,2.3-5,5.2-5h109.5c2.9,0,5.2,2.2,5.2,5V169.4z M182.5,5.5
				c0-3-2.4-5.5-5.5-5.5H79c-3,0-5.5,2.4-5.5,5.5v38.1h108.9V5.5z"/>
		</g>
	</g>
</g>
<g id="weight_3_" class="st0">
	<g id="_x32__7_" class="st2">
		<g>
			<path class="st6" d="M130.7,0C48.3-0.6,48,49,48,109.3c41.1,31.1,143.3,21.8,165.3,0C213.3,49,217,0.6,130.7,0z M181.3,74.7
				c0,0-26.3,16-48,16c-23.6,0-53.3-16-53.3-16s-11.3-47.4,48-48C200.7,26.7,181.3,74.7,181.3,74.7z"/>
		</g>
	</g>
	<g id="_x31__7_" class="st2">
		<g>
			<path class="st7" d="M213.3,101.1c-28.2,12.7-36.2,16.2-80,16.2c-47.7,0-76.7-9.9-85.3-17.7C34.6,117.4,21.3,136,21.3,160
				c0,44.9,24.7,80.3,64,96c2.4,0,64.5,0,80,0c39.9-15.4,69.3-50.6,69.3-96C234.7,137.1,225.7,118.5,213.3,101.1z M41.3,175.1
				c-6.4-31.6,3.7-62.9,14.5-58c9.7,4.4-3.3,30.1-1.8,56.1c1.9,32.3,16.8,65.7,16.8,65.7S47.8,206.9,41.3,175.1z"/>
		</g>
	</g>
</g>
<g id="apple_1_">
	<g id="icon_3_">
		<path class="st3" d="M108.7,21.7C93.9,5.2,65.9,0,65.9,0s7.4,27.8,21.4,43.4c12.7,14.2,32,16.3,32,16.3S120.2,34.6,108.7,21.7z
			 M234,119.3c-11-69.8-92.2-37.9-92.2-37.9s1.3-13.4,5.4-21.7c4-8,10.8-10.8,10.8-10.8V32.5c0,0-12.6,8.1-21.7,21.7
			c-6.9,10.3-10.8,27.1-10.8,27.1s-86.4-32.7-103,37.9C7.3,184.4,87.6,254.8,87.6,254.8s8.3,2.7,16.3,0c1.7-0.6,5.4-5.6,27.1-5.4
			c16.3,0.1,26.9,3.8,32.5,5.4c3.6,1,4.7,0.5,5.4,0c4.3-3.1,16.3-10.8,16.3-10.8S245,189.1,234,119.3z M61.2,125.9
			c-5,27.2,9.2,73.7,10,76.2c-1.6-2.7-31-52.3-22.8-84.8c8.5-33.4,41.3-14,41.3-14S64.9,105.7,61.2,125.9z"/>
	</g>
</g>
<g id="weightmachine_1_" class="st0">
	<g id="_x33__2_" class="st2">
		<g>
			<path class="st7" d="M233.2,8.5H22.8c-9.4,0-17.1,7.6-17.1,17.1v204.8c0,9.4,7.6,17.1,17.1,17.1h210.5c9.4,0,17.1-7.6,17.1-17.1
				V25.6C250.3,16.2,242.7,8.5,233.2,8.5z M128,110.9c-39.3,0-71.1-16.6-71.1-37c0-20.4,31.8-37,71.1-37c39.3,0,65.4,19.4,65.4,39.8
				C193.4,97.2,167.3,110.9,128,110.9z"/>
		</g>
	</g>
	<g id="_x31__8_" class="st2">
		<g>
			<path class="st3" d="M128,37c-42.4,0-76.8,17.8-76.8,39.8c0,22,34.4,39.8,76.8,39.8c42.4,0,76.8-17.8,76.8-39.8
				C204.8,54.8,170.4,37,128,37z M128,105.2c-36.1,0-65.4-12.7-65.4-28.4c0-15.7,29.3-28.4,65.4-28.4c36.1,0,65.4,12.7,65.4,28.4
				C193.4,92.5,164.1,105.2,128,105.2z M130.8,83V59.7h-5.7V83c-3.3,1.2-5.7,4.3-5.7,8c0,4.7,3.8,8.5,8.5,8.5c4.7,0,8.5-3.8,8.5-8.5
				C136.5,87.3,134.2,84.2,130.8,83z"/>
		</g>
	</g>
	<g id="border" class="st2">
		<path class="st3" d="M233.2,2.8H22.8C10.2,2.8,0,13,0,25.6v204.8c0,12.6,10.2,22.8,22.8,22.8h210.5c12.6,0,22.8-10.2,22.8-22.8
			V25.6C256,13,245.8,2.8,233.2,2.8z M244.6,224.7c0,9.4-7.6,17.1-17.1,17.1H28.4c-9.4,0-17.1-7.6-17.1-17.1V31.3
			c0-9.4,7.6-17.1,17.1-17.1h199.1c9.4,0,17.1,7.6,17.1,17.1V224.7z"/>
	</g>
</g>
<g id="stopwatch_1_" class="st0">
	<path id="shade_3_" class="st8" d="M128,46.7c0,0,48.9-2.3,75.7,24.5c26.2,26.2,28.4,83.4,28.4,83.4H128V46.7z"/>
	<path id="_x31__9_" class="st1" d="M237.3,146.1c0,60.7-48.9,109.9-109.3,109.9c-60.4,0-109.3-49.2-109.3-109.9
		c0-33.8,15.2-64,39.1-84.1c0.5-0.4-7.1-11.8-7.1-11.8L40,58.7v-16L50.7,32H72l-10.6,9.1c0,0,7.8,12.5,8.3,12.1
		c15.4-9.8,33.4-15.7,52.8-16.7v-19h-8.2c-4.8,0-8.8-3.9-8.8-8.8c0-4.9,3.9-8.8,8.8-8.8h26.2c4.8,0,8.7,3.9,8.7,8.8
		c0,4.9-3.9,8.8-8.7,8.8h-9.3v18.8c19.6,0.6,38,6.4,53.7,16c0.8,0.5,9.4-11.9,9.4-11.9L184,32l21.3-5.3L216,37.3v21.3l-10.5-9.4
		c0,0-8.5,11.7-7.7,12.4C222,81.8,237.3,112.2,237.3,146.1z M122.5,70.3v-20C95.5,51.8,71.5,64.6,54.9,84l14.4,14.5l-6.2,6.2
		L49.5,91c-11.1,15.7-17.7,34.9-17.7,55.6c0,0.9,0.1,2.2,0.1,2.2h21.2v8.8H32.6c2.1,18,9.2,34.9,19.7,48.4l10.8-10.9l6.2,6.2
		L58,212.8c16.4,17.5,39.1,28.9,64.5,30.3v-23.9h8.7v24c26-0.9,49.4-12.2,66.2-29.8L185,200.9l6.2-6.2l12,12.1
		c10.8-13.7,18.1-30.8,20.2-49.1h-22.2v-8.8h22.8c0-0.9,0.1-1.3,0.1-2.2c0-21.3-7-41-18.6-56.9l-14.3,14.4L185,98l15-15.1
		c-16.9-19.3-41.4-31.8-68.8-32.7v20.2H122.5z M131.8,148.9h30.6c2.4,0,4.4,2,4.4,4.4c0,2.4-2,4.4-4.4,4.4h-35c-2.4,0-4.4-2-4.4-4.4
		v-61c0-2.4,1.9-4.4,4.4-4.4c2.4,0,4.4,2,4.4,4.4V148.9z"/>
</g>
<g id="bottle_1_" class="st0">
	<g id="_x33__3_" class="st2">
		<path class="st3" d="M176.6,35.8c0-8.5-6.9-15.4-15.4-15.4h-20.5V0h-25.6v20.5H94.7c-8.5,0-15.4,6.9-15.4,15.4v15.4h97.3V35.8z
			 M79.3,56.3h3.8C81.1,55.7,79.3,56.3,79.3,56.3z M186.8,97.3c-3-2.2-20.5-9.8-20.5-25.6c0-10.8,3.1-14.3,5.9-15.4H83.1
			c2.9,0.9,6.4,4.2,6.4,15.4c0,16.7-12.9,18.3-20.5,25.6c-6.1,6-5.1,11.6-5.1,15.4c0,26.5,0,128,0,128c0,8.5,6.9,15.4,15.4,15.4
			h97.3c8.5,0,15.3-6.9,15.3-15.4c0,0,0-99.9,0-128C191.9,108.2,193.6,102.2,186.8,97.3z M172.3,56.3h4.3
			C176.6,56.3,174.5,55.5,172.3,56.3z"/>
	</g>
	<g id="_x32__9_" class="st2">
		<path class="st7" d="M115.2,0v20.5H94.7c-8.5,0-15.4,6.9-15.4,15.4v15.4h46.1V0H115.2z M89.6,71.7c0,16.7-12.9,18.3-20.5,25.6
			c-6.1,6-5.1,11.6-5.1,15.4c0,26.5,0,128,0,128c0,8.5,6.9,15.4,15.4,15.4h46.1V56.3H83.1C86,57.2,89.6,60.5,89.6,71.7z M79.3,56.3
			h3.8C81.1,55.7,79.3,56.3,79.3,56.3z"/>
	</g>
	<path id="shade_8_" class="st9" d="M99.8,97.3c0,0-25.6,1.8-25.6,25.6s0,112.6,0,112.6h10.2c0,0,0-97.7,0-112.6
		c0-15.2,15.4-15.4,15.4-15.4V97.3z"/>
</g>
<g id="heart_1_" class="st0">
	<path class="st1" d="M219.7,141.4c-3.2,4.6-6.7,9.1-10.5,13.5c-30.9,36.1-76.6,63.6-82.8,67.3l-1.3,0.1c-5.7-3.4-51.9-31.1-83-67.4
		h34.3l13.5-22.5l22.5,40.4l15.1-36.2l7.4-17.7l18,35.9h44.8c4.1-4.4,8-8.8,11.6-13.5h-47.4L134.7,92l-7.4,19.1l-15.1,39.3L89.8,110
		l-22.5,31.4H31.5C11.9,113.3,4,81.6,30,52.7c34.3-38.2,89.6-6.6,95.8-1.7c-0.4,0.3,0.4,0.3,0,0c6.4-5,61.5-37,95.8,1.2
		C247.6,81.3,239.6,113.2,219.7,141.4z"/>
	<path class="st10" d="M127.4,64.4C122,63,79.7,29.1,49,51C79.8,28.8,122.3,60.4,127.4,64.4z"/>
	<path class="st11" d="M209.1,141.4h-47.4L134.7,92l-7.4,19.1l-15.1,39.3L89.8,110l-22.5,31.4H46.8c-20.2-26.2-29.9-56.5-5-83.9
		c0.6-0.7,1.2-1.3,1.8-1.9c1.8-1.8,3.5-3.3,5.4-4.6c30.7-21.9,73,11.9,78.4,13.4c0.4,0.3,0.7-0.1,1.1-0.4c5.7-4.5,54.9-41,85.7-7
		C239.2,84.7,229.4,115.1,209.1,141.4z M152.7,154.9l-18-35.9l-7.4,17.7l-15.1,36.2l-22.5-40.4l-13.5,22.5h-18
		c27.6,29.3,64.2,51.1,69,53.9l1.2-0.1c5.2-3.1,41.4-24.7,68.9-53.8H152.7z"/>
	<path class="st1" d="M31.5,141.4c3.2,4.6,6.8,9.1,10.5,13.5H0v-13.5H31.5z"/>
	<path class="st1" d="M256,141.4v13.5h-58.5c4.1-4.4,8-8.8,11.6-13.5H256z"/>
</g>
<g id="weight_2_" class="st0">
	<g id="_x35__1_" class="st2">
		<path class="st7" d="M191,65V191h30.6V65H191z M34.4,191H65V65H34.4V191z"/>
	</g>
	<path class="st12" d="M248.4,76.4h-19.1V65c0-4.2-3.4-7.6-7.6-7.6H191c-4.2,0-7.6,3.4-7.6,7.6V191c0,4.2,3.4,7.6,7.6,7.6h30.6
		c4.2,0,7.6-3.4,7.6-7.6v-11.5h19.1c4.2,0,7.6-3.4,7.6-7.6V84.1C256,79.8,252.6,76.4,248.4,76.4z M221.6,187.2
		c0,2.1-1.7,3.8-3.8,3.8h-22.9c-2.1,0-3.8-1.7-3.8-3.8V68.8c0-2.1,1.7-3.8,3.8-3.8h22.9c2.1,0,3.8,1.7,3.8,3.8V187.2z M65,57.3H34.4
		c-4.2,0-7.6,3.4-7.6,7.6v11.5H7.6c-4.2,0-7.6,3.4-7.6,7.6v87.9c0,4.2,3.4,7.6,7.6,7.6h19.1V191c0,4.2,3.4,7.6,7.6,7.6H65
		c4.2,0,7.6-3.4,7.6-7.6V65C72.6,60.7,69.2,57.3,65,57.3z M65,187.2c0,2.1-1.7,3.8-3.8,3.8H38.2c-2.1,0-3.8-1.7-3.8-3.8V68.8
		c0-2.1,1.7-3.8,3.8-3.8h22.9c2.1,0,3.8,1.7,3.8,3.8V187.2z"/>
	<rect id="_x33__5_" x="72.6" y="103.2" class="st1" width="112.9" height="45.8"/>
	<rect id="_x32__11_" x="69.3" y="103.2" class="st1" width="56.7" height="45.8"/>
	<g id="_x31__12_" class="st2">
		<path class="st3" d="M70.5,99.3v7.6h115v-7.6H70.5z M70.5,152.8h115v-7.6h-115V152.8z"/>
	</g>
</g>
</svg>
