<svg id="Fitness_Lineart_Icons" data-name="Fitness Lineart Icons" xmlns="http://www.w3.org/2000/svg" viewBox="0 0 600 600"><path d="M128.39,465.41a103.32,103.32,0,0,1,0-206.64A104.65,104.65,0,0,1,144.33,260l269.26,20.89a81.21,81.21,0,0,1,0,162.41l-269.24,20.9A105.1,105.1,0,0,1,128.39,465.41Zm0-198.87a95.55,95.55,0,0,0,0,191.1,97.73,97.73,0,0,0,14.91-1.15l.3,0,269.54-20.92h.3a73.44,73.44,0,1,0,0-146.87h-.3L143.58,267.73l-.29,0A97.5,97.5,0,0,0,128.39,266.54Z"/><path d="M419.91,515.86a154.09,154.09,0,0,1-125.72-65.21,3.89,3.89,0,0,1,2.88-6.12l116.07-9h.3a73.44,73.44,0,1,0,0-146.87h-.3l-116.06-9a3.86,3.86,0,0,1-3.22-2.22,3.9,3.9,0,0,1,.34-3.89,154.08,154.08,0,0,1,125.71-65.2c84.79,0,153.76,69,153.76,153.77S504.7,515.86,419.91,515.86ZM304.68,451.74a146.27,146.27,0,0,0,115.23,56.35c80.5,0,146-65.5,146-146s-65.49-146-146-146a146.3,146.3,0,0,0-115.22,56.34l108.9,8.45a81.21,81.21,0,0,1,0,162.41Z"/><path d="M147.82,577.61H8.48a3.89,3.89,0,0,1-3.89-3.89,31.64,31.64,0,0,1,31.6-31.6H54.6l38.62-87.3A3.89,3.89,0,0,1,98,452.71a95.41,95.41,0,0,0,28.34,4.91,3.89,3.89,0,0,1,3.48,5.45l-35,79.05h25.26a31.6,31.6,0,0,1,31.59,31.6A3.89,3.89,0,0,1,147.82,577.61ZM12.69,569.83H143.62a23.86,23.86,0,0,0-23.51-19.93H88.88a3.88,3.88,0,0,1-3.55-5.46l35.1-79.33a103.12,103.12,0,0,1-21.5-4L60.69,547.58a3.9,3.9,0,0,1-3.56,2.32H36.19A23.85,23.85,0,0,0,12.69,569.83Z"/><path d="M591.52,577.61H452.19a3.89,3.89,0,0,1-3.88-3.89,31.63,31.63,0,0,1,31.59-31.6h26.5l-20.26-45.79a3.88,3.88,0,0,1,1.75-5,144.62,144.62,0,0,0,23.93-15.8,3.9,3.9,0,0,1,6,1.44l28.82,65.16h17.16a31.62,31.62,0,0,1,31.6,31.6A3.89,3.89,0,0,1,591.52,577.61ZM456.4,569.83H587.32a23.83,23.83,0,0,0-23.51-19.93H544.12a3.88,3.88,0,0,1-3.55-2.32l-27.83-62.9a151,151,0,0,1-18,11.79l21.23,48a3.89,3.89,0,0,1-3.56,5.46H479.9A23.85,23.85,0,0,0,456.4,569.83Z"/><path d="M133.34,438.27a76.16,76.16,0,1,1,72.59-53,3.89,3.89,0,0,1-5.43,2.29l-63.95-31.88a7.19,7.19,0,0,0-9.67,3.24h0a7.2,7.2,0,0,0,3.24,9.67l63.94,31.88a3.9,3.9,0,0,1,2,2.54,3.85,3.85,0,0,1-.6,3.19A76.35,76.35,0,0,1,133.34,438.27Zm0-144.59a68.41,68.41,0,1,0,53,111.61l-59.74-29.78a15,15,0,0,1-6.72-20.1h0a15,15,0,0,1,20.1-6.74l59.75,29.79a68.47,68.47,0,0,0-66.43-84.78Zm-9.94,63.46h0Z"/><path d="M405.75,412.42a50.34,50.34,0,1,1,50.33-50.33A50.39,50.39,0,0,1,405.75,412.42Zm0-92.89a42.56,42.56,0,1,0,42.56,42.56A42.61,42.61,0,0,0,405.75,319.53Z"/><path d="M133.34,401.35a39.26,39.26,0,1,1,39.24-39.26,38.39,38.39,0,0,1-.41,5.61,3.89,3.89,0,0,1-5.58,2.91l-30-15a7.19,7.19,0,0,0-9.67,3.24h0a7.2,7.2,0,0,0,3.24,9.67l30,15a3.89,3.89,0,0,1,1,6.22A39,39,0,0,1,133.34,401.35Zm0-70.74a31.48,31.48,0,1,0,18.08,57.25l-24.78-12.35a15,15,0,0,1-6.72-20.1h0a15,15,0,0,1,20.1-6.74L164.79,361A31.52,31.52,0,0,0,133.34,330.61Zm-9.94,26.53h0Z"/><path d="M210.16,449.16a11,11,0,0,1-4.9-1.15l-2.46-1.23a11,11,0,0,1-5-14.78l8.38-16.81-79.59-39.68A15,15,0,1,1,140,348.67l79.59,39.69L228,371.55a11,11,0,0,1,14.78-4.94l2.46,1.22a11,11,0,0,1,5,14.79L238.87,405.3a15.05,15.05,0,0,1-1.44,8.7h0a15,15,0,0,1-6.08,6.38L220,443.06A11,11,0,0,1,210.16,449.16Zm-76.82-94.29a7.28,7.28,0,0,0-2.3.37,7.22,7.22,0,0,0-.93,13.31L213.18,410a3.9,3.9,0,0,1,1.95,2.25,3.86,3.86,0,0,1-.21,3l-10.11,20.29a3.24,3.24,0,0,0,1.45,4.35l2.46,1.23a3.25,3.25,0,0,0,4.36-1.46L225,415.75a3.86,3.86,0,0,1,1.93-1.83,7.1,7.1,0,0,0,3.57-3.39h0a7.11,7.11,0,0,0,.56-4.9,4,4,0,0,1,.3-2.64l11.89-23.84a3.24,3.24,0,0,0-1.46-4.36l-2.46-1.23a3.28,3.28,0,0,0-2.48-.17A3.24,3.24,0,0,0,235,375l-10.12,20.29a3.88,3.88,0,0,1-5.21,1.74l-83.07-41.42A7.11,7.11,0,0,0,133.34,354.87Z"/><path d="M153.49,268.49l-.3,0-9.6-.74-.3,0a97.5,97.5,0,0,0-14.9-1.15c-1.5,0-3,0-4.67.12a3.87,3.87,0,0,1-4-3l-28-119.55a3.88,3.88,0,0,1,4.15-4.76l30.19,2.85a3.89,3.89,0,0,1,3.42,3l27.78,118.52a3.9,3.9,0,0,1-3.79,4.78Zm-9.16-8.5,4.16.32L122.57,149.68l-22-2.08,26.05,111.19c.6,0,1.21,0,1.8,0A104.65,104.65,0,0,1,144.33,260Z"/><path d="M161.79,153.27c-.79,0-1.59,0-2.39-.12l-94.82-9a24.85,24.85,0,0,1,2.31-49.58c.88,0,1.66,0,2.39.11l94.8,9a24.88,24.88,0,0,1,22.4,27.07h0A24.72,24.72,0,0,1,161.79,153.27ZM66.89,102.4a17.07,17.07,0,0,0-1.57,34.06l94.82,8.95a15.77,15.77,0,0,0,1.65.09,17,17,0,0,0,17-15.47h0a17.1,17.1,0,0,0-15.39-18.6l-94.82-9A16.14,16.14,0,0,0,66.89,102.4Z"/><path d="M397.53,217.76a3.88,3.88,0,0,1-3.74-2.86l-26.34-96.39A15,15,0,0,1,378.39,100l34.27-8.26a38.12,38.12,0,0,0,27.11-49.46,15,15,0,0,1,28.36-9.76,68.12,68.12,0,0,1-48.45,88.37l-19.24,4.64,22.74,83.15a14,14,0,0,1,.52,3.43,3.88,3.88,0,0,1-3.89,4,146.26,146.26,0,0,0-21.69,1.62A3.92,3.92,0,0,1,397.53,217.76ZM454,30.17a7.08,7.08,0,0,0-2.35.4,7.24,7.24,0,0,0-4.49,9.18,45.9,45.9,0,0,1-32.64,59.54l-34.26,8.25a7.3,7.3,0,0,0-4.53,3.36,7.15,7.15,0,0,0-.74,5.57l25.43,93.08c4.84-.62,9.75-1,14.67-1.16L391.89,123.7a3.89,3.89,0,0,1,.4-3,3.85,3.85,0,0,1,2.44-1.8l23.13-5.58a60.44,60.44,0,0,0,38.77-29.65h0A60.48,60.48,0,0,0,460.78,35,7.26,7.26,0,0,0,454,30.17Z"/><path d="M341.48,129.67a17.41,17.41,0,0,1-4.62-34.19l58.67-16.11a17.4,17.4,0,0,1,21.39,12.18,17.81,17.81,0,0,1,.6,3.78,3.87,3.87,0,0,1-3.17,4l-34.13,8.22a7.3,7.3,0,0,0-4.53,3.36,7.15,7.15,0,0,0-.74,5.57l.16.62a3.9,3.9,0,0,1-2.73,4.74L346.08,129A17,17,0,0,1,341.48,129.67Zm58.67-43.15a9.69,9.69,0,0,0-2.56.35L338.92,103a9.64,9.64,0,0,0-7.08,9.28,9.18,9.18,0,0,0,.35,2.55A9.64,9.64,0,0,0,344,121.55l22.92-6.29A15,15,0,0,1,378.39,100l30.69-7.39a9.65,9.65,0,0,0-8.93-6.08Z"/><path d="M528.32,309.51a3.88,3.88,0,0,1-3.47-2.12c-14.38-28.12-35.51-47.86-62.82-58.65-20.45-8.09-36.91-7.84-37.07-7.84a3.89,3.89,0,0,1-.18-7.77c.72,0,17.92-.32,39.77,8.25,20.13,7.89,48.13,25.13,67.22,62.47a3.89,3.89,0,0,1-1.69,5.23A3.84,3.84,0,0,1,528.32,309.51Z"/><path d="M544.15,388.67a3.87,3.87,0,0,1-3.85-4.46c5-33.62-7.42-59.18-7.55-59.44a3.89,3.89,0,0,1,7-3.47c.56,1.12,13.68,27.9,8.28,64.06A3.89,3.89,0,0,1,544.15,388.67Z"/><path d="M435.69,366a3.9,3.9,0,0,1-3.89-3.8c-.45-20.57-16.81-26.24-17.51-26.48a3.89,3.89,0,0,1,2.4-7.39c7.71,2.48,22.42,12.72,22.89,33.69a3.9,3.9,0,0,1-3.8,4Z"/><path d="M419.37,397.12a3.89,3.89,0,0,1-1.65-7.41,21,21,0,0,0,12-14.51,3.89,3.89,0,0,1,7.68,1.2A28.83,28.83,0,0,1,421,396.75,3.84,3.84,0,0,1,419.37,397.12Z"/></svg>