<svg id="Fitness_Lineart_Icons" data-name="Fitness Lineart Icons" xmlns="http://www.w3.org/2000/svg" viewBox="0 0 600 600"><path d="M110,457.4a77.77,77.77,0,1,1,77.77-77.77A77.85,77.85,0,0,1,110,457.4Zm0-148.09a70.32,70.32,0,1,0,70.32,70.32A70.41,70.41,0,0,0,110,309.31Z"/><path d="M110,486.29A106.67,106.67,0,1,1,216.63,379.63,106.78,106.78,0,0,1,110,486.29Zm0-205.88a99.22,99.22,0,1,0,99.22,99.22A99.33,99.33,0,0,0,110,280.41Z"/><path d="M203.84,425.63a3.73,3.73,0,0,1-3.39-5.26,99.26,99.26,0,0,0-90.48-140,98.59,98.59,0,0,0-89.21,55.76A3.73,3.73,0,0,1,14,333L92,166.83c12.51-26.65,33.53-44.11,60.79-50.49,24-5.62,51.05-2.2,76.22,9.61s45.09,30.45,56.1,52.48c12.52,25,12.53,52.37,0,79h0l-77.91,166A3.72,3.72,0,0,1,203.84,425.63ZM110,273A106.78,106.78,0,0,1,216.62,379.63c0,2.25-.06,4.48-.2,6.7l62-132C304,199.7,269.1,153,225.83,132.69S124.35,115.41,98.73,170L36.78,302A106.51,106.51,0,0,1,110,273Zm171.78-17.09h0Z"/><path d="M203.16,427.09a3.67,3.67,0,0,1-1.7-.41,3.73,3.73,0,0,1-1.61-5q.32-.62.57-1.23a3.72,3.72,0,1,1,6.84,2.95c-.24.56-.5,1.12-.79,1.69A3.72,3.72,0,0,1,203.16,427.09Z"/><path d="M16.77,339.63a3.73,3.73,0,0,1-3.37-5.32l.65-1.37a3.72,3.72,0,1,1,6.73,3.18l-.64,1.37A3.73,3.73,0,0,1,16.77,339.63Z"/><path d="M204.91,423.19a3.67,3.67,0,0,1-1.44-.29,3.72,3.72,0,0,1-2-4.86c.67-1.62,1.3-3.23,1.86-4.77a3.73,3.73,0,0,1,7.23,1.28,3.79,3.79,0,0,1-.23,1.27c-.7,1.92-1.35,3.59-2,5.1A3.72,3.72,0,0,1,204.91,423.19Z"/><path d="M522.31,486.3H110a3.73,3.73,0,0,1,0-7.45,99.41,99.41,0,0,0,90.48-58.48l.07-.16L278.38,254.3a3.71,3.71,0,0,1,3.37-2.15h290.3a24.64,24.64,0,0,1,23.79,31L546.1,468.07A24.68,24.68,0,0,1,522.31,486.3Zm-373.24-7.45H522.31a17.22,17.22,0,0,0,16.6-12.72l49.74-184.88a17.19,17.19,0,0,0-16.6-21.65H284.11L207.24,423.43a.2.2,0,0,1,0,.08A106.84,106.84,0,0,1,149.07,478.85ZM592.24,282.22h0Z"/><path d="M204.91,423.19a3.67,3.67,0,0,1-1.44-.29,3.72,3.72,0,0,1-2-4.86c.67-1.62,1.3-3.23,1.86-4.77a3.73,3.73,0,0,1,7.23,1.28,3.79,3.79,0,0,1-.23,1.27c-.7,1.92-1.35,3.59-2,5.1A3.72,3.72,0,0,1,204.91,423.19Z"/><path d="M204.91,423.19a3.67,3.67,0,0,1-1.44-.29,3.72,3.72,0,0,1-2-4.86c.67-1.62,1.3-3.23,1.86-4.77a3.73,3.73,0,0,1,7.23,1.28,3.79,3.79,0,0,1-.23,1.27c-.7,1.92-1.35,3.59-2,5.1A3.72,3.72,0,0,1,204.91,423.19Z"/><path d="M75.69,264a3.65,3.65,0,0,1-1.47-.3,3.72,3.72,0,0,1-2-4.89l23.66-55.21a3.73,3.73,0,0,1,6.85,2.93L79.11,261.79A3.71,3.71,0,0,1,75.69,264Z"/><path d="M106,195.34a3.64,3.64,0,0,1-1.6-.37,3.71,3.71,0,0,1-1.76-5l9.53-20a3.73,3.73,0,0,1,6.73,3.21l-9.54,20A3.72,3.72,0,0,1,106,195.34Z"/><path d="M57.59,374.29a3.55,3.55,0,0,1-.64-.06,3.71,3.71,0,0,1-3-4.3A56.91,56.91,0,0,1,110,322.75a3.73,3.73,0,1,1,0,7.45,49.46,49.46,0,0,0-48.71,41A3.72,3.72,0,0,1,57.59,374.29Z"/><path d="M61.84,406a3.72,3.72,0,0,1-3.37-2.15,56.36,56.36,0,0,1-5-17.26,3.73,3.73,0,0,1,7.4-.9,49,49,0,0,0,4.31,15A3.74,3.74,0,0,1,61.84,406Z"/><path d="M346.43,466.27H246a3.72,3.72,0,1,1,0-7.44H346.43a3.72,3.72,0,0,1,0,7.44Z"/><path d="M426.19,466.27H368.48a3.72,3.72,0,0,1,0-7.44h57.71a3.72,3.72,0,1,1,0,7.44Z"/></svg>