<svg id="Fitness_Lineart_Icons" data-name="Fitness Lineart Icons" xmlns="http://www.w3.org/2000/svg" viewBox="0 0 600 600"><path d="M300,590.42a255,255,0,1,1,180.31-74.69A253.34,253.34,0,0,1,300,590.42Zm0-502.13c-136.27,0-247.13,110.86-247.13,247.13S163.73,582.54,300,582.54,547.13,471.68,547.13,335.42,436.27,88.29,300,88.29Z"/><path d="M300,568.7c-128.63,0-233.29-104.65-233.29-233.28S171.37,102.13,300,102.13,533.29,206.78,533.29,335.42,428.63,568.7,300,568.7ZM300,110C175.71,110,74.59,211.12,74.59,335.42S175.71,560.83,300,560.83,525.41,459.71,525.41,335.42,424.29,110,300,110Z"/><path d="M331,90.2a3.87,3.87,0,0,1-.48,0,250.81,250.81,0,0,0-61.1,0A3.94,3.94,0,0,1,265,86.26V48.94A3.94,3.94,0,0,1,269,45H331A3.94,3.94,0,0,1,335,48.94V86.26A3.94,3.94,0,0,1,331,90.2Zm-31-9.78a257.61,257.61,0,0,1,27.09,1.43v-29H272.91v29A257.61,257.61,0,0,1,300,80.42Z"/><path d="M348.6,52.87H251.4a21.65,21.65,0,1,1,0-43.29h97.2a21.65,21.65,0,1,1,0,43.29ZM251.4,17.46a13.77,13.77,0,0,0,0,27.54h97.2a13.77,13.77,0,0,0,0-27.54Z"/><path d="M442.65,414.09a4,4,0,0,1-1.28-.21L306.7,367.61a32.89,32.89,0,1,1,23.58-45L445,407a3.94,3.94,0,0,1-2.33,7.11Zm-135.73-54.5a4,4,0,0,1,1.28.21l111.37,38.26-94.86-69.79a3.87,3.87,0,0,1-1.34-1.77A25,25,0,1,0,306,359.7,3.8,3.8,0,0,1,306.92,359.59Z"/><path d="M413.36,275.12A48.15,48.15,0,1,1,461.5,227,48.2,48.2,0,0,1,413.36,275.12Zm0-88.42A40.27,40.27,0,1,0,453.63,227,40.32,40.32,0,0,0,413.36,186.7Z"/><path d="M413.36,230.91a3.93,3.93,0,0,1-3.14-1.56l-16.89-22.29a3.94,3.94,0,1,1,6.27-4.76l16.89,22.3a3.94,3.94,0,0,1-3.13,6.31Z"/><path d="M300,534.78a197.63,197.63,0,0,1-119.85-40,201,201,0,0,1-71-101.44,3.94,3.94,0,0,1,7.54-2.28C141.33,472.29,215,526.9,300,526.9a3.94,3.94,0,0,1,0,7.88Z"/><path d="M104.58,339.35a3.93,3.93,0,0,1-3.94-3.93A199.28,199.28,0,0,1,128,234.48a3.94,3.94,0,1,1,6.79,4,191.29,191.29,0,0,0-26.32,97A3.93,3.93,0,0,1,104.58,339.35Z"/><path d="M72.83,163.57a3.89,3.89,0,0,1-2.13-.63,3.94,3.94,0,0,1-1.17-5.45c39.3-60.59,92.6-76.29,94.85-76.92a3.93,3.93,0,1,1,2.15,7.57c-.67.19-52.84,15.73-90.39,73.64A3.93,3.93,0,0,1,72.83,163.57Z"/><path d="M529.35,163.57a3.92,3.92,0,0,1-3.3-1.79c-37.61-58-89.88-73.49-90.4-73.64a3.93,3.93,0,0,1,2.15-7.57c2.25.63,55.56,16.33,94.85,76.92a3.93,3.93,0,0,1-3.3,6.08Z"/></svg>