<svg id="Fitness_Lineart_Icons" data-name="Fitness Lineart Icons" xmlns="http://www.w3.org/2000/svg" viewBox="0 0 600 600"><path d="M333.43,411.93H132.53a3.61,3.61,0,0,1-3.62-3.61V350.93a3.62,3.62,0,0,1,3.62-3.61h200.9a3.61,3.61,0,0,1,3.61,3.61v57.39A3.61,3.61,0,0,1,333.43,411.93Zm-197.29-7.22H329.82V354.54H136.14Z"/><path d="M71.5,485.1a23,23,0,0,1-15.32-5.82L14.6,442.35a23.1,23.1,0,0,1-7.74-17.24v-91a23.08,23.08,0,0,1,7.74-17.24L56.18,280a23.06,23.06,0,0,1,30.63,0l41.58,36.94a23.09,23.09,0,0,1,7.75,17.24v91a23.11,23.11,0,0,1-7.75,17.24L86.81,479.28A23,23,0,0,1,71.5,485.1Zm0-203.72a15.82,15.82,0,0,0-10.52,4L19.4,322.31a15.85,15.85,0,0,0-5.32,11.84v91A15.87,15.87,0,0,0,19.4,437L61,473.88a15.84,15.84,0,0,0,21,0L123.59,437a15.87,15.87,0,0,0,5.32-11.84v-91a15.85,15.85,0,0,0-5.32-11.84L82,285.37A15.82,15.82,0,0,0,71.5,281.38Z"/><path d="M394.46,485.1a23,23,0,0,1-15.32-5.82l-41.58-36.93a23.1,23.1,0,0,1-7.74-17.24v-91a23.08,23.08,0,0,1,7.74-17.24L379.14,280a23.06,23.06,0,0,1,30.63,0l41.58,36.94a23.09,23.09,0,0,1,7.75,17.24v91a23.11,23.11,0,0,1-7.75,17.24l-41.58,36.93A23,23,0,0,1,394.46,485.1Zm0-203.72a15.82,15.82,0,0,0-10.52,4l-41.58,36.94A15.85,15.85,0,0,0,337,334.15v91A15.87,15.87,0,0,0,342.36,437l41.58,36.93a15.83,15.83,0,0,0,21,0L446.55,437a15.87,15.87,0,0,0,5.32-11.84v-91a15.85,15.85,0,0,0-5.32-11.84L405,285.37A15.78,15.78,0,0,0,394.46,281.38Z"/><path d="M45.33,345.7a3.6,3.6,0,0,1-3.61-3.61V313.33a3.61,3.61,0,0,1,7.22,0v28.76A3.61,3.61,0,0,1,45.33,345.7Z"/><path d="M45.33,442a3.61,3.61,0,0,1-3.61-3.61V362.13a3.61,3.61,0,0,1,7.22,0v76.26A3.61,3.61,0,0,1,45.33,442Z"/><path d="M367,345.7a3.61,3.61,0,0,1-3.61-3.61V313.33a3.62,3.62,0,0,1,7.23,0v28.76A3.61,3.61,0,0,1,367,345.7Z"/><path d="M367,442a3.61,3.61,0,0,1-3.61-3.61V362.13a3.62,3.62,0,0,1,7.23,0v76.26A3.62,3.62,0,0,1,367,442Z"/><path d="M467.47,252.68H266.57a3.61,3.61,0,0,1-3.61-3.61V191.68a3.61,3.61,0,0,1,3.61-3.61h200.9a3.61,3.61,0,0,1,3.62,3.61v57.39A3.62,3.62,0,0,1,467.47,252.68Zm-197.29-7.22H463.86V195.29H270.18Z"/><path d="M205.54,325.85A23,23,0,0,1,190.23,320l-41.58-36.94a23.08,23.08,0,0,1-7.75-17.24v-91a23.11,23.11,0,0,1,7.75-17.25l41.58-36.93a23.06,23.06,0,0,1,30.63,0l41.58,36.93a23.1,23.1,0,0,1,7.74,17.25v91a23.07,23.07,0,0,1-7.74,17.24L220.86,320A23,23,0,0,1,205.54,325.85Zm0-203.73a15.74,15.74,0,0,0-10.51,4l-41.58,36.93a15.87,15.87,0,0,0-5.32,11.85v91a15.85,15.85,0,0,0,5.32,11.84L195,314.63a15.83,15.83,0,0,0,21,0l41.58-36.94A15.85,15.85,0,0,0,263,265.85v-91a15.83,15.83,0,0,0-5.32-11.84l-41.58-36.94A15.78,15.78,0,0,0,205.54,122.12Z"/><path d="M528.5,325.85A23,23,0,0,1,513.19,320l-41.58-36.94a23.08,23.08,0,0,1-7.75-17.24v-91a23.11,23.11,0,0,1,7.75-17.25l41.58-36.93a23.06,23.06,0,0,1,30.63,0l41.58,36.93a23.1,23.1,0,0,1,7.74,17.25v91a23.07,23.07,0,0,1-7.74,17.24L543.82,320A23,23,0,0,1,528.5,325.85Zm0-203.73a15.78,15.78,0,0,0-10.52,4l-41.57,36.93a15.87,15.87,0,0,0-5.32,11.85v91a15.85,15.85,0,0,0,5.32,11.84L518,314.63a15.84,15.84,0,0,0,21,0l41.58-36.94a15.85,15.85,0,0,0,5.32-11.84v-91a15.83,15.83,0,0,0-5.32-11.84L539,126.12A15.78,15.78,0,0,0,528.5,122.12Z"/><path d="M179.37,186.45a3.61,3.61,0,0,1-3.61-3.61V154.08a3.62,3.62,0,0,1,7.23,0v28.76A3.62,3.62,0,0,1,179.37,186.45Z"/><path d="M179.37,282.74a3.61,3.61,0,0,1-3.61-3.61V202.88a3.62,3.62,0,0,1,7.23,0v76.25A3.61,3.61,0,0,1,179.37,282.74Z"/><path d="M501.07,186.45a3.61,3.61,0,0,1-3.61-3.61V154.08a3.61,3.61,0,1,1,7.22,0v28.76A3.61,3.61,0,0,1,501.07,186.45Z"/><path d="M501.07,282.74a3.61,3.61,0,0,1-3.61-3.61V202.88a3.61,3.61,0,0,1,7.22,0v76.25A3.61,3.61,0,0,1,501.07,282.74Z"/></svg>