<svg id="Fitness_Lineart_Icons" data-name="Fitness Lineart Icons" xmlns="http://www.w3.org/2000/svg" viewBox="0 0 600 600"><path d="M431.19,430.89H168.81a30,30,0,0,1,0-60H431.19a30,30,0,0,1,0,60ZM168.81,378.66a22.23,22.23,0,0,0,0,44.46H431.19a22.23,22.23,0,1,0,0-44.46Z"/><path d="M427.1,557.89H172.9A3.88,3.88,0,0,1,169,554V427.53a3.88,3.88,0,0,1,3.88-3.89H427.1a3.88,3.88,0,0,1,3.88,3.89V554A3.88,3.88,0,0,1,427.1,557.89Zm-250.31-7.77H423.21V431.41H176.79Z"/><path d="M427.1,557.89h-28a3.89,3.89,0,0,1-3.88-3.89V427.53a3.89,3.89,0,0,1,3.88-3.89h28a3.88,3.88,0,0,1,3.88,3.89V554A3.88,3.88,0,0,1,427.1,557.89ZM403,550.12h20.18V431.41H403Z"/><path d="M200.86,557.89h-28A3.88,3.88,0,0,1,169,554V427.53a3.88,3.88,0,0,1,3.88-3.89h28a3.89,3.89,0,0,1,3.88,3.89V554A3.89,3.89,0,0,1,200.86,557.89Zm-24.07-7.77H197V431.41H176.79Z"/><path d="M522.45,596.13H77.55a23,23,0,1,1,0-46h444.9a23,23,0,1,1,0,46ZM77.55,557.89a15.24,15.24,0,1,0,0,30.47h444.9a15.24,15.24,0,1,0,0-30.47Z"/><path d="M522.45,49.89H77.55a23,23,0,1,1,0-46h444.9a23,23,0,0,1,0,46ZM77.55,11.64a15.24,15.24,0,0,0,0,30.48h444.9a15.24,15.24,0,0,0,0-30.48Z"/><path d="M359.26,557.89H240.74a23,23,0,0,1,0-46H359.26a23,23,0,0,1,0,46ZM240.74,519.67a15.23,15.23,0,0,0,0,30.45H359.26a15.23,15.23,0,0,0,0-30.45Z"/><path d="M359.26,519.67H240.74a23,23,0,0,1,0-46H359.26a23,23,0,0,1,0,46ZM240.74,481.45a15.23,15.23,0,0,0,0,30.45H359.26a15.23,15.23,0,0,0,0-30.45Z"/><path d="M359.26,481.45H240.74a23,23,0,0,1,0-46H359.26a23,23,0,0,1,0,46ZM240.74,443.23a15.23,15.23,0,0,0,0,30.45H359.26a15.23,15.23,0,0,0,0-30.45Z"/><path d="M359.26,443.23H240.74a23.12,23.12,0,0,1-21.51-14.86,3.89,3.89,0,0,1,3.64-5.26H377.13a3.89,3.89,0,0,1,3.64,5.26,23.28,23.28,0,0,1-5.25,8.12A22.81,22.81,0,0,1,359.26,443.23ZM229.88,430.88a15.26,15.26,0,0,0,10.86,4.58H359.26A15.09,15.09,0,0,0,370,431l.12-.12Z"/><path d="M377,378.66H223.06a3.89,3.89,0,0,1-3.6-5.36A23,23,0,0,1,240.74,359H359.26a22.93,22.93,0,0,1,21.28,14.28,3.89,3.89,0,0,1-3.59,5.36Zm-146.6-7.77H369.66a15.15,15.15,0,0,0-10.4-4.1H240.74A15.11,15.11,0,0,0,230.35,370.89Z"/><path d="M359.26,366.79H240.74a23,23,0,0,1,0-46H359.26a23,23,0,1,1,0,46ZM240.74,328.57a15.23,15.23,0,0,0,0,30.45H359.26a15.23,15.23,0,0,0,15.22-15.22,15.25,15.25,0,0,0-15.22-15.23Z"/><path d="M541.56,195.9a14.94,14.94,0,0,1-7.95-2.29l-80.85-50.73H147.24L66.39,193.61a15,15,0,0,1-15.93-25.39l84.51-53,.37-.21c.21-.13.48-.28.76-.42s.34-.17.51-.25.55-.25.81-.35.42-.16.64-.24l.73-.23.74-.19.67-.14L141,113l.62-.07c.29,0,.6,0,.9,0l.38,0H457.07l.44,0,.82,0,.66.07.79.13.71.14.71.19q.38.1.75.24c.22.07.42.15.63.23s.53.22.79.34l.54.26c.27.14.54.29.8.45a2.44,2.44,0,0,1,.33.19l84.5,53a15,15,0,0,1-8,27.68ZM146.12,135.11H453.88a3.86,3.86,0,0,1,2.06.6L537.74,187a7.22,7.22,0,0,0,10.87-7.72,7.19,7.19,0,0,0-3.2-4.5l-84.44-53-.24-.14-.37-.21-.26-.12-.39-.17-.3-.11-.35-.11-.34-.09-.34-.07-.38-.06-.32,0h-.41l-.28,0H142.73l-.41,0a2.53,2.53,0,0,0-.3,0l-.41.06-.32.07-.36.09-.34.11-.3.11-.38.17-.26.12-.39.22-.23.13-84.44,53a7.22,7.22,0,0,0,3.85,13.33A7.11,7.11,0,0,0,62.26,187l81.8-51.31A3.86,3.86,0,0,1,146.12,135.11Z"/><path d="M334.32,328.57H265.68a3.89,3.89,0,0,1-3.89-3.88,38.14,38.14,0,0,1,29-37.1,38.73,38.73,0,0,1,18.38,0,38.12,38.12,0,0,1,29,37.09A3.89,3.89,0,0,1,334.32,328.57Zm-64.51-7.77h60.38a30.34,30.34,0,0,0-22.86-25.66,30.76,30.76,0,0,0-14.65,0A30.34,30.34,0,0,0,269.81,320.8Z"/><path d="M308.32,120.68H291.68a3.89,3.89,0,0,1-3.89-3.88V46a3.89,3.89,0,0,1,3.89-3.88h16.64A3.89,3.89,0,0,1,312.21,46v70.8A3.89,3.89,0,0,1,308.32,120.68Zm-12.76-7.77h8.88v-63h-8.88Z"/><path d="M308.26,295.25a4.31,4.31,0,0,1-.94-.11,30.72,30.72,0,0,0-14.64,0,3.89,3.89,0,0,1-4.79-3.26,10.94,10.94,0,0,1-.1-1.51V139a3.89,3.89,0,0,1,3.89-3.89h16.64a3.89,3.89,0,0,1,3.89,3.89V290.37a10.94,10.94,0,0,1-.1,1.51,3.89,3.89,0,0,1-3.85,3.37ZM300,286.48a38.62,38.62,0,0,1,4.44.26V142.88h-8.88V286.74A38.62,38.62,0,0,1,300,286.48Z"/><path d="M510.71,152.33a3.83,3.83,0,0,1-2.06-.6L473,129.4a3.86,3.86,0,0,1-1.82-3.29V46a3.88,3.88,0,0,1,3.88-3.88h35.61A3.89,3.89,0,0,1,514.6,46V148.44a3.87,3.87,0,0,1-2,3.4A3.8,3.8,0,0,1,510.71,152.33ZM479,124l27.84,17.46V49.89H479Z"/><path d="M510.71,557.89H475.1a3.89,3.89,0,0,1-3.88-3.89V152.32a3.86,3.86,0,0,1,2-3.4,3.91,3.91,0,0,1,3.95.11l35.6,22.33a3.87,3.87,0,0,1,1.83,3.29V554A3.89,3.89,0,0,1,510.71,557.89ZM479,550.12h27.84V176.8L479,159.34Z"/><path d="M89.29,152.33a3.82,3.82,0,0,1-1.88-.49,3.87,3.87,0,0,1-2-3.4V46a3.89,3.89,0,0,1,3.89-3.88H124.9A3.88,3.88,0,0,1,128.78,46v80.11A3.86,3.86,0,0,1,127,129.4L91.35,151.73A3.83,3.83,0,0,1,89.29,152.33ZM93.17,49.89v91.53L121,124V49.89Z"/><path d="M124.9,557.89H89.29A3.89,3.89,0,0,1,85.4,554V174.65a3.87,3.87,0,0,1,1.83-3.29L122.83,149a3.88,3.88,0,0,1,6,3.29V554A3.89,3.89,0,0,1,124.9,557.89Zm-31.73-7.77H121V159.34L93.17,176.8Z"/><path d="M172.9,420.43h-.18c-15.93-.76-19.69-12.16-19.46-18.08a3.89,3.89,0,0,1,7.77.28c0,1.59.42,9.48,12.05,10a3.88,3.88,0,0,1-.18,7.76Z"/></svg>