<svg id="Fitness_Lineart_Icons" data-name="Fitness Lineart Icons" xmlns="http://www.w3.org/2000/svg" viewBox="0 0 600 600"><path d="M363.33,490.68H236.67a49.87,49.87,0,0,1-49.82-49.82V159.14a49.87,49.87,0,0,1,49.82-49.82H363.33a49.87,49.87,0,0,1,49.82,49.82V440.86A49.87,49.87,0,0,1,363.33,490.68ZM236.67,117.44A41.75,41.75,0,0,0,195,159.14V440.86a41.75,41.75,0,0,0,41.71,41.7H363.33A41.75,41.75,0,0,0,405,440.86V159.14a41.75,41.75,0,0,0-41.71-41.7Z"/><path d="M363.33,470.35H236.67a29.52,29.52,0,0,1-29.49-29.49V159.14a29.52,29.52,0,0,1,29.49-29.49H363.33a29.52,29.52,0,0,1,29.49,29.49V440.86A29.52,29.52,0,0,1,363.33,470.35ZM236.67,137.77a21.39,21.39,0,0,0-21.38,21.37V440.86a21.39,21.39,0,0,0,21.38,21.37H363.33a21.39,21.39,0,0,0,21.38-21.37V159.14a21.39,21.39,0,0,0-21.38-21.37Z"/><path d="M277.66,360.7h-.25a4.06,4.06,0,0,1-3.72-3.2l-19.24-89.91-12.09,33.79a4.07,4.07,0,0,1-3.83,2.69h-27.3a4.06,4.06,0,0,1,0-8.12h24.45l15.94-44.53a4.06,4.06,0,0,1,7.79.52l19.17,89.6,17.58-50.95a4.06,4.06,0,0,1,7.35-.71l15.29,26.29,25-94.85a4.06,4.06,0,0,1,3.92-3h0a4.07,4.07,0,0,1,3.93,3l20,74.64h17.18a4.06,4.06,0,0,1,0,8.12H368.48a4.06,4.06,0,0,1-3.92-3l-16.82-62.88-23.58,89.55a4.06,4.06,0,0,1-7.44,1L301,301.61,281.5,358A4.07,4.07,0,0,1,277.66,360.7Z"/><path d="M265.58,178.34H230.8a4.06,4.06,0,0,1,0-8.12h34.78a4.06,4.06,0,1,1,0,8.12Z"/><path d="M336,595.71h-71.9a27.14,27.14,0,0,1-25.84-19.24L209.82,481.6a4.06,4.06,0,0,1,5.93-4.67,41.65,41.65,0,0,0,20.91,5.63H363.33a41.32,41.32,0,0,0,20.88-5.63,4.06,4.06,0,0,1,5.94,4.67L361.8,576.46A27.15,27.15,0,0,1,336,595.71ZM220.17,487.86,246,574.14a19,19,0,0,0,18.07,13.46H336A19,19,0,0,0,354,574.14l25.78-86.26a49.8,49.8,0,0,1-16.47,2.79H236.66A49.56,49.56,0,0,1,220.17,487.86Z"/><path d="M363.33,490.68H236.67a49.87,49.87,0,0,1-49.82-49.82V159.14a49.87,49.87,0,0,1,49.82-49.82H363.33a49.87,49.87,0,0,1,49.82,49.82V440.86A49.87,49.87,0,0,1,363.33,490.68ZM236.67,117.44A41.75,41.75,0,0,0,195,159.14V440.86a41.75,41.75,0,0,0,41.71,41.7H363.33A41.75,41.75,0,0,0,405,440.86V159.14a41.75,41.75,0,0,0-41.71-41.7Z"/><path d="M284.06,518.9H260.51a4.06,4.06,0,0,1,0-8.12h23.55a4.06,4.06,0,0,1,0,8.12Z"/><path d="M347.1,518.9H306.16a4.06,4.06,0,0,1,0-8.12H347.1a4.06,4.06,0,0,1,0,8.12Z"/><path d="M213.71,123.62a4,4,0,0,1-3.89-5.22l28.35-94.86A27.13,27.13,0,0,1,264,4.29h71.91a27.15,27.15,0,0,1,25.84,19.24l28.39,94.87a4.06,4.06,0,0,1-5.93,4.67,41.7,41.7,0,0,0-20.91-5.63H236.64a41.32,41.32,0,0,0-20.88,5.63A4.07,4.07,0,0,1,213.71,123.62Zm22.93-14.29H363.31a49.64,49.64,0,0,1,16.49,2.81L354,25.86A19,19,0,0,0,335.92,12.4H264A19,19,0,0,0,246,25.86l-25.78,86.26A49.8,49.8,0,0,1,236.64,109.33Z"/><path d="M241.82,97a4.19,4.19,0,0,1-1-.12,4.05,4.05,0,0,1-3-4.92l9.64-38.59a4.06,4.06,0,0,1,7.88,2L245.75,93.9A4.05,4.05,0,0,1,241.82,97Z"/><path d="M255.32,44.89a4.65,4.65,0,0,1-1-.11,4.06,4.06,0,0,1-3-4.92l3.85-15.71a4.06,4.06,0,0,1,7.89,1.94L259.26,41.8A4.05,4.05,0,0,1,255.32,44.89Z"/></svg>