<svg id="Fitness_Lineart_Icons" data-name="Fitness Lineart Icons" xmlns="http://www.w3.org/2000/svg" viewBox="0 0 600 600"><path d="M300,594.43A294.43,294.43,0,0,1,91.81,91.81,294.43,294.43,0,1,1,508.19,508.19,292.51,292.51,0,0,1,300,594.43Zm0-580.78C142.11,13.65,13.66,142.11,13.66,300S142.11,586.35,300,586.35,586.34,457.89,586.34,300,457.89,13.65,300,13.65Z"/><path d="M300,537.22C169.2,537.22,62.78,430.8,62.78,300S169.2,62.78,300,62.78,537.22,169.2,537.22,300,430.8,537.22,300,537.22Zm0-466.35C173.66,70.87,70.87,173.66,70.87,300S173.66,529.13,300,529.13,529.13,426.34,529.13,300,426.34,70.87,300,70.87Z"/><path d="M342.53,243.8a4.08,4.08,0,0,1-2.33-.74,69.65,69.65,0,0,0-80.4,0,4,4,0,0,1-5.19-.45l-35.43-35.43a4,4,0,1,1,5.71-5.72L258,234.54a77.8,77.8,0,0,1,84.06,0l33.08-33.08a4,4,0,1,1,5.71,5.72l-35.43,35.43A4,4,0,0,1,342.53,243.8Z"/><path d="M204.32,382a4,4,0,0,1-2.86-6.9L234.54,342a77.8,77.8,0,0,1,0-84.06l-33.08-33.08a4,4,0,1,1,5.72-5.71l35.43,35.43a4,4,0,0,1,.45,5.19,69.65,69.65,0,0,0,0,80.4,4,4,0,0,1-.45,5.19l-35.43,35.43A4,4,0,0,1,204.32,382Z"/><path d="M378,399.72a4,4,0,0,1-2.86-1.18L342,365.46a77.8,77.8,0,0,1-84.06,0l-33.08,33.08a4,4,0,0,1-5.71-5.72l35.43-35.43a4,4,0,0,1,5.19-.45,69.65,69.65,0,0,0,80.4,0,4,4,0,0,1,5.19.45l35.43,35.43a4,4,0,0,1,0,5.72A4,4,0,0,1,378,399.72Z"/><path d="M395.68,382a4,4,0,0,1-2.86-1.19l-35.43-35.43a4,4,0,0,1-.45-5.19,69.65,69.65,0,0,0,0-80.4,4,4,0,0,1,.45-5.19l35.43-35.43a4,4,0,0,1,5.72,5.71L365.46,258a77.8,77.8,0,0,1,0,84.06l33.08,33.08a4,4,0,0,1-2.86,6.9Z"/><path d="M300,349.5A49.47,49.47,0,1,1,335,335,49.4,49.4,0,0,1,300,349.5Zm0-90.94a41.45,41.45,0,1,0,29.3,12.14h0A41.16,41.16,0,0,0,300,258.56Z"/><path d="M111.35,390.77a4,4,0,0,1-3.67-2.35A209.84,209.84,0,0,1,88.38,300a4,4,0,1,1,8.08,0A201.83,201.83,0,0,0,115,385a4,4,0,0,1-3.67,5.73Z"/><path d="M98.8,252.77a3.87,3.87,0,0,1-1-.13,4,4,0,0,1-2.92-4.91,212.8,212.8,0,0,1,73.58-113.52,4,4,0,0,1,5,6.33,204.64,204.64,0,0,0-70.77,109.18A4.05,4.05,0,0,1,98.8,252.77Z"/><path d="M294.39,567.37a4,4,0,0,1,0-8.09,265.08,265.08,0,0,0,170.47-62.13,4,4,0,1,1,5.21,6.18A273.19,273.19,0,0,1,294.39,567.37Z"/><path d="M500.59,471.09a4,4,0,0,1-2.59-.95,4,4,0,0,1-.51-5.69,263.73,263.73,0,0,0,46.77-81.89,4,4,0,1,1,7.62,2.69,271.67,271.67,0,0,1-48.19,84.39A4,4,0,0,1,500.59,471.09Z"/><path d="M270.24,296.91a3.77,3.77,0,0,1-.94-.11,4,4,0,0,1-3-4.87,34.25,34.25,0,0,1,6.08-12.86,4,4,0,0,1,6.44,4.89,26.15,26.15,0,0,0-4.66,9.85A4,4,0,0,1,270.24,296.91Z"/><path d="M280,327.24a4,4,0,0,1-2.63-1,34.57,34.57,0,0,1-10.48-15.92,4,4,0,0,1,7.72-2.41,26.51,26.51,0,0,0,8,12.2,4,4,0,0,1-2.64,7.11Z"/></svg>