<svg id="Fitness_Lineart_Icons" data-name="Fitness Lineart Icons" xmlns="http://www.w3.org/2000/svg" viewBox="0 0 600 600"><path d="M385.35,450.81H214.65a3.76,3.76,0,0,1-3.77-3.76V418.6a3.76,3.76,0,0,1,3.77-3.76h170.7a3.76,3.76,0,0,1,3.77,3.76v28.45A3.76,3.76,0,0,1,385.35,450.81Zm-166.94-7.52H381.59V422.36H218.41Z"/><path d="M214.65,479.26H191.22a3.76,3.76,0,0,1-3.77-3.76V390.15a3.77,3.77,0,0,1,3.77-3.77h23.43a3.77,3.77,0,0,1,3.76,3.77V475.5A3.76,3.76,0,0,1,214.65,479.26ZM195,471.74h15.9V393.91H195Z"/><path d="M408.78,479.26H385.35a3.76,3.76,0,0,1-3.76-3.76V390.15a3.77,3.77,0,0,1,3.76-3.77h23.43a3.77,3.77,0,0,1,3.77,3.77V475.5A3.76,3.76,0,0,1,408.78,479.26Zm-19.66-7.52H405V393.91h-15.9Z"/><path d="M439.75,525.28A34.76,34.76,0,0,1,405,490.56V375.08a34.73,34.73,0,0,1,69.45,0V490.56A34.76,34.76,0,0,1,439.75,525.28Zm0-177.4a27.23,27.23,0,0,0-27.2,27.2V490.56a27.2,27.2,0,0,0,54.4,0V375.08A27.24,27.24,0,0,0,439.75,347.88Z"/><path d="M489.28,489.79A22.36,22.36,0,0,1,467,467.46V398.19a22.33,22.33,0,0,1,44.66,0v69.27A22.36,22.36,0,0,1,489.28,489.79Zm0-106.41a14.82,14.82,0,0,0-14.81,14.81v69.27a14.81,14.81,0,0,0,29.62,0V398.19A14.82,14.82,0,0,0,489.28,383.38Z"/><path d="M110.72,489.79a22.36,22.36,0,0,1-22.33-22.33V398.19a22.33,22.33,0,0,1,44.66,0v69.27A22.36,22.36,0,0,1,110.72,489.79Zm0-106.41a14.82,14.82,0,0,0-14.81,14.81v69.27a14.81,14.81,0,1,0,29.62,0V398.19A14.82,14.82,0,0,0,110.72,383.38Z"/><path d="M160.25,525.28a34.76,34.76,0,0,1-34.72-34.72V375.08a34.73,34.73,0,0,1,69.45,0V490.56A34.76,34.76,0,0,1,160.25,525.28Zm0-177.4a27.24,27.24,0,0,0-27.2,27.2V490.56a27.2,27.2,0,0,0,54.4,0V375.08A27.23,27.23,0,0,0,160.25,347.88Z"/><path d="M143.2,498.15a3.77,3.77,0,0,1-3.77-3.76V392.26A24.79,24.79,0,0,1,164.2,367.5a3.76,3.76,0,1,1,0,7.52A17.25,17.25,0,0,0,147,392.26V494.39A3.77,3.77,0,0,1,143.2,498.15Z"/><path d="M424.88,498.15a3.76,3.76,0,0,1-3.76-3.76V392.26a24.78,24.78,0,0,1,24.76-24.76,3.76,3.76,0,0,1,0,7.52,17.25,17.25,0,0,0-17.24,17.24V494.39A3.77,3.77,0,0,1,424.88,498.15Z"/><path d="M104.09,466.65a3.77,3.77,0,0,1-3.76-3.76V413a14,14,0,0,1,14-14,3.76,3.76,0,1,1,0,7.52,6.5,6.5,0,0,0-6.49,6.49v49.88A3.77,3.77,0,0,1,104.09,466.65Z"/><path d="M484.15,466.65a3.76,3.76,0,0,1-3.76-3.76V413a14,14,0,0,1,14-14,3.76,3.76,0,1,1,0,7.52,6.5,6.5,0,0,0-6.5,6.49v49.88A3.76,3.76,0,0,1,484.15,466.65Z"/><path d="M370.37,275.1H229.63a3.76,3.76,0,0,1-3.76-3.76V247.89a3.76,3.76,0,0,1,3.76-3.77H370.37a3.76,3.76,0,0,1,3.76,3.77v23.45A3.76,3.76,0,0,1,370.37,275.1Zm-137-7.52H366.61V251.65H233.39Z"/><path d="M229.63,298.56H210.32a3.77,3.77,0,0,1-3.77-3.76V224.43a3.76,3.76,0,0,1,3.77-3.76h19.31a3.76,3.76,0,0,1,3.76,3.76V294.8A3.76,3.76,0,0,1,229.63,298.56ZM214.08,291h11.79V228.19H214.08Z"/><path d="M389.68,298.56H370.37a3.76,3.76,0,0,1-3.76-3.76V224.43a3.76,3.76,0,0,1,3.76-3.76h19.31a3.76,3.76,0,0,1,3.77,3.76V294.8A3.77,3.77,0,0,1,389.68,298.56ZM374.13,291h11.79V228.19H374.13Z"/><path d="M415.21,336.5a29.32,29.32,0,0,1-29.29-29.28V212a29.29,29.29,0,0,1,58.58,0v95.21A29.32,29.32,0,0,1,415.21,336.5Zm0-146.25A21.78,21.78,0,0,0,393.45,212v95.21a21.77,21.77,0,0,0,43.53,0V212A21.79,21.79,0,0,0,415.21,190.25Z"/><path d="M456.05,307.24A19.09,19.09,0,0,1,437,288.17V231.06a19.07,19.07,0,0,1,38.14,0v57.11A19.1,19.1,0,0,1,456.05,307.24Zm0-87.73a11.56,11.56,0,0,0-11.55,11.55v57.11a11.55,11.55,0,0,0,23.1,0V231.06A11.56,11.56,0,0,0,456.05,219.51Z"/><path d="M144,307.24a19.1,19.1,0,0,1-19.07-19.07V231.06a19.07,19.07,0,0,1,38.14,0v57.11A19.09,19.09,0,0,1,144,307.24Zm0-87.73a11.56,11.56,0,0,0-11.55,11.55v57.11a11.55,11.55,0,0,0,23.1,0V231.06A11.56,11.56,0,0,0,144,219.51Z"/><path d="M184.79,336.5a29.32,29.32,0,0,1-29.29-29.28V212a29.29,29.29,0,0,1,58.58,0v95.21A29.32,29.32,0,0,1,184.79,336.5Zm0-146.25A21.79,21.79,0,0,0,163,212v95.21a21.77,21.77,0,0,0,43.53,0V212A21.78,21.78,0,0,0,184.79,190.25Z"/><path d="M170.73,314.13a3.76,3.76,0,0,1-3.77-3.76v-84.2A21.1,21.1,0,0,1,188,205.1a3.76,3.76,0,1,1,0,7.52,13.57,13.57,0,0,0-13.55,13.55v84.2A3.76,3.76,0,0,1,170.73,314.13Z"/><path d="M403,314.13a3.76,3.76,0,0,1-3.76-3.76v-84.2a21.1,21.1,0,0,1,21.08-21.07,3.76,3.76,0,0,1,0,7.52,13.57,13.57,0,0,0-13.56,13.55v84.2A3.76,3.76,0,0,1,403,314.13Z"/><path d="M138.49,288.16a3.76,3.76,0,0,1-3.76-3.76V243.28a12.23,12.23,0,0,1,12.21-12.21,3.76,3.76,0,1,1,0,7.52,4.7,4.7,0,0,0-4.69,4.69V284.4A3.76,3.76,0,0,1,138.49,288.16Z"/><path d="M451.82,288.16a3.76,3.76,0,0,1-3.76-3.76V243.28a12.23,12.23,0,0,1,12.22-12.21,3.76,3.76,0,0,1,0,7.52,4.7,4.7,0,0,0-4.7,4.69V284.4A3.76,3.76,0,0,1,451.82,288.16Z"/><path d="M323.87,99.39H285.31a3.76,3.76,0,0,1-3.76-3.76V7.12a3.76,3.76,0,0,1,3.76-3.76h38.56a3.76,3.76,0,0,1,3.76,3.76V95.63A3.76,3.76,0,0,1,323.87,99.39Zm-34.79-7.52h31v-81h-31Z"/><path d="M323.87,251.65H285.31a3.77,3.77,0,0,1-3.76-3.76V126.44a3.77,3.77,0,0,1,4.68-3.65,33.63,33.63,0,0,0,8.24,1h20.24a33.57,33.57,0,0,0,8.24-1,3.77,3.77,0,0,1,4.68,3.65V247.89A3.76,3.76,0,0,1,323.87,251.65Zm-34.79-7.53h31V131a42.1,42.1,0,0,1-5.4.35H294.47a41.82,41.82,0,0,1-5.39-.35Z"/><path d="M323.87,422.36H285.31a3.77,3.77,0,0,1-3.76-3.76V302.15a3.77,3.77,0,0,1,4.65-3.66,35.32,35.32,0,0,0,8.27,1h20.24a35.4,35.4,0,0,0,8.28-1,3.75,3.75,0,0,1,4.64,3.66V418.6A3.76,3.76,0,0,1,323.87,422.36Zm-34.79-7.52h31V306.65a44,44,0,0,1-5.4.33H294.47a43.7,43.7,0,0,1-5.39-.33Z"/><path d="M323.87,568.59H285.31a3.77,3.77,0,0,1-3.76-3.77v-87a3.76,3.76,0,0,1,4.84-3.6,28.45,28.45,0,0,0,8.08,1.17h20.24a28.4,28.4,0,0,0,8.08-1.17,3.75,3.75,0,0,1,4.84,3.6v87A3.76,3.76,0,0,1,323.87,568.59Zm-34.79-7.53h31V482.55a36,36,0,0,1-5.4.4H294.47a35.72,35.72,0,0,1-5.39-.4Z"/><path d="M314.72,307.24H294.47a35.93,35.93,0,0,1-35.89-35.9,3.76,3.76,0,0,1,3.76-3.76h84.52a3.76,3.76,0,0,1,3.76,3.76A35.94,35.94,0,0,1,314.72,307.24ZM266.35,275.1a28.41,28.41,0,0,0,28.12,24.62h20.25a28.43,28.43,0,0,0,28.13-24.62Z"/><path d="M314.72,483H294.47a35.94,35.94,0,0,1-35.89-35.9,3.76,3.76,0,0,1,3.76-3.76h84.52a3.76,3.76,0,0,1,3.76,3.76A36,36,0,0,1,314.72,483Zm-48.37-32.14a28.41,28.41,0,0,0,28.12,24.61h20.25a28.43,28.43,0,0,0,28.13-24.61Z"/><path d="M314.72,131.53H294.47a35.93,35.93,0,0,1-35.89-35.89,3.76,3.76,0,0,1,3.76-3.77h84.52a3.77,3.77,0,0,1,3.76,3.77A35.94,35.94,0,0,1,314.72,131.53ZM266.35,99.4A28.41,28.41,0,0,0,294.47,124h20.25A28.43,28.43,0,0,0,342.85,99.4Z"/><path d="M489.28,596.64H119.91a3.76,3.76,0,0,1-3.76-3.76A31.86,31.86,0,0,1,148,561.06H461.22A31.86,31.86,0,0,1,493,592.88,3.76,3.76,0,0,1,489.28,596.64ZM124,589.12H485.23a24.34,24.34,0,0,0-24-20.54H148A24.35,24.35,0,0,0,124,589.12Z"/></svg>