<svg id="Fitness_Lineart_Icons" data-name="Fitness Lineart Icons" xmlns="http://www.w3.org/2000/svg" viewBox="0 0 600 600"><path d="M492.93,417.84a84.46,84.46,0,0,1-14.64-1.29l-97.88-17.27a83.35,83.35,0,0,1-67.53-96.45l10.29-58.29a29.55,29.55,0,0,1,30.28-24.39l4.68-26.52a68.85,68.85,0,0,1,79.76-55.84l86.87,15.33a83.24,83.24,0,0,1,67.52,96.45L574.74,349a83.32,83.32,0,0,1-81.81,68.82ZM352.24,228a21.68,21.68,0,0,0-21.3,17.89l-10.29,58.3a75.45,75.45,0,0,0,61.13,87.3l97.88,17.27A75.35,75.35,0,0,0,567,347.65l17.54-99.46,3.89.69-3.89-.69a75.35,75.35,0,0,0-61.12-87.3l-86.87-15.32A61,61,0,0,0,365.9,195l-5.31,30.15a4,4,0,0,1-4.57,3.2A22.11,22.11,0,0,0,352.24,228Z"/><path d="M501,279.61a36.41,36.41,0,0,1-6.3-.55l-66.22-11.68a3.95,3.95,0,0,1,1.37-7.78L496,271.28a27.93,27.93,0,0,0,32.37-22.65l4.79-27.18a3.94,3.94,0,1,1,7.77,1.37L536.16,250A35.85,35.85,0,0,1,501,279.61Z"/><path d="M573.48,260.26a4.2,4.2,0,0,1-.69-.06l-41.15-7.26a3.95,3.95,0,1,1,1.37-7.78l41.16,7.26a4,4,0,0,1-.69,7.84Z"/><path d="M409.31,289.91a22.87,22.87,0,0,1-4-.36l-49.41-8.71a3.95,3.95,0,0,1,1.37-7.78l49.41,8.72A15,15,0,0,0,424,269.61l2.4-13.61a15,15,0,0,0-12.16-17.38L352.92,227.8a18.5,18.5,0,0,0-21.43,15l-5.09,28.83a3.94,3.94,0,1,1-7.77-1.37l5.09-28.83A26.38,26.38,0,0,1,354.29,220l61.35,10.82a22.91,22.91,0,0,1,18.56,26.52L431.8,271a22.91,22.91,0,0,1-22.49,18.92Z"/><path d="M468.7,545.54a28.38,28.38,0,0,1-5-.44l-113.58-20a28.67,28.67,0,0,1-23.25-33.21l10.77-61.08A28.53,28.53,0,0,1,341.93,420a19.15,19.15,0,0,1-4.46-16l1.68-9.49a19.2,19.2,0,0,1,11.06-14.2,3.93,3.93,0,0,1,3.76.29,74.94,74.94,0,0,0,27.81,10.9l97.88,17.26a74.66,74.66,0,0,0,29.86-.73,4,4,0,0,1,3.63,1,19.2,19.2,0,0,1,5.54,17.13h0L517,435.69a19.1,19.1,0,0,1-9.65,13.5,28.8,28.8,0,0,1,.33,11.59l-10.78,61.08A28.71,28.71,0,0,1,468.7,545.54Zm-117-157a11.29,11.29,0,0,0-4.78,7.39l-1.67,9.49a11.28,11.28,0,0,0,4.34,11,3.94,3.94,0,0,1,.6,5.74,20.75,20.75,0,0,0-4.77,10l-10.77,61.08a20.75,20.75,0,0,0,16.85,24l113.58,20a20.78,20.78,0,0,0,24.06-16.84l10.78-61.08a20.75,20.75,0,0,0-1.06-11,4,4,0,0,1,2.53-5.19,11.27,11.27,0,0,0,7.85-8.86l1.68-9.49a11.32,11.32,0,0,0-2-8.58,82.77,82.77,0,0,1-30.67.3l-97.88-17.26A82.75,82.75,0,0,1,351.7,388.51Zm163.1,37h0Z"/><path d="M502.55,450.9a4,4,0,0,1-.69-.06l-47.72-8.41a3.95,3.95,0,0,1,1.37-7.78l47.72,8.42a3.94,3.94,0,0,1-.68,7.83Z"/><path d="M432.67,438.58a4,4,0,0,1-.69-.06l-40.63-7.17a3.94,3.94,0,1,1,1.37-7.77l40.63,7.16a4,4,0,0,1-.68,7.84Z"/><path d="M362.56,487.48a4,4,0,0,1-.69-.06l-29.29-5.16a3.95,3.95,0,0,1,1.37-7.78l29.29,5.17a3.94,3.94,0,0,1-.68,7.83Z"/><path d="M494,519.38a4,4,0,0,1-.69-.06L435.44,509.1A27.52,27.52,0,0,1,445,454.9l57.92,10.21a4,4,0,0,1,3.2,4.57l-8.19,46.44a4,4,0,0,1-3.89,3.26Zm-53.86-57a19.63,19.63,0,0,0-3.37,39l54,9.53,6.82-38.66-54-9.53A20.12,20.12,0,0,0,440.18,462.36Z"/><path d="M548.45,322a4.2,4.2,0,0,1-.69-.06,4,4,0,0,1-3.2-4.57l5.73-32.47a3.95,3.95,0,1,1,7.77,1.38l-5.72,32.46A4,4,0,0,1,548.45,322Z"/><path d="M513.1,391.07a3.95,3.95,0,0,1-1.72-7.5c26.45-12.81,30.64-51.59,30.68-52a3.94,3.94,0,0,1,7.85.78c-.17,1.77-4.63,43.55-35.09,58.31A4,4,0,0,1,513.1,391.07Z"/><path d="M113,339.32a83.32,83.32,0,0,1-80.83-64L8.71,177.09A83.34,83.34,0,0,1,70.39,76.81L156.2,56.36a68.85,68.85,0,0,1,82.93,51l6.24,26.19a29.56,29.56,0,0,1,31.68,22.55l13.73,57.59A83.27,83.27,0,0,1,229.09,314L132.4,337A83.83,83.83,0,0,1,113,339.32Zm59.32-277A61.23,61.23,0,0,0,158,64L72.22,84.49a75.44,75.44,0,0,0-55.84,90.77l23.41,98.25a75.38,75.38,0,0,0,90.78,55.83l96.69-23a75.35,75.35,0,0,0,55.84-90.77l-13.72-57.59a21.66,21.66,0,0,0-26.08-16,3.9,3.9,0,0,1-3-.48,4,4,0,0,1-1.77-2.44l-7.1-29.78a61,61,0,0,0-59.18-46.85Z"/><path d="M99.61,201.72A35.88,35.88,0,0,1,64.76,174.2l-6.4-26.85A3.95,3.95,0,0,1,66,145.52l6.39,26.85a28,28,0,0,0,33.65,20.7l65.42-15.59a3.94,3.94,0,1,1,1.83,7.67l-65.42,15.59A35.36,35.36,0,0,1,99.61,201.72Z"/><path d="M27.87,186.66a3.95,3.95,0,0,1-.91-7.79l40.66-9.69a3.95,3.95,0,0,1,1.83,7.68l-40.66,9.69A4.13,4.13,0,0,1,27.87,186.66Z"/><path d="M192.4,206.55A22.9,22.9,0,0,1,170.18,189L167,175.51a22.93,22.93,0,0,1,17-27.58l60.6-14.44A26.43,26.43,0,0,1,276.32,153l6.78,28.48a3.94,3.94,0,1,1-7.67,1.83l-6.79-28.48a18.52,18.52,0,0,0-22.28-13.7l-60.6,14.44a15,15,0,0,0-11.11,18.07l3.2,13.45a15,15,0,0,0,18.07,11.11l48.81-11.63a3.95,3.95,0,0,1,1.83,7.68l-48.81,11.63A23.2,23.2,0,0,1,192.4,206.55Z"/><path d="M147.88,465.27a28.66,28.66,0,0,1-27.82-22l-14.38-60.33a28.68,28.68,0,0,1-.36-11.59,19.16,19.16,0,0,1-10.44-12.9l-2.23-9.38a19.21,19.21,0,0,1,4.51-17.43,4,4,0,0,1,3.56-1.23,74.93,74.93,0,0,0,29.85-1l96.69-23a74.73,74.73,0,0,0,27.11-12.53,4,4,0,0,1,3.74-.51A19.18,19.18,0,0,1,270,306.79l2.24,9.37a19.13,19.13,0,0,1-3.5,16.23,28.68,28.68,0,0,1,4.91,10.5L288,403.22a28.66,28.66,0,0,1-21.23,34.53l-112.2,26.73A28.86,28.86,0,0,1,147.88,465.27ZM101.77,338.54a11.28,11.28,0,0,0-1.44,8.68h0l2.23,9.38a11.29,11.29,0,0,0,8.36,8.38,3.94,3.94,0,0,1,2.83,5,20.74,20.74,0,0,0-.39,11.08l14.37,60.33a20.77,20.77,0,0,0,25,15.39L265,430.07a20.78,20.78,0,0,0,15.39-25L266,344.72a20.79,20.79,0,0,0-5.35-9.71,3.95,3.95,0,0,1,.26-5.76A11.3,11.3,0,0,0,264.55,318l-2.23-9.37a11.34,11.34,0,0,0-5.21-7.1,82.54,82.54,0,0,1-28,12.46L132.4,337A82.61,82.61,0,0,1,101.77,338.54Z"/><path d="M110,372.76a3.94,3.94,0,0,1-.91-7.78l47.14-11.24a3.95,3.95,0,0,1,1.83,7.68l-47.14,11.23A3.67,3.67,0,0,1,110,372.76Z"/><path d="M179,356.31a3.94,3.94,0,0,1-.91-7.78L218.24,339a3.95,3.95,0,1,1,1.83,7.68l-40.13,9.56A3.67,3.67,0,0,1,179,356.31Z"/><path d="M251.91,401a3.94,3.94,0,0,1-.92-7.78l28.93-6.9a3.95,3.95,0,1,1,1.83,7.68l-28.93,6.89A3.54,3.54,0,0,1,251.91,401Z"/><path d="M122.54,440.61a4,4,0,0,1-3.83-3l-10.93-45.87A3.93,3.93,0,0,1,110.7,387l57.21-13.63a27.52,27.52,0,1,1,12.76,53.54L123.46,440.5A3.67,3.67,0,0,1,122.54,440.61Zm-6.17-46.89,9.1,38.19,53.37-12.71a19.63,19.63,0,0,0-9.1-38.2Z"/><path d="M259.55,198.16a4,4,0,0,1-3.84-3l-7.64-32.06a3.95,3.95,0,1,1,7.68-1.83l7.64,32.06a4,4,0,0,1-2.93,4.76A4,4,0,0,1,259.55,198.16Z"/><path d="M254.56,275.63a3.88,3.88,0,0,1-2.57-1,3.94,3.94,0,0,1-.42-5.56c19.19-22.27,7.63-59.52,7.51-59.89a3.95,3.95,0,0,1,7.52-2.4c.54,1.69,13,41.8-9.05,67.44A3.92,3.92,0,0,1,254.56,275.63Z"/></svg>