<svg id="Fitness_Lineart_Icons" data-name="Fitness Lineart Icons" xmlns="http://www.w3.org/2000/svg" viewBox="0 0 600 600"><path d="M310.34,596.14a94.9,94.9,0,0,1-94.8-94.79V286.86a94.8,94.8,0,1,1,189.59,0V501.35A94.89,94.89,0,0,1,310.34,596.14Zm0-396.54a87.35,87.35,0,0,0-87.26,87.26V501.35a87.26,87.26,0,0,0,174.51,0V286.86A87.35,87.35,0,0,0,310.34,199.6Z"/><path d="M401.36,492.05h-182a3.77,3.77,0,0,1-3.77-3.77V299a3.77,3.77,0,0,1,3.77-3.77H401.36a3.77,3.77,0,0,1,3.77,3.77V488.28A3.77,3.77,0,0,1,401.36,492.05Zm-178.28-7.54H397.59V302.79H223.08Z"/><path d="M401.36,492.05h-182a3.77,3.77,0,0,1-3.77-3.77V299a3.77,3.77,0,0,1,3.77-3.77H401.36a3.77,3.77,0,0,1,3.77,3.77V488.28A3.77,3.77,0,0,1,401.36,492.05Zm-178.28-7.54H397.59V302.79H223.08Z"/><path d="M249.32,223.08a3.77,3.77,0,0,1-3-6l61-83.81a3.77,3.77,0,0,1,6.82,2.22v60.33a3.78,3.78,0,0,1-7.55,0V147.09l-54.19,74.44A3.75,3.75,0,0,1,249.32,223.08Z"/><path d="M371.35,223.08a3.75,3.75,0,0,1-3.05-1.55l-54.19-74.44v48.74a3.78,3.78,0,0,1-7.55,0V135.5a3.77,3.77,0,0,1,6.82-2.22l61,83.81a3.77,3.77,0,0,1-3,6Z"/><path d="M310.71,138.89a16.82,16.82,0,0,1-16.8-16.8V101.9a16.81,16.81,0,0,1,33.61,0v20.19A16.83,16.83,0,0,1,310.71,138.89Zm0-46.25a9.27,9.27,0,0,0-9.26,9.26v20.19a9.27,9.27,0,0,0,18.53,0V101.9A9.27,9.27,0,0,0,310.71,92.64Z"/><path d="M310.71,92.64a3.77,3.77,0,0,1-3.77-3.77V7.63a3.78,3.78,0,0,1,7.55,0V88.87A3.77,3.77,0,0,1,310.71,92.64Z"/><path d="M460.29,371a2.69,2.69,0,0,1-1.93-4.57,9,9,0,0,0-.18-12.63,2.7,2.7,0,0,1,3.76-3.87,14.34,14.34,0,0,1,.28,20.26A2.7,2.7,0,0,1,460.29,371Z"/><path d="M472.91,353a14.31,14.31,0,0,1-10-4.05,2.69,2.69,0,1,1,3.76-3.86,9,9,0,0,0,12.64-.18,2.69,2.69,0,0,1,3.86,3.76A14.31,14.31,0,0,1,472.91,353Z"/><path d="M486.6,370.86a2.73,2.73,0,0,1-1.88-.76,14.34,14.34,0,0,1-.28-20.26,2.69,2.69,0,0,1,3.86,3.76,9,9,0,0,0,.18,12.63,2.7,2.7,0,0,1-1.88,4.63Z"/><path d="M465.41,376a2.7,2.7,0,0,1-1.93-4.58,14.33,14.33,0,0,1,20.25-.28A2.69,2.69,0,1,1,480,375a9,9,0,0,0-12.64.18A2.71,2.71,0,0,1,465.41,376Z"/><path d="M165.26,204.61a2.69,2.69,0,0,1-1.93-4.57,8.94,8.94,0,0,0-.18-12.64,2.69,2.69,0,0,1,3.76-3.86,14.33,14.33,0,0,1,.28,20.25A2.65,2.65,0,0,1,165.26,204.61Z"/><path d="M177.88,186.58a14.22,14.22,0,0,1-10-4.06,2.69,2.69,0,1,1,3.75-3.86,8.68,8.68,0,0,0,6.36,2.53,8.85,8.85,0,0,0,6.28-2.71,2.69,2.69,0,0,1,3.86,3.76,14.27,14.27,0,0,1-10.07,4.34Z"/><path d="M191.57,204.48a2.67,2.67,0,0,1-1.87-.76,14.33,14.33,0,0,1-.29-20.25,2.69,2.69,0,1,1,3.86,3.75,9,9,0,0,0,.18,12.64,2.69,2.69,0,0,1-1.88,4.62Z"/><path d="M170.39,209.59a2.7,2.7,0,0,1-1.94-4.57,14.35,14.35,0,0,1,20.26-.29A2.7,2.7,0,0,1,185,208.6a8.94,8.94,0,0,0-12.63.17A2.67,2.67,0,0,1,170.39,209.59Z"/><path d="M113.63,557.6A2.7,2.7,0,0,1,111.7,553a9,9,0,0,0-.18-12.63,2.69,2.69,0,0,1,3.76-3.86,14.33,14.33,0,0,1,.28,20.25A2.71,2.71,0,0,1,113.63,557.6Z"/><path d="M126.24,539.56a14.21,14.21,0,0,1-10-4,2.69,2.69,0,1,1,3.75-3.86,9,9,0,0,0,12.64-.18,2.69,2.69,0,1,1,3.86,3.76,14.22,14.22,0,0,1-10.07,4.33Z"/><path d="M139.94,557.47a2.69,2.69,0,0,1-1.88-.76,14.34,14.34,0,0,1-.28-20.26,2.69,2.69,0,1,1,3.86,3.76,8.92,8.92,0,0,0,.18,12.63,2.7,2.7,0,0,1-1.88,4.63Z"/><path d="M118.75,562.58a2.7,2.7,0,0,1-1.93-4.57,14.34,14.34,0,0,1,20.26-.29,2.69,2.69,0,1,1-3.76,3.86,9,9,0,0,0-12.64.18A2.67,2.67,0,0,1,118.75,562.58Z"/><path d="M239.13,286.13h-.36a3.77,3.77,0,0,1-3.4-4.11c3-32.14,19.63-49.87,33-59.08a78.06,78.06,0,0,1,28.69-12.4A3.78,3.78,0,0,1,298.3,218a71.33,71.33,0,0,0-25.9,11.34c-17.38,12.08-27.31,30.05-29.52,53.4A3.77,3.77,0,0,1,239.13,286.13Z"/><path d="M239.12,352.27a3.77,3.77,0,0,1-3.77-3.77V314.63a3.77,3.77,0,1,1,7.54,0V348.5A3.77,3.77,0,0,1,239.12,352.27Z"/><path d="M239.12,451.28a3.77,3.77,0,0,1-3.77-3.77V368.29a3.77,3.77,0,1,1,7.54,0v79.22A3.77,3.77,0,0,1,239.12,451.28Z"/></svg>