<svg id="Fitness_Lineart_Icons" data-name="Fitness Lineart Icons" xmlns="http://www.w3.org/2000/svg" viewBox="0 0 600 600"><path d="M529.94,535.07H464.36c-10.23,0-18.56-9.55-18.56-21.28V252.16c0-11.73,8.33-21.28,18.56-21.28h65.58c.9,0,1.78,0,2.66.06C567,232.6,594,265.57,594,306V459.94C594,501.37,565.25,535.07,529.94,535.07ZM464.36,238.32c-6.13,0-11.12,6.21-11.12,13.84V513.79c0,7.63,5,13.84,11.12,13.84h65.58c31.21,0,56.59-30.36,56.59-67.69V306c0-36.46-23.84-66.17-54.28-67.64-.76,0-1.52-.05-2.31-.05Z"/><path d="M417.27,535.07H70.06c-35.31,0-64-33.7-64-75.13V306C6,265.57,33,232.6,67.39,230.94c.89,0,1.77-.06,2.67-.06H417.27A3.72,3.72,0,0,1,421,234.6V531.35A3.72,3.72,0,0,1,417.27,535.07ZM70.06,238.32c-.79,0-1.55,0-2.32.05C37.31,239.84,13.47,269.55,13.47,306V459.94c0,37.33,25.38,67.69,56.59,67.69H413.55V238.32Z"/><path d="M449.52,515.55H417.27a3.72,3.72,0,0,1-3.71-3.72V254.12a3.71,3.71,0,0,1,3.71-3.71h32.25a3.71,3.71,0,0,1,3.72,3.71V511.83A3.72,3.72,0,0,1,449.52,515.55ZM421,508.11H445.8V257.84H421Z"/><path d="M133.4,535.07H104.77a3.72,3.72,0,0,1-3.72-3.72V234.6a3.72,3.72,0,0,1,3.72-3.72H133.4a3.73,3.73,0,0,1,3.72,3.72V531.35A3.73,3.73,0,0,1,133.4,535.07Zm-24.92-7.44h21.2V238.32h-21.2Z"/><path d="M301.17,472.39h-2.34a95.64,95.64,0,0,1-95.7-95.7,3.71,3.71,0,0,1,3.72-3.72h186.3a3.71,3.71,0,0,1,3.72,3.72,95.06,95.06,0,0,1-5.36,31.61,95.74,95.74,0,0,1-90.34,64.09Zm-90.53-92A88.22,88.22,0,0,0,298.83,465h2.34a87.67,87.67,0,0,0,62.42-25.86,88.61,88.61,0,0,0,20.9-33.25,87.28,87.28,0,0,0,4.87-25.44Z"/><path d="M388,410.79H212a3.72,3.72,0,0,1-3.51-2.49,95.06,95.06,0,0,1-5.36-31.61,3.71,3.71,0,0,1,3.72-3.72h186.3a3.71,3.71,0,0,1,3.72,3.72,95.06,95.06,0,0,1-5.36,31.61A3.72,3.72,0,0,1,388,410.79Zm-173.33-7.44H385.33a88.07,88.07,0,0,0,4-23H210.64A88.07,88.07,0,0,0,214.67,403.35Z"/><path d="M32.18,458.5a3.72,3.72,0,0,1-3.72-3.72V352a3.72,3.72,0,0,1,7.44,0V454.78A3.71,3.71,0,0,1,32.18,458.5Z"/><path d="M32.18,337a3.72,3.72,0,0,1-3.72-3.72v-26a3.72,3.72,0,0,1,7.44,0v26A3.71,3.71,0,0,1,32.18,337Z"/><path d="M472.55,503.19a3.73,3.73,0,0,1-3.72-3.72V396.65a3.72,3.72,0,1,1,7.44,0V499.47A3.73,3.73,0,0,1,472.55,503.19Z"/><path d="M472.55,381.71a3.73,3.73,0,0,1-3.72-3.72V352a3.72,3.72,0,1,1,7.44,0v26A3.73,3.73,0,0,1,472.55,381.71Z"/><path d="M67.57,238.37a3.71,3.71,0,0,1-3.6-4.65A199.54,199.54,0,0,1,222.36,87.65a3.72,3.72,0,0,1,4.2,4.75,28.62,28.62,0,0,0-1.24,8.35,28.26,28.26,0,0,0,3.78,14.16,3.72,3.72,0,0,1-2.54,5.53c-60.43,11.11-111,56.35-128.84,115.24a3.73,3.73,0,0,1-3.56,2.64H70.06c-.79,0-1.55,0-2.32.05Zm4.89-7.49h19a174.16,174.16,0,0,1,129-116.81A36,36,0,0,1,218.19,96,192.12,192.12,0,0,0,72.46,230.88Z"/><path d="M532.43,238.37h-.17c-.77,0-1.53-.05-2.32-.05h-24.1a3.73,3.73,0,0,1-3.56-2.64c-17.84-58.89-68.41-104.13-128.84-115.24a3.72,3.72,0,0,1-2.54-5.53,28.26,28.26,0,0,0,3.78-14.16,28.62,28.62,0,0,0-1.24-8.35,3.72,3.72,0,0,1,4.2-4.75A199.54,199.54,0,0,1,536,233.72a3.71,3.71,0,0,1-3.6,4.65Zm-23.85-7.49h19A192.12,192.12,0,0,0,381.81,96a36,36,0,0,1-2.25,18.06,174.16,174.16,0,0,1,129,116.81Z"/><path d="M346.3,136.58H253.7a35.83,35.83,0,0,1,0-71.65h92.6a35.83,35.83,0,0,1,0,71.65ZM253.7,72.37a28.39,28.39,0,0,0,0,56.77h92.6a28.39,28.39,0,0,0,0-56.77Z"/><path d="M242.49,110.94a3.73,3.73,0,0,1-2.9-1.38,22.31,22.31,0,0,1,5.26-32.73,3.72,3.72,0,0,1,4,6.24,14.88,14.88,0,0,0-3.5,21.82,3.72,3.72,0,0,1-2.9,6Z"/><path d="M248.86,125.42a3.73,3.73,0,0,1-3.34-2.09l-2.08-4.26a3.72,3.72,0,1,1,6.68-3.26l2.08,4.26a3.72,3.72,0,0,1-3.34,5.35Z"/></svg>