<svg id="Fitness_Lineart_Icons" data-name="Fitness Lineart Icons" xmlns="http://www.w3.org/2000/svg" viewBox="0 0 600 600"><path d="M402.34,354.7H212.93a23.91,23.91,0,0,1,0-47.81H402.34a23.91,23.91,0,0,1,0,47.81ZM212.93,314a16.82,16.82,0,0,0,0,33.63H402.34a16.82,16.82,0,0,0,0-33.63Z"/><path d="M550.47,529.41H49.53A3.55,3.55,0,0,1,46,525.86v-1.57a32.67,32.67,0,0,1,32.63-32.63H521.39A32.67,32.67,0,0,1,554,524.29v1.57A3.55,3.55,0,0,1,550.47,529.41ZM53.15,522.32h493.7a25.57,25.57,0,0,0-25.46-23.57H78.61A25.57,25.57,0,0,0,53.15,522.32Z"/><path d="M389.08,498.75H226.19a3.55,3.55,0,0,1-3.55-3.55v-144a3.54,3.54,0,0,1,3.55-3.54H389.08a3.54,3.54,0,0,1,3.55,3.54V495.2A3.55,3.55,0,0,1,389.08,498.75Zm-159.35-7.09H385.54v-137H229.73Z"/><path d="M146.74,148.55H111.61a3.55,3.55,0,0,1-3.55-3.55V122.1a21.12,21.12,0,0,1,42.23,0V145A3.55,3.55,0,0,1,146.74,148.55Zm-31.59-7.09h28V122.1a14,14,0,0,0-28,0Z"/><path d="M146.74,498.75H111.61a3.55,3.55,0,0,1-3.55-3.55V173.11a3.54,3.54,0,0,1,3.55-3.54h35.13a3.54,3.54,0,0,1,3.55,3.54V495.2A3.55,3.55,0,0,1,146.74,498.75Zm-31.59-7.09h28v-315h-28Z"/><path d="M489.88,148.55H454.76a3.54,3.54,0,0,1-3.54-3.55V122.1a21.11,21.11,0,0,1,42.21,0V145A3.55,3.55,0,0,1,489.88,148.55Zm-31.57-7.09h28V122.1a14,14,0,1,0-28,0Z"/><path d="M489.88,498.75H454.76a3.54,3.54,0,0,1-3.54-3.55V173.11a3.53,3.53,0,0,1,3.54-3.54h35.12a3.54,3.54,0,0,1,3.55,3.54V495.2A3.55,3.55,0,0,1,489.88,498.75Zm-31.57-7.09h28v-315h-28Z"/><path d="M502.12,176.66H97.88a3.55,3.55,0,0,1-3.55-3.55V145a3.55,3.55,0,0,1,3.55-3.54H502.12a3.55,3.55,0,0,1,3.55,3.54v28.11A3.55,3.55,0,0,1,502.12,176.66Zm-400.7-7.09H498.58v-21H101.42Z"/><path d="M70.32,247.52a31.13,31.13,0,0,1-31.1-31.1V101.69a31.1,31.1,0,0,1,62.2,0V216.42A31.13,31.13,0,0,1,70.32,247.52Zm0-169.84a24,24,0,0,0-24,24V216.42a24,24,0,1,0,48,0V101.69A24,24,0,0,0,70.32,77.68Z"/><path d="M529.68,247.52a31.13,31.13,0,0,1-31.1-31.1V101.69a31.1,31.1,0,0,1,62.2,0V216.42A31.13,31.13,0,0,1,529.68,247.52Zm0-169.84a24,24,0,0,0-24,24V216.42a24,24,0,0,0,48,0V101.69A24,24,0,0,0,529.68,77.68Z"/><path d="M575,217.26A21.3,21.3,0,0,1,553.69,196V122.13a21.28,21.28,0,0,1,42.56,0V196A21.3,21.3,0,0,1,575,217.26Zm0-109.32a14.2,14.2,0,0,0-14.19,14.19V196a14.19,14.19,0,1,0,28.38,0V122.13A14.21,14.21,0,0,0,575,107.94Z"/><path d="M25,217.26A21.3,21.3,0,0,1,3.75,196V122.13a21.28,21.28,0,0,1,42.56,0V196A21.3,21.3,0,0,1,25,217.26Zm0-109.32a14.21,14.21,0,0,0-14.19,14.19V196a14.19,14.19,0,0,0,28.38,0V122.13A14.2,14.2,0,0,0,25,107.94Z"/><path d="M58.51,139.27A3.55,3.55,0,0,1,55,135.73V111.09a3.55,3.55,0,1,1,7.09,0v24.64A3.55,3.55,0,0,1,58.51,139.27Z"/><path d="M58.51,211.42A3.55,3.55,0,0,1,55,207.87V155.08a3.55,3.55,0,0,1,7.09,0v52.79A3.55,3.55,0,0,1,58.51,211.42Z"/><path d="M517.53,139.27a3.55,3.55,0,0,1-3.55-3.54V111.09a3.55,3.55,0,1,1,7.09,0v24.64A3.55,3.55,0,0,1,517.53,139.27Z"/><path d="M517.53,211.42a3.55,3.55,0,0,1-3.55-3.55V155.08a3.55,3.55,0,0,1,7.09,0v52.79A3.55,3.55,0,0,1,517.53,211.42Z"/><path d="M248.81,422.08a3.54,3.54,0,0,1-3.54-3.55V370.27a3.55,3.55,0,1,1,7.09,0v48.26A3.55,3.55,0,0,1,248.81,422.08Z"/><path d="M248.81,462.8a3.54,3.54,0,0,1-3.54-3.54V432.11a3.55,3.55,0,1,1,7.09,0v27.15A3.55,3.55,0,0,1,248.81,462.8Z"/></svg>