<svg id="Fitness_Lineart_Icons" data-name="Fitness Lineart Icons" xmlns="http://www.w3.org/2000/svg" viewBox="0 0 600 600"><path d="M444.48,593.14h-289a46,46,0,0,1-45.89-45.89V101.35a45.94,45.94,0,0,1,45.89-45.89h47.75a4.05,4.05,0,0,1,4.06,4V85.23a7,7,0,0,0,7,7H385.7a7,7,0,0,0,7-7V59.51a4.05,4.05,0,0,1,4.06-4h47.75a45.94,45.94,0,0,1,45.89,45.89v445.9A46,46,0,0,1,444.48,593.14Zm-289-529.57a37.83,37.83,0,0,0-37.78,37.78v445.9A37.83,37.83,0,0,0,155.52,585h289a37.83,37.83,0,0,0,37.78-37.78V101.35a37.83,37.83,0,0,0-37.78-37.78h-43.7V85.23a15.1,15.1,0,0,1-15.08,15.08H214.3a15.1,15.1,0,0,1-15.08-15.08V63.57Z"/><path d="M385.7,100.31H214.3a15.1,15.1,0,0,1-15.08-15.08V59.67A15.09,15.09,0,0,1,214.3,44.59h41.83a41.79,41.79,0,0,1,83.18,0H385.7a15.09,15.09,0,0,1,15.08,15.08V85.23A15.1,15.1,0,0,1,385.7,100.31ZM214.3,52.7a7,7,0,0,0-7,7V85.23a7,7,0,0,0,7,7H385.7a7,7,0,0,0,7-7V59.67a7,7,0,0,0-7-7H335.45a4.06,4.06,0,0,1-4.06-4.06,33.68,33.68,0,0,0-67.35,0A4.05,4.05,0,0,1,260,52.7Z"/><path d="M412.78,544.21H187.22A37.2,37.2,0,0,1,150.07,507V114.73a37.2,37.2,0,0,1,37.15-37.17h16.05a4.05,4.05,0,0,1,4.06,4v3.62a7,7,0,0,0,7,7H385.7a7,7,0,0,0,7-7V81.61a4.05,4.05,0,0,1,4.06-4h16a37.2,37.2,0,0,1,37.15,37.17V507A37.2,37.2,0,0,1,412.78,544.21ZM187.22,85.67a29.08,29.08,0,0,0-29,29.06V507a29.08,29.08,0,0,0,29,29.06H412.78a29.08,29.08,0,0,0,29-29.06V114.73a29.08,29.08,0,0,0-29-29.06h-12a15.11,15.11,0,0,1-15.08,14.64H214.3a15.11,15.11,0,0,1-15.08-14.64Z"/><path d="M417.51,150.39H268.8a4.06,4.06,0,1,1,0-8.11H417.51a4.06,4.06,0,1,1,0,8.11Z"/><path d="M417.51,234.11H268.8a4.06,4.06,0,1,1,0-8.11H417.51a4.06,4.06,0,1,1,0,8.11Z"/><path d="M417.51,314.94H268.8a4.06,4.06,0,1,1,0-8.11H417.51a4.06,4.06,0,1,1,0,8.11Z"/><path d="M417.51,395.77H268.8a4.06,4.06,0,1,1,0-8.11H417.51a4.06,4.06,0,1,1,0,8.11Z"/><path d="M417.51,476.6H268.8a4.06,4.06,0,0,1,0-8.12H417.51a4.06,4.06,0,0,1,0,8.12Z"/><path d="M214.16,168.57H192.39A11.36,11.36,0,0,1,181,157.22V135.45a11.36,11.36,0,0,1,11.35-11.35h21.77a11.36,11.36,0,0,1,11.35,11.35v21.77A11.36,11.36,0,0,1,214.16,168.57Zm-21.77-36.35a3.24,3.24,0,0,0-3.24,3.23v21.77a3.24,3.24,0,0,0,3.24,3.24h21.77a3.24,3.24,0,0,0,3.23-3.24V135.45a3.23,3.23,0,0,0-3.23-3.23Z"/><path d="M214.16,252.29H192.39A11.36,11.36,0,0,1,181,240.94V219.17a11.36,11.36,0,0,1,11.35-11.35h21.77a11.36,11.36,0,0,1,11.35,11.35v21.77A11.36,11.36,0,0,1,214.16,252.29Zm-21.77-36.35a3.24,3.24,0,0,0-3.24,3.23v21.77a3.24,3.24,0,0,0,3.24,3.24h21.77a3.24,3.24,0,0,0,3.23-3.24V219.17a3.23,3.23,0,0,0-3.23-3.23Z"/><path d="M214.16,333.12H192.39A11.36,11.36,0,0,1,181,321.77V300a11.36,11.36,0,0,1,11.35-11.35h21.77A11.36,11.36,0,0,1,225.51,300v21.77A11.36,11.36,0,0,1,214.16,333.12Zm-21.77-36.36a3.24,3.24,0,0,0-3.24,3.24v21.77a3.24,3.24,0,0,0,3.24,3.23h21.77a3.23,3.23,0,0,0,3.23-3.23V300a3.24,3.24,0,0,0-3.23-3.24Z"/><path d="M214.16,413.94H192.39A11.36,11.36,0,0,1,181,402.6V380.82a11.36,11.36,0,0,1,11.35-11.34h21.77a11.36,11.36,0,0,1,11.35,11.34V402.6A11.36,11.36,0,0,1,214.16,413.94Zm-21.77-36.35a3.24,3.24,0,0,0-3.24,3.23V402.6a3.24,3.24,0,0,0,3.24,3.23h21.77a3.23,3.23,0,0,0,3.23-3.23V380.82a3.23,3.23,0,0,0-3.23-3.23Z"/><path d="M214.16,494.77H192.39A11.36,11.36,0,0,1,181,483.43V461.65a11.36,11.36,0,0,1,11.35-11.34h21.77a11.36,11.36,0,0,1,11.35,11.34v21.78A11.36,11.36,0,0,1,214.16,494.77Zm-21.77-36.35a3.24,3.24,0,0,0-3.24,3.23v21.78a3.24,3.24,0,0,0,3.24,3.23h21.77a3.23,3.23,0,0,0,3.23-3.23V461.65a3.23,3.23,0,0,0-3.23-3.23Z"/><path d="M128.9,178.42a4.06,4.06,0,0,1-4.06-4.06v-46.2a4.06,4.06,0,0,1,8.12,0v46.2A4.06,4.06,0,0,1,128.9,178.42Z"/><path d="M128.9,423.52a4.06,4.06,0,0,1-4.06-4.06V192.54a4.06,4.06,0,0,1,8.12,0V419.46A4.06,4.06,0,0,1,128.9,423.52Z"/><path d="M469.84,444.45a4.06,4.06,0,0,1-4.06-4.06V347.31a4.06,4.06,0,0,1,8.12,0v93.08A4.06,4.06,0,0,1,469.84,444.45Z"/><path d="M469.84,506.69a4.06,4.06,0,0,1-4.06-4.06v-39.1a4.06,4.06,0,0,1,8.12,0v39.1A4.06,4.06,0,0,1,469.84,506.69Z"/></svg>