<svg id="Fitness_Lineart_Icons" data-name="Fitness Lineart Icons" xmlns="http://www.w3.org/2000/svg" viewBox="0 0 600 600"><path d="M435.65,144.73H273.9a3.77,3.77,0,0,1-3.77-3.77,84.65,84.65,0,1,1,169.3,0A3.77,3.77,0,0,1,435.65,144.73Zm-157.88-7.55h154a77.1,77.1,0,0,0-154,0Z"/><path d="M464,234.28H245.51a15.6,15.6,0,0,1-15.58-15.58V173.05a35.91,35.91,0,0,1,35.87-35.87h178a35.91,35.91,0,0,1,35.87,35.87V218.7A15.6,15.6,0,0,1,464,234.28ZM265.8,144.73a28.36,28.36,0,0,0-28.32,28.32V218.7a8,8,0,0,0,8,8H464a8,8,0,0,0,8-8V173.05a28.35,28.35,0,0,0-28.32-28.32Z"/><path d="M443.75,596.57H265.8a35.92,35.92,0,0,1-35.87-35.88V423.64a13.3,13.3,0,0,1,13.29-13.29H466.33a13.3,13.3,0,0,1,13.29,13.29V560.69A35.92,35.92,0,0,1,443.75,596.57ZM243.22,417.9a5.75,5.75,0,0,0-5.74,5.74V560.69A28.36,28.36,0,0,0,265.8,589h178a28.36,28.36,0,0,0,28.32-28.33V423.64a5.74,5.74,0,0,0-5.74-5.74Z"/><path d="M455.06,417.9H254.5a3.79,3.79,0,0,1-3.61-4.9,112.58,112.58,0,0,0,0-68.24,3.75,3.75,0,0,1,.57-3.36,3.78,3.78,0,0,1,3-1.53H455.06a3.77,3.77,0,0,1,3.6,4.91c-7.57,23.79-7.57,46.07,0,68.12a3.78,3.78,0,0,1-3.57,5Zm-195.54-7.55H449.9C444,390.08,444,369,450,347.42H259.52A119.35,119.35,0,0,1,259.52,410.35Z"/><path d="M466.94,347.42H242.62a12.7,12.7,0,0,1-12.69-12.69V303.92a12.7,12.7,0,0,1,12.69-12.69H466.94a12.7,12.7,0,0,1,12.68,12.69v30.81A12.7,12.7,0,0,1,466.94,347.42ZM242.62,298.78a5.15,5.15,0,0,0-5.14,5.14v30.81a5.15,5.15,0,0,0,5.14,5.14H466.94a5.14,5.14,0,0,0,5.13-5.14V303.92a5.14,5.14,0,0,0-5.13-5.14Z"/><path d="M373.12,65.93a4.09,4.09,0,0,1-.85-.09,78,78,0,0,0-35,0,3.79,3.79,0,0,1-4.63-3.68V29.77A3.78,3.78,0,0,1,336.43,26h36.69a3.78,3.78,0,0,1,3.78,3.78V62.16a3.78,3.78,0,0,1-3.78,3.77Zm-18.34-9.64a85.73,85.73,0,0,1,14.57,1.25v-24H340.21v24A85.65,85.65,0,0,1,354.78,56.29Z"/><path d="M378.36,32.92H331.2a14.75,14.75,0,1,1,0-29.49h47.16a14.75,14.75,0,1,1,0,29.49ZM331.2,11a7.2,7.2,0,1,0,0,14.39h47.16a7.2,7.2,0,0,0,0-14.39Z"/><path d="M455.06,298.78H254.5a3.78,3.78,0,0,1-3.78-3.78V230.51a3.78,3.78,0,0,1,3.78-3.78H455.06a3.77,3.77,0,0,1,3.77,3.78V295A3.77,3.77,0,0,1,455.06,298.78Zm-196.79-7.55h193v-57h-193Z"/><path d="M162.15,408.85c-9.92,0-19.11-5.64-27.32-16.76C120.41,372.56,116.76,347.28,124,317c5.69-23.92,18.16-51.1,37.06-80.78,32.35-50.81,72.43-91.81,76.9-96.32a11.32,11.32,0,0,1,17.7,2.05,3.77,3.77,0,0,1-1.64,5.41,28.14,28.14,0,0,0-16.49,25,3.79,3.79,0,0,1-.75,2.17,3.78,3.78,0,0,1,.73,2.24v42a8,8,0,0,0,3.89,6.88,3.78,3.78,0,0,1,1.74,4c-2.94,14.57-5.94,28.41-8.93,41.12-8.44,35.88-17.18,65.09-26,86.8-12.5,30.82-25.15,46.9-39.81,50.6A25.88,25.88,0,0,1,162.15,408.85Zm74.51-256.78c-13.46,14.3-43.79,48.15-69.26,88.15-18.45,29-30.59,55.38-36.08,78.48-6.67,28.06-3.45,51.25,9.59,68.91,6.7,9.08,13.85,13.69,21.24,13.69a18.16,18.16,0,0,0,4.4-.55c12-3,23.29-18.1,34.65-46.11,8.66-21.35,17.28-50.18,25.63-85.69,2.81-11.95,5.63-24.9,8.41-38.53a15.43,15.43,0,0,1-5.31-11.72v-.33c-3,15.36-6.52,32.13-10.48,48.94C196.26,366,176.88,390.36,164.7,393.43c-5.66,1.42-11.62-2-17.71-10.3-28.09-38.05.63-98.88,29.67-143.2C195,212,215.6,187.05,230,170.7A35.64,35.64,0,0,1,236.66,152.07Zm-8,31.72A609.93,609.93,0,0,0,183,244.06c-27.73,42.33-55.42,100-29.92,134.58,3.93,5.33,7.5,8,9.8,7.46,3.71-.93,23.53-11.14,49.24-120.51C219.16,235.57,224.83,205.67,228.65,183.79Zm5.08-11.59h0Z"/><path d="M250.49,524.69a3.78,3.78,0,0,1-3.78-3.78v-62a3.78,3.78,0,1,1,7.55,0v62A3.77,3.77,0,0,1,250.49,524.69Z"/><path d="M278.37,578.91h-.2c-9-.46-16.33-3.75-21.72-9.78-10.75-12-9.78-30.54-9.73-31.32a3.78,3.78,0,1,1,7.54.44c0,.27-.78,16.27,7.84,25.87,4,4.46,9.54,6.89,16.46,7.25a3.78,3.78,0,0,1-.19,7.55Z"/><path d="M250.46,332.59a3.78,3.78,0,0,1-3.78-3.78v-19a3.78,3.78,0,1,1,7.55,0v19A3.78,3.78,0,0,1,250.46,332.59Z"/><path d="M250.46,185a3.78,3.78,0,0,1-3.78-3.78V167.67a3.78,3.78,0,0,1,7.55,0v13.59A3.77,3.77,0,0,1,250.46,185Z"/><path d="M250.46,223.49a3.78,3.78,0,0,1-3.78-3.78V194.08a3.78,3.78,0,1,1,7.55,0v25.63A3.77,3.77,0,0,1,250.46,223.49Z"/><path d="M418.48,133.64a3.78,3.78,0,0,1-3.74-3.29c-2.43-18.8-14.31-26.58-14.43-26.66a3.77,3.77,0,0,1,4.06-6.36c.61.39,15,9.79,17.86,32.05a3.77,3.77,0,0,1-3.26,4.23A3.91,3.91,0,0,1,418.48,133.64Z"/></svg>