<svg id="Fitness_Lineart_Icons" data-name="Fitness Lineart Icons" xmlns="http://www.w3.org/2000/svg" viewBox="0 0 600 600"><path d="M443.05,572.17H157a4,4,0,0,1-2-.54A291.15,291.15,0,0,1,8.78,319.05,291.22,291.22,0,0,1,505.93,113.13a291.35,291.35,0,0,1,45,353.87A292.83,292.83,0,0,1,445.08,571.63,4,4,0,0,1,443.05,572.17Zm-285-8.13H442a284.12,284.12,0,0,0,141.12-245C583.08,163,456.1,36,300,36S16.92,163,16.92,319.05A284.09,284.09,0,0,0,158.05,564Z"/><path d="M374.46,160.4H225.54a10.4,10.4,0,0,1-9.63-6.61L192.49,93.08a13.11,13.11,0,0,1,7.32-16.83c6.47-2.59,13.3-4.94,20.3-7A262.09,262.09,0,0,1,252.69,62a307.54,307.54,0,0,1,94.61,0,261.85,261.85,0,0,1,32.59,7.28c7,2,13.83,4.39,20.3,7a13.11,13.11,0,0,1,7.32,16.83l-23.42,60.71A10.4,10.4,0,0,1,374.46,160.4ZM300,66.46A295.61,295.61,0,0,0,254,70a255.26,255.26,0,0,0-31.57,7.06c-6.76,2-13.34,4.23-19.57,6.72a5,5,0,0,0-2.76,6.35l23.43,60.71a2.19,2.19,0,0,0,2,1.4H374.46a2.19,2.19,0,0,0,2-1.4l23.43-60.71h0a5,5,0,0,0-2.77-6.35c-6.22-2.49-12.8-4.75-19.55-6.72A255.58,255.58,0,0,0,346,70,295.38,295.38,0,0,0,300,66.46Z"/><path d="M300,111.77a12.43,12.43,0,0,1-12.41-12.41V86a12.41,12.41,0,0,1,24.82,0V99.36A12.43,12.43,0,0,1,300,111.77Zm0-30.07A4.27,4.27,0,0,0,295.73,86V99.36a4.27,4.27,0,1,0,8.54,0V86A4.27,4.27,0,0,0,300,81.7Z"/><path d="M240.09,120a12.44,12.44,0,0,1-11.73-8.32L224,99a12.41,12.41,0,0,1,23.43-8.17l4.41,12.64a12.41,12.41,0,0,1-7.62,15.8h0A12.42,12.42,0,0,1,240.09,120Zm-4.43-29.33a4.28,4.28,0,0,0-4,5.68L236,109a4.28,4.28,0,0,0,5.45,2.62h0a4.21,4.21,0,0,0,2.44-2.17,4.27,4.27,0,0,0,.18-3.27L239.7,93.49A4.28,4.28,0,0,0,235.66,90.62Z"/><path d="M360.75,120a12.42,12.42,0,0,1-4.08-.7,12.42,12.42,0,0,1-7.63-15.8l4.42-12.64A12.41,12.41,0,1,1,376.89,99l-4.41,12.65A12.44,12.44,0,0,1,360.75,120Zm4.42-29.33a4.28,4.28,0,0,0-4,2.87l-4.41,12.64a4.25,4.25,0,0,0,2.62,5.44h0A4.28,4.28,0,0,0,364.8,109l4.41-12.65a4.28,4.28,0,0,0-4-5.68Z"/><path d="M295.93,154.88,300,116.07l4.07,38.81a4.09,4.09,0,0,1-8.14.85A4.83,4.83,0,0,1,295.93,154.88Z"/><path d="M443.05,572.17H157a4,4,0,0,1-2-.54A291.15,291.15,0,0,1,8.78,319.05,291.22,291.22,0,0,1,505.93,113.13a291.35,291.35,0,0,1,45,353.87A292.83,292.83,0,0,1,445.08,571.63,4,4,0,0,1,443.05,572.17Zm-285-8.13H442a284.12,284.12,0,0,0,141.12-245C583.08,163,456.1,36,300,36S16.92,163,16.92,319.05A284.09,284.09,0,0,0,158.05,564Z"/><path d="M96.26,426.25a4.06,4.06,0,0,1-3.6-2.17A234.62,234.62,0,0,1,65.89,315.26a4.07,4.07,0,0,1,8.13,0,226.51,226.51,0,0,0,25.84,105,4.07,4.07,0,0,1-3.6,6Z"/><path d="M78.33,257.62a3.72,3.72,0,0,1-1.09-.15,4,4,0,0,1-2.83-5A233.43,233.43,0,0,1,145,139.78a4.07,4.07,0,1,1,5.39,6.09A225.43,225.43,0,0,0,82.24,254.64,4.06,4.06,0,0,1,78.33,257.62Z"/><path d="M220.55,521.32a78.33,78.33,0,0,1,0-156.66,4.07,4.07,0,0,1,0,8.13,70.2,70.2,0,1,0,0,140.39,4.07,4.07,0,0,1,0,8.14Z"/><path d="M379.46,521.32a4.07,4.07,0,1,1,0-8.14A70.27,70.27,0,0,0,449.65,443a4.07,4.07,0,0,1,8.14,0A78.42,78.42,0,0,1,379.46,521.32Z"/><path d="M180.72,472.91a4.07,4.07,0,0,1-4.07-4.07V417.47a4.07,4.07,0,1,1,8.13,0v51.37A4.07,4.07,0,0,1,180.72,472.91Z"/><path d="M419.28,472.91a4.07,4.07,0,0,1-4.06-4.07V417.47a4.07,4.07,0,1,1,8.13,0v51.37A4.07,4.07,0,0,1,419.28,472.91Z"/><path d="M205.91,491.68a4.07,4.07,0,0,1-4.07-4.07V398.7a4.07,4.07,0,1,1,8.13,0v88.91A4.07,4.07,0,0,1,205.91,491.68Z"/><path d="M233.07,491.68a4.07,4.07,0,0,1-4.06-4.07V398.7a4.07,4.07,0,1,1,8.13,0v88.91A4.07,4.07,0,0,1,233.07,491.68Z"/><path d="M259.52,491.68a4.07,4.07,0,0,1-4.07-4.07V398.7a4.07,4.07,0,1,1,8.14,0v88.91A4.07,4.07,0,0,1,259.52,491.68Z"/><path d="M286.69,491.68a4.07,4.07,0,0,1-4.07-4.07V398.7a4.07,4.07,0,0,1,8.14,0v88.91A4.07,4.07,0,0,1,286.69,491.68Z"/><path d="M313.59,491.68a4.07,4.07,0,0,1-4.07-4.07V398.7a4.07,4.07,0,0,1,8.14,0v88.91A4.07,4.07,0,0,1,313.59,491.68Z"/><path d="M340.76,491.68a4.07,4.07,0,0,1-4.07-4.07V398.7a4.07,4.07,0,1,1,8.13,0v88.91A4.07,4.07,0,0,1,340.76,491.68Z"/><path d="M368.91,491.68a4.07,4.07,0,0,1-4.07-4.07V398.7a4.07,4.07,0,0,1,8.14,0v88.91A4.07,4.07,0,0,1,368.91,491.68Z"/><path d="M396.08,491.68a4.07,4.07,0,0,1-4.07-4.07V398.7a4.07,4.07,0,1,1,8.13,0v88.91A4.07,4.07,0,0,1,396.08,491.68Z"/></svg>