<svg id="Fitness_Color_Icons" data-name="Fitness Color Icons" xmlns="http://www.w3.org/2000/svg" viewBox="0 0 600 600"><path d="M532.3,437.55a46.9,46.9,0,0,1-42.38,46.62L106,521.18A46.9,46.9,0,0,1,54.84,479c-.14-1.53-.22-3.05-.22-4.55A46.82,46.82,0,0,1,97,427.86l383.91-37A46.87,46.87,0,0,1,532.08,433C532.23,434.53,532.3,436,532.3,437.55Z" fill="#585860"/><path d="M532.3,437.55a46.54,46.54,0,0,1-3.53,17.79A47.05,47.05,0,0,1,517,458L133.12,495A46.86,46.86,0,0,1,82,452.86c-.14-1.53-.22-3-.22-4.55a46.41,46.41,0,0,1,3.52-17.78A46.79,46.79,0,0,1,97,427.86l383.91-37A46.87,46.87,0,0,1,532.08,433C532.23,434.53,532.3,436,532.3,437.55Z" fill="#64646e"/><path d="M105,475a3.56,3.56,0,0,1-.33-7.11l10.15-1a3.57,3.57,0,0,1,.66,7.1l-10.15.95Z"/><path d="M135.48,472.12a3.57,3.57,0,0,1-.32-7.12l20.38-1.89a3.57,3.57,0,0,1,.66,7.1l-20.38,1.9Zm40.77-3.79a3.57,3.57,0,0,1-.32-7.12l20.38-1.9a3.57,3.57,0,0,1,.66,7.1l-20.38,1.9Zm40.77-3.8a3.57,3.57,0,0,1-.32-7.12l20.38-1.89a3.57,3.57,0,1,1,.66,7.1l-20.38,1.9Zm40.78-3.79a3.57,3.57,0,0,1-.33-7.12l20.38-1.9a3.57,3.57,0,1,1,.66,7.1l-20.38,1.9Zm40.77-3.8a3.56,3.56,0,0,1-.33-7.11l20.39-1.9a3.57,3.57,0,0,1,.66,7.1l-20.39,1.9Zm40.77-3.79A3.57,3.57,0,0,1,339,446l20.39-1.9a3.57,3.57,0,0,1,.66,7.11l-20.39,1.89Zm40.77-3.8a3.56,3.56,0,0,1-.33-7.11l20.39-1.9a3.57,3.57,0,0,1,.66,7.1l-20.39,1.9Zm40.77-3.79a3.57,3.57,0,0,1-.33-7.12l20.39-1.9a3.57,3.57,0,0,1,.66,7.11l-20.39,1.89Z"/><path d="M461.65,441.77a3.57,3.57,0,0,1-.33-7.12l10.15-.95a3.57,3.57,0,0,1,.66,7.11l-10.15.94Z"/><path d="M127.08,519.15,86.42,582.24H30.86l44.37-68.89a46.73,46.73,0,0,0,21,7.76,48.26,48.26,0,0,0,9.77.07Z" fill="#64646e"/><path d="M127.08,519.15,86.42,582.24H56.84l39.39-61.13a48.26,48.26,0,0,0,9.77.07Z" fill="#8d91ac"/><path d="M565.29,582.24H498.53l-60-93.12,24.14-2.32,27.25-2.63a47,47,0,0,0,10.69-2.31Z" fill="#64646e"/><path d="M565.29,582.24H524.16L462.67,486.8l27.25-2.63a47,47,0,0,0,10.69-2.31Z" fill="#8d91ac"/><path d="M293.46,585.81H9.06a3.57,3.57,0,0,1,0-7.14h284.4a3.57,3.57,0,1,1,0,7.14Z"/><path d="M393.71,585.81H339.23a3.57,3.57,0,0,1,0-7.14h54.48a3.57,3.57,0,0,1,0,7.14Z"/><path d="M590.94,585.81H424.22a3.57,3.57,0,0,1,0-7.14H590.94a3.57,3.57,0,0,1,0,7.14Z"/><path d="M478.84,391.05l-18.06,1.73L448.32,394,402.78,174.53l-2-9.89c-110,8.11-187.29,53-229.88,133.53-31,58.69-32.23,117.14-32.23,125.67l-15.92,1.54-14.56,1.41c0-.35-.06-.7-.07-1-.08-2.85-1.56-70.51,35.13-140.69,21.72-41.52,52.29-75.24,90.88-100.22,43.66-28.26,97.55-45.16,160.38-50.36l-7.24-34.95L399,95.9l17.54-5.39,62,298.9A13.27,13.27,0,0,1,478.84,391.05Z" fill="#64646e"/><path d="M394.29,132.61A18.9,18.9,0,0,1,378,154.82c-100.71,12.46-181.8,61.45-221.76,137-31,58.69-32.88,124.88-32.88,133.41l-15.92,1.54c.78-21.15,6.41-83.28,35.68-139.27C164.79,246,195.36,212.27,234,187.3c40.85-26.44,102.65-48.41,160.34-54.69Z" fill="#8d91ac"/><path d="M478.84,391.05l-18.06,1.73L398.56,96.05l.47-.15,17.54-5.39,62,298.9A13.27,13.27,0,0,1,478.84,391.05Z" fill="#8d91ac"/><path d="M497.9,39.87a35.89,35.89,0,0,1-.43,5.5,34.75,34.75,0,0,1-24.09,27.68L364,106.68a16.87,16.87,0,0,1-21.07-11.17l-5.25-17.07a16.87,16.87,0,0,1,11.17-21.07l11.34-3.48L475.29,18.5a16.89,16.89,0,0,1,21.08,11.17A35.15,35.15,0,0,1,497.9,39.87Z" fill="#ef9614"/><path d="M497.9,39.87a35.89,35.89,0,0,1-.43,5.5c-.76.29-1.52.56-2.31.8L385.75,79.8a16.85,16.85,0,0,1-21.06-11.17l-4.54-14.74L475.29,18.5a16.89,16.89,0,0,1,21.08,11.17A35.15,35.15,0,0,1,497.9,39.87Z" fill="#f8a926"/><path d="M359,111a20.51,20.51,0,0,1-19.56-14.43l-5.25-17.07A20.47,20.47,0,0,1,347.76,54L474.24,15.1a20.45,20.45,0,0,1,25.53,13.52,38.32,38.32,0,0,1,1.7,11.25,38.83,38.83,0,0,1-.48,6.05,38.1,38.1,0,0,1-26.56,30.54L365,110.09A20.35,20.35,0,0,1,359,111ZM480.23,21.33a13.44,13.44,0,0,0-3.89.58L349.86,60.78a13.32,13.32,0,0,0-8.81,16.62l5.25,17.06a13.33,13.33,0,0,0,16.62,8.81L472.33,69.64A31,31,0,0,0,494,44.8a31.79,31.79,0,0,0,.39-4.93A31.42,31.42,0,0,0,493,30.72,13.34,13.34,0,0,0,480.23,21.33Z"/><path d="M108.13,430.35a3.56,3.56,0,0,1-3.53-3.15,12.26,12.26,0,0,1-.1-1.35c-.08-2.88-1.6-71.41,35.54-142.44,22-42.08,53-76.25,92.1-101.56,43.17-27.94,96.32-44.95,158-50.58l-6.43-31a3.55,3.55,0,0,1,2.44-4.13l29.35-9a3.57,3.57,0,0,1,4.54,2.68l62,298.9a19,19,0,0,1,.3,2,3.57,3.57,0,0,1-3.21,3.88l-30.52,2.93a3.57,3.57,0,0,1-3.83-2.82l-47-226.27c-107,8.63-182.31,52.82-223.87,131.39-30.92,58.48-31.82,117.48-31.82,124a3.56,3.56,0,0,1-3.22,3.55l-30.48,2.95ZM391.37,102,398,133.76a3.61,3.61,0,0,1-.64,2.86,3.56,3.56,0,0,1-2.56,1.41c-62.22,5.15-115.63,21.91-158.74,49.8-38.06,24.64-68.23,57.91-89.66,98.88-32.59,62.34-34.72,122.52-34.75,136.16l23.48-2.27c.36-16.38,3.87-69.76,32.61-124.1,43.18-81.65,121.49-127.21,232.77-135.41a3.56,3.56,0,0,1,3.75,2.83l46.94,226.21,23.47-2.26L413.87,95.07Z"/><path d="M101.42,525a50.49,50.49,0,0,1-50.13-45.62c-.16-1.74-.24-3.34-.24-4.89a50.37,50.37,0,0,1,45.62-50.15l383.9-37a50.49,50.49,0,0,1,55.06,45.36c.16,1.65.23,3.29.23,4.89a49.85,49.85,0,0,1-3.79,19.15,50.38,50.38,0,0,1-41.81,31l-383.91,37C104.7,524.89,103.05,525,101.42,525Zm384-130.78c-1.39,0-2.78.07-4.19.21l-383.91,37a44.25,44.25,0,0,0-10.85,2.46,43.45,43.45,0,0,0-28.31,40.59,42.22,42.22,0,0,0,.21,4.22,43.31,43.31,0,0,0,47.27,38.95l383.9-37a43.33,43.33,0,0,0,39.16-43.07c0-1.4-.06-2.78-.2-4.22A43.38,43.38,0,0,0,485.45,394.19Z"/><path d="M86.42,585.8H30.86a3.55,3.55,0,0,1-3-5.49l44.38-68.89a3.56,3.56,0,0,1,5-1,43.39,43.39,0,0,0,19.39,7.16,44,44,0,0,0,9,.07l21.08-2a3.57,3.57,0,0,1,3.34,5.48L89.42,584.17A3.56,3.56,0,0,1,86.42,585.8Zm-49-7.13H84.48l35.62-55.26-13.76,1.32a51.24,51.24,0,0,1-10.51-.08,50.26,50.26,0,0,1-19.5-6.41Z"/><path d="M565.29,585.8H498.53a3.54,3.54,0,0,1-3-1.63l-60-93.12a3.56,3.56,0,0,1,2.66-5.48l51.38-4.95a44,44,0,0,0,9.9-2.13,3.56,3.56,0,0,1,4.14,1.44l64.68,100.38a3.56,3.56,0,0,1-3,5.49Zm-64.82-7.13h58.28l-59.67-92.6a51.43,51.43,0,0,1-8.83,1.65l-45.55,4.39Z"/></svg>