<svg id="Fitness_Color_Icons" data-name="Fitness Color Icons" xmlns="http://www.w3.org/2000/svg" viewBox="0 0 600 600"><polygon points="159.75 287.63 144.85 291.12 131.91 294.14 95.49 138.68 123.32 132.16 124.02 135.2 159.75 287.63" fill="#b3b3b3"/><polygon points="159.75 287.63 144.85 291.12 109.14 138.68 124.02 135.2 159.75 287.63" fill="#e6e6e6"/><path d="M131.91,298a3.87,3.87,0,0,1-3.76-3L91.73,139.56a3.88,3.88,0,0,1,2.88-4.64l27.83-6.52a3.9,3.9,0,0,1,2.92.48,3.86,3.86,0,0,1,1.72,2.41l.71,3,35.72,152.43a3.88,3.88,0,0,1-.48,2.92,3.84,3.84,0,0,1-2.4,1.72l-27.84,6.52A4.4,4.4,0,0,1,131.91,298ZM100.14,141.56,134.79,289.5l20.32-4.75L120.43,136.8Z"/><path d="M568.12,361.7a149.1,149.1,0,1,1-148.95-149A148.74,148.74,0,0,1,568.12,361.7Z" fill="#585860"/><path d="M568.12,361.7a148.74,148.74,0,0,1-64.64,122.8A149,149,0,0,1,384.25,216.85,149.1,149.1,0,0,1,568.12,361.7Z" fill="#64646e"/><path d="M419.17,514.51c-84.26,0-152.82-68.55-152.82-152.81a151.22,151.22,0,0,1,33.33-95.28,152.42,152.42,0,0,1,119.49-57.54C503.43,208.88,572,277.43,572,361.7A152.79,152.79,0,0,1,419.17,514.51Zm0-297.91A144.94,144.94,0,0,0,274.08,361.7c0,80,65.09,145.08,145.09,145.08A145.06,145.06,0,0,0,564.26,361.7C564.26,281.69,499.17,216.6,419.17,216.6Z"/><path d="M489.58,361.7a76.83,76.83,0,0,1-76.84,76.83l-267.88,20.8a100.25,100.25,0,0,1-15.41,1.19,98.82,98.82,0,1,1,0-197.64,100.12,100.12,0,0,1,15.4,1.19l267.89,20.78A76.85,76.85,0,0,1,489.58,361.7Z" fill="#7f84a0"/><path d="M129.45,464.38A102.7,102.7,0,0,1,84.78,269.21,101.65,101.65,0,0,1,129.45,259a103.67,103.67,0,0,1,15.85,1.22L412.89,281a80.71,80.71,0,0,1,0,161.41L145.31,463.17A105,105,0,0,1,129.45,464.38Zm0-197.64a94,94,0,0,0-41.3,9.42,95,95,0,0,0,56.11,179.35l.3,0,267.88-20.8h.3a73,73,0,1,0,0-146h-.3L144.55,267.92l-.3,0A96.3,96.3,0,0,0,129.45,266.74Z"/><path d="M489.58,361.7a76.63,76.63,0,0,1-23.71,55.51,76.51,76.51,0,0,1-30.71,6.38L167.29,444.38A98.82,98.82,0,0,1,86.47,272.69a98.37,98.37,0,0,1,43-9.81,100.12,100.12,0,0,1,15.4,1.19l267.89,20.78A76.85,76.85,0,0,1,489.58,361.7Z" fill="#8d91ac"/><path d="M148.76,572H10.28a27.54,27.54,0,0,1,27.54-27.54H58.63L98,455.42a99.9,99.9,0,0,0,13.18,3.41,97.45,97.45,0,0,0,16.14,1.67l-37.16,84h31A27.55,27.55,0,0,1,148.76,572Z" fill="#b3b3b3"/><path d="M148.76,572H25a27.54,27.54,0,0,1,27.54-27.54H65.1A12.61,12.61,0,0,0,76.65,537l34.56-78.13a97.45,97.45,0,0,0,16.14,1.67l-37.16,84h31A27.55,27.55,0,0,1,148.76,572Z" fill="#e6e6e6"/><path d="M589.72,572H451.25a27.54,27.54,0,0,1,27.54-27.54h32.27l-22.53-50.93a149,149,0,0,0,13.61-8.13q5.6-3.75,10.81-8l29.66,67.05h19.57A27.55,27.55,0,0,1,589.72,572Z" fill="#b3b3b3"/><path d="M589.72,572H468.56a27.54,27.54,0,0,1,27.54-27.54h12.73a12.7,12.7,0,0,0,11.61-17.86l-18.3-41.2q5.6-3.75,10.81-8l29.66,67.05h19.57A27.55,27.55,0,0,1,589.72,572Z" fill="#e6e6e6"/><path d="M206.21,361.7a71.9,71.9,0,1,1-71.85-71.86A71.76,71.76,0,0,1,206.21,361.7Z" fill="#6bb5f6"/><path d="M134.36,437.41a75.72,75.72,0,1,1,42.94-13.36A75.81,75.81,0,0,1,134.36,437.41Zm0-143.71a68,68,0,1,0,68,68A67.88,67.88,0,0,0,134.36,293.7Z"/><path d="M206.21,361.7a71.76,71.76,0,0,1-31.1,59.18,71.86,71.86,0,0,1-56-129.41,71.9,71.9,0,0,1,87.12,70.23Z" fill="#cce6f7"/><path d="M134.36,437.41a75.72,75.72,0,1,1,42.94-13.36A75.81,75.81,0,0,1,134.36,437.41Zm0-143.71a68,68,0,1,0,68,68A67.88,67.88,0,0,0,134.36,293.7Z"/><path d="M451.25,361.7a46.16,46.16,0,1,1-48.49-46.11c.77,0,1.55-.06,2.33-.06A46.17,46.17,0,0,1,451.25,361.7Z" fill="#585860"/><path d="M451.25,361.7a46,46,0,0,1-16.15,35.08c-.78,0-1.56.06-2.35.06a46.16,46.16,0,0,1-30-81.25c.77,0,1.55-.06,2.33-.06A46.17,46.17,0,0,1,451.25,361.7Z" fill="#64646e"/><path d="M169.5,361.7a35.18,35.18,0,1,1-35.14-35.15A35,35,0,0,1,169.5,361.7Z" fill="#585860"/><path d="M169.5,361.7a35,35,0,0,1-11.77,26.24,34.66,34.66,0,0,1-7.33.77,35.13,35.13,0,0,1-23.35-61.4A35.18,35.18,0,0,1,169.5,361.7Z" fill="#64646e"/><path d="M134.36,400.71a39,39,0,0,1-8.11-77.18,39.46,39.46,0,0,1,8.11-.85,39,39,0,0,1,0,78Zm0-70.3a31.8,31.8,0,0,0-6.52.68,31.31,31.31,0,1,0,6.52-.68Z"/><path d="M247,380.37l-11.8,23.7a11,11,0,0,1-6.33,12.68L217.78,439h0l-.7,1.4a7.07,7.07,0,0,1-9.51,3.18l-2.44-1.21a7.09,7.09,0,0,1-3.18-9.52l10-20.15-82.55-41.16a11,11,0,0,1,5.19-20.91,11.16,11.16,0,0,1,4.67,1.15L221.84,393l3.84-7.72,6.21-12.45a7.12,7.12,0,0,1,8.74-3.51c.27.1.52.21.78.33l2.44,1.22A7.07,7.07,0,0,1,247,380.37Z" fill="#b3b3b3"/><path d="M247,380.37l-11.8,23.7a11,11,0,0,1-6.33,12.68L217.78,439h0c-.26-.1-.51-.21-.76-.33l-2.45-1.22a7.09,7.09,0,0,1-3.18-9.51l10.05-20.16-82.55-41.17a11,11,0,0,1-5-14.8,9.39,9.39,0,0,1,.7-1.18,11.16,11.16,0,0,1,4.67,1.15L221.84,393l3.84-7.72,6.21-12.45a7.12,7.12,0,0,1,8.74-3.51c.27.1.52.21.78.33l2.44,1.22A7.07,7.07,0,0,1,247,380.37Z" fill="#e6e6e6"/><path d="M183.33,131.43a20.21,20.21,0,0,1-1.17,5.19,20.82,20.82,0,0,1-19.53,13.67c-.66,0-1.33,0-2-.08l-94.24-8.9a20.83,20.83,0,0,1,1.93-41.56,18.81,18.81,0,0,1,2,.09l2.34.22,91.9,8.68A20.81,20.81,0,0,1,183.33,131.43Z" fill="#ef9614"/><path d="M183.33,131.43a20.21,20.21,0,0,1-1.17,5.19l-91.89-8.69a20.83,20.83,0,0,1-18.78-22.7,20.48,20.48,0,0,1,1.17-5.17l91.9,8.68A20.81,20.81,0,0,1,183.33,131.43Z" fill="#f8a926"/><path d="M459.05,86.86a64,64,0,0,1-41,31.36l-23,5.54,23.65,86.48a10.29,10.29,0,0,1,.37,2.5c-4.11,0-8.19.16-12.21.51-3.35.26-6.66.65-9.93,1.14l-26.18-95.78A11.05,11.05,0,0,1,378.82,105l34.05-8.2A41.76,41.76,0,0,0,442.56,42.6a11,11,0,0,1,20.88-7.18A64,64,0,0,1,459.05,86.86Z" fill="#ef9614"/><path d="M459.05,86.86a64,64,0,0,1-41,31.36l-23,5.54,23.65,86.48a10.29,10.29,0,0,1,.37,2.5c-4.11,0-8.19.16-12.21.51L381,118.61A11,11,0,0,1,389.05,105l34.05-8.2A41.76,41.76,0,0,0,452.79,42.6a11,11,0,0,1,5.33-13.37,11,11,0,0,1,5.32,6.19A64,64,0,0,1,459.05,86.86Z" fill="#f8a926"/><path d="M412.94,96.76h-.07L378.82,105a11.06,11.06,0,0,0-6.42,4.36,8.32,8.32,0,0,0-.5.76,11.05,11.05,0,0,0-1.15,8.52l.16.58-26.13,7.18a13.44,13.44,0,0,1-16.52-9.4,13.27,13.27,0,0,1-.48-3.56,13.46,13.46,0,0,1,9.88-13l5.88-1.61L396,84.45a13.44,13.44,0,0,1,16.51,9.4A13.28,13.28,0,0,1,412.94,96.76Z" fill="#ef9614"/><path d="M412.94,96.76h-.07L378.82,105a11.06,11.06,0,0,0-6.42,4.36l-11.89,3.26A13.43,13.43,0,0,1,344,103.2a13.27,13.27,0,0,1-.48-3.56c0-.27,0-.52,0-.79L396,84.45a13.44,13.44,0,0,1,16.51,9.4A13.28,13.28,0,0,1,412.94,96.76Z" fill="#f8a926"/><path d="M526.91,309.44a3.88,3.88,0,0,1-3.45-2.1c-14.29-28-35.29-47.57-62.43-58.3-20.33-8-36.66-7.78-36.84-7.79h-.09a3.86,3.86,0,0,1-.09-7.72c.73,0,17.81-.31,39.53,8.2,20,7.84,47.83,25,66.8,62.09a3.87,3.87,0,0,1-1.68,5.2A3.92,3.92,0,0,1,526.91,309.44Z"/><path d="M542.64,388.12a3.66,3.66,0,0,1-.57-.05,3.86,3.86,0,0,1-3.25-4.39c5-33.42-7.38-58.82-7.51-59.07a3.87,3.87,0,0,1,6.92-3.45c.55,1.11,13.59,27.73,8.23,63.66A3.88,3.88,0,0,1,542.64,388.12Z"/><path d="M434.85,365.56a3.87,3.87,0,0,1-3.86-3.78c-.45-20.43-16.71-26.08-17.4-26.31a3.86,3.86,0,0,1,2.38-7.35c7.67,2.47,22.28,12.65,22.74,33.49a3.86,3.86,0,0,1-3.77,3.95Z"/><path d="M418.63,396.51a3.87,3.87,0,0,1-1.63-7.37,20.86,20.86,0,0,0,11.93-14.39,3.86,3.86,0,0,1,7.64,1.17,28.59,28.59,0,0,1-16.31,20.22A3.8,3.8,0,0,1,418.63,396.51Z"/><path d="M148.76,575.88H10.28A3.86,3.86,0,0,1,6.42,572a31.43,31.43,0,0,1,31.4-31.4h18.3L94.5,453.86a3.85,3.85,0,0,1,4.75-2.1A95.43,95.43,0,0,0,111.92,455a92.88,92.88,0,0,0,15.5,1.6,3.87,3.87,0,0,1,3.46,5.43L96.12,540.62h25.1a31.41,31.41,0,0,1,31.4,31.4A3.86,3.86,0,0,1,148.76,575.88Zm-134.3-7.72H144.58a23.7,23.7,0,0,0-23.36-19.81h-31A3.85,3.85,0,0,1,87,546.59a3.89,3.89,0,0,1-.3-3.67l34.89-78.84a98.47,98.47,0,0,1-11.05-1.46,101.8,101.8,0,0,1-10.32-2.48l-38,85.91a3.87,3.87,0,0,1-3.54,2.3H37.82A23.71,23.71,0,0,0,14.46,568.16Z"/><path d="M589.72,575.88H451.25a3.86,3.86,0,0,1-3.86-3.86,31.44,31.44,0,0,1,31.4-31.4h26.34L485,495.11a3.87,3.87,0,0,1,1.73-5A143.83,143.83,0,0,0,500,482.21c3.55-2.37,7.09-5,10.52-7.78a3.86,3.86,0,0,1,6,1.43l28.65,64.76h17a31.39,31.39,0,0,1,31.4,31.4A3.86,3.86,0,0,1,589.72,575.88Zm-134.29-7.72H585.54a23.7,23.7,0,0,0-23.36-19.81H542.61a3.87,3.87,0,0,1-3.53-2.3l-27.65-62.52c-2.36,1.79-4.75,3.5-7.14,5.1-3.48,2.34-7.1,4.56-10.79,6.62l21.09,47.67a3.86,3.86,0,0,1-3.53,5.43H478.79A23.71,23.71,0,0,0,455.43,568.16Z"/><path d="M129.45,464.38A102.7,102.7,0,0,1,84.78,269.21,101.65,101.65,0,0,1,129.45,259a103.67,103.67,0,0,1,15.85,1.22L412.89,281a80.71,80.71,0,0,1,0,161.41L145.31,463.17A105,105,0,0,1,129.45,464.38Zm0-197.64a94,94,0,0,0-41.3,9.42,95,95,0,0,0,56.11,179.35l.3,0,267.88-20.8h.3a73,73,0,1,0,0-146h-.3L144.55,267.92l-.3,0A96.3,96.3,0,0,0,129.45,266.74Z"/><path d="M210.72,448.24a11,11,0,0,1-4.89-1.16l-2.43-1.21a10.93,10.93,0,0,1-4.91-14.7l8.31-16.69L127.71,375a14.9,14.9,0,0,1,7-28.22,15,15,0,0,1,6.27,1.54L220.1,387.8l8.34-16.7a11,11,0,0,1,13.49-5.43c.43.16.78.32,1.14.49l2.5,1.24a10.94,10.94,0,0,1,4.91,14.69l-11.23,22.55a14.92,14.92,0,0,1-7.48,15l-10.53,21.13-.13.24-.58,1.16a10.88,10.88,0,0,1-6.32,5.51A11,11,0,0,1,210.72,448.24Zm-76.37-93.71a7.17,7.17,0,0,0-3.19,13.59l82.55,41.16a3.87,3.87,0,0,1,1.73,5.18l-10,20.16a3.22,3.22,0,0,0-.18,2.47,3.17,3.17,0,0,0,1.62,1.86l2.44,1.21a3.21,3.21,0,0,0,4.33-1.44l.7-1.4c0-.08.08-.16.13-.24l11-22.06a3.89,3.89,0,0,1,1.93-1.82,7.16,7.16,0,0,0,4.1-8.23,3.86,3.86,0,0,1,.3-2.63l11.81-23.69h0a3.17,3.17,0,0,0,.18-2.45,3.25,3.25,0,0,0-1.63-1.88l-2.43-1.21-.41-.17a3.23,3.23,0,0,0-3.93,1.62l-10,20.16a3.92,3.92,0,0,1-2.23,1.94,3.87,3.87,0,0,1-2.95-.21l-82.56-41.16a7.24,7.24,0,0,0-3-.75ZM217.78,439h0Z"/><path d="M405.09,411.73a50,50,0,0,1-2.52-100c.85,0,1.68-.06,2.52-.06a50,50,0,1,1,0,100.06Zm0-92.34c-.73,0-1.45,0-2.17.06a42.22,42.22,0,1,0,2.17-.06Z"/><path d="M162.63,154.16c-.87,0-1.65,0-2.37-.11L66,145.16a24.69,24.69,0,0,1,2.29-49.28c.88,0,1.65,0,2.38.11l94.21,8.91a24.72,24.72,0,0,1,22.26,26.9,24.47,24.47,0,0,1-1.39,6.14A24.73,24.73,0,0,1,162.63,154.16Zm-94.3-50.55a17,17,0,0,0-1.57,33.85l94.25,8.9a15.73,15.73,0,0,0,1.62.07,17,17,0,0,0,15.9-11.13,16.53,16.53,0,0,0,1-4.22h0a17,17,0,0,0-15.29-18.48L70,103.68A15.93,15.93,0,0,0,68.33,103.61Z"/><path d="M396.93,218.26a3.87,3.87,0,0,1-3.72-2.85L367,119.63a14.92,14.92,0,0,1,10.88-18.42L412,93a37.9,37.9,0,0,0,26.94-49.15,14.9,14.9,0,0,1,28.18-9.71A67.71,67.71,0,0,1,418.94,122l-19.12,4.6,22.6,82.65a13.77,13.77,0,0,1,.51,3.4,3.86,3.86,0,0,1-3.86,4c-4,0-8,.17-11.89.49-3.21.26-6.46.64-9.67,1.12A3.79,3.79,0,0,1,396.93,218.26ZM453,31.83a7,7,0,0,0-2.33.4,7.19,7.19,0,0,0-4.46,9.12,45.59,45.59,0,0,1-32.44,59.17l-34,8.2a7.22,7.22,0,0,0-4.5,3.34,7.11,7.11,0,0,0-.75,5.54l25.28,92.5c2.27-.29,4.54-.53,6.79-.71,2.54-.21,5.15-.36,7.79-.44l-23-84.17a3.86,3.86,0,0,1,2.82-4.77l23-5.54A60.08,60.08,0,0,0,455.66,85h0a60.14,60.14,0,0,0,4.13-48.33A7.21,7.21,0,0,0,453,31.83Z"/><path d="M341.23,130.71a17.29,17.29,0,0,1-4.59-34l58.3-16a17.32,17.32,0,0,1,21.26,12.1,16.91,16.91,0,0,1,.59,3.75,3.85,3.85,0,0,1-3.15,4l-33.91,8.17a7.31,7.31,0,0,0-4.18,2.83c-.13.19-.22.33-.31.48a7.16,7.16,0,0,0-.76,5.57l.16.6a3.86,3.86,0,0,1-2.71,4.72l-26.13,7.17A17.22,17.22,0,0,1,341.23,130.71Zm58.28-42.88a9.17,9.17,0,0,0-2.52.35l-58.31,16a9.59,9.59,0,0,0-7,9.22,9.42,9.42,0,0,0,.35,2.53,9.57,9.57,0,0,0,11.76,6.7l22.77-6.25a15,15,0,0,1,2.06-8.27c.21-.35.44-.72.7-1.07a14.89,14.89,0,0,1,8.62-5.83l30.51-7.35A9.59,9.59,0,0,0,399.51,87.83Z"/></svg>