<svg id="Fitness_Color_Icons" data-name="Fitness Color Icons" xmlns="http://www.w3.org/2000/svg" viewBox="0 0 600 600"><path d="M323.73,28V96.81H285.4V28A19.17,19.17,0,0,1,300.48,9.25a18.89,18.89,0,0,1,4.08-.44A19.15,19.15,0,0,1,323.73,28Z" fill="#7c8199"/><path d="M323.73,28V82.35h-5.15A18.58,18.58,0,0,1,300,63.77V13.51a18.73,18.73,0,0,1,.48-4.26,18.89,18.89,0,0,1,4.08-.44A19.15,19.15,0,0,1,323.73,28Z" fill="#8d91ac"/><path d="M323.73,127.44V248.18H285.4V127.44a37.07,37.07,0,0,0,9.1,1.12h20.13A37.13,37.13,0,0,0,323.73,127.44Z" fill="#7c8199"/><path d="M323.73,127.44v106.1h-4.2A19.53,19.53,0,0,1,300,214V128.56h14.63A37.13,37.13,0,0,0,323.73,127.44Z" fill="#8d91ac"/><path d="M323.73,302.14V417.91H285.4V302.14a39.1,39.1,0,0,0,9.1,1.07h20.13A39.17,39.17,0,0,0,323.73,302.14Z" fill="#7c8199"/><path d="M323.73,302.14v95.29h-2.8A20.93,20.93,0,0,1,300,376.49V303.21h14.63A39.17,39.17,0,0,0,323.73,302.14Z" fill="#8d91ac"/><path d="M323.73,476.83v86.46H285.4V476.83a31.78,31.78,0,0,0,9.1,1.32h20.13A31.84,31.84,0,0,0,323.73,476.83Z" fill="#7c8199"/><path d="M323.73,476.83v59.58A25.71,25.71,0,0,1,300,510.76V478.15h14.63A31.84,31.84,0,0,0,323.73,476.83Z" fill="#8d91ac"/><path d="M346.58,271.51a31.79,31.79,0,0,1-6.81,19.72,33.08,33.08,0,0,1-2.55,2.87,31.83,31.83,0,0,1-22.58,9.36H294.51a32,32,0,0,1-32-31.95Z" fill="#ef9614"/><path d="M346.58,271.51a31.79,31.79,0,0,1-6.81,19.72,31.9,31.9,0,0,1-6,.56H313.66a31.92,31.92,0,0,1-29.74-20.28Z" fill="#f8a926"/><path d="M346.58,446.2a32,32,0,0,1-31.94,31.95H294.51a32,32,0,0,1-32-31.95Z" fill="#ef9614"/><path d="M346.58,446.2a31.67,31.67,0,0,1-3.53,14.6,31.48,31.48,0,0,1-9.26,1.37H313.66a31.93,31.93,0,0,1-27.67-16Z" fill="#f8a926"/><path d="M346.58,96.81a31.82,31.82,0,0,1-7.08,20.07c-.72.88-1.48,1.73-2.28,2.53a31.83,31.83,0,0,1-22.58,9.36H294.51a32,32,0,0,1-32-32Z" fill="#ef9614"/><path d="M346.58,96.81a31.82,31.82,0,0,1-7.08,20.07,31.9,31.9,0,0,1-9.63,1.47H309.73a31.92,31.92,0,0,1-30.19-21.54Z" fill="#f8a926"/><path d="M488.19,591.19H121a27.91,27.91,0,0,1,27.89-27.9H460.29a27.9,27.9,0,0,1,27.9,27.9Z" fill="#7c8199"/><path d="M484.45,577.24H154.54a27.74,27.74,0,0,1,3.74-14h302A27.88,27.88,0,0,1,484.45,577.24Z" fill="#8d91ac"/><path d="M323.73,100.55H285.4a3.73,3.73,0,0,1-3.74-3.74V28a22.91,22.91,0,1,1,45.81,0V96.81A3.74,3.74,0,0,1,323.73,100.55Zm-34.6-7.48H320V28a15.42,15.42,0,0,0-15.43-15.43A15.42,15.42,0,0,0,289.13,28Z"/><path d="M314.64,132.51H294.51a35.74,35.74,0,0,1-35.7-35.7,3.75,3.75,0,0,1,3.74-3.74h84a3.74,3.74,0,0,1,3.74,3.74,35.7,35.7,0,0,1-35.68,35.7Zm-48.1-32a28.26,28.26,0,0,0,28,24.48h20.13a28,28,0,0,0,19.94-8.26c.7-.71,1.38-1.46,2-2.24a28.12,28.12,0,0,0,6-14Z"/><path d="M323.73,251.92H285.4a3.73,3.73,0,0,1-3.74-3.74V127.44a3.74,3.74,0,0,1,4.65-3.62,33.65,33.65,0,0,0,8.19,1h20.13a33.77,33.77,0,0,0,8.19-1,3.74,3.74,0,0,1,4.65,3.62V248.18A3.74,3.74,0,0,1,323.73,251.92Zm-34.6-7.48H320V132a41.59,41.59,0,0,1-5.36.35H294.5a41.63,41.63,0,0,1-5.37-.35Z"/><path d="M314.64,307.2H294.51a35.74,35.74,0,0,1-35.7-35.69,3.74,3.74,0,0,1,3.74-3.74h84a3.73,3.73,0,0,1,3.74,3.74,35.24,35.24,0,0,1-7.62,22,33.7,33.7,0,0,1-2.83,3.21A35.48,35.48,0,0,1,314.64,307.2Zm-48.1-31.95a28.26,28.26,0,0,0,28,24.47h20.13a28,28,0,0,0,19.94-8.26,26.23,26.23,0,0,0,2.23-2.53,27.76,27.76,0,0,0,5.79-13.68Z"/><path d="M314.64,481.89H294.51a35.74,35.74,0,0,1-35.7-35.69,3.74,3.74,0,0,1,3.74-3.74h84a3.73,3.73,0,0,1,3.74,3.74,35.68,35.68,0,0,1-35.68,35.69Zm-48.1-31.95a28.26,28.26,0,0,0,28,24.47h20.13a28,28,0,0,0,19.94-8.26,28.34,28.34,0,0,0,5.14-7,27.64,27.64,0,0,0,2.88-9.16Z"/><path d="M323.73,421.65H285.4a3.74,3.74,0,0,1-3.74-3.74V302.14a3.73,3.73,0,0,1,4.61-3.64,35.23,35.23,0,0,0,8.23,1h20.13a35.08,35.08,0,0,0,8.22-1,3.75,3.75,0,0,1,4.62,3.64V417.91A3.75,3.75,0,0,1,323.73,421.65Zm-34.6-7.48H320V306.61a43.45,43.45,0,0,1-5.36.33H294.5a43.62,43.62,0,0,1-5.37-.33Z"/><path d="M323.73,567H285.4a3.73,3.73,0,0,1-3.74-3.74V476.83a3.73,3.73,0,0,1,4.81-3.58,28,28,0,0,0,8,1.16h20.13a28,28,0,0,0,8-1.16,3.74,3.74,0,0,1,4.82,3.58v86.46A3.74,3.74,0,0,1,323.73,567Zm-34.6-7.48H320V481.49a35.52,35.52,0,0,1-5.36.4H294.5a35.56,35.56,0,0,1-5.37-.4Z"/><path d="M488.19,594.93H121a3.74,3.74,0,0,1-3.74-3.74,31.65,31.65,0,0,1,31.63-31.64H460.29a31.65,31.65,0,0,1,31.64,31.64A3.75,3.75,0,0,1,488.19,594.93ZM125,587.45H484.16A24.18,24.18,0,0,0,460.29,567H148.84A24.2,24.2,0,0,0,125,587.45Z"/><path d="M506.64,397.62v68.87a18.46,18.46,0,1,1-36.92,0V397.62A18.47,18.47,0,0,1,483,379.9a18.26,18.26,0,0,1,5.2-.74,18.44,18.44,0,0,1,18.46,18.46Z" fill="#4a4a4f"/><path d="M506.64,397.62v68.87a18.45,18.45,0,0,1-3.14,10.31,18.46,18.46,0,0,1-23.67-17.71V390.23A18.47,18.47,0,0,1,483,379.9a18.26,18.26,0,0,1,5.2-.74,18.44,18.44,0,0,1,18.46,18.46Z" fill="#64646e"/><path d="M479.83,415.63a3.73,3.73,0,0,1-3.74-3.74v-15a3.74,3.74,0,0,1,7.48,0v15A3.74,3.74,0,0,1,479.83,415.63Z"/><path d="M479.83,475.71a3.74,3.74,0,0,1-3.74-3.74V427.25a3.74,3.74,0,0,1,7.48,0V472A3.75,3.75,0,0,1,479.83,475.71Z"/><rect x="215.14" y="417.91" width="169.72" height="28.29" fill="#b3b3b3"/><path d="M384.86,417.91V434H244a15.35,15.35,0,0,1-15.35-15.35v-.76Z" fill="#e6e6e6"/><path d="M191.85,389.63h18.23a5.07,5.07,0,0,1,5.07,5.07v74.72a5.07,5.07,0,0,1-5.07,5.07H191.85a0,0,0,0,1,0,0V389.63A0,0,0,0,1,191.85,389.63Z" fill="#b3b3b3"/><rect x="408.15" y="343.87" width="61.56" height="176.37" rx="28.81" fill="#4a4a4f"/><path d="M488.18,488.69a22.23,22.23,0,0,1-22.2-22.2V397.62a22.2,22.2,0,1,1,44.4,0v68.87A22.23,22.23,0,0,1,488.18,488.69Zm0-105.79a14.73,14.73,0,0,0-14.72,14.72v68.87a14.73,14.73,0,0,0,29.45,0V397.62A14.74,14.74,0,0,0,488.18,382.9Z"/><path d="M130.28,397.62v68.87a18.46,18.46,0,0,1-36.92,0V397.62a18.47,18.47,0,0,1,13.26-17.72,18.26,18.26,0,0,1,5.2-.74,18.44,18.44,0,0,1,18.46,18.46Z" fill="#4a4a4f"/><path d="M130.28,397.62v68.87a18.45,18.45,0,0,1-3.14,10.31,18.46,18.46,0,0,1-23.67-17.71V390.23a18.47,18.47,0,0,1,3.15-10.33,18.26,18.26,0,0,1,5.2-.74,18.44,18.44,0,0,1,18.46,18.46Z" fill="#64646e"/><path d="M191.85,374.65V489.46a30.81,30.81,0,0,1-23.87,30,31.54,31.54,0,0,1-6.91.77,30.78,30.78,0,0,1-30.79-30.78V374.65a30.78,30.78,0,0,1,30.79-30.78,31.54,31.54,0,0,1,6.91.77,30.82,30.82,0,0,1,23.87,30Z" fill="#4a4a4f"/><path d="M191.85,374.65V489.46a30.81,30.81,0,0,1-23.87,30,30.81,30.81,0,0,1-23.87-30V374.65a30.81,30.81,0,0,1,23.87-30,30.82,30.82,0,0,1,23.87,30Z" fill="#64646e"/><path d="M469.72,374.65V489.46a30.81,30.81,0,0,1-23.87,30,30.81,30.81,0,0,1-23.87-30V374.65a30.81,30.81,0,0,1,23.87-30,30.82,30.82,0,0,1,23.87,30Z" fill="#64646e"/><path d="M161.07,524a34.57,34.57,0,0,1-34.53-34.52V374.65a34.53,34.53,0,0,1,69.05,0V489.46A34.56,34.56,0,0,1,161.07,524Zm0-176.37a27.07,27.07,0,0,0-27,27V489.46a27,27,0,0,0,54.09,0V374.65A27.07,27.07,0,0,0,161.07,347.61Z"/><path d="M144.11,412.15a3.73,3.73,0,0,1-3.74-3.74v-21.8a3.74,3.74,0,1,1,7.48,0v21.8A3.74,3.74,0,0,1,144.11,412.15Z"/><path d="M144.11,488.69a3.73,3.73,0,0,1-3.74-3.74V419.88a3.74,3.74,0,1,1,7.48,0V485A3.74,3.74,0,0,1,144.11,488.69Z"/><path d="M103.47,414.57a3.74,3.74,0,0,1-3.74-3.74v-15a3.74,3.74,0,0,1,7.48,0v15A3.75,3.75,0,0,1,103.47,414.57Z"/><path d="M103.47,473.57a3.74,3.74,0,0,1-3.74-3.74V425.11a3.74,3.74,0,0,1,7.48,0v44.72A3.75,3.75,0,0,1,103.47,473.57Z"/><path d="M422.57,412.15a3.73,3.73,0,0,1-3.74-3.74v-21.8a3.74,3.74,0,1,1,7.47,0v21.8A3.73,3.73,0,0,1,422.57,412.15Z"/><path d="M422.57,488.69a3.73,3.73,0,0,1-3.74-3.74V419.88a3.74,3.74,0,1,1,7.47,0V485A3.73,3.73,0,0,1,422.57,488.69Z"/><path d="M438.93,524a34.56,34.56,0,0,1-34.52-34.52V374.65a34.53,34.53,0,0,1,69,0V489.46A34.57,34.57,0,0,1,438.93,524Zm0-176.37a27.07,27.07,0,0,0-27,27V489.46a27,27,0,0,0,54.09,0V374.65A27.07,27.07,0,0,0,438.93,347.61Z"/><path d="M384.86,449.94H215.14a3.75,3.75,0,0,1-3.74-3.74V417.91a3.75,3.75,0,0,1,3.74-3.74H384.86a3.75,3.75,0,0,1,3.74,3.74V446.2A3.75,3.75,0,0,1,384.86,449.94Zm-166-7.48H381.12V421.65H218.88Z"/><path d="M215.14,395.06v69h-3.48a10.39,10.39,0,0,1-10.38-10.39v-64h8.43A5.43,5.43,0,0,1,215.14,395.06Z" fill="#e6e6e6"/><path d="M209.73,478.22H191.85a3.73,3.73,0,0,1-3.74-3.74V389.63a3.73,3.73,0,0,1,3.74-3.74h17.88a9.16,9.16,0,0,1,9.15,9.15v74A9.16,9.16,0,0,1,209.73,478.22Zm-14.14-7.47h14.14a1.68,1.68,0,0,0,1.67-1.68V395a1.67,1.67,0,0,0-1.67-1.67H195.59Z"/><path d="M384.86,389.63h18.23a5.07,5.07,0,0,1,5.07,5.07v74.72a5.07,5.07,0,0,1-5.07,5.07H384.86a0,0,0,0,1,0,0V389.63A0,0,0,0,1,384.86,389.63Z" transform="translate(793.01 864.11) rotate(-180)" fill="#b3b3b3"/><path d="M384.86,395.06v69h3.48a10.39,10.39,0,0,0,10.38-10.39v-64h-8.43A5.43,5.43,0,0,0,384.86,395.06Z" fill="#e6e6e6"/><path d="M408.15,478.22H390.27a9.16,9.16,0,0,1-9.15-9.15V395a9.16,9.16,0,0,1,9.15-9.15h17.88a3.73,3.73,0,0,1,3.74,3.74v84.85A3.73,3.73,0,0,1,408.15,478.22Zm-17.88-84.85A1.67,1.67,0,0,0,388.6,395v74a1.68,1.68,0,0,0,1.67,1.68h14.14V393.37Z"/><path d="M111.82,488.69a22.23,22.23,0,0,1-22.2-22.2V397.62a22.2,22.2,0,0,1,44.4,0v68.87A22.23,22.23,0,0,1,111.82,488.69Zm0-105.79a14.74,14.74,0,0,0-14.73,14.72v68.87a14.73,14.73,0,0,0,29.45,0V397.62A14.73,14.73,0,0,0,111.82,382.9Z"/><path d="M470.36,231.46v56.78a15.22,15.22,0,0,1-30.44,0V231.46a15.22,15.22,0,1,1,30.44,0Z" fill="#4a4a4f"/><path d="M470.36,231.46v56.78a15.17,15.17,0,0,1-2.59,8.5,15.21,15.21,0,0,1-19.51-14.6V225.36a15.17,15.17,0,0,1,2.6-8.51,15.22,15.22,0,0,1,19.5,14.61Z" fill="#64646e"/><path d="M448.26,247a3.74,3.74,0,0,1-3.74-3.74V230.87a3.74,3.74,0,0,1,7.48,0v12.36A3.75,3.75,0,0,1,448.26,247Z"/><path d="M448.26,296.49a3.74,3.74,0,0,1-3.74-3.74V255.89a3.74,3.74,0,0,1,7.48,0v36.86A3.75,3.75,0,0,1,448.26,296.49Z"/><rect x="230.04" y="248.19" width="139.92" height="23.32" fill="#b3b3b3"/><path d="M370,248.19v13.27H253.82a12.65,12.65,0,0,1-12.65-12.65v-.62Z" fill="#e6e6e6"/><path d="M210.84,224.87h15A4.18,4.18,0,0,1,230,229v61.6a4.18,4.18,0,0,1-4.18,4.18h-15a0,0,0,0,1,0,0v-70A0,0,0,0,1,210.84,224.87Z" fill="#b3b3b3"/><rect x="389.16" y="187.14" width="50.75" height="145.41" rx="23.75" fill="#4a4a4f"/><path d="M455.14,307.2a19,19,0,0,1-19-19V231.46a19,19,0,0,1,37.92,0v56.77A19,19,0,0,1,455.14,307.2Zm0-87.22a11.49,11.49,0,0,0-11.48,11.48v56.77a11.48,11.48,0,1,0,23,0V231.46A11.49,11.49,0,0,0,455.14,220Z"/><path d="M160.08,231.46v56.78a15.22,15.22,0,1,1-30.44,0V231.46a15.22,15.22,0,1,1,30.44,0Z" fill="#4a4a4f"/><path d="M160.08,231.46v56.78a15.25,15.25,0,0,1-2.59,8.5A15.21,15.21,0,0,1,138,282.14V225.36a15.24,15.24,0,0,1,2.59-8.51,15.22,15.22,0,0,1,19.51,14.61Z" fill="#64646e"/><path d="M210.84,212.52v94.65a25.38,25.38,0,0,1-50.76,0V212.52a25.38,25.38,0,0,1,25.38-25.38,26.14,26.14,0,0,1,5.7.64,25.44,25.44,0,0,1,19.68,24.74Z" fill="#4a4a4f"/><path d="M210.84,212.52v94.65a25.39,25.39,0,0,1-19.68,24.74,25.39,25.39,0,0,1-19.68-24.74V212.52a25.4,25.4,0,0,1,19.68-24.74,25.44,25.44,0,0,1,19.68,24.74Z" fill="#64646e"/><path d="M439.92,212.52v94.65a25.39,25.39,0,0,1-19.68,24.74,25.39,25.39,0,0,1-19.68-24.74V212.52a25.4,25.4,0,0,1,19.68-24.74,25.41,25.41,0,0,1,19.68,24.74Z" fill="#64646e"/><path d="M185.46,336.29a29.15,29.15,0,0,1-29.12-29.12V212.52a29.12,29.12,0,1,1,58.23,0v94.65A29.15,29.15,0,0,1,185.46,336.29Zm0-145.41a21.67,21.67,0,0,0-21.64,21.64v94.65a21.64,21.64,0,1,0,43.28,0V212.52A21.67,21.67,0,0,0,185.46,190.88Z"/><path d="M171.48,244.1a3.74,3.74,0,0,1-3.74-3.74v-18a3.74,3.74,0,0,1,7.48,0v18A3.75,3.75,0,0,1,171.48,244.1Z"/><path d="M171.48,307.2a3.74,3.74,0,0,1-3.74-3.74V249.81a3.74,3.74,0,1,1,7.48,0v53.65A3.75,3.75,0,0,1,171.48,307.2Z"/><path d="M138,246.08a3.74,3.74,0,0,1-3.74-3.73V230a3.74,3.74,0,0,1,7.48,0v12.36A3.73,3.73,0,0,1,138,246.08Z"/><path d="M138,294.73a3.75,3.75,0,0,1-3.74-3.74V254.12a3.74,3.74,0,0,1,7.48,0V291A3.74,3.74,0,0,1,138,294.73Z"/><path d="M401.05,244.1a3.74,3.74,0,0,1-3.74-3.74v-18a3.74,3.74,0,0,1,7.48,0v18A3.75,3.75,0,0,1,401.05,244.1Z"/><path d="M401.05,307.2a3.74,3.74,0,0,1-3.74-3.74V249.81a3.74,3.74,0,0,1,7.48,0v53.65A3.75,3.75,0,0,1,401.05,307.2Z"/><path d="M414.54,336.29a29.15,29.15,0,0,1-29.11-29.12V212.52a29.12,29.12,0,1,1,58.23,0v94.65A29.15,29.15,0,0,1,414.54,336.29Zm0-145.41a21.67,21.67,0,0,0-21.64,21.64v94.65a21.64,21.64,0,1,0,43.28,0V212.52A21.67,21.67,0,0,0,414.54,190.88Z"/><path d="M370,275.25H230a3.75,3.75,0,0,1-3.74-3.74V248.19a3.74,3.74,0,0,1,3.74-3.74H370a3.74,3.74,0,0,1,3.74,3.74v23.32A3.75,3.75,0,0,1,370,275.25Zm-136.18-7.48H366.22V251.93H233.78Z"/><path d="M230,229.35V286.2h-2.87a8.57,8.57,0,0,1-8.56-8.57V224.87h6.95A4.47,4.47,0,0,1,230,229.35Z" fill="#e6e6e6"/><path d="M225.58,298.57H210.84a3.74,3.74,0,0,1-3.74-3.74v-70a3.73,3.73,0,0,1,3.74-3.74h14.74a8.21,8.21,0,0,1,8.2,8.2v61A8.21,8.21,0,0,1,225.58,298.57Zm-11-7.48h11a.73.73,0,0,0,.72-.73v-61a.72.72,0,0,0-.72-.72h-11Z"/><path d="M370,224.87h15a4.18,4.18,0,0,1,4.18,4.18v61.6a4.18,4.18,0,0,1-4.18,4.18H370a0,0,0,0,1,0,0v-70A0,0,0,0,1,370,224.87Z" transform="translate(759.12 519.69) rotate(-180)" fill="#b3b3b3"/><path d="M370,229.35V286.2h2.87a8.57,8.57,0,0,0,8.56-8.57V224.87h-6.95A4.47,4.47,0,0,0,370,229.35Z" fill="#e6e6e6"/><path d="M389.16,298.57H374.42a8.21,8.21,0,0,1-8.2-8.21v-61a8.21,8.21,0,0,1,8.2-8.2h14.74a3.73,3.73,0,0,1,3.74,3.74v70A3.74,3.74,0,0,1,389.16,298.57Zm-14.74-70a.72.72,0,0,0-.72.72v61a.73.73,0,0,0,.72.73h11V228.61Z"/><path d="M144.86,307.2a19,19,0,0,1-19-19V231.46a19,19,0,1,1,37.92,0v56.77A19,19,0,0,1,144.86,307.2Zm0-87.22a11.49,11.49,0,0,0-11.48,11.48v56.77a11.48,11.48,0,1,0,23,0V231.46A11.49,11.49,0,0,0,144.86,220Z"/></svg>