<svg id="Fitness_Color_Icons" data-name="Fitness Color Icons" xmlns="http://www.w3.org/2000/svg" viewBox="0 0 600 600"><path d="M422.17,330.66a19.62,19.62,0,0,1-.28,3.36,20.26,20.26,0,0,1-20,16.91H213.31a20.27,20.27,0,1,1,0-40.53H401.9A20.26,20.26,0,0,1,422.17,330.66Z" fill="#bd3b43"/><path d="M422.17,330.66a19.62,19.62,0,0,1-.28,3.36H241.59a20.28,20.28,0,0,1-20.28-20.27,18.55,18.55,0,0,1,.29-3.35H401.9A20.26,20.26,0,0,1,422.17,330.66Z" fill="#ff807d"/><path d="M549.41,523.34v1.58H50.59v-1.58a29,29,0,0,1,29-29h440.9a29,29,0,0,1,29,29Z" fill="#585860"/><path d="M546.45,510.58h-457V509a28.72,28.72,0,0,1,4-14.63H520.45A28.94,28.94,0,0,1,546.45,510.58Z" fill="#64646e"/><rect x="226.5" y="350.93" width="162.21" height="143.44" fill="#f4b59f"/><path d="M388.71,350.93V482.74H278a26.09,26.09,0,0,1-26.09-26.09V350.93Z" fill="#fccdb9"/><path d="M147.39,122.85v22.82h-35V122.85a17.47,17.47,0,0,1,14.09-17.15,16.62,16.62,0,0,1,3.4-.34h0A17.5,17.5,0,0,1,147.39,122.85Z" fill="#585860"/><rect x="112.4" y="173.65" width="34.99" height="320.73" fill="#585860"/><path d="M489.08,122.85v22.82h-35V122.85a17.49,17.49,0,0,1,14.08-17.15,16.62,16.62,0,0,1,3.4-.34,17.5,17.5,0,0,1,17.49,17.49Z" fill="#585860"/><path d="M147.39,122.85v13.57H138A13.4,13.4,0,0,1,124.59,123v-9.41a17.36,17.36,0,0,1,1.9-7.91,16.62,16.62,0,0,1,3.4-.34h0A17.5,17.5,0,0,1,147.39,122.85Z" fill="#64646e"/><path d="M489.08,122.85v13.57H479.7A13.39,13.39,0,0,1,466.3,123v-9.41a17.35,17.35,0,0,1,1.89-7.91,16.62,16.62,0,0,1,3.4-.34,17.5,17.5,0,0,1,17.49,17.49Z" fill="#64646e"/><rect x="454.11" y="173.65" width="34.98" height="320.73" fill="#585860"/><path d="M147.39,173.65V468.59a35,35,0,0,1-22.8-32.8V173.65Z" fill="#64646e"/><path d="M489.08,173.65V468.59a35,35,0,0,1-22.78-32.8V173.65Z" fill="#64646e"/><rect x="98.73" y="145.67" width="402.55" height="27.99" fill="#64646e"/><path d="M501.27,145.67v15.76H136.13a19.66,19.66,0,0,1-19.27-15.76Z" fill="#8d91ac"/><path d="M98.74,102.53V216.78a27.45,27.45,0,0,1-54.89,0V102.53A27.42,27.42,0,0,1,59.8,77.62a27.44,27.44,0,0,1,38.94,24.91Z" fill="#585860"/><path d="M556.15,102.53V216.78a27.45,27.45,0,0,1-54.89,0V102.53a27.45,27.45,0,0,1,54.89,0Z" fill="#585860"/><path d="M591.47,122.88v73.54a17.66,17.66,0,0,1-35.32,0V122.88a17.66,17.66,0,0,1,17.66-17.66c.39,0,.78,0,1.16,0a17.69,17.69,0,0,1,16.5,17.62Z" fill="#585860"/><path d="M556.15,102.53V216.78a27.31,27.31,0,0,1-4.79,15.49,27.46,27.46,0,0,1-32.36-27V91a27.25,27.25,0,0,1,4.81-15.49,27.45,27.45,0,0,1,32.34,27Z" fill="#64646e"/><path d="M591.47,122.88v73.54a17.52,17.52,0,0,1-1.09,6.12,17.66,17.66,0,0,1-16.5-17.62V111.37a17.5,17.5,0,0,1,1.09-6.11,17.69,17.69,0,0,1,16.5,17.62Z" fill="#64646e"/><path d="M43.85,122.88v73.54a16.89,16.89,0,0,1-.31,3.28,17.66,17.66,0,0,1-35-3.28V122.88a17.64,17.64,0,0,1,14-17.26,16.6,16.6,0,0,1,3.68-.4,17.67,17.67,0,0,1,17.66,17.66Z" fill="#585860"/><path d="M98.74,102.53V216.78a27.32,27.32,0,0,1-2.26,10.9,27.42,27.42,0,0,1-38.95-24.9V88.54A27.09,27.09,0,0,1,59.8,77.62a27.44,27.44,0,0,1,38.94,24.91Z" fill="#64646e"/><path d="M43.85,122.88v73.54a16.89,16.89,0,0,1-.31,3.28,17.12,17.12,0,0,1-3.67.4A17.67,17.67,0,0,1,22.2,182.43V108.89a16.71,16.71,0,0,1,.31-3.27,16.6,16.6,0,0,1,3.68-.4,17.67,17.67,0,0,1,17.66,17.66Z" fill="#64646e"/><path d="M59.53,140A3.53,3.53,0,0,1,56,136.42V111.89a3.53,3.53,0,0,1,7.06,0v24.53A3.53,3.53,0,0,1,59.53,140Z"/><path d="M59.53,211.79A3.53,3.53,0,0,1,56,208.26V155.7a3.53,3.53,0,0,1,7.06,0v52.56A3.53,3.53,0,0,1,59.53,211.79Z"/><path d="M516.61,140a3.53,3.53,0,0,1-3.53-3.53V111.89a3.53,3.53,0,1,1,7.06,0v24.53A3.53,3.53,0,0,1,516.61,140Z"/><path d="M516.61,211.79a3.53,3.53,0,0,1-3.53-3.53V155.7a3.53,3.53,0,0,1,7.06,0v52.56A3.53,3.53,0,0,1,516.61,211.79Z"/><path d="M249,421.56A3.53,3.53,0,0,1,245.5,418V370a3.53,3.53,0,1,1,7.06,0V418A3.53,3.53,0,0,1,249,421.56Z"/><path d="M249,462.12a3.53,3.53,0,0,1-3.53-3.53v-27a3.53,3.53,0,1,1,7.06,0v27A3.53,3.53,0,0,1,249,462.12Z"/><path d="M26.19,217.61A21.21,21.21,0,0,1,5,196.42V122.88a21.27,21.27,0,0,1,16.78-20.72,20.55,20.55,0,0,1,4.41-.47,21.2,21.2,0,0,1,21.19,21.19v73.54a20.41,20.41,0,0,1-.38,4A21.15,21.15,0,0,1,26.19,217.61Zm0-108.86a14,14,0,0,0-2.92.31,14.18,14.18,0,0,0-11.21,13.82v73.54a14.13,14.13,0,0,0,28,2.64,13.51,13.51,0,0,0,.25-2.64V122.88a14.13,14.13,0,0,0-14.13-14.13Z"/><path d="M71.29,247.74a31,31,0,0,1-31-31V102.53a31,31,0,0,1,18-28.12,31,31,0,0,1,43.94,28.12V216.78a30.61,30.61,0,0,1-2.55,12.31A31,31,0,0,1,71.29,247.74Zm0-169.12a23.64,23.64,0,0,0-10,2.2,24,24,0,0,0-13.9,21.71V216.78a23.91,23.91,0,1,0,47.82,0V102.53A23.9,23.9,0,0,0,71.29,78.62Z"/><path d="M528.71,247.74a31,31,0,0,1-31-31V102.53a31,31,0,1,1,61.94,0V216.78a31,31,0,0,1-31,31Zm0-169.12a24.3,24.3,0,0,0-4.27.38,23.88,23.88,0,0,0-19.64,23.53V216.78a23.91,23.91,0,0,0,47.82,0V102.53a23.9,23.9,0,0,0-23.91-23.91Z"/><path d="M573.81,217.61a21.21,21.21,0,0,1-21.19-21.19V122.88a21.22,21.22,0,0,1,21.19-21.19c.49,0,1,0,1.44,0A21.2,21.2,0,0,1,595,122.88v73.54a21,21,0,0,1-1.31,7.34A21.25,21.25,0,0,1,573.81,217.61Zm0-108.86a14.15,14.15,0,0,0-14.13,14.13v73.54a14.13,14.13,0,1,0,28.26,0V122.88a14.12,14.12,0,0,0-13.2-14.09C574.4,108.76,574.11,108.75,573.81,108.75Z"/><path d="M401.9,354.46H213.31a23.8,23.8,0,1,1,0-47.59H401.9a23.82,23.82,0,0,1,23.8,23.79,23.29,23.29,0,0,1-.33,4,23.78,23.78,0,0,1-23.47,19.83ZM213.31,313.93a16.74,16.74,0,1,0,0,33.47H401.9a16.71,16.71,0,0,0,16.51-14,15.73,15.73,0,0,0,.23-2.78,16.76,16.76,0,0,0-16.74-16.73Z"/><path d="M388.71,497.91H226.5a3.53,3.53,0,0,1-3.53-3.53V350.93a3.53,3.53,0,0,1,3.53-3.53H388.71a3.53,3.53,0,0,1,3.53,3.53V494.38A3.53,3.53,0,0,1,388.71,497.91ZM230,490.85H385.18V354.46H230Z"/><path d="M147.39,149.19h-35a3.53,3.53,0,0,1-3.53-3.53V122.85a21,21,0,0,1,42,0v22.81A3.53,3.53,0,0,1,147.39,149.19Zm-31.46-7.06h27.93V122.85a14,14,0,0,0-27.93,0Z"/><path d="M147.39,497.91h-35a3.53,3.53,0,0,1-3.53-3.53V173.65a3.53,3.53,0,0,1,3.53-3.53h35a3.53,3.53,0,0,1,3.53,3.53V494.38A3.53,3.53,0,0,1,147.39,497.91Zm-31.46-7.06h27.93V177.18H115.93Z"/><path d="M489.08,149.19h-35a3.53,3.53,0,0,1-3.53-3.53V122.85a21,21,0,0,1,42,0v22.81A3.53,3.53,0,0,1,489.08,149.19Zm-31.44-7.06h27.91V122.85a14,14,0,0,0-27.91,0Z"/><path d="M489.08,497.91h-35a3.53,3.53,0,0,1-3.53-3.53V173.65a3.53,3.53,0,0,1,3.53-3.53h35a3.53,3.53,0,0,1,3.53,3.53V494.38A3.53,3.53,0,0,1,489.08,497.91Zm-31.44-7.06h27.91V177.18H457.64Z"/><path d="M549.42,528.44H50.58a3.54,3.54,0,0,1-3.53-3.53v-1.56a32.54,32.54,0,0,1,32.5-32.5h440.9a32.54,32.54,0,0,1,32.5,32.5v1.56A3.54,3.54,0,0,1,549.42,528.44ZM54.19,521.38H545.81a25.47,25.47,0,0,0-25.36-23.47H79.55A25.47,25.47,0,0,0,54.19,521.38Z"/><path d="M501.28,177.18H98.72a3.53,3.53,0,0,1-3.52-3.53v-28a3.53,3.53,0,0,1,3.52-3.53H501.28a3.53,3.53,0,0,1,3.52,3.53v28A3.53,3.53,0,0,1,501.28,177.18Zm-399-7.06h395.5V149.19H102.25Z"/></svg>