<svg id="Fitness_Color_Icons" data-name="Fitness Color Icons" xmlns="http://www.w3.org/2000/svg" viewBox="0 0 600 600"><path d="M592.21,300a33.65,33.65,0,0,1-33.64,33.64H424.12c0-.2,0-.42,0-.64V267c0-.23,0-.45,0-.66H558.57A33.64,33.64,0,0,1,592.21,300Z" fill="#64646e"/><path d="M592.21,300A33.56,33.56,0,0,1,590,312.07a33.79,33.79,0,0,1-9.11,1.25H467.34a20.91,20.91,0,0,1-20.91-20.91c0-8.33,0-17.87,0-26.06H558.57A33.64,33.64,0,0,1,592.21,300Z" fill="#8d91ac"/><path d="M300,133V467a41.18,41.18,0,0,1-82.36,0V133A41.18,41.18,0,0,1,300,133Z" fill="#64646e"/><path d="M300,133V467a41,41,0,0,1-9.71,26.56,41.23,41.23,0,0,1-54.19-39.09V120.42a41,41,0,0,1,9.7-26.54A41.2,41.2,0,0,1,300,133Z" fill="#8d91ac"/><path d="M382.36,133V467A41.18,41.18,0,0,1,300,467V133a41.18,41.18,0,0,1,82.36,0Z" fill="#64646e"/><path d="M382.36,133V467a41,41,0,0,1-9.71,26.56,41.23,41.23,0,0,1-54.19-39.09V120.42a41,41,0,0,1,9.7-26.54A41.2,41.2,0,0,1,382.36,133Z" fill="#8d91ac"/><path d="M175.87,333c0,.22,0,.44,0,.64H41.43a33.64,33.64,0,0,1-23.78-57.43,33.69,33.69,0,0,1,23.78-9.86H175.88c0,.21,0,.43,0,.66Z" fill="#64646e"/><path d="M175.88,266.35c0,.21,0,.43,0,.66v46.54H60a33.62,33.62,0,0,1-31.86-44.44,33,33,0,0,1,13.32-2.76Z" fill="#8d91ac"/><path d="M558.57,337.2H424.12a3.56,3.56,0,0,1-3.55-3.77c0-.14,0-.29,0-.43V267c0-.15,0-.3,0-.44a3.56,3.56,0,0,1,3.55-3.77H558.57a37.2,37.2,0,0,1,0,74.4Zm-130.89-7.11H558.57a30.1,30.1,0,0,0,0-60.19H427.68Z"/><path d="M217.64,225.23V374.77A41.78,41.78,0,0,1,175.87,333V267a41.75,41.75,0,0,1,41.77-41.77Z" fill="#64646e"/><path d="M217.64,225.23V341.7a41.78,41.78,0,0,1-20.88-36.18v-66a41.68,41.68,0,0,1,1-9.27A41.56,41.56,0,0,1,217.64,225.23Z" fill="#8d91ac"/><path d="M424.13,267v66a41.71,41.71,0,0,1-41.77,41.77V225.23A41.74,41.74,0,0,1,424.13,267Z" fill="#64646e"/><path d="M424.13,267v66a41.56,41.56,0,0,1-1.09,9.53,34,34,0,0,1-24.91-32.74V228.31A41.78,41.78,0,0,1,424.13,267Z" fill="#8d91ac"/><path d="M243.62,324.11a3.55,3.55,0,0,1-3.55-3.55V129.9a3.55,3.55,0,1,1,7.1,0V320.56A3.55,3.55,0,0,1,243.62,324.11Z"/><path d="M243.62,432.53a3.55,3.55,0,0,1-3.55-3.55V354.21a3.55,3.55,0,0,1,7.1,0V429A3.55,3.55,0,0,1,243.62,432.53Z"/><path d="M326.73,324.11a3.55,3.55,0,0,1-3.55-3.55V129.9a3.55,3.55,0,1,1,7.1,0V320.56A3.55,3.55,0,0,1,326.73,324.11Z"/><path d="M326.73,432.53a3.55,3.55,0,0,1-3.55-3.55V354.21a3.55,3.55,0,1,1,7.1,0V429A3.55,3.55,0,0,1,326.73,432.53Z"/><path d="M54.91,337.2a3.55,3.55,0,0,1-3.55-3.55V293a3.55,3.55,0,0,1,7.1,0v40.66A3.55,3.55,0,0,1,54.91,337.2Z"/><path d="M138.87,337.2a3.55,3.55,0,0,1-3.55-3.55V293a3.55,3.55,0,1,1,7.1,0v40.66A3.55,3.55,0,0,1,138.87,337.2Z"/><path d="M80.81,337.2a3.55,3.55,0,0,1-3.55-3.55V279.91a3.55,3.55,0,1,1,7.1,0v53.74A3.55,3.55,0,0,1,80.81,337.2Z"/><path d="M110.37,337.2a3.56,3.56,0,0,1-3.56-3.55V279.91a3.56,3.56,0,0,1,7.11,0v53.74A3.55,3.55,0,0,1,110.37,337.2Z"/><path d="M456.36,337.2a3.55,3.55,0,0,1-3.55-3.55V293a3.55,3.55,0,0,1,7.1,0v40.66A3.55,3.55,0,0,1,456.36,337.2Z"/><path d="M540.32,337.2a3.55,3.55,0,0,1-3.55-3.55V293a3.55,3.55,0,1,1,7.1,0v40.66A3.55,3.55,0,0,1,540.32,337.2Z"/><path d="M482.26,337.2a3.55,3.55,0,0,1-3.55-3.55V279.91a3.55,3.55,0,1,1,7.1,0v53.74A3.55,3.55,0,0,1,482.26,337.2Z"/><path d="M511.82,337.2a3.55,3.55,0,0,1-3.55-3.55V279.91a3.55,3.55,0,0,1,7.1,0v53.74A3.55,3.55,0,0,1,511.82,337.2Z"/><path d="M341.18,511.77A44.79,44.79,0,0,1,296.45,467V133a44.73,44.73,0,0,1,89.46,0V467a44.73,44.73,0,0,1-44.73,44.73Zm0-416.44A37.59,37.59,0,0,0,303.55,133V467a37.63,37.63,0,1,0,75.26,0V133a37.64,37.64,0,0,0-37.63-37.63Z"/><path d="M258.82,511.77A44.78,44.78,0,0,1,214.09,467V133a44.73,44.73,0,0,1,89.46,0V467a44.73,44.73,0,0,1-44.73,44.73Zm0-416.44A37.59,37.59,0,0,0,221.19,133V467a37.63,37.63,0,1,0,75.26,0V133a37.64,37.64,0,0,0-37.63-37.63Z"/><path d="M217.64,378.32A45.37,45.37,0,0,1,172.32,333V267a45.3,45.3,0,0,1,45.32-45.32,3.55,3.55,0,0,1,3.55,3.55V374.77A3.55,3.55,0,0,1,217.64,378.32Zm-3.55-149.38A38.21,38.21,0,0,0,179.42,267v66a38.27,38.27,0,0,0,34.67,38.06Z"/><path d="M175.88,337.2H41.43a37.2,37.2,0,0,1,0-74.4H175.88a3.56,3.56,0,0,1,3.55,3.77c0,.14,0,.29,0,.44v66c0,.14,0,.29,0,.43a3.56,3.56,0,0,1-3.55,3.77ZM41.43,269.9A30.13,30.13,0,0,0,11.34,300a30.12,30.12,0,0,0,30.09,30.09H172.32V269.9Z"/><path d="M382.36,378.32a3.55,3.55,0,0,1-3.55-3.55V225.23a3.55,3.55,0,0,1,3.55-3.55A45.31,45.31,0,0,1,427.68,267v66a45.84,45.84,0,0,1-1.18,10.33A45.11,45.11,0,0,1,382.36,378.32Zm3.55-149.38V371.06a38,38,0,0,0,33.68-29.34,38.48,38.48,0,0,0,1-8.72V267a38.07,38.07,0,0,0-23.79-35.4A37.53,37.53,0,0,0,385.91,228.94Z"/></svg>