<svg id="Fitness_Color_Icons" data-name="Fitness Color Icons" xmlns="http://www.w3.org/2000/svg" viewBox="0 0 600 600"><path d="M590.1,300c0,150.77-115,274.68-262.1,288.76q-13.83,1.34-28,1.34C139.79,590.1,9.9,460.21,9.9,300S139.79,9.9,300,9.9q14.17,0,28,1.34C475.07,25.32,590.1,149.23,590.1,300Z" fill="#4a4a4f"/><path d="M590.1,300c0,150.77-115,274.68-262.1,288.76C180.91,574.69,65.9,450.78,65.9,300S180.91,25.31,328,11.24C475.07,25.32,590.1,149.23,590.1,300Z" fill="#64646e"/><path d="M532.94,300c0,121.53-93.08,221.33-211.83,232-7,.62-14,1-21.11,1C171.35,532.94,67.06,428.65,67.06,300S171.35,67.06,300,67.06c7.12,0,14.15.33,21.11,1C439.86,78.67,532.94,178.47,532.94,300Z" fill="#7c8199"/><path d="M300,537C169.33,537,63,430.67,63,300S169.33,63,300,63c7.12,0,14.34.33,21.47,1a237,237,0,0,1,0,472C314.35,536.65,307.13,537,300,537ZM300,71.1C173.78,71.1,71.1,173.78,71.1,300S173.78,528.9,300,528.9c6.89,0,13.87-.31,20.75-.93C439.41,517.32,528.9,419.31,528.9,300S439.41,82.68,320.75,72C313.86,71.41,306.88,71.1,300,71.1Z"/><path d="M532.94,300c0,121.53-93.08,221.33-211.83,232C202.36,521.33,109.27,421.53,109.27,300S202.36,78.67,321.11,68C439.86,78.67,532.94,178.47,532.94,300Z" fill="#8d91ac"/><path d="M360.18,342.49l35.41,35.4-17.7,17.7-35.4-35.41a73.68,73.68,0,0,1-85,0L229.72,388l-7.61,7.6-17.69-17.7,35.4-35.4a73.68,73.68,0,0,1,0-85l-35.41-35.4,17.7-17.7,7.61,7.62,27.79,27.79a73.68,73.68,0,0,1,85,0l35.4-35.41,17.7,17.7-35.41,35.4A73.68,73.68,0,0,1,360.18,342.49Z" fill="#e2e2e2"/><path d="M360.18,342.49l35.41,35.4-17.7,17.7-35.4-35.41a73.68,73.68,0,0,1-85,0L229.72,388v0a14.25,14.25,0,0,1,0-20.16L255,342.49a73.72,73.72,0,0,1,0-85L229.72,232.2a14.26,14.26,0,0,1,0-20.17h0l27.79,27.79a73.68,73.68,0,0,1,85,0l35.4-35.41,17.7,17.7-35.41,35.4A73.68,73.68,0,0,1,360.18,342.49Z" fill="#fff"/><path d="M257.51,243.85a4,4,0,0,1-2.85-1.18l-35.4-35.4a4,4,0,0,1,5.71-5.71l33,33.05a77.7,77.7,0,0,1,84,0l33-33.05a4,4,0,0,1,5.71,5.71l-35.4,35.4a4,4,0,0,1-5.18.44,69.61,69.61,0,0,0-80.31,0A4,4,0,0,1,257.51,243.85Z"/><path d="M204.42,381.93a4,4,0,0,1-2.86-6.9l33.05-33a77.7,77.7,0,0,1,0-84l-33.05-33a4,4,0,0,1,5.71-5.71l35.4,35.4a4,4,0,0,1,.44,5.18,69.62,69.62,0,0,0,0,80.32,4,4,0,0,1-.44,5.18l-35.4,35.4A4,4,0,0,1,204.42,381.93Z"/><path d="M377.89,399.62a4,4,0,0,1-2.86-1.18l-33-33.05a77.7,77.7,0,0,1-84,0l-33,33.05a4,4,0,1,1-5.71-5.71l35.4-35.4a4,4,0,0,1,5.19-.44,69.57,69.57,0,0,0,80.31,0,4,4,0,0,1,5.18.44l35.4,35.4a4,4,0,0,1-2.85,6.89Z"/><path d="M395.58,381.93a4,4,0,0,1-2.85-1.19l-35.4-35.4a4,4,0,0,1-.44-5.18,69.62,69.62,0,0,0,0-80.32,4,4,0,0,1,.44-5.18l35.4-35.4a4,4,0,1,1,5.71,5.71l-33.05,33a77.7,77.7,0,0,1,0,84l33.05,33a4,4,0,0,1-2.86,6.9Z"/><path d="M332.13,332.13a45.43,45.43,0,1,1,0-64.26A45.25,45.25,0,0,1,332.13,332.13Z" fill="#4a4a4f"/><path d="M332.13,332.13a45.25,45.25,0,0,1-24.27,12.62,45.43,45.43,0,0,1,0-89.5,45.43,45.43,0,0,1,24.27,76.88Z" fill="#64646e"/><path d="M111.54,390.68a4,4,0,0,1-3.67-2.35A209.75,209.75,0,0,1,88.59,300a4,4,0,1,1,8.07,0A201.71,201.71,0,0,0,115.2,385a4,4,0,0,1-3.66,5.73Z"/><path d="M99,252.82a3.74,3.74,0,0,1-1-.13,4,4,0,0,1-2.92-4.91,212.6,212.6,0,0,1,73.5-113.4,4,4,0,1,1,5,6.32,204.54,204.54,0,0,0-70.7,109.07A4,4,0,0,1,99,252.82Z"/><path d="M294.39,567.1a4,4,0,1,1,0-8.08A264.84,264.84,0,0,0,464.7,497a4,4,0,0,1,5.2,6.18A273,273,0,0,1,294.39,567.1Z"/><path d="M500.39,470.91a4,4,0,0,1-2.59-.94,4,4,0,0,1-.51-5.69A263.36,263.36,0,0,0,544,382.48a4,4,0,1,1,7.62,2.69,271.44,271.44,0,0,1-48.15,84.3A4,4,0,0,1,500.39,470.91Z"/><path d="M270.27,296.91a3.77,3.77,0,0,1-.94-.11,4,4,0,0,1-3-4.86,34.24,34.24,0,0,1,6.08-12.84,4,4,0,1,1,6.43,4.88,26.37,26.37,0,0,0-4.66,9.83A4,4,0,0,1,270.27,296.91Z"/><path d="M280.06,327.21a4,4,0,0,1-2.63-1A34.56,34.56,0,0,1,267,310.33a4,4,0,0,1,7.71-2.41,26.56,26.56,0,0,0,8,12.19,4,4,0,0,1-2.64,7.1Z"/><path d="M300,537C169.33,537,63,430.67,63,300S169.33,63,300,63c7.12,0,14.34.33,21.47,1a237,237,0,0,1,0,472C314.35,536.65,307.13,537,300,537ZM300,71.1C173.78,71.1,71.1,173.78,71.1,300S173.78,528.9,300,528.9c6.89,0,13.87-.31,20.75-.93C439.41,517.32,528.9,419.31,528.9,300S439.41,82.68,320.75,72C313.86,71.41,306.88,71.1,300,71.1Z"/><path d="M300,594.14A294.13,294.13,0,0,1,92,92,292.17,292.17,0,0,1,300,5.86c9.49,0,19,.46,28.39,1.36a294.16,294.16,0,0,1,0,585.56C319,593.68,309.49,594.14,300,594.14Zm0-580.2C142.26,13.94,13.94,142.26,13.94,300S142.26,586.06,300,586.06c9.24,0,18.53-.44,27.61-1.32C475,570.63,586.06,448.22,586.06,300S475,29.37,327.61,15.26C318.53,14.38,309.24,13.94,300,13.94Z"/><path d="M300,349.47A49.47,49.47,0,1,1,335,335h0a49.06,49.06,0,0,1-26.43,13.75A50.24,50.24,0,0,1,300,349.47Zm0-90.86a41.39,41.39,0,1,0,7.14,82.16,41,41,0,0,0,22.11-11.5h0A41.38,41.38,0,0,0,300,258.61Z"/></svg>