<svg id="Fitness_Color_Icons" data-name="Fitness Color Icons" xmlns="http://www.w3.org/2000/svg" viewBox="0 0 600 600"><path d="M523,251.63V279a43.1,43.1,0,0,1-43.11,43.11h-403A43.11,43.11,0,0,1,33.72,279V251.63A111.7,111.7,0,0,1,141.58,140c1.27-.05,2.55-.07,3.85-.07H411.24A111.7,111.7,0,0,1,523,251.63Z" fill="#bc7439"/><path d="M523,251.63V279a43.06,43.06,0,0,1-15.71,33.29H119.07A43.12,43.12,0,0,1,76,269.13V241.79A111.76,111.76,0,0,1,141.58,140c1.27-.05,2.55-.07,3.85-.07H411.24A111.7,111.7,0,0,1,523,251.63Z" fill="#c88342"/><path d="M357.05,61.45c-1.47-.14-3-.21-4.48-.21a48,48,0,0,0-48,48V140h21.59v-30.8a26.41,26.41,0,0,1,52.81,0V140h21.59v-30.8A48.06,48.06,0,0,0,357.05,61.45Z" fill="#64646e"/><path d="M357.05,61.45a48.07,48.07,0,0,0-43.51,47.78V140h12.62v-30.8a26.42,26.42,0,0,1,30.89-26,26.42,26.42,0,0,1,30.89,26V140h12.62v-30.8A48.06,48.06,0,0,0,357.05,61.45Z" fill="#8d91ac"/><path d="M208.59,61.34c-1.48-.14-3-.21-4.49-.21a48.06,48.06,0,0,0-48,48v30.79h21.6V109.13a26.43,26.43,0,0,1,26.4-26.41,25.42,25.42,0,0,1,4.49.39,26.43,26.43,0,0,1,21.91,26v30.79h21.6V109.13A48.07,48.07,0,0,0,208.59,61.34Z" fill="#64646e"/><path d="M208.59,61.34a48.06,48.06,0,0,0-43.51,47.79v30.79H177.7V109.13a26.43,26.43,0,0,1,26.4-26.41,25.42,25.42,0,0,1,4.49.39,25.39,25.39,0,0,1,4.48-.39,26.44,26.44,0,0,1,26.41,26.41v30.79H252.1V109.13A48.07,48.07,0,0,0,208.59,61.34Z" fill="#8d91ac"/><path d="M400.56,144.12H379a4.2,4.2,0,0,1-4.2-4.19v-30.8a22.21,22.21,0,1,0-44.41,0v30.8a4.2,4.2,0,0,1-4.2,4.19H304.57a4.2,4.2,0,0,1-4.2-4.19v-30.8a52.2,52.2,0,1,1,104.39,0v30.8A4.2,4.2,0,0,1,400.56,144.12Zm-17.39-8.39h13.2v-26.6a43.8,43.8,0,0,0-87.6,0v26.6H322v-26.6a30.61,30.61,0,0,1,61.21,0Z"/><path d="M252.1,144.12H230.5a4.2,4.2,0,0,1-4.19-4.2v-30.8a22.15,22.15,0,0,0-18.43-21.88,22.69,22.69,0,0,0-3.78-.32,22.23,22.23,0,0,0-22.2,22.2v30.8a4.2,4.2,0,0,1-4.2,4.2H156.1a4.2,4.2,0,0,1-4.2-4.2v-30.8a52.25,52.25,0,0,1,52.2-52.19c1.63,0,3.28.08,4.88.23a52.59,52.59,0,0,1,47.32,52v30.8A4.2,4.2,0,0,1,252.1,144.12Zm-17.4-8.4h13.2v-26.6a44.13,44.13,0,0,0-39.7-43.6h0c-1.34-.13-2.71-.19-4.08-.19a43.84,43.84,0,0,0-43.8,43.79v26.6h13.2v-26.6a30.64,30.64,0,0,1,30.6-30.6,30.21,30.21,0,0,1,5.21.45,30.52,30.52,0,0,1,25.39,30.15Z"/><path d="M523,251.63V279a43.1,43.1,0,0,1-43.11,43.11h-403A43.11,43.11,0,0,1,33.72,279V251.63q0-1.35,0-2.67H522.92Q523,250.28,523,251.63Z" fill="#ef9614"/><path d="M523,251.63V279a42.9,42.9,0,0,1-5.48,21H119.07A43.11,43.11,0,0,1,76,256.88V249h447Q523,250.28,523,251.63Z" fill="#f8a926"/><path d="M86.16,195.45a4.21,4.21,0,0,1-3.23-6.88c21.2-25.62,58.49-34,60.06-34.35a4.2,4.2,0,1,1,1.8,8.2h0c-.36.08-36.06,8.15-55.39,31.5A4.18,4.18,0,0,1,86.16,195.45Z"/><path d="M63.64,272.68a4.19,4.19,0,0,1-4.19-4.16c-.42-46.94,12.76-62.71,13.33-63.36a4.2,4.2,0,0,1,6.37,5.47c-.24.29-11.69,14.86-11.31,57.82a4.19,4.19,0,0,1-4.16,4.23Z"/><rect x="133.98" y="322.07" width="288.71" height="216.8" fill="#64646e"/><path d="M422.69,463.18V517.5H205.92a36.72,36.72,0,0,1-36.73-36.73V463.18Z" fill="#8d91ac"/><path d="M422.69,392.63V447H205.92a36.72,36.72,0,0,1-36.73-36.73V392.63Z" fill="#8d91ac"/><path d="M422.69,322.07V376.4H205.92a36.73,36.73,0,0,1-36.73-36.74V322.07Z" fill="#8d91ac"/><path d="M422.68,396.83H134a4.2,4.2,0,0,1,0-8.4h288.7a4.2,4.2,0,0,1,0,8.4Z"/><path d="M422.68,467.38H134a4.2,4.2,0,0,1,0-8.4h288.7a4.2,4.2,0,0,1,0,8.4Z"/><path d="M48.11,543.07H10.56a4.2,4.2,0,1,1,0-8.4H48.11a4.2,4.2,0,0,1,0,8.4Z"/><path d="M523,543.07H76a4.2,4.2,0,1,1,0-8.4H523a4.2,4.2,0,0,1,0,8.4Z"/><path d="M589.44,543.07h-29.5a4.2,4.2,0,0,1,0-8.4h29.5a4.2,4.2,0,0,1,0,8.4Z"/><path d="M479.84,326.27h-403A47.36,47.36,0,0,1,29.52,279V251.63A115.89,115.89,0,0,1,141.43,135.8c1.31-.05,2.65-.08,4-.08H411.24A116,116,0,0,1,527.15,251.63V279a47.3,47.3,0,0,1-47.31,47.31ZM145.43,144.12c-1.25,0-2.48,0-3.7.07A107,107,0,0,0,37.92,251.63V279a39,39,0,0,0,38.91,38.92h403A38.91,38.91,0,0,0,518.75,279V251.63A107.63,107.63,0,0,0,411.24,144.12Z"/><path d="M479.84,326.27h-403A47.36,47.36,0,0,1,29.52,279V251.63c0-.94,0-1.86,0-2.79a4.19,4.19,0,0,1,4.19-4.08H522.92a4.19,4.19,0,0,1,4.19,4.08c0,.93,0,1.85,0,2.79V279a47.32,47.32,0,0,1-47.31,47.31ZM37.92,253.15V279a39,39,0,0,0,38.91,38.92h403A38.9,38.9,0,0,0,518.75,279V253.15Z"/><path d="M422.69,543.07H134a4.2,4.2,0,0,1-4.2-4.2V322.07a4.2,4.2,0,0,1,4.2-4.19H422.69a4.2,4.2,0,0,1,4.2,4.19v216.8A4.2,4.2,0,0,1,422.69,543.07Zm-284.51-8.4H418.49V326.27H138.18Z"/></svg>