<svg id="Fitness_Color_Icons" data-name="Fitness Color Icons" xmlns="http://www.w3.org/2000/svg" viewBox="0 0 600 600"><path d="M587,480.81c-8,21.18-26.93,36.47-49.51,36.47H62.47c-33.16,0-58.37-33-52.92-69.16L57,132.36c4.31-28.64,26.7-49.64,52.94-49.64H490c26.24,0,48.63,21,52.94,49.64l47.48,315.76A64.76,64.76,0,0,1,587,480.81Z" fill="#ef9614"/><path d="M587,480.81H116.83c-33.16,0-58.38-32.94-52.94-69.15l47.5-315.76a64.62,64.62,0,0,1,3.43-13.17H490c26.24,0,48.63,21,52.94,49.64l47.48,315.76A64.76,64.76,0,0,1,587,480.81Z" fill="#f8a926"/><path d="M550.17,180.18H49.83L57,132.35c4.33-28.64,26.72-49.63,53-49.63H490c26.23,0,48.62,21,53,49.63L546.83,158Z" fill="#bc7439"/><path d="M546.83,158h-403a41.64,41.64,0,0,1-41.18-47.83A62.51,62.51,0,0,1,113.8,82.72H490c26.23,0,48.62,21,53,49.63Z" fill="#c88342"/><path d="M535.51,521.15h-473c-16,0-30.8-7-41.76-19.74-12.49-14.52-18-34.14-15-53.85L53.21,131.79C57.82,101.12,81.69,78.85,110,78.85H490c28.28,0,52.15,22.27,56.76,52.94l47.49,315.76c3,19.71-2.5,39.33-15,53.85-11,12.73-25.79,19.74-41.76,19.74h-2ZM64.72,513.41H537.53c13.68,0,26.43-6.06,35.9-17.06,11-12.8,15.84-30.17,13.21-47.65l-47.5-315.76c-4-26.86-24.69-46.35-49.11-46.35H110c-24.42,0-45.08,19.49-49.11,46.35L13.36,448.7c-2.63,17.48,2.19,34.85,13.21,47.65,9.47,11,22.22,17.06,35.9,17.06h2.25Z"/><path d="M423,250.77v2.37a21.08,21.08,0,0,1-21.1,21.08H198.1A21.09,21.09,0,0,1,177,253.14v-2.37a21.1,21.1,0,0,1,21.1-21.1H401.9A21.1,21.1,0,0,1,423,250.77Z" fill="#e2e2e2"/><path d="M423,250.77v2.37a21,21,0,0,1-.91,6.13H225.27a21.09,21.09,0,0,1-21.1-21.09V235.8a21.1,21.1,0,0,1,.91-6.13H401.9A21.1,21.1,0,0,1,423,250.77Z" fill="#fff"/><path d="M79.8,311a2.55,2.55,0,0,1-.39,0A3.87,3.87,0,0,1,76,306.79l5.63-55.5a3.86,3.86,0,1,1,7.69.78l-5.62,55.5A3.88,3.88,0,0,1,79.8,311Z"/><path d="M63.16,449.4a3.71,3.71,0,0,1-.47,0,3.85,3.85,0,0,1-3.37-4.3L72,339.43a3.86,3.86,0,0,1,7.67.92L67,446A3.86,3.86,0,0,1,63.16,449.4Z"/><path d="M550.16,184.05H49.84A3.86,3.86,0,0,1,46,179.61l7.18-47.83C57.83,101.11,81.7,78.85,110,78.85H490c28.26,0,52.13,22.26,56.76,52.92L554,179.61a3.86,3.86,0,0,1-3.82,4.44ZM54.33,176.32H545.67l-6.52-43.4c-4-26.85-24.71-46.33-49.11-46.33H110c-24.4,0-45.06,19.48-49.11,46.34Z"/><path d="M353.38,307.39h0a7.39,7.39,0,0,1-7.39,7.39h-73.9a7.39,7.39,0,0,0-7.39,7.39v48.9a2.1,2.1,0,0,0,3.62,1.46c8.69-8.76,23.34-15.1,39.27-15.1,41.92,0,56.21,29.56,56.21,56.94,0,32.71-17.93,60.33-58.88,60.33-29.75,0-49.86-14.93-57.15-38.29a7.42,7.42,0,0,1,7-9.68h1.92a7.26,7.26,0,0,1,6.88,5.18c5.77,18.28,21.1,28.25,41.31,28.25,29.32,0,42.65-19.38,42.65-45.55C347.57,388.2,333,372,305.41,372c-17.07,0-30.47,7.71-38,19.68A9.91,9.91,0,0,1,259,396.2h0A10.06,10.06,0,0,1,249,386.13V307.39a7.39,7.39,0,0,1,7.39-7.39H346A7.39,7.39,0,0,1,353.38,307.39Z" fill="#fff"/><path d="M401.9,278.09H198.1a25,25,0,0,1-25-24.95v-2.37a25,25,0,0,1,25-25H401.9a25,25,0,0,1,25,25v2.37a25.15,25.15,0,0,1-1.07,7.25A24.83,24.83,0,0,1,401.9,278.09ZM198.1,233.54a17.25,17.25,0,0,0-17.23,17.23v2.37a17.24,17.24,0,0,0,17.23,17.22H401.9a17.14,17.14,0,0,0,16.49-12.21,17.37,17.37,0,0,0,.74-5v-2.37a17.25,17.25,0,0,0-17.23-17.23Z"/></svg>