<svg id="Fitness_Color_Icons" data-name="Fitness Color Icons" xmlns="http://www.w3.org/2000/svg" viewBox="0 0 600 600"><rect x="279.71" y="59.13" width="40.85" height="488.64" fill="#64646e"/><path d="M320.56,59.13V516.85a40.86,40.86,0,0,1-23.84-37.14V59.13Z" fill="#8d91ac"/><path d="M455.26,34.73a24,24,0,0,1-.33,4,24.37,24.37,0,0,1-24.07,20.41H169.42a24.41,24.41,0,1,1,0-48.81H430.86A24.41,24.41,0,0,1,455.26,34.73Z" fill="#585860"/><path d="M455.26,34.73a24,24,0,0,1-.33,4H199.5a24.4,24.4,0,0,1-24.4-24.41,24,24,0,0,1,.33-4H430.86A24.41,24.41,0,0,1,455.26,34.73Z" fill="#64646e"/><path d="M498.23,589.68H102a41.89,41.89,0,0,1,41.9-41.91H456.33a41.86,41.86,0,0,1,41.9,41.91Z" fill="#585860"/><path d="M494.79,573H139.51A41.62,41.62,0,0,1,148,547.77H456.33A41.93,41.93,0,0,1,494.79,573Z" fill="#64646e"/><path d="M558,208.33V237a19.83,19.83,0,0,0-2.06-.12h-19a13,13,0,0,0-1.52.08V208.33a83.14,83.14,0,0,0-83.06-83.05H382.45A11.3,11.3,0,0,1,371.14,114V59.13h22.61v43.54h58.59A105.77,105.77,0,0,1,558,208.33Z" fill="#8d91ac"/><path d="M558,240.91a3.44,3.44,0,0,1-.46,0,15.18,15.18,0,0,0-1.61-.09h-19a9.29,9.29,0,0,0-1.09.05,3.92,3.92,0,0,1-3.07-1,4,4,0,0,1-1.32-3V208.34a79.18,79.18,0,0,0-79.1-79.1H382.45A15.28,15.28,0,0,1,367.19,114V59.13a4,4,0,0,1,3.95-4h22.61a4,4,0,0,1,3.95,4V98.72h54.64A109.74,109.74,0,0,1,562,208.34V237a3.94,3.94,0,0,1-4,4Zm-18.66-8h14.7V208.34A101.82,101.82,0,0,0,452.34,106.63H393.75a4,4,0,0,1-4-4V63.09H375.1V114a7.35,7.35,0,0,0,7.35,7.34h69.89a87.11,87.11,0,0,1,87,87Z"/><path d="M229.13,59.13V114a11.29,11.29,0,0,1-11.3,11.3h-69.9a83.14,83.14,0,0,0-83.06,83.05v28.6a15,15,0,0,0-1.79-.1h-19a15.1,15.1,0,0,0-1.79.1v-28.6A105.77,105.77,0,0,1,147.93,102.67h58.59V59.13Z" fill="#8d91ac"/><path d="M64.87,240.89l-.45,0a11.78,11.78,0,0,0-1.34-.07h-19a11.9,11.9,0,0,0-1.34.07,4,4,0,0,1-4.41-3.93V208.34A109.74,109.74,0,0,1,147.93,98.72h54.64V59.13a4,4,0,0,1,4-4h22.61a4,4,0,0,1,4,4V114a15.28,15.28,0,0,1-15.26,15.26h-69.9a79.18,79.18,0,0,0-79.1,79.1v28.59a3.94,3.94,0,0,1-4,4Zm-18.65-8h14.7V208.34a87.11,87.11,0,0,1,87-87h69.9a7.34,7.34,0,0,0,7.34-7.34V63.09H210.48v39.58a4,4,0,0,1-4,4H147.93A101.82,101.82,0,0,0,46.22,208.34Z"/><path d="M320.56,551.73H279.71a4,4,0,0,1-4-4V59.13a4,4,0,0,1,4-4h40.85a4,4,0,0,1,4,4V547.77A4,4,0,0,1,320.56,551.73Zm-36.89-7.91H316.6V63.09H283.67Z"/><path d="M80,253.79v86.46a17,17,0,0,1-17,16.95h-19a17,17,0,0,1-17-16.95V253.79a17,17,0,0,1,17-17h19A17,17,0,0,1,80,253.79Z" fill="#ef9614"/><path d="M572.9,253.79v86.46a17,17,0,0,1-17,16.95h-19a17,17,0,0,1-17-16.95V253.79a17,17,0,0,1,17-17h19A17,17,0,0,1,572.9,253.79Z" fill="#ef9614"/><path d="M80,253.79v76.83H64.62a17,17,0,0,1-17-17V236.83H63.08A17,17,0,0,1,80,253.79Z" fill="#f8a926"/><path d="M572.9,253.79v76.83H557.48a17,17,0,0,1-17-17V236.83h15.42A17,17,0,0,1,572.9,253.79Z" fill="#f8a926"/><path d="M411.09,288.17l-38,89.46A78,78,0,0,1,352.83,406c-37.9,33.32-103.51,23.87-125.69-28.36l-38-89.46C168.24,238.82,203,184.58,256,180.62q3.07-.23,6.22-.23H338.1C394.56,180.39,432.85,236.92,411.09,288.17Z" fill="#bd3b43"/><path d="M411.09,288.17l-38,89.46A78,78,0,0,1,352.83,406c-31.83,2.52-65-13.34-79.55-47.56l-38-89.47c-13.84-32.62-3.37-67.38,20.64-88.34q3.07-.23,6.22-.23H338.1C394.56,180.39,432.85,236.92,411.09,288.17Z" fill="#ff807d"/><path d="M300.25,429.44a87.25,87.25,0,0,1-19.35-2.18,81.41,81.41,0,0,1-57.4-48.08l-38-89.47a79.84,79.84,0,0,1,5.39-73.53,83.2,83.2,0,0,1,64.73-39.51c2.19-.16,4.38-.24,6.51-.24H338.1a83.13,83.13,0,0,1,69.59,37.14,80.56,80.56,0,0,1,7,76.14l-38,89.47A81.9,81.9,0,0,1,355.44,409,83.5,83.5,0,0,1,300.25,429.44ZM262.17,184.35c-1.94,0-3.94.07-5.93.21a75.28,75.28,0,0,0-58.56,35.74,72,72,0,0,0-4.85,66.32l37.95,89.46a73.56,73.56,0,0,0,51.87,43.46c24.26,5.53,49.52-.65,67.57-16.52a74,74,0,0,0,19.27-26.94l38-89.46h0a71.74,71.74,0,0,0-6.36-68.68,75.24,75.24,0,0,0-63-33.59Z"/><path d="M437.8,423.73v3.45a28,28,0,0,1-28,28H190.46a28,28,0,0,1-28-28v-3.45a28,28,0,0,1,28-28H409.81A28,28,0,0,1,437.8,423.73Z" fill="#bd3b43"/><path d="M437.8,423.73v1.73H221.88a28,28,0,0,1-28-28v-1.72H409.81A28,28,0,0,1,437.8,423.73Z" fill="#ff807d"/><path d="M63.08,361.16h-19a20.94,20.94,0,0,1-20.92-20.91V253.79a21,21,0,0,1,20.92-20.92h19A21,21,0,0,1,84,253.79v86.46A20.94,20.94,0,0,1,63.08,361.16Zm-19-120.38a13,13,0,0,0-13,13v86.46a13,13,0,0,0,13,13h19a13,13,0,0,0,13-13V253.79a13,13,0,0,0-13-13Z"/><path d="M555.94,361.16h-19A20.94,20.94,0,0,1,516,340.25V253.79a21,21,0,0,1,20.92-20.92h19a21,21,0,0,1,20.92,20.92v86.46A20.94,20.94,0,0,1,555.94,361.16Zm-19-120.38a13,13,0,0,0-13,13v86.46a13,13,0,0,0,13,13h19a13,13,0,0,0,13-13V253.79a13,13,0,0,0-13-13Z"/><path d="M409.81,459.13H190.46a32,32,0,0,1-31.94-31.95v-3.45a32,32,0,0,1,31.94-31.94H409.81a32,32,0,0,1,31.94,31.94v3.45A32,32,0,0,1,409.81,459.13ZM190.46,399.7a24.06,24.06,0,0,0-24,24v3.45a24.06,24.06,0,0,0,24,24H409.81a24.06,24.06,0,0,0,24-24v-3.45a24.06,24.06,0,0,0-24-24Z"/><path d="M430.86,63.09H169.42a28.36,28.36,0,1,1,0-56.72H430.86a28.4,28.4,0,0,1,28.36,28.36,27.74,27.74,0,0,1-.39,4.63,28.33,28.33,0,0,1-28,23.73ZM169.42,14.28a20.45,20.45,0,1,0,0,40.9H430.86A20.44,20.44,0,0,0,451,38.07a20.8,20.8,0,0,0,.27-3.34,20.47,20.47,0,0,0-20.44-20.45Z"/><path d="M498.23,593.63H102a4,4,0,0,1-4-4,45.85,45.85,0,0,1,45.86-45.86H456.33a45.82,45.82,0,0,1,45.86,45.86,4,4,0,0,1-4,4Zm-392-7.91H494.08a37.94,37.94,0,0,0-37.75-34H143.94a37.94,37.94,0,0,0-37.74,34Z"/><path d="M42.27,299.52a4,4,0,0,1-4-3.95V276.23a4,4,0,1,1,7.91,0v19.34A4,4,0,0,1,42.27,299.52Z"/><path d="M42.27,346a4,4,0,0,1-4-4V308.11a4,4,0,0,1,7.91,0V342A4,4,0,0,1,42.27,346Z"/><path d="M535.7,299.52a4,4,0,0,1-4-3.95V276.23a4,4,0,1,1,7.91,0v19.34A4,4,0,0,1,535.7,299.52Z"/><path d="M535.7,346a4,4,0,0,1-4-4V308.11a4,4,0,0,1,7.91,0V342A4,4,0,0,1,535.7,346Z"/><path d="M254.22,400.51a3.94,3.94,0,0,1-3.65-2.43l-41.36-98.84a4,4,0,0,1,7.29-3.05L257.87,395a4,4,0,0,1-2.13,5.18A3.85,3.85,0,0,1,254.22,400.51Z"/><path d="M207.48,285a4,4,0,0,1-3.66-2.45c-.34-.83-8.24-20.62,6-38.36a4,4,0,1,1,6.17,4.95c-11.21,14-5.06,29.75-4.79,30.41a4,4,0,0,1-3.67,5.45Z"/></svg>