<svg id="Fitness_Color_Icons" data-name="Fitness Color Icons" xmlns="http://www.w3.org/2000/svg" viewBox="0 0 600 600"><path d="M590.38,246.08c0,34.47-63.57,64.38-156.65,79.24-40,6.4-85.5,10-133.73,10-160.37,0-290.38-40-290.38-89.26,0-40.14,86.17-74.07,204.73-85.31,27.07-2.57,55.84-4,85.65-4C460.37,156.82,590.38,196.79,590.38,246.08Z" fill="#ef9614"/><path d="M590.38,246.08c0,34.47-63.57,64.38-156.65,79.24-27.09,2.57-55.87,3.95-85.69,3.95-160.37,0-290.38-40-290.38-89.25,0-34.48,63.59-64.38,156.69-79.25,27.07-2.57,55.84-4,85.65-4C460.37,156.82,590.38,196.79,590.38,246.08Z" fill="#f8a926"/><path d="M553.44,246.08c0,22.57-37.57,42.69-96.13,55.71-43.22,9.59-97.88,15.33-157.31,15.33-140,0-253.44-31.8-253.44-71,0-26.46,51.62-49.55,128.16-61.77C211.67,178.41,254.43,175,300,175,440,175,553.44,206.84,553.44,246.08Z" fill="#6bb5f6"/><path d="M300,320.7c-68,0-132-7.44-180.17-20.94C70.28,285.87,43,266.8,43,246.08c0-27.77,49-52.19,131.17-65.3,38.16-6.09,81.67-9.32,125.84-9.32,68,0,132,7.44,180.17,20.94,49.55,13.89,76.84,33,76.84,53.68,0,24-35.13,45-98.93,59.2C412.65,315.36,358,320.7,300,320.7Zm0-142.09c-43.8,0-86.92,3.19-124.72,9.23-76,12.14-125.14,35-125.14,58.24,0,17,26.1,34,71.62,46.79,47.56,13.34,110.86,20.68,178.24,20.68,57.48,0,111.6-5.27,156.53-15.25,58.44-13,93.33-32.51,93.33-52.22,0-17-26.1-34-71.62-46.79C430.68,186,367.38,178.61,300,178.61Z"/><path d="M553.44,246.08c0,22.57-37.57,42.69-96.13,55.71-36.95,5.9-79.71,9.27-125.28,9.27-140,0-253.44-31.81-253.44-71,0-22.58,37.57-42.69,96.13-55.71C211.67,178.41,254.43,175,300,175,440,175,553.44,206.84,553.44,246.08Z" fill="#cce6f7"/><path d="M374.73,332.36v36.09a74.73,74.73,0,1,1-149.45,0V332.36q5.61.45,11.28.83,7.94.56,16,1c-1,0-2.06-.1-3.09-.15v27.82c0,33.69,22.61,61,50.51,61,12.07,0,23.15-5.12,31.84-13.64,11.4-11.18,18.68-28.24,18.68-47.36V334c-1,.05-2.06.11-3.1.15,4.84-.24,9.63-.53,14.38-.84Q368.32,332.88,374.73,332.36Z" fill="#ef9614"/><path d="M374.73,332.36v36.09a74.52,74.52,0,0,1-24.82,55.6,74.73,74.73,0,0,1-113.35-64V333.19q7.94.56,16,1c-1,0-2.06-.1-3.09-.15v27.82c0,33.69,22.61,61,50.51,61,12.07,0,23.15-5.12,31.84-13.64,17.65-9.51,30-30.89,30-55.73V333.31Q368.32,332.88,374.73,332.36Z" fill="#f8a926"/><path d="M40,285.88v88a15.2,15.2,0,0,1-30.4,0v-121A15.73,15.73,0,0,1,9.91,250c1.1,7.87,5.51,15.48,12.82,22.68A97.21,97.21,0,0,0,40,285.88Z" fill="#ef9614"/><path d="M40,285.88v85.63a16,16,0,0,1-2.09.14,15.21,15.21,0,0,1-15.21-15.2V272.66A97.21,97.21,0,0,0,40,285.88Z" fill="#f8a926"/><path d="M590.37,252.91v121a15.2,15.2,0,0,1-30.4,0v-88a108.33,108.33,0,0,0,12.13-8.58c10.4-8.55,16.66-17.74,18-27.32A15.73,15.73,0,0,1,590.37,252.91Z" fill="#ef9614"/><path d="M590.37,252.91v121a15.31,15.31,0,0,1-.87,5.08,14.52,14.52,0,0,1-2.2.16A15.21,15.21,0,0,1,572.1,364V277.3c10.4-8.55,16.66-17.74,18-27.32A15.73,15.73,0,0,1,590.37,252.91Z" fill="#f8a926"/><path d="M83.78,238.61a3.57,3.57,0,0,1-2.45-6.18c36-33.78,114.31-35.86,117.62-35.93H199a3.57,3.57,0,0,1,.08,7.14c-.79,0-78.91,2.1-112.89,34A3.55,3.55,0,0,1,83.78,238.61Z"/><path d="M153.71,288.26a2.49,2.49,0,0,1-.47,0c-53.48-7-71.51-28.87-72.26-29.8A3.57,3.57,0,0,1,86.55,254c.18.21,17.35,20.6,67.62,27.19a3.58,3.58,0,0,1-.46,7.12Z"/><path d="M300,320.7c-68,0-132-7.44-180.17-20.94C70.28,285.87,43,266.8,43,246.08c0-27.77,49-52.19,131.17-65.3,38.16-6.09,81.67-9.32,125.84-9.32,68,0,132,7.44,180.17,20.94,49.55,13.89,76.84,33,76.84,53.68,0,24-35.13,45-98.93,59.2C412.65,315.36,358,320.7,300,320.7Zm0-142.09c-43.8,0-86.92,3.19-124.72,9.23-76,12.14-125.14,35-125.14,58.24,0,17,26.1,34,71.62,46.79,47.56,13.34,110.86,20.68,178.24,20.68,57.48,0,111.6-5.27,156.53-15.25,58.44-13,93.33-32.51,93.33-52.22,0-17-26.1-34-71.62-46.79C430.68,186,367.38,178.61,300,178.61Z"/><path d="M300,338.91c-77.91,0-151.2-9.34-206.38-26.3-56.47-17.36-87.57-41-87.57-66.53,0-21,20.79-40.68,60.12-56.8,37.48-15.36,88.61-26.45,147.84-32.06,27.7-2.64,56.63-4,86-4,77.91,0,151.2,9.34,206.38,26.3,56.47,17.36,87.57,41,87.57,66.53,0,18.1-15.7,35.45-45.4,50.17-27.95,13.85-67.45,25.13-114.25,32.6C392.56,335.53,347.37,338.91,300,338.91Zm0-178.51c-29.13,0-57.83,1.32-85.31,3.93C96.05,175.57,13.2,209.19,13.2,246.08c0,21.82,30.08,43.58,82.52,59.7,54.52,16.76,127.06,26,204.28,26,46.34,0,92.38-3.44,133.17-10,93.33-14.9,153.63-44.62,153.63-75.71,0-21.82-30.08-43.58-82.52-59.7C449.76,169.63,377.22,160.4,300,160.4Z"/><path d="M24.83,392.7A18.8,18.8,0,0,1,6.06,373.92v-121a19.55,19.55,0,0,1,.34-3.61,3.58,3.58,0,0,1,7,.18c1,6.94,4.94,13.88,11.79,20.63A94,94,0,0,0,41.9,282.84a3.56,3.56,0,0,1,1.7,3v88A18.8,18.8,0,0,1,24.83,392.7ZM13.21,267V373.92a11.63,11.63,0,1,0,23.25,0V287.86A97.8,97.8,0,0,1,20.22,275.2,59,59,0,0,1,13.21,267Z"/><path d="M300,446.75a78.39,78.39,0,0,1-78.29-78.3V332.36a3.58,3.58,0,0,1,3.86-3.57c3.51.29,7.19.56,11.23.84,5.07.35,10.43.67,16,.95a3.57,3.57,0,0,1,.29,7.11v24.13c0,31.66,21.06,57.42,46.94,57.42,10.78,0,20.92-4.36,29.33-12.61,11.2-11,17.62-27.31,17.62-44.81V337.7a3.58,3.58,0,0,1,.28-7.12c4.62-.23,9.44-.51,14.33-.84,4.32-.28,8.65-.6,12.88-.95a3.55,3.55,0,0,1,2.71.94,3.6,3.6,0,0,1,1.15,2.63v36.09a78.34,78.34,0,0,1-78.3,78.3ZM228.86,336.22v32.23a71.15,71.15,0,0,0,142.29,0V336.22c-3,.23-6.07.45-9.11.65q-4,.27-8,.5v24.45c0,19.41-7.2,37.6-19.75,49.91-9.64,9.45-21.83,14.66-34.34,14.66-29.82,0-54.08-29-54.08-64.57V337.37c-3.3-.19-6.51-.4-9.6-.61C233.69,336.58,231.23,336.4,228.86,336.22Z"/><path d="M575.17,392.7a18.8,18.8,0,0,1-18.77-18.78v-88a3.56,3.56,0,0,1,1.7-3,105.27,105.27,0,0,0,11.73-8.29c9.92-8.17,15.55-16.6,16.72-25.06a3.58,3.58,0,0,1,7.05-.19,18.8,18.8,0,0,1,.34,3.61v121a18.77,18.77,0,0,1-18.77,18.78ZM563.54,287.86v86.06a11.63,11.63,0,1,0,23.25,0V267a66.3,66.3,0,0,1-12.42,13.06A107.06,107.06,0,0,1,563.54,287.86Z"/></svg>