<svg id="Fitness_Color_Icons" data-name="Fitness Color Icons" xmlns="http://www.w3.org/2000/svg" viewBox="0 0 600 600"><path d="M330.42,157.38v400a35,35,0,0,1-35,35H82.89a35,35,0,0,1-35-35v-400a35,35,0,0,1,35-35H295.45A35,35,0,0,1,330.42,157.38Z" fill="#7c8199"/><path d="M295.45,596H82.89a38.66,38.66,0,0,1-38.62-38.62v-400a38.66,38.66,0,0,1,38.62-38.62H295.45a38.67,38.67,0,0,1,38.63,38.62v400A38.67,38.67,0,0,1,295.45,596ZM82.89,126.08a31.33,31.33,0,0,0-31.3,31.3v400a31.33,31.33,0,0,0,31.3,31.29H295.45a31.34,31.34,0,0,0,31.31-31.29v-400a31.34,31.34,0,0,0-31.31-31.3Z"/><path d="M330.42,157.38V546.45H246.91A143.55,143.55,0,0,1,103.36,402.89V122.42H295.45A35,35,0,0,1,330.42,157.38Z" fill="#8d91ac"/><rect x="82.89" y="174.17" width="212.57" height="186.54" rx="24.04" fill="#8d91ac"/><path d="M270.3,364.37H108a28.85,28.85,0,0,1-28.82-28.82V199.32A28.85,28.85,0,0,1,108,170.5H270.3a28.85,28.85,0,0,1,28.81,28.82V335.55A28.85,28.85,0,0,1,270.3,364.37ZM108,177.83a21.51,21.51,0,0,0-21.49,21.49V335.55A21.51,21.51,0,0,0,108,357H270.3a21.51,21.51,0,0,0,21.49-21.49V199.32a21.51,21.51,0,0,0-21.49-21.49Z"/><path d="M152.63,467.78A9,9,0,0,1,166.19,460l27.63,16.08,27.63,16.07a9,9,0,0,1-.06,15.63l-27.74,15.89-27.73,15.88a9,9,0,0,1-13.51-7.86l.11-32Z" fill="#8d91ac"/><path d="M161.43,544.45a12.69,12.69,0,0,1-6.38-1.74,12.55,12.55,0,0,1-6.3-11l.22-63.93h0A12.69,12.69,0,0,1,168,456.85L223.29,489a12.69,12.69,0,0,1-.08,22l-55.47,31.77A12.72,12.72,0,0,1,161.43,544.45Zm-5.14-76.65-.22,63.92a5.36,5.36,0,0,0,8,4.68l55.47-31.77a5.36,5.36,0,0,0,0-9.29l-55.25-32.16a5.36,5.36,0,0,0-8.06,4.62Z"/><path d="M103.36,242.16a3.66,3.66,0,0,1-3.66-3.66V209.13a3.66,3.66,0,1,1,7.32,0V238.5A3.66,3.66,0,0,1,103.36,242.16Z"/><path d="M103.36,328.4a3.66,3.66,0,0,1-3.66-3.67V252.48a3.66,3.66,0,1,1,7.32,0v72.25A3.66,3.66,0,0,1,103.36,328.4Z"/><path d="M164,488.29a3.66,3.66,0,0,1-3.66-3.66v-11a3.66,3.66,0,1,1,7.32,0v11A3.66,3.66,0,0,1,164,488.29Z"/><path d="M164,527.62A3.66,3.66,0,0,1,160.3,524V495.81a3.66,3.66,0,0,1,7.32,0V524A3.66,3.66,0,0,1,164,527.62Z"/><path d="M295.45,596H82.89a38.66,38.66,0,0,1-38.62-38.62v-400a38.66,38.66,0,0,1,38.62-38.62H295.45a38.67,38.67,0,0,1,38.63,38.62v400A38.67,38.67,0,0,1,295.45,596ZM82.89,126.08a31.33,31.33,0,0,0-31.3,31.3v400a31.33,31.33,0,0,0,31.3,31.29H295.45a31.34,31.34,0,0,0,31.31-31.29v-400a31.34,31.34,0,0,0-31.31-31.3Z"/><path d="M496.58,455.52v13.73A105,105,0,0,1,394.35,364.36v-244a98.9,98.9,0,0,0-197.8,0,6.93,6.93,0,0,1-.32,2.1H183.15a6.93,6.93,0,0,1-.32-2.1,112.63,112.63,0,1,1,225.25,0v244A91.3,91.3,0,0,0,496.58,455.52Z" fill="#fff"/><path d="M496.58,472.92h-.09A108.72,108.72,0,0,1,390.68,364.36v-244a95.23,95.23,0,0,0-190.46,0,10.6,10.6,0,0,1-.5,3.21,3.66,3.66,0,0,1-3.49,2.55H183.15a3.67,3.67,0,0,1-3.49-2.56,10.53,10.53,0,0,1-.49-3.2,116.29,116.29,0,1,1,232.57,0v244c0,46.88,38.11,86.13,84.95,87.5a3.67,3.67,0,0,1,3.55,3.66v13.73a3.67,3.67,0,0,1-3.66,3.67ZM295.45,17.77A102.67,102.67,0,0,1,398,120.32v244c0,53.19,42.24,97.75,94.91,101.07V459a95,95,0,0,1-88.5-94.65v-244a109,109,0,0,0-217.92-1.56h6.4A102.68,102.68,0,0,1,295.45,17.77Z"/><path d="M515.71,489.71h-12a10.79,10.79,0,0,1-10.78-10.78v-33a10.79,10.79,0,0,1,10.78-10.78h12a3.66,3.66,0,0,1,3.66,3.66v47.25A3.66,3.66,0,0,1,515.71,489.71Zm-12-47.25a3.46,3.46,0,0,0-3.46,3.46v33a3.46,3.46,0,0,0,3.46,3.46h8.35V442.46Z"/><path d="M552.07,453.51v17.83a32.1,32.1,0,0,1-.17,3.42,32.85,32.85,0,0,1-32.67,29.41,3.53,3.53,0,0,1-3.52-3.52V424.2a3.53,3.53,0,0,1,3.52-3.53A32.86,32.86,0,0,1,551.9,450.1,31.91,31.91,0,0,1,552.07,453.51Z" fill="#64646e"/><path d="M519.23,507.84a7.2,7.2,0,0,1-7.18-7.19V424.2a7.2,7.2,0,0,1,7.18-7.19,36.43,36.43,0,0,1,36.5,36.5v17.83a36.42,36.42,0,0,1-36.5,36.5Zm.14-83.51v76.18a29.09,29.09,0,0,0,28.89-26.13,30.34,30.34,0,0,0,.15-3V453.51a30,30,0,0,0-.15-3,29.23,29.23,0,0,0-28.89-26.15Z"/><path d="M552.07,453.51v17.83a32.1,32.1,0,0,1-.17,3.42,12.33,12.33,0,0,1,0-24.66A31.91,31.91,0,0,1,552.07,453.51Z" fill="#fff"/><path d="M551.9,478.42h0a16,16,0,0,1,0-32,3.67,3.67,0,0,1,3.69,3.28,36.29,36.29,0,0,1,.19,3.79v17.83a36.49,36.49,0,0,1-.19,3.8A3.66,3.66,0,0,1,551.9,478.42Zm-3.49-23.85a8.66,8.66,0,0,0,0,15.71Z"/><path d="M221.39,507.8l-27.73,15.89-27.75,15.88a9,9,0,0,1-13.5-7.85l.11-32,.11-32A9,9,0,0,1,166.2,460l27.62,16.08,27.63,16.07A9,9,0,0,1,221.39,507.8Z" fill="#e6e6e6"/><path d="M161.43,544.45a12.69,12.69,0,0,1-6.38-1.74,12.55,12.55,0,0,1-6.3-11l.22-63.93A12.7,12.7,0,0,1,168,456.85L223.29,489a12.69,12.69,0,0,1-.08,22l-55.48,31.77A12.66,12.66,0,0,1,161.43,544.45Zm.23-82a5.37,5.37,0,0,0-5.37,5.35l-.22,63.93a5.35,5.35,0,0,0,8,4.66l55.48-31.76h0a5.36,5.36,0,0,0,0-9.28l-55.26-32.16A5.34,5.34,0,0,0,161.66,462.45Z"/><rect x="82.89" y="174.17" width="212.56" height="186.54" rx="25.15" fill="#e6e6e6"/><path d="M270.3,364.36H108a28.83,28.83,0,0,1-28.8-28.8V199.32A28.84,28.84,0,0,1,108,170.51H270.3a28.84,28.84,0,0,1,28.81,28.81V335.56A28.84,28.84,0,0,1,270.3,364.36ZM108,177.83a21.51,21.51,0,0,0-21.48,21.49V335.56A21.51,21.51,0,0,0,108,357H270.3a21.51,21.51,0,0,0,21.49-21.48V199.32a21.51,21.51,0,0,0-21.49-21.49Z"/><path d="M295.45,199.32V335.64A25.14,25.14,0,0,1,270.3,360.7H108a25.13,25.13,0,0,1-25.14-25.14V199.32A25.14,25.14,0,0,1,108,174.17H270.3A25.14,25.14,0,0,1,295.45,199.32Z" fill="#ccc"/><path d="M295.45,199.32V335.64H204.29a94.06,94.06,0,0,1-94.06-94.06V174.17H270.3A25.14,25.14,0,0,1,295.45,199.32Z" fill="#e6e6e6"/><path d="M221.39,507.8l-27.73,15.89-27.75,15.88a9,9,0,0,1-13.5-7.85l.11-32,.11-32a9,9,0,0,1,11.5-8.64,8.89,8.89,0,0,1,2.07.88l55.25,32.16a8.2,8.2,0,0,1,1.68,1.26A9,9,0,0,1,221.39,507.8Z" fill="#ef9614"/><path d="M223.13,493.44,205.2,503.71l-27.74,15.88a9,9,0,0,1-13.5-7.85l.11-32,.06-20.63a8.89,8.89,0,0,1,2.07.88l55.25,32.16A8.2,8.2,0,0,1,223.13,493.44Z" fill="#f8a926"/><path d="M103.36,242.16a3.66,3.66,0,0,1-3.66-3.66V209.13a3.66,3.66,0,1,1,7.32,0V238.5A3.66,3.66,0,0,1,103.36,242.16Z" fill="#fff"/><path d="M103.36,328.4a3.66,3.66,0,0,1-3.66-3.67V252.48a3.66,3.66,0,1,1,7.32,0v72.25A3.66,3.66,0,0,1,103.36,328.4Z" fill="#fff"/><path d="M164,488.29a3.66,3.66,0,0,1-3.66-3.66v-11a3.66,3.66,0,1,1,7.32,0v11A3.66,3.66,0,0,1,164,488.29Z"/><path d="M164,527.62A3.66,3.66,0,0,1,160.3,524V495.81a3.66,3.66,0,0,1,7.32,0V524A3.66,3.66,0,0,1,164,527.62Z"/><path d="M270.3,364.37H108a28.85,28.85,0,0,1-28.81-28.81V199.32A28.84,28.84,0,0,1,108,170.51H270.3a28.84,28.84,0,0,1,28.81,28.81V335.64A28.86,28.86,0,0,1,270.3,364.37ZM108,177.83a21.51,21.51,0,0,0-21.48,21.49V335.56A21.5,21.5,0,0,0,108,357H270.3a21.52,21.52,0,0,0,21.49-21.41V199.32a21.51,21.51,0,0,0-21.49-21.49Z"/><path d="M161.43,544.45a12.69,12.69,0,0,1-6.38-1.74,12.54,12.54,0,0,1-6.3-11l.22-63.94A12.7,12.7,0,0,1,168,456.85L223.29,489a11.74,11.74,0,0,1,2.4,1.82,12.65,12.65,0,0,1,3.81,10.66,12.53,12.53,0,0,1-6.3,9.49l-55.47,31.77A12.66,12.66,0,0,1,161.43,544.45Zm.23-82a5.41,5.41,0,0,0-3.23,1.08,5.24,5.24,0,0,0-2.14,4.27l-.22,63.93a5.36,5.36,0,0,0,8,4.67l55.48-31.77h0a5.22,5.22,0,0,0,2.66-4,5.33,5.33,0,0,0-1.61-4.52,4.56,4.56,0,0,0-1-.77l-55.25-32.16a5.67,5.67,0,0,0-1.22-.52A5.22,5.22,0,0,0,161.66,462.45Z"/></svg>