<svg id="Fitness_Color_Icons" data-name="Fitness Color Icons" xmlns="http://www.w3.org/2000/svg" viewBox="0 0 600 600"><path d="M213.63,379A102.13,102.13,0,1,1,111.56,276.88,102.09,102.09,0,0,1,213.63,379Z" fill="#ef9614"/><path d="M213.63,379a102.09,102.09,0,0,1-73.49,98,98.19,98.19,0,0,1-10.9.59,102.09,102.09,0,0,1-28.52-200.11A102.13,102.13,0,0,1,213.63,379Z" fill="#f8a926"/><path d="M185,379a73.44,73.44,0,0,1-73.43,73.43c-2.51,0-5-.13-7.43-.37A73.44,73.44,0,1,1,185,379Z" fill="#e28305"/><path d="M185,379a73.44,73.44,0,0,1-73.43,73.43c-2.51,0-5-.13-7.43-.37A73.43,73.43,0,0,1,135,312q3.76,0,7.44.36A73.45,73.45,0,0,1,185,379Z" fill="#ef9614"/><path d="M281.9,256.25,204.66,420.88A102.09,102.09,0,0,0,19.79,334.24L97.08,169.52c26.18-55.78,87-60.64,133.52-37.52C275.46,154.27,307.11,202.51,281.9,256.25Z" fill="#ef9614"/><path d="M281.9,256.25,204.66,420.88A102.1,102.1,0,0,0,60.47,290.58L114,176.47c23.1-49.22,73.16-58.79,116.6-44.47C275.46,154.27,307.11,202.51,281.9,256.25Z" fill="#f8a926"/><path d="M204,426a3.69,3.69,0,0,1-3.28-5.38q.31-.61.57-1.23a3.69,3.69,0,0,1,6.78,2.94c-.24.56-.5,1.11-.78,1.67A3.7,3.7,0,0,1,204,426Z"/><path d="M19.14,339.29A3.69,3.69,0,0,1,15.8,334l.64-1.36a3.7,3.7,0,1,1,6.69,3.15l-.64,1.35A3.69,3.69,0,0,1,19.14,339.29Z"/><path d="M205.71,422.16a3.62,3.62,0,0,1-1.43-.29,3.69,3.69,0,0,1-2-4.82c.66-1.6,1.28-3.2,1.85-4.73a3.69,3.69,0,0,1,7.16,1.26,3.56,3.56,0,0,1-.23,1.27c-.7,1.94-1.33,3.54-2,5A3.7,3.7,0,0,1,205.71,422.16Z"/><path d="M589.79,282.37l-42,156.27h0l-7.28,27.05a20.75,20.75,0,0,1-20,15.35H111.57a102.23,102.23,0,0,0,93.09-60.17l0-.05L281.9,256.25H569.77A20.73,20.73,0,0,1,589.79,282.37Z" fill="#ef9614"/><path d="M589.79,282.37l-42,156.27h0A20.77,20.77,0,0,1,529.28,450H184.91a102.39,102.39,0,0,0,19.75-29.07l0-.05L281.9,256.25H569.77A20.73,20.73,0,0,1,589.79,282.37Z" fill="#f8a926"/><path d="M205.71,422.16a3.62,3.62,0,0,1-1.43-.29,3.69,3.69,0,0,1-2-4.82c.66-1.6,1.28-3.2,1.85-4.73a3.69,3.69,0,0,1,7.16,1.26,3.56,3.56,0,0,1-.23,1.27c-.7,1.94-1.33,3.54-2,5A3.7,3.7,0,0,1,205.71,422.16Z"/><path d="M205.71,422.16a3.62,3.62,0,0,1-1.43-.29,3.69,3.69,0,0,1-2-4.82c.66-1.6,1.28-3.2,1.85-4.73a3.69,3.69,0,0,1,7.16,1.26,3.56,3.56,0,0,1-.23,1.27c-.7,1.94-1.33,3.54-2,5A3.7,3.7,0,0,1,205.71,422.16Z"/><path d="M77.57,264.35a3.7,3.7,0,0,1-3.39-5.15l23.46-54.75a3.69,3.69,0,1,1,6.79,2.91L81,262.11A3.69,3.69,0,0,1,77.57,264.35Z"/><path d="M107.67,196.22a3.69,3.69,0,0,1-3.33-5.29l9.45-19.81a3.69,3.69,0,0,1,6.67,3.18L111,194.11A3.69,3.69,0,0,1,107.67,196.22Z"/><path d="M59.62,373.67a3.44,3.44,0,0,1-.63-.06,3.68,3.68,0,0,1-3-4.26,56.42,56.42,0,0,1,55.58-46.79,3.7,3.7,0,0,1,0,7.39,49,49,0,0,0-48.3,40.65A3.7,3.7,0,0,1,59.62,373.67Z"/><path d="M63.84,405.06a3.68,3.68,0,0,1-3.34-2.13,55.81,55.81,0,0,1-4.93-17.12,3.7,3.7,0,0,1,7.34-.88,48.45,48.45,0,0,0,4.27,14.86,3.71,3.71,0,0,1-3.34,5.27Z"/><path d="M346,464.88H246.47a3.7,3.7,0,0,1,0-7.39H346a3.7,3.7,0,0,1,0,7.39Z"/><path d="M425.14,464.88H367.91a3.7,3.7,0,0,1,0-7.39h57.23a3.7,3.7,0,0,1,0,7.39Z"/><path d="M204.65,424.58a3.7,3.7,0,0,1-3.36-5.22,98.4,98.4,0,0,0-178.18-83.5,3.7,3.7,0,0,1-6.67-3.19L93.74,168c10.86-23.15,28.5-39.54,51-47.39,26.56-9.26,58.45-6.3,87.49,8.13,44.37,22,79.88,71.84,53,129.13h0L208,422.45A3.7,3.7,0,0,1,204.65,424.58ZM111.57,273.19A105.89,105.89,0,0,1,217.33,379q0,3.34-.21,6.64l61.44-130.93c24.77-52.8-8.35-98.89-49.6-119.38-27.28-13.54-57.08-16.37-81.77-7.76-20.6,7.18-36.77,22.24-46.77,43.55L39,302a105.72,105.72,0,0,1,72.56-28.78ZM281.9,256.25h0Z"/><path d="M111.56,484.73A105.77,105.77,0,1,1,217.33,379a104.78,104.78,0,0,1-21.58,64,105.59,105.59,0,0,1-84.19,41.74Zm0-204.16a99.85,99.85,0,0,0-10.45.55,98.44,98.44,0,1,0,10.45-.55Z"/><path d="M111.56,456.08c-2.59,0-5.21-.13-7.8-.38a77.27,77.27,0,1,1,7.8.38Zm0-146.85a69.74,69.74,0,0,0-7.06,139.12c2.34.23,4.71.35,7.06.35a69.74,69.74,0,1,0,0-139.47Z"/><path d="M520.45,484.74H111.57a3.69,3.69,0,1,1,0-7.38,98.5,98.5,0,0,0,89.69-57.94l.07-.16,77.23-164.58a3.7,3.7,0,0,1,3.34-2.12H569.77a24.43,24.43,0,0,1,23.59,30.77l-42,156.15,0,.13-7.28,27A24.48,24.48,0,0,1,520.45,484.74Zm-369.87-7.38H520.45a17.09,17.09,0,0,0,16.46-12.63l7.25-26.92,0-.13,42-156.27h0A17,17,0,0,0,569.77,260H284.25L208.06,422.31l0,.09a106.37,106.37,0,0,1-57.44,55Zm397.18-38.71h0Z"/></svg>